%TF.GenerationSoftware,KiCad,Pcbnew,7.0.6-1.fc37*%
%TF.CreationDate,2023-08-13T21:26:50-07:00*%
%TF.ProjectId,iot_led_strip_pcb,696f745f-6c65-4645-9f73-747269705f70,rev?*%
%TF.SameCoordinates,Original*%
%TF.FileFunction,Copper,L2,Bot*%
%TF.FilePolarity,Positive*%
%FSLAX46Y46*%
G04 Gerber Fmt 4.6, Leading zero omitted, Abs format (unit mm)*
G04 Created by KiCad (PCBNEW 7.0.6-1.fc37) date 2023-08-13 21:26:50*
%MOMM*%
%LPD*%
G01*
G04 APERTURE LIST*
%TA.AperFunction,ComponentPad*%
%ADD10R,1.700000X1.700000*%
%TD*%
%TA.AperFunction,ComponentPad*%
%ADD11O,1.700000X1.700000*%
%TD*%
%TA.AperFunction,ComponentPad*%
%ADD12R,4.600000X2.000000*%
%TD*%
%TA.AperFunction,ComponentPad*%
%ADD13O,4.200000X2.000000*%
%TD*%
%TA.AperFunction,ComponentPad*%
%ADD14O,2.000000X4.200000*%
%TD*%
%TA.AperFunction,ComponentPad*%
%ADD15C,0.800000*%
%TD*%
%TA.AperFunction,ComponentPad*%
%ADD16C,6.400000*%
%TD*%
%TA.AperFunction,ComponentPad*%
%ADD17O,2.100000X1.000000*%
%TD*%
%TA.AperFunction,ComponentPad*%
%ADD18O,1.800000X1.000000*%
%TD*%
%TA.AperFunction,ViaPad*%
%ADD19C,1.000000*%
%TD*%
%TA.AperFunction,ViaPad*%
%ADD20C,0.700000*%
%TD*%
%TA.AperFunction,ViaPad*%
%ADD21C,0.762000*%
%TD*%
%TA.AperFunction,ViaPad*%
%ADD22C,0.600000*%
%TD*%
%TA.AperFunction,Conductor*%
%ADD23C,1.000000*%
%TD*%
%TA.AperFunction,Conductor*%
%ADD24C,0.800000*%
%TD*%
%TA.AperFunction,Conductor*%
%ADD25C,0.400000*%
%TD*%
%TA.AperFunction,Conductor*%
%ADD26C,0.500000*%
%TD*%
%TA.AperFunction,Conductor*%
%ADD27C,2.000000*%
%TD*%
%TA.AperFunction,Conductor*%
%ADD28C,5.000000*%
%TD*%
G04 APERTURE END LIST*
D10*
%TO.P,J4,1,Pin_1*%
%TO.N,/12VDC*%
X37500000Y-96500000D03*
D11*
%TO.P,J4,2,Pin_2*%
%TO.N,/LED_driver/LED_G_GND*%
X37500000Y-93960000D03*
%TO.P,J4,3,Pin_3*%
%TO.N,/LED_driver/LED_R_GND*%
X37500000Y-91420000D03*
%TO.P,J4,4,Pin_4*%
%TO.N,/LED_driver/LED_B_GND*%
X37500000Y-88880000D03*
%TD*%
D10*
%TO.P,JP4,1,A*%
%TO.N,Net-(JP3-A)*%
X45800000Y-70800000D03*
D11*
%TO.P,JP4,2,B*%
%TO.N,/LED_driver/Din*%
X43260000Y-70800000D03*
%TD*%
D10*
%TO.P,J5,1,Pin_1*%
%TO.N,Earth*%
X67360000Y-87400000D03*
D11*
%TO.P,J5,2,Pin_2*%
%TO.N,+3.3V*%
X69900000Y-87400000D03*
%TO.P,J5,3,Pin_3*%
%TO.N,/SDA*%
X72440000Y-87400000D03*
%TO.P,J5,4,Pin_4*%
%TO.N,/SCL*%
X74980000Y-87400000D03*
%TD*%
D12*
%TO.P,J3,1,1*%
%TO.N,+5V*%
X85350000Y-95650000D03*
D13*
%TO.P,J3,2,2*%
%TO.N,Earth*%
X85350000Y-101950000D03*
D14*
%TO.P,J3,3,3*%
X90150000Y-98550000D03*
%TD*%
D15*
%TO.P,H4,1,1*%
%TO.N,Earth*%
X107600000Y-105000000D03*
X108302944Y-103302944D03*
X108302944Y-106697056D03*
X110000000Y-102600000D03*
D16*
X110000000Y-105000000D03*
D15*
X110000000Y-107400000D03*
X111697056Y-103302944D03*
X111697056Y-106697056D03*
X112400000Y-105000000D03*
%TD*%
D10*
%TO.P,J7,1,Pin_1*%
%TO.N,+5V*%
X37500000Y-78200000D03*
D11*
%TO.P,J7,2,Pin_2*%
%TO.N,/LED_driver/Din*%
X37500000Y-75660000D03*
%TO.P,J7,3,Pin_3*%
%TO.N,Earth*%
X37500000Y-73120000D03*
%TD*%
D15*
%TO.P,H1,1,1*%
%TO.N,Earth*%
X37600000Y-65000000D03*
X38302944Y-63302944D03*
X38302944Y-66697056D03*
X40000000Y-62600000D03*
D16*
X40000000Y-65000000D03*
D15*
X40000000Y-67400000D03*
X41697056Y-63302944D03*
X41697056Y-66697056D03*
X42400000Y-65000000D03*
%TD*%
%TO.P,H3,1,1*%
%TO.N,Earth*%
X37600000Y-105000000D03*
X38302944Y-103302944D03*
X38302944Y-106697056D03*
X40000000Y-102600000D03*
D16*
X40000000Y-105000000D03*
D15*
X40000000Y-107400000D03*
X41697056Y-103302944D03*
X41697056Y-106697056D03*
X42400000Y-105000000D03*
%TD*%
%TO.P,H2,1,1*%
%TO.N,Earth*%
X107600000Y-65000000D03*
X108302944Y-63302944D03*
X108302944Y-66697056D03*
X110000000Y-62600000D03*
D16*
X110000000Y-65000000D03*
D15*
X110000000Y-67400000D03*
X111697056Y-63302944D03*
X111697056Y-66697056D03*
X112400000Y-65000000D03*
%TD*%
D10*
%TO.P,JP1,1,A*%
%TO.N,+5V*%
X110644881Y-88095117D03*
D11*
%TO.P,JP1,2,B*%
%TO.N,VBUS*%
X110644881Y-85555117D03*
%TD*%
D17*
%TO.P,J1,1,SHELL*%
%TO.N,Earth*%
X108120066Y-82070104D03*
%TO.P,J1,2,SHELL*%
X108120066Y-73430023D03*
D18*
%TO.P,J1,3,SHELL*%
X112300152Y-73430023D03*
%TO.P,J1,4,SHELL*%
X112300152Y-82070104D03*
%TD*%
D12*
%TO.P,J2,1,1*%
%TO.N,/12VDC*%
X98350000Y-95650000D03*
D13*
%TO.P,J2,2,2*%
%TO.N,Earth*%
X98350000Y-101950000D03*
D14*
%TO.P,J2,3,3*%
X103150000Y-98550000D03*
%TD*%
D19*
%TO.N,Earth*%
X52560000Y-94680000D03*
X70500000Y-104000000D03*
D20*
X67312500Y-90831250D03*
D21*
X81000000Y-82000000D03*
D19*
X51160000Y-94680000D03*
X58650000Y-103900000D03*
D20*
X70038750Y-90831250D03*
X84900000Y-72600000D03*
X89900000Y-69800000D03*
D19*
X52650000Y-79760000D03*
X80000000Y-89900000D03*
X49810000Y-93120000D03*
X58150000Y-99850000D03*
X82500000Y-89900000D03*
X59400000Y-105200000D03*
X72100000Y-105200000D03*
X51250000Y-79720000D03*
D20*
X84900000Y-73500000D03*
D19*
X51000000Y-87000000D03*
X60700000Y-105200000D03*
D20*
X53600000Y-85800000D03*
X70062500Y-92281250D03*
D19*
X49900000Y-85600000D03*
X108100000Y-89500000D03*
X52600000Y-87000000D03*
D20*
X89900000Y-70800000D03*
D19*
X70500000Y-102700000D03*
D21*
X74724500Y-82724500D03*
D19*
%TO.N,+3.3V*%
X86150000Y-77920000D03*
D22*
%TO.N,/SDA*%
X72400000Y-79200000D03*
%TO.N,/SCL*%
X73517400Y-80568253D03*
%TO.N,/USB_to_Serial/DTR*%
X95267500Y-79062500D03*
X95547000Y-75947000D03*
%TO.N,/USB_to_Serial/RTS*%
X94920000Y-76790000D03*
X93095000Y-79505000D03*
D21*
%TO.N,/GPIO0*%
X83966403Y-79566403D03*
X84100000Y-77900000D03*
X91000000Y-83400000D03*
X88200000Y-82800000D03*
D19*
%TO.N,+5V*%
X68800000Y-100200000D03*
X71800000Y-100200000D03*
X70200000Y-98900000D03*
D20*
X101867830Y-87432170D03*
D19*
X57800000Y-91800000D03*
D20*
X99600000Y-77600000D03*
D19*
X70200000Y-100200000D03*
X71800000Y-98900000D03*
X55780000Y-79480000D03*
D20*
X56100000Y-87700000D03*
D19*
X57500000Y-83500000D03*
%TD*%
D23*
%TO.N,+3.3V*%
X71600000Y-89100000D02*
X75858334Y-89100000D01*
X75858334Y-89100000D02*
X86150000Y-78808334D01*
X69900000Y-87400000D02*
X71600000Y-89100000D01*
D24*
X86150000Y-77850000D02*
X86150000Y-77920000D01*
D23*
X86150000Y-78808334D02*
X86150000Y-77920000D01*
D24*
%TO.N,/SDA*%
X72440000Y-81040000D02*
X72440000Y-87400000D01*
X72400000Y-79200000D02*
X72400000Y-81000000D01*
X72400000Y-81000000D02*
X72440000Y-81040000D01*
%TO.N,/SCL*%
X74980000Y-87400000D02*
X73500000Y-85920000D01*
X73517400Y-80568253D02*
X73498051Y-80548904D01*
X73517400Y-85317400D02*
X73517400Y-80582600D01*
X73517400Y-80582600D02*
X73517400Y-80568253D01*
X73500000Y-85920000D02*
X73500000Y-85334800D01*
X73500000Y-85334800D02*
X73517400Y-85317400D01*
D25*
%TO.N,/USB_to_Serial/DTR*%
X95547000Y-75947000D02*
X95547000Y-78778000D01*
X95547000Y-78778000D02*
X95262500Y-79062500D01*
%TO.N,/USB_to_Serial/RTS*%
X94920000Y-76790000D02*
X93095000Y-78615000D01*
X93095000Y-78615000D02*
X93095000Y-79505000D01*
D26*
%TO.N,/GPIO0*%
X84100000Y-79432806D02*
X84100000Y-77900000D01*
X88800000Y-83400000D02*
X88200000Y-82800000D01*
X83966403Y-79566403D02*
X84100000Y-79432806D01*
X91000000Y-83400000D02*
X88800000Y-83400000D01*
D23*
%TO.N,+5V*%
X57550000Y-83650000D02*
X57550000Y-85550000D01*
D27*
X68800000Y-100200000D02*
X71800000Y-100200000D01*
D23*
X57550000Y-83550000D02*
X57500000Y-83500000D01*
D27*
X71800000Y-98900000D02*
X71800000Y-95850000D01*
D28*
X44300000Y-85000000D02*
X38500000Y-79200000D01*
D27*
X68800000Y-95850000D02*
X68600000Y-95650000D01*
D28*
X57927754Y-95650000D02*
X55377754Y-98200000D01*
D24*
X99600000Y-85164340D02*
X101867830Y-87432170D01*
D28*
X55377754Y-98200000D02*
X46400000Y-98200000D01*
D23*
X56100000Y-87700000D02*
X57550000Y-87700000D01*
D27*
X68800000Y-100200000D02*
X68800000Y-95850000D01*
D23*
X57550000Y-91550000D02*
X57800000Y-91800000D01*
D27*
X70200000Y-97250000D02*
X68600000Y-95650000D01*
D23*
X57927754Y-91927754D02*
X57927754Y-95650000D01*
X57800000Y-95522246D02*
X57927754Y-95650000D01*
X57550000Y-87700000D02*
X57550000Y-91550000D01*
X57550000Y-83650000D02*
X57550000Y-83550000D01*
D24*
X99600000Y-77600000D02*
X99600000Y-85164340D01*
D28*
X68600000Y-95650000D02*
X57927754Y-95650000D01*
D23*
X57550000Y-91550000D02*
X57927754Y-91927754D01*
X55780000Y-79480000D02*
X57550000Y-81250000D01*
D28*
X85350000Y-95650000D02*
X72000000Y-95650000D01*
D23*
X57550000Y-83450000D02*
X57550000Y-81250000D01*
X57550000Y-85550000D02*
X57550000Y-87700000D01*
D27*
X71800000Y-95850000D02*
X72000000Y-95650000D01*
D23*
X55780000Y-79480000D02*
X55775000Y-79475000D01*
D27*
X71800000Y-100200000D02*
X71800000Y-98900000D01*
D28*
X72000000Y-95650000D02*
X68600000Y-95650000D01*
X44300000Y-96100000D02*
X44300000Y-85000000D01*
D23*
X57500000Y-83500000D02*
X57550000Y-83450000D01*
D27*
X70200000Y-98900000D02*
X70200000Y-97250000D01*
D28*
X46400000Y-98200000D02*
X44300000Y-96100000D01*
D23*
X57800000Y-91800000D02*
X57800000Y-95522246D01*
%TD*%
%TA.AperFunction,Conductor*%
%TO.N,Earth*%
G36*
X41873465Y-106514256D02*
G01*
X41794601Y-106461561D01*
X41721680Y-106447056D01*
X41672432Y-106447056D01*
X41599511Y-106461561D01*
X41516816Y-106516816D01*
X41461561Y-106599511D01*
X41442158Y-106697056D01*
X41461561Y-106794601D01*
X41514256Y-106873465D01*
X40940795Y-106300004D01*
X40943365Y-106298430D01*
X41134870Y-106134870D01*
X41298430Y-105943365D01*
X41300004Y-105940795D01*
X41873465Y-106514256D01*
G37*
%TD.AperFunction*%
%TA.AperFunction,Conductor*%
G36*
X38701570Y-105943365D02*
G01*
X38865130Y-106134870D01*
X39056635Y-106298430D01*
X39059203Y-106300004D01*
X38485745Y-106873461D01*
X38538439Y-106794601D01*
X38557842Y-106697056D01*
X38538439Y-106599511D01*
X38483184Y-106516816D01*
X38400489Y-106461561D01*
X38327568Y-106447056D01*
X38278320Y-106447056D01*
X38205399Y-106461561D01*
X38126529Y-106514259D01*
X38699994Y-105940794D01*
X38701570Y-105943365D01*
G37*
%TD.AperFunction*%
%TA.AperFunction,Conductor*%
G36*
X39059204Y-103699995D02*
G01*
X39056635Y-103701570D01*
X38865130Y-103865130D01*
X38701570Y-104056635D01*
X38699995Y-104059204D01*
X38126534Y-103485743D01*
X38205399Y-103538439D01*
X38278320Y-103552944D01*
X38327568Y-103552944D01*
X38400489Y-103538439D01*
X38483184Y-103483184D01*
X38538439Y-103400489D01*
X38557842Y-103302944D01*
X38538439Y-103205399D01*
X38485743Y-103126534D01*
X39059204Y-103699995D01*
G37*
%TD.AperFunction*%
%TA.AperFunction,Conductor*%
G36*
X41461561Y-103205399D02*
G01*
X41442158Y-103302944D01*
X41461561Y-103400489D01*
X41516816Y-103483184D01*
X41599511Y-103538439D01*
X41672432Y-103552944D01*
X41721680Y-103552944D01*
X41794601Y-103538439D01*
X41873460Y-103485746D01*
X41300004Y-104059203D01*
X41298430Y-104056635D01*
X41134870Y-103865130D01*
X40943365Y-103701570D01*
X40940795Y-103699995D01*
X41514259Y-103126530D01*
X41461561Y-103205399D01*
G37*
%TD.AperFunction*%
%TA.AperFunction,Conductor*%
G36*
X111873465Y-106514256D02*
G01*
X111794601Y-106461561D01*
X111721680Y-106447056D01*
X111672432Y-106447056D01*
X111599511Y-106461561D01*
X111516816Y-106516816D01*
X111461561Y-106599511D01*
X111442158Y-106697056D01*
X111461561Y-106794601D01*
X111514256Y-106873465D01*
X110940795Y-106300004D01*
X110943365Y-106298430D01*
X111134870Y-106134870D01*
X111298430Y-105943365D01*
X111300004Y-105940795D01*
X111873465Y-106514256D01*
G37*
%TD.AperFunction*%
%TA.AperFunction,Conductor*%
G36*
X108701570Y-105943365D02*
G01*
X108865130Y-106134870D01*
X109056635Y-106298430D01*
X109059203Y-106300004D01*
X108485745Y-106873461D01*
X108538439Y-106794601D01*
X108557842Y-106697056D01*
X108538439Y-106599511D01*
X108483184Y-106516816D01*
X108400489Y-106461561D01*
X108327568Y-106447056D01*
X108278320Y-106447056D01*
X108205399Y-106461561D01*
X108126529Y-106514259D01*
X108699994Y-105940794D01*
X108701570Y-105943365D01*
G37*
%TD.AperFunction*%
%TA.AperFunction,Conductor*%
G36*
X109059204Y-103699995D02*
G01*
X109056635Y-103701570D01*
X108865130Y-103865130D01*
X108701570Y-104056635D01*
X108699995Y-104059204D01*
X108126535Y-103485744D01*
X108205399Y-103538439D01*
X108278320Y-103552944D01*
X108327568Y-103552944D01*
X108400489Y-103538439D01*
X108483184Y-103483184D01*
X108538439Y-103400489D01*
X108557842Y-103302944D01*
X108538439Y-103205399D01*
X108485743Y-103126534D01*
X109059204Y-103699995D01*
G37*
%TD.AperFunction*%
%TA.AperFunction,Conductor*%
G36*
X111461561Y-103205399D02*
G01*
X111442158Y-103302944D01*
X111461561Y-103400489D01*
X111516816Y-103483184D01*
X111599511Y-103538439D01*
X111672432Y-103552944D01*
X111721680Y-103552944D01*
X111794601Y-103538439D01*
X111873460Y-103485746D01*
X111300004Y-104059203D01*
X111298430Y-104056635D01*
X111134870Y-103865130D01*
X110943365Y-103701570D01*
X110940795Y-103699995D01*
X111514259Y-103126530D01*
X111461561Y-103205399D01*
G37*
%TD.AperFunction*%
%TA.AperFunction,Conductor*%
G36*
X41873465Y-66514256D02*
G01*
X41794601Y-66461561D01*
X41721680Y-66447056D01*
X41672432Y-66447056D01*
X41599511Y-66461561D01*
X41516816Y-66516816D01*
X41461561Y-66599511D01*
X41442158Y-66697056D01*
X41461561Y-66794601D01*
X41514256Y-66873465D01*
X40940795Y-66300004D01*
X40943365Y-66298430D01*
X41134870Y-66134870D01*
X41298430Y-65943365D01*
X41300004Y-65940795D01*
X41873465Y-66514256D01*
G37*
%TD.AperFunction*%
%TA.AperFunction,Conductor*%
G36*
X38701570Y-65943365D02*
G01*
X38865130Y-66134870D01*
X39056635Y-66298430D01*
X39059203Y-66300004D01*
X38485745Y-66873461D01*
X38538439Y-66794601D01*
X38557842Y-66697056D01*
X38538439Y-66599511D01*
X38483184Y-66516816D01*
X38400489Y-66461561D01*
X38327568Y-66447056D01*
X38278320Y-66447056D01*
X38205399Y-66461561D01*
X38126529Y-66514259D01*
X38699994Y-65940794D01*
X38701570Y-65943365D01*
G37*
%TD.AperFunction*%
%TA.AperFunction,Conductor*%
G36*
X39059204Y-63699995D02*
G01*
X39056635Y-63701570D01*
X38865130Y-63865130D01*
X38701570Y-64056635D01*
X38699995Y-64059204D01*
X38126534Y-63485743D01*
X38205399Y-63538439D01*
X38278320Y-63552944D01*
X38327568Y-63552944D01*
X38400489Y-63538439D01*
X38483184Y-63483184D01*
X38538439Y-63400489D01*
X38557842Y-63302944D01*
X38538439Y-63205399D01*
X38485742Y-63126533D01*
X39059204Y-63699995D01*
G37*
%TD.AperFunction*%
%TA.AperFunction,Conductor*%
G36*
X41461561Y-63205399D02*
G01*
X41442158Y-63302944D01*
X41461561Y-63400489D01*
X41516816Y-63483184D01*
X41599511Y-63538439D01*
X41672432Y-63552944D01*
X41721680Y-63552944D01*
X41794601Y-63538439D01*
X41873460Y-63485746D01*
X41300004Y-64059203D01*
X41298430Y-64056635D01*
X41134870Y-63865130D01*
X40943365Y-63701570D01*
X40940794Y-63699994D01*
X41514259Y-63126529D01*
X41461561Y-63205399D01*
G37*
%TD.AperFunction*%
%TA.AperFunction,Conductor*%
G36*
X111873466Y-66514257D02*
G01*
X111794601Y-66461561D01*
X111721680Y-66447056D01*
X111672432Y-66447056D01*
X111599511Y-66461561D01*
X111516816Y-66516816D01*
X111461561Y-66599511D01*
X111442158Y-66697056D01*
X111461561Y-66794601D01*
X111514256Y-66873465D01*
X110940795Y-66300004D01*
X110943365Y-66298430D01*
X111134870Y-66134870D01*
X111298430Y-65943365D01*
X111300004Y-65940795D01*
X111873466Y-66514257D01*
G37*
%TD.AperFunction*%
%TA.AperFunction,Conductor*%
G36*
X108701570Y-65943365D02*
G01*
X108865130Y-66134870D01*
X109056635Y-66298430D01*
X109059203Y-66300004D01*
X108485745Y-66873461D01*
X108538439Y-66794601D01*
X108557842Y-66697056D01*
X108538439Y-66599511D01*
X108483184Y-66516816D01*
X108400489Y-66461561D01*
X108327568Y-66447056D01*
X108278320Y-66447056D01*
X108205399Y-66461561D01*
X108126529Y-66514259D01*
X108699994Y-65940794D01*
X108701570Y-65943365D01*
G37*
%TD.AperFunction*%
%TA.AperFunction,Conductor*%
G36*
X109059204Y-63699995D02*
G01*
X109056635Y-63701570D01*
X108865130Y-63865130D01*
X108701570Y-64056635D01*
X108699995Y-64059204D01*
X108126535Y-63485744D01*
X108205399Y-63538439D01*
X108278320Y-63552944D01*
X108327568Y-63552944D01*
X108400489Y-63538439D01*
X108483184Y-63483184D01*
X108538439Y-63400489D01*
X108557842Y-63302944D01*
X108538439Y-63205399D01*
X108485742Y-63126533D01*
X109059204Y-63699995D01*
G37*
%TD.AperFunction*%
%TA.AperFunction,Conductor*%
G36*
X111461561Y-63205399D02*
G01*
X111442158Y-63302944D01*
X111461561Y-63400489D01*
X111516816Y-63483184D01*
X111599511Y-63538439D01*
X111672432Y-63552944D01*
X111721680Y-63552944D01*
X111794601Y-63538439D01*
X111873460Y-63485746D01*
X111300004Y-64059203D01*
X111298430Y-64056635D01*
X111134870Y-63865130D01*
X110943365Y-63701570D01*
X110940794Y-63699994D01*
X111514259Y-63126529D01*
X111461561Y-63205399D01*
G37*
%TD.AperFunction*%
%TA.AperFunction,Conductor*%
G36*
X52616353Y-61020502D02*
G01*
X52662846Y-61074158D01*
X52673154Y-61110054D01*
X52707262Y-61369131D01*
X52707263Y-61369136D01*
X52717621Y-61421211D01*
X52814561Y-61908564D01*
X52814563Y-61908572D01*
X52814564Y-61908576D01*
X52838002Y-61996047D01*
X52956916Y-62439843D01*
X53133713Y-62960668D01*
X53133713Y-62960667D01*
X53344189Y-63468801D01*
X53559537Y-63905485D01*
X53587452Y-63962090D01*
X53862456Y-64438410D01*
X54168024Y-64895725D01*
X54246926Y-64998553D01*
X54502843Y-65332071D01*
X54502847Y-65332076D01*
X54865492Y-65745593D01*
X55254407Y-66134508D01*
X55667924Y-66497153D01*
X56104275Y-66831976D01*
X56561590Y-67137544D01*
X57037910Y-67412548D01*
X57037915Y-67412550D01*
X57037916Y-67412551D01*
X57531199Y-67655811D01*
X58039333Y-67866287D01*
X58039332Y-67866287D01*
X58039338Y-67866289D01*
X58560157Y-68043084D01*
X59091424Y-68185436D01*
X59091427Y-68185436D01*
X59091436Y-68185439D01*
X59501470Y-68266999D01*
X59630864Y-68292737D01*
X59630866Y-68292737D01*
X59630870Y-68292738D01*
X59630869Y-68292738D01*
X59827689Y-68318649D01*
X60176166Y-68364528D01*
X60724996Y-68400500D01*
X60724998Y-68400500D01*
X77275002Y-68400500D01*
X77275004Y-68400500D01*
X77823834Y-68364528D01*
X78172310Y-68318649D01*
X78369131Y-68292738D01*
X78369130Y-68292738D01*
X78369133Y-68292737D01*
X78369136Y-68292737D01*
X78498529Y-68266999D01*
X78908564Y-68185439D01*
X78908572Y-68185436D01*
X78908576Y-68185436D01*
X79439843Y-68043084D01*
X79960662Y-67866289D01*
X79960661Y-67866289D01*
X79960668Y-67866287D01*
X79960667Y-67866287D01*
X80468801Y-67655811D01*
X80962084Y-67412551D01*
X80962084Y-67412550D01*
X80962090Y-67412548D01*
X81438410Y-67137544D01*
X81895725Y-66831976D01*
X82332076Y-66497153D01*
X82745593Y-66134508D01*
X83134508Y-65745593D01*
X83497153Y-65332076D01*
X83751959Y-65000006D01*
X106286911Y-65000006D01*
X106307250Y-65388114D01*
X106368051Y-65771995D01*
X106468644Y-66147414D01*
X106607919Y-66510239D01*
X106607923Y-66510247D01*
X106784365Y-66856535D01*
X106784369Y-66856541D01*
X106996042Y-67182491D01*
X106996054Y-67182508D01*
X107202876Y-67437911D01*
X107202877Y-67437912D01*
X108120147Y-66520641D01*
X108067449Y-66599511D01*
X108048046Y-66697056D01*
X108067449Y-66794601D01*
X108122704Y-66877296D01*
X108205399Y-66932551D01*
X108278320Y-66947056D01*
X108327568Y-66947056D01*
X108400489Y-66932551D01*
X108479349Y-66879857D01*
X107562086Y-67797121D01*
X107562087Y-67797122D01*
X107817491Y-68003945D01*
X107817508Y-68003957D01*
X108143458Y-68215630D01*
X108143464Y-68215634D01*
X108489752Y-68392076D01*
X108489760Y-68392080D01*
X108852585Y-68531355D01*
X109228004Y-68631948D01*
X109611885Y-68692749D01*
X109999994Y-68713089D01*
X110000006Y-68713089D01*
X110388114Y-68692749D01*
X110771995Y-68631948D01*
X111147414Y-68531355D01*
X111510239Y-68392080D01*
X111510247Y-68392076D01*
X111856535Y-68215634D01*
X111856541Y-68215630D01*
X112182501Y-68003950D01*
X112437912Y-67797121D01*
X111520646Y-66879855D01*
X111599511Y-66932551D01*
X111672432Y-66947056D01*
X111721680Y-66947056D01*
X111794601Y-66932551D01*
X111877296Y-66877296D01*
X111932551Y-66794601D01*
X111951954Y-66697056D01*
X111932551Y-66599511D01*
X111879854Y-66520645D01*
X112797121Y-67437912D01*
X113003950Y-67182501D01*
X113215630Y-66856541D01*
X113215634Y-66856535D01*
X113392076Y-66510247D01*
X113392080Y-66510239D01*
X113531355Y-66147414D01*
X113631948Y-65771995D01*
X113692749Y-65388114D01*
X113713089Y-65000006D01*
X113713089Y-64999993D01*
X113692749Y-64611885D01*
X113631948Y-64228004D01*
X113531355Y-63852585D01*
X113392080Y-63489760D01*
X113392076Y-63489752D01*
X113215628Y-63143455D01*
X113003957Y-62817508D01*
X113003945Y-62817491D01*
X112797122Y-62562087D01*
X112797121Y-62562086D01*
X111879858Y-63479348D01*
X111932551Y-63400489D01*
X111951954Y-63302944D01*
X111932551Y-63205399D01*
X111877296Y-63122704D01*
X111794601Y-63067449D01*
X111721680Y-63052944D01*
X111672432Y-63052944D01*
X111599511Y-63067449D01*
X111520641Y-63120147D01*
X112437912Y-62202877D01*
X112437911Y-62202876D01*
X112182508Y-61996054D01*
X112182491Y-61996042D01*
X111856541Y-61784369D01*
X111856535Y-61784365D01*
X111510247Y-61607923D01*
X111510239Y-61607919D01*
X111147414Y-61468644D01*
X110771995Y-61368051D01*
X110388114Y-61307250D01*
X110000006Y-61286911D01*
X109999994Y-61286911D01*
X109611885Y-61307250D01*
X109228004Y-61368051D01*
X108852585Y-61468644D01*
X108489760Y-61607919D01*
X108489752Y-61607923D01*
X108143455Y-61784371D01*
X107817502Y-61996047D01*
X107562086Y-62202877D01*
X108479354Y-63120145D01*
X108400489Y-63067449D01*
X108327568Y-63052944D01*
X108278320Y-63052944D01*
X108205399Y-63067449D01*
X108122704Y-63122704D01*
X108067449Y-63205399D01*
X108048046Y-63302944D01*
X108067449Y-63400489D01*
X108120143Y-63479352D01*
X107202877Y-62562086D01*
X106996047Y-62817502D01*
X106784371Y-63143455D01*
X106607923Y-63489752D01*
X106607919Y-63489760D01*
X106468644Y-63852585D01*
X106368051Y-64228004D01*
X106307250Y-64611885D01*
X106286911Y-64999993D01*
X106286911Y-65000006D01*
X83751959Y-65000006D01*
X83831976Y-64895725D01*
X84137544Y-64438410D01*
X84412548Y-63962090D01*
X84440463Y-63905485D01*
X84655811Y-63468801D01*
X84866287Y-62960668D01*
X85043084Y-62439843D01*
X85161998Y-61996047D01*
X85185436Y-61908576D01*
X85185436Y-61908572D01*
X85185439Y-61908564D01*
X85282379Y-61421211D01*
X85292737Y-61369136D01*
X85292738Y-61369131D01*
X85326846Y-61110054D01*
X85355568Y-61045127D01*
X85414834Y-61006035D01*
X85451768Y-61000500D01*
X109907290Y-61000500D01*
X109998534Y-61000500D01*
X110001444Y-61000567D01*
X110366116Y-61017427D01*
X110371913Y-61017964D01*
X110480074Y-61033051D01*
X110732044Y-61068199D01*
X110737722Y-61069261D01*
X111091693Y-61152514D01*
X111097277Y-61154104D01*
X111204451Y-61190024D01*
X111442033Y-61269654D01*
X111447437Y-61271747D01*
X111780071Y-61418619D01*
X111785266Y-61421206D01*
X112102923Y-61598141D01*
X112107867Y-61601203D01*
X112199145Y-61663729D01*
X112407850Y-61806695D01*
X112412469Y-61810183D01*
X112504116Y-61886286D01*
X112692210Y-62042478D01*
X112696501Y-62046389D01*
X112953609Y-62303497D01*
X112957521Y-62307789D01*
X112992573Y-62350000D01*
X113189813Y-62587527D01*
X113193307Y-62592153D01*
X113265502Y-62697545D01*
X113398796Y-62892132D01*
X113401861Y-62897081D01*
X113437279Y-62960668D01*
X113573594Y-63205399D01*
X113578788Y-63214723D01*
X113581383Y-63219935D01*
X113728246Y-63552548D01*
X113730349Y-63557977D01*
X113845895Y-63902722D01*
X113847489Y-63908321D01*
X113930733Y-64262252D01*
X113931803Y-64267975D01*
X113982035Y-64628086D01*
X113982572Y-64633883D01*
X113999433Y-64998553D01*
X113999500Y-65001464D01*
X113999500Y-104998534D01*
X113999433Y-105001445D01*
X113982572Y-105366116D01*
X113982035Y-105371913D01*
X113931803Y-105732024D01*
X113930733Y-105737747D01*
X113847489Y-106091678D01*
X113845895Y-106097277D01*
X113730349Y-106442022D01*
X113728246Y-106447451D01*
X113581383Y-106780064D01*
X113578788Y-106785276D01*
X113401861Y-107102918D01*
X113398796Y-107107867D01*
X113265502Y-107302455D01*
X113198683Y-107400000D01*
X113193317Y-107407833D01*
X113189808Y-107412479D01*
X112957521Y-107692210D01*
X112953599Y-107696513D01*
X112696513Y-107953599D01*
X112692210Y-107957521D01*
X112412479Y-108189808D01*
X112407833Y-108193317D01*
X112107867Y-108398796D01*
X112102918Y-108401861D01*
X111785276Y-108578788D01*
X111780064Y-108581383D01*
X111447451Y-108728246D01*
X111442022Y-108730349D01*
X111097277Y-108845895D01*
X111091678Y-108847489D01*
X110891387Y-108894597D01*
X110737742Y-108930733D01*
X110732024Y-108931803D01*
X110371913Y-108982035D01*
X110366116Y-108982572D01*
X110001445Y-108999433D01*
X109998534Y-108999500D01*
X40001466Y-108999500D01*
X39998555Y-108999433D01*
X39633883Y-108982572D01*
X39628086Y-108982035D01*
X39298176Y-108936015D01*
X39267972Y-108931802D01*
X39262260Y-108930734D01*
X38908321Y-108847489D01*
X38902722Y-108845895D01*
X38557977Y-108730349D01*
X38552548Y-108728246D01*
X38219935Y-108581383D01*
X38214723Y-108578788D01*
X37897081Y-108401861D01*
X37892132Y-108398796D01*
X37742148Y-108296056D01*
X37592153Y-108193307D01*
X37587527Y-108189813D01*
X37363709Y-108003957D01*
X37307789Y-107957521D01*
X37303497Y-107953609D01*
X37046389Y-107696501D01*
X37042478Y-107692210D01*
X36924949Y-107550676D01*
X36810183Y-107412469D01*
X36806695Y-107407850D01*
X36630064Y-107150000D01*
X36601203Y-107107867D01*
X36598138Y-107102918D01*
X36511323Y-106947056D01*
X36421206Y-106785266D01*
X36418616Y-106780064D01*
X36271747Y-106447437D01*
X36269654Y-106442033D01*
X36154104Y-106097277D01*
X36152514Y-106091693D01*
X36069261Y-105737722D01*
X36068199Y-105732044D01*
X36017964Y-105371913D01*
X36017427Y-105366116D01*
X36000567Y-105001444D01*
X36000534Y-105000006D01*
X36286911Y-105000006D01*
X36307250Y-105388114D01*
X36368051Y-105771995D01*
X36468644Y-106147414D01*
X36607919Y-106510239D01*
X36607923Y-106510247D01*
X36784365Y-106856535D01*
X36784369Y-106856541D01*
X36996042Y-107182491D01*
X36996054Y-107182508D01*
X37202876Y-107437911D01*
X37202877Y-107437912D01*
X38120147Y-106520641D01*
X38067449Y-106599511D01*
X38048046Y-106697056D01*
X38067449Y-106794601D01*
X38122704Y-106877296D01*
X38205399Y-106932551D01*
X38278320Y-106947056D01*
X38327568Y-106947056D01*
X38400489Y-106932551D01*
X38479349Y-106879857D01*
X37562086Y-107797121D01*
X37562087Y-107797122D01*
X37817491Y-108003945D01*
X37817508Y-108003957D01*
X38143458Y-108215630D01*
X38143464Y-108215634D01*
X38489752Y-108392076D01*
X38489760Y-108392080D01*
X38852585Y-108531355D01*
X39228004Y-108631948D01*
X39611885Y-108692749D01*
X39999994Y-108713089D01*
X40000006Y-108713089D01*
X40388114Y-108692749D01*
X40771995Y-108631948D01*
X41147414Y-108531355D01*
X41510239Y-108392080D01*
X41510247Y-108392076D01*
X41856535Y-108215634D01*
X41856541Y-108215630D01*
X42182501Y-108003950D01*
X42437912Y-107797121D01*
X41520646Y-106879855D01*
X41599511Y-106932551D01*
X41672432Y-106947056D01*
X41721680Y-106947056D01*
X41794601Y-106932551D01*
X41877296Y-106877296D01*
X41932551Y-106794601D01*
X41951954Y-106697056D01*
X41932551Y-106599511D01*
X41879855Y-106520646D01*
X42797121Y-107437912D01*
X43003950Y-107182501D01*
X43215630Y-106856541D01*
X43215634Y-106856535D01*
X43392076Y-106510247D01*
X43392080Y-106510239D01*
X43531355Y-106147414D01*
X43631948Y-105771995D01*
X43692749Y-105388114D01*
X43713089Y-105000006D01*
X106286911Y-105000006D01*
X106307250Y-105388114D01*
X106368051Y-105771995D01*
X106468644Y-106147414D01*
X106607919Y-106510239D01*
X106607923Y-106510247D01*
X106784365Y-106856535D01*
X106784369Y-106856541D01*
X106996042Y-107182491D01*
X106996054Y-107182508D01*
X107202876Y-107437911D01*
X107202877Y-107437912D01*
X108120147Y-106520641D01*
X108067449Y-106599511D01*
X108048046Y-106697056D01*
X108067449Y-106794601D01*
X108122704Y-106877296D01*
X108205399Y-106932551D01*
X108278320Y-106947056D01*
X108327568Y-106947056D01*
X108400489Y-106932551D01*
X108479349Y-106879857D01*
X107562086Y-107797121D01*
X107562087Y-107797122D01*
X107817491Y-108003945D01*
X107817508Y-108003957D01*
X108143458Y-108215630D01*
X108143464Y-108215634D01*
X108489752Y-108392076D01*
X108489760Y-108392080D01*
X108852585Y-108531355D01*
X109228004Y-108631948D01*
X109611885Y-108692749D01*
X109999994Y-108713089D01*
X110000006Y-108713089D01*
X110388114Y-108692749D01*
X110771995Y-108631948D01*
X111147414Y-108531355D01*
X111510239Y-108392080D01*
X111510247Y-108392076D01*
X111856535Y-108215634D01*
X111856541Y-108215630D01*
X112182501Y-108003950D01*
X112437912Y-107797121D01*
X111520646Y-106879855D01*
X111599511Y-106932551D01*
X111672432Y-106947056D01*
X111721680Y-106947056D01*
X111794601Y-106932551D01*
X111877296Y-106877296D01*
X111932551Y-106794601D01*
X111951954Y-106697056D01*
X111932551Y-106599511D01*
X111879855Y-106520646D01*
X112797121Y-107437912D01*
X113003950Y-107182501D01*
X113215630Y-106856541D01*
X113215634Y-106856535D01*
X113392076Y-106510247D01*
X113392080Y-106510239D01*
X113531355Y-106147414D01*
X113631948Y-105771995D01*
X113692749Y-105388114D01*
X113713089Y-105000006D01*
X113713089Y-104999993D01*
X113692749Y-104611885D01*
X113631948Y-104228004D01*
X113531355Y-103852585D01*
X113392080Y-103489760D01*
X113392076Y-103489752D01*
X113215628Y-103143455D01*
X113003957Y-102817508D01*
X113003945Y-102817491D01*
X112797122Y-102562087D01*
X112797121Y-102562086D01*
X111879858Y-103479348D01*
X111932551Y-103400489D01*
X111951954Y-103302944D01*
X111932551Y-103205399D01*
X111877296Y-103122704D01*
X111794601Y-103067449D01*
X111721680Y-103052944D01*
X111672432Y-103052944D01*
X111599511Y-103067449D01*
X111520642Y-103120147D01*
X112437912Y-102202877D01*
X112437911Y-102202876D01*
X112182508Y-101996054D01*
X112182491Y-101996042D01*
X111856541Y-101784369D01*
X111856535Y-101784365D01*
X111510247Y-101607923D01*
X111510239Y-101607919D01*
X111147414Y-101468644D01*
X110771995Y-101368051D01*
X110388114Y-101307250D01*
X110000006Y-101286911D01*
X109999994Y-101286911D01*
X109611885Y-101307250D01*
X109228004Y-101368051D01*
X108852585Y-101468644D01*
X108489760Y-101607919D01*
X108489752Y-101607923D01*
X108143455Y-101784371D01*
X107817502Y-101996047D01*
X107562086Y-102202877D01*
X108479353Y-103120144D01*
X108400489Y-103067449D01*
X108327568Y-103052944D01*
X108278320Y-103052944D01*
X108205399Y-103067449D01*
X108122704Y-103122704D01*
X108067449Y-103205399D01*
X108048046Y-103302944D01*
X108067449Y-103400489D01*
X108120143Y-103479352D01*
X107202877Y-102562086D01*
X106996047Y-102817502D01*
X106784371Y-103143455D01*
X106607923Y-103489752D01*
X106607919Y-103489760D01*
X106468644Y-103852585D01*
X106368051Y-104228004D01*
X106307250Y-104611885D01*
X106286911Y-104999993D01*
X106286911Y-105000006D01*
X43713089Y-105000006D01*
X43713089Y-104999993D01*
X43692749Y-104611885D01*
X43631948Y-104228004D01*
X43531355Y-103852585D01*
X43392080Y-103489760D01*
X43392076Y-103489752D01*
X43215628Y-103143455D01*
X43003957Y-102817508D01*
X43003945Y-102817491D01*
X42797122Y-102562087D01*
X42797121Y-102562086D01*
X41879858Y-103479348D01*
X41932551Y-103400489D01*
X41951954Y-103302944D01*
X41932551Y-103205399D01*
X41877296Y-103122704D01*
X41794601Y-103067449D01*
X41721680Y-103052944D01*
X41672432Y-103052944D01*
X41599511Y-103067449D01*
X41520642Y-103120147D01*
X42436789Y-102204000D01*
X82761765Y-102204000D01*
X82767668Y-102252617D01*
X82767670Y-102252626D01*
X82835405Y-102486477D01*
X82939783Y-102706450D01*
X83078098Y-102906832D01*
X83246757Y-103082424D01*
X83441405Y-103228694D01*
X83656995Y-103341843D01*
X83887941Y-103418944D01*
X83887949Y-103418946D01*
X84128251Y-103457998D01*
X84128266Y-103458000D01*
X85096000Y-103458000D01*
X85096000Y-102450000D01*
X85604000Y-102450000D01*
X85604000Y-103458000D01*
X86510775Y-103458000D01*
X86692682Y-103443314D01*
X86929090Y-103385045D01*
X87153080Y-103289612D01*
X87358870Y-103159479D01*
X87358871Y-103159478D01*
X87541106Y-102998032D01*
X87541115Y-102998022D01*
X87695091Y-102809436D01*
X87816834Y-102598573D01*
X87816836Y-102598570D01*
X87903172Y-102370920D01*
X87937250Y-102204000D01*
X95761765Y-102204000D01*
X95767668Y-102252617D01*
X95767670Y-102252626D01*
X95835405Y-102486477D01*
X95939783Y-102706450D01*
X96078098Y-102906832D01*
X96246757Y-103082424D01*
X96441405Y-103228694D01*
X96656995Y-103341843D01*
X96887941Y-103418944D01*
X96887949Y-103418946D01*
X97128251Y-103457998D01*
X97128266Y-103458000D01*
X98096000Y-103458000D01*
X98096000Y-102450000D01*
X98604000Y-102450000D01*
X98604000Y-103458000D01*
X99510775Y-103458000D01*
X99692682Y-103443314D01*
X99929090Y-103385045D01*
X100153080Y-103289612D01*
X100358870Y-103159479D01*
X100358871Y-103159478D01*
X100541106Y-102998032D01*
X100541115Y-102998022D01*
X100695091Y-102809436D01*
X100816834Y-102598573D01*
X100816836Y-102598570D01*
X100903172Y-102370920D01*
X100937250Y-102204000D01*
X99881116Y-102204000D01*
X99909493Y-102159844D01*
X99950000Y-102021889D01*
X99950000Y-101878111D01*
X99909493Y-101740156D01*
X99881116Y-101696000D01*
X100938234Y-101696000D01*
X100938234Y-101695999D01*
X100932331Y-101647382D01*
X100932329Y-101647373D01*
X100864594Y-101413522D01*
X100760216Y-101193549D01*
X100621901Y-100993167D01*
X100453242Y-100817575D01*
X100258594Y-100671305D01*
X100043004Y-100558156D01*
X99812058Y-100481055D01*
X99812050Y-100481053D01*
X99571748Y-100442001D01*
X99571734Y-100442000D01*
X98604000Y-100442000D01*
X98604000Y-101450000D01*
X98096000Y-101450000D01*
X98096000Y-100442000D01*
X97189225Y-100442000D01*
X97007317Y-100456685D01*
X96770909Y-100514954D01*
X96546919Y-100610387D01*
X96341129Y-100740520D01*
X96341128Y-100740521D01*
X96158893Y-100901967D01*
X96158884Y-100901977D01*
X96004908Y-101090563D01*
X95883165Y-101301426D01*
X95883163Y-101301429D01*
X95796827Y-101529079D01*
X95762749Y-101696000D01*
X96818884Y-101696000D01*
X96790507Y-101740156D01*
X96750000Y-101878111D01*
X96750000Y-102021889D01*
X96790507Y-102159844D01*
X96818884Y-102204000D01*
X95761765Y-102204000D01*
X87937250Y-102204000D01*
X86881116Y-102204000D01*
X86909493Y-102159844D01*
X86950000Y-102021889D01*
X86950000Y-101878111D01*
X86909493Y-101740156D01*
X86881116Y-101696000D01*
X87938234Y-101696000D01*
X87938234Y-101695999D01*
X87932331Y-101647382D01*
X87932329Y-101647373D01*
X87864594Y-101413522D01*
X87760216Y-101193549D01*
X87621901Y-100993167D01*
X87453242Y-100817575D01*
X87258594Y-100671305D01*
X87043004Y-100558156D01*
X86812058Y-100481055D01*
X86812050Y-100481053D01*
X86571748Y-100442001D01*
X86571734Y-100442000D01*
X85604000Y-100442000D01*
X85604000Y-101450000D01*
X85096000Y-101450000D01*
X85096000Y-100442000D01*
X84189225Y-100442000D01*
X84007317Y-100456685D01*
X83770909Y-100514954D01*
X83546919Y-100610387D01*
X83341129Y-100740520D01*
X83341128Y-100740521D01*
X83158893Y-100901967D01*
X83158884Y-100901977D01*
X83004908Y-101090563D01*
X82883165Y-101301426D01*
X82883163Y-101301429D01*
X82796827Y-101529079D01*
X82762749Y-101696000D01*
X83818884Y-101696000D01*
X83790507Y-101740156D01*
X83750000Y-101878111D01*
X83750000Y-102021889D01*
X83790507Y-102159844D01*
X83818884Y-102204000D01*
X82761765Y-102204000D01*
X42436789Y-102204000D01*
X42437912Y-102202877D01*
X42437911Y-102202876D01*
X42182508Y-101996054D01*
X42182491Y-101996042D01*
X41856541Y-101784369D01*
X41856535Y-101784365D01*
X41510247Y-101607923D01*
X41510239Y-101607919D01*
X41147414Y-101468644D01*
X40771995Y-101368051D01*
X40388114Y-101307250D01*
X40000006Y-101286911D01*
X39999994Y-101286911D01*
X39611885Y-101307250D01*
X39228004Y-101368051D01*
X38852585Y-101468644D01*
X38489760Y-101607919D01*
X38489752Y-101607923D01*
X38143455Y-101784371D01*
X37817502Y-101996047D01*
X37562086Y-102202877D01*
X38479353Y-103120144D01*
X38400489Y-103067449D01*
X38327568Y-103052944D01*
X38278320Y-103052944D01*
X38205399Y-103067449D01*
X38122704Y-103122704D01*
X38067449Y-103205399D01*
X38048046Y-103302944D01*
X38067449Y-103400489D01*
X38120144Y-103479353D01*
X37202877Y-102562086D01*
X36996047Y-102817502D01*
X36784371Y-103143455D01*
X36607923Y-103489752D01*
X36607919Y-103489760D01*
X36468644Y-103852585D01*
X36368051Y-104228004D01*
X36307250Y-104611885D01*
X36286911Y-104999993D01*
X36286911Y-105000006D01*
X36000534Y-105000006D01*
X36000500Y-104998534D01*
X36000500Y-97709460D01*
X36020502Y-97641339D01*
X36074158Y-97594846D01*
X36144432Y-97584742D01*
X36209012Y-97614236D01*
X36227368Y-97633951D01*
X36286738Y-97713261D01*
X36403792Y-97800887D01*
X36403794Y-97800888D01*
X36403796Y-97800889D01*
X36462875Y-97822924D01*
X36540795Y-97851988D01*
X36540803Y-97851990D01*
X36601350Y-97858499D01*
X36601355Y-97858499D01*
X36601362Y-97858500D01*
X36601368Y-97858500D01*
X38398632Y-97858500D01*
X38398638Y-97858500D01*
X38398645Y-97858499D01*
X38398649Y-97858499D01*
X38459196Y-97851990D01*
X38459199Y-97851989D01*
X38459201Y-97851989D01*
X38596204Y-97800889D01*
X38656149Y-97756015D01*
X38713261Y-97713261D01*
X38800887Y-97596207D01*
X38800887Y-97596206D01*
X38800889Y-97596204D01*
X38851989Y-97459201D01*
X38852710Y-97452501D01*
X38858499Y-97398649D01*
X38858500Y-97398632D01*
X38858500Y-95601367D01*
X38858499Y-95601350D01*
X38851990Y-95540803D01*
X38851988Y-95540795D01*
X38822924Y-95462875D01*
X38800889Y-95403796D01*
X38800888Y-95403794D01*
X38800887Y-95403792D01*
X38713261Y-95286738D01*
X38596207Y-95199112D01*
X38596203Y-95199110D01*
X38481192Y-95156213D01*
X38424356Y-95113667D01*
X38399546Y-95047146D01*
X38414638Y-94977772D01*
X38432525Y-94952820D01*
X38575714Y-94797277D01*
X38575724Y-94797265D01*
X38583290Y-94785684D01*
X38698860Y-94608791D01*
X38789296Y-94402616D01*
X38844564Y-94184368D01*
X38863156Y-93960000D01*
X38844564Y-93735632D01*
X38813624Y-93613451D01*
X38789297Y-93517387D01*
X38789296Y-93517386D01*
X38789296Y-93517384D01*
X38698860Y-93311209D01*
X38633184Y-93210684D01*
X38575724Y-93122734D01*
X38575720Y-93122729D01*
X38423237Y-92957091D01*
X38281515Y-92846784D01*
X38245576Y-92818811D01*
X38244347Y-92818146D01*
X38212320Y-92800814D01*
X38161929Y-92750802D01*
X38146576Y-92681485D01*
X38171136Y-92614872D01*
X38212320Y-92579186D01*
X38245576Y-92561189D01*
X38423240Y-92422906D01*
X38575722Y-92257268D01*
X38698860Y-92068791D01*
X38789296Y-91862616D01*
X38844564Y-91644368D01*
X38863156Y-91420000D01*
X38844564Y-91195632D01*
X38789296Y-90977384D01*
X38698860Y-90771209D01*
X38692140Y-90760924D01*
X38575724Y-90582734D01*
X38575720Y-90582729D01*
X38423237Y-90417091D01*
X38341382Y-90353381D01*
X38245576Y-90278811D01*
X38212319Y-90260813D01*
X38161929Y-90210802D01*
X38146576Y-90141485D01*
X38171136Y-90074872D01*
X38212320Y-90039186D01*
X38217762Y-90036241D01*
X38245576Y-90021189D01*
X38423240Y-89882906D01*
X38575722Y-89717268D01*
X38698860Y-89528791D01*
X38789296Y-89322616D01*
X38844564Y-89104368D01*
X38863156Y-88880000D01*
X38844564Y-88655632D01*
X38804131Y-88495965D01*
X38789297Y-88437387D01*
X38789296Y-88437386D01*
X38789296Y-88437384D01*
X38698860Y-88231209D01*
X38618522Y-88108242D01*
X38575724Y-88042734D01*
X38575720Y-88042729D01*
X38423237Y-87877091D01*
X38341382Y-87813381D01*
X38245576Y-87738811D01*
X38047574Y-87631658D01*
X38047572Y-87631657D01*
X38047571Y-87631656D01*
X37834639Y-87558557D01*
X37834630Y-87558555D01*
X37790476Y-87551187D01*
X37612569Y-87521500D01*
X37387431Y-87521500D01*
X37239211Y-87546233D01*
X37165369Y-87558555D01*
X37165360Y-87558557D01*
X36952428Y-87631656D01*
X36952426Y-87631658D01*
X36911142Y-87654000D01*
X36754426Y-87738810D01*
X36754424Y-87738811D01*
X36576762Y-87877091D01*
X36424279Y-88042729D01*
X36424275Y-88042734D01*
X36301139Y-88231209D01*
X36241887Y-88366292D01*
X36196206Y-88420640D01*
X36128394Y-88441664D01*
X36059980Y-88422688D01*
X36012686Y-88369737D01*
X36000500Y-88315678D01*
X36000500Y-81247900D01*
X36020502Y-81179779D01*
X36074158Y-81133286D01*
X36144432Y-81123182D01*
X36209012Y-81152676D01*
X36220613Y-81164123D01*
X36265503Y-81214565D01*
X36310766Y-81265428D01*
X36310767Y-81265428D01*
X41254595Y-86209256D01*
X41288621Y-86271568D01*
X41291500Y-86298351D01*
X41291500Y-95965884D01*
X41291260Y-95971376D01*
X41289034Y-95996827D01*
X41287676Y-96012351D01*
X41289737Y-96083165D01*
X41291500Y-96143770D01*
X41291500Y-96187539D01*
X41294045Y-96231249D01*
X41297869Y-96362651D01*
X41297870Y-96362664D01*
X41303827Y-96403339D01*
X41304386Y-96408806D01*
X41306597Y-96446757D01*
X41306778Y-96449857D01*
X41322871Y-96541128D01*
X41329606Y-96579324D01*
X41348661Y-96709409D01*
X41359303Y-96749126D01*
X41360493Y-96754494D01*
X41367632Y-96794982D01*
X41405338Y-96920930D01*
X41439364Y-97047915D01*
X41454545Y-97086130D01*
X41456349Y-97091321D01*
X41468139Y-97130703D01*
X41468143Y-97130714D01*
X41488066Y-97176900D01*
X41520209Y-97251415D01*
X41568751Y-97373602D01*
X41568753Y-97373606D01*
X41568754Y-97373608D01*
X41588268Y-97409799D01*
X41590664Y-97414748D01*
X41606947Y-97452497D01*
X41633797Y-97499003D01*
X41672677Y-97566344D01*
X41708032Y-97631914D01*
X41735072Y-97682063D01*
X41735083Y-97682080D01*
X41748095Y-97700662D01*
X41758666Y-97715760D01*
X41761605Y-97720371D01*
X41782175Y-97756000D01*
X41782179Y-97756005D01*
X41782185Y-97756015D01*
X41853637Y-97851990D01*
X41860686Y-97861458D01*
X41936086Y-97969141D01*
X41963426Y-97999863D01*
X41966892Y-98004118D01*
X41991450Y-98037105D01*
X42081672Y-98132734D01*
X42110767Y-98165428D01*
X42141712Y-98196373D01*
X42231946Y-98292015D01*
X42263452Y-98318452D01*
X42267494Y-98322155D01*
X43717071Y-99771733D01*
X44177836Y-100232498D01*
X44181550Y-100236550D01*
X44207988Y-100268057D01*
X44303609Y-100358271D01*
X44334573Y-100389235D01*
X44367278Y-100418340D01*
X44424593Y-100472414D01*
X44462897Y-100508552D01*
X44495884Y-100533111D01*
X44500146Y-100536583D01*
X44513339Y-100548323D01*
X44530858Y-100563913D01*
X44638536Y-100639310D01*
X44744000Y-100717825D01*
X44776636Y-100736667D01*
X44779612Y-100738385D01*
X44784244Y-100741336D01*
X44817931Y-100764924D01*
X44817934Y-100764926D01*
X44817936Y-100764927D01*
X44933645Y-100827316D01*
X45047496Y-100893048D01*
X45047501Y-100893051D01*
X45085254Y-100909336D01*
X45090204Y-100911732D01*
X45122447Y-100929118D01*
X45126398Y-100931248D01*
X45248559Y-100979779D01*
X45369288Y-101031857D01*
X45385041Y-101036573D01*
X45408689Y-101043653D01*
X45413882Y-101045458D01*
X45452088Y-101060636D01*
X45540205Y-101084246D01*
X45579057Y-101094657D01*
X45606089Y-101102749D01*
X45705016Y-101132367D01*
X45745520Y-101139508D01*
X45750861Y-101140692D01*
X45790597Y-101151340D01*
X45920678Y-101170393D01*
X46050143Y-101193222D01*
X46091196Y-101195612D01*
X46096653Y-101196169D01*
X46137347Y-101202131D01*
X46268737Y-101205953D01*
X46312454Y-101208500D01*
X46356250Y-101208500D01*
X46359766Y-101208602D01*
X46487649Y-101212323D01*
X46510609Y-101210314D01*
X46528613Y-101208740D01*
X46534105Y-101208500D01*
X55243639Y-101208500D01*
X55249132Y-101208740D01*
X55258641Y-101209571D01*
X55290105Y-101212324D01*
X55421524Y-101208500D01*
X55465300Y-101208500D01*
X55509003Y-101205954D01*
X55640407Y-101202131D01*
X55681102Y-101196169D01*
X55686556Y-101195612D01*
X55727611Y-101193222D01*
X55857078Y-101170393D01*
X55987156Y-101151340D01*
X56026890Y-101140692D01*
X56032237Y-101139508D01*
X56032254Y-101139505D01*
X56072738Y-101132367D01*
X56198684Y-101094661D01*
X56325665Y-101060637D01*
X56363888Y-101045451D01*
X56369070Y-101043651D01*
X56408466Y-101031857D01*
X56529169Y-100979790D01*
X56651356Y-100931249D01*
X56687582Y-100911715D01*
X56692477Y-100909345D01*
X56730255Y-100893050D01*
X56844098Y-100827322D01*
X56959823Y-100764924D01*
X56993516Y-100741330D01*
X56998115Y-100738399D01*
X57033754Y-100717825D01*
X57139212Y-100639313D01*
X57246895Y-100563914D01*
X57277617Y-100536571D01*
X57281860Y-100533115D01*
X57314858Y-100508551D01*
X57410488Y-100418327D01*
X57443180Y-100389235D01*
X57474126Y-100358288D01*
X57569766Y-100268057D01*
X57596207Y-100236544D01*
X57599900Y-100232513D01*
X59137012Y-98695402D01*
X59199322Y-98661379D01*
X59226105Y-98658500D01*
X67165500Y-98658500D01*
X67233621Y-98678502D01*
X67280114Y-98732158D01*
X67291500Y-98784500D01*
X67291500Y-100169595D01*
X67287819Y-100260936D01*
X67287819Y-100260947D01*
X67298835Y-100351670D01*
X67306188Y-100442763D01*
X67312585Y-100468714D01*
X67313957Y-100476203D01*
X67317176Y-100502717D01*
X67342601Y-100590497D01*
X67364476Y-100679247D01*
X67364477Y-100679250D01*
X67374949Y-100703827D01*
X67377505Y-100710999D01*
X67384939Y-100736662D01*
X67384941Y-100736667D01*
X67424118Y-100819233D01*
X67455329Y-100892486D01*
X67459373Y-100901977D01*
X67459945Y-100903318D01*
X67474221Y-100925895D01*
X67477894Y-100932563D01*
X67489350Y-100956705D01*
X67541270Y-101031924D01*
X67590113Y-101109162D01*
X67590115Y-101109166D01*
X67590117Y-101109168D01*
X67607837Y-101129170D01*
X67612526Y-101135155D01*
X67623697Y-101151339D01*
X67627706Y-101157146D01*
X67627711Y-101157153D01*
X67690073Y-101222077D01*
X67691010Y-101223053D01*
X67751625Y-101291474D01*
X67772329Y-101308378D01*
X67777914Y-101313531D01*
X67796425Y-101332802D01*
X67869483Y-101387701D01*
X67940286Y-101445510D01*
X67940293Y-101445514D01*
X67963425Y-101458870D01*
X67969771Y-101463063D01*
X67991135Y-101479117D01*
X68072055Y-101521587D01*
X68151213Y-101567289D01*
X68166806Y-101573202D01*
X68176192Y-101576762D01*
X68183132Y-101579884D01*
X68206795Y-101592304D01*
X68293474Y-101621242D01*
X68378943Y-101653656D01*
X68378945Y-101653656D01*
X68378947Y-101653657D01*
X68385464Y-101654987D01*
X68405124Y-101659000D01*
X68412472Y-101660968D01*
X68424217Y-101664890D01*
X68437814Y-101669430D01*
X68437816Y-101669430D01*
X68437818Y-101669431D01*
X68479173Y-101676151D01*
X68528013Y-101684089D01*
X68542941Y-101687136D01*
X68617579Y-101702374D01*
X68644284Y-101703449D01*
X68651854Y-101704214D01*
X68678221Y-101708500D01*
X68678222Y-101708500D01*
X68769595Y-101708500D01*
X68860939Y-101712181D01*
X68887466Y-101708959D01*
X68895066Y-101708500D01*
X71769595Y-101708500D01*
X71860939Y-101712181D01*
X71951670Y-101701164D01*
X72042757Y-101693811D01*
X72042757Y-101693810D01*
X72042768Y-101693810D01*
X72068722Y-101687411D01*
X72076196Y-101686042D01*
X72102720Y-101682823D01*
X72190497Y-101657398D01*
X72279248Y-101635523D01*
X72303846Y-101625041D01*
X72310986Y-101622497D01*
X72336662Y-101615061D01*
X72351705Y-101607923D01*
X72419233Y-101575881D01*
X72473255Y-101552863D01*
X72503316Y-101540056D01*
X72525895Y-101525776D01*
X72532562Y-101522105D01*
X72535038Y-101520930D01*
X72556704Y-101510650D01*
X72574493Y-101498370D01*
X72631924Y-101458729D01*
X72672640Y-101432981D01*
X72709168Y-101409883D01*
X72729169Y-101392162D01*
X72735158Y-101387471D01*
X72742744Y-101382234D01*
X72757148Y-101372293D01*
X72823053Y-101308989D01*
X72891474Y-101248375D01*
X72908386Y-101227660D01*
X72913532Y-101222083D01*
X72932802Y-101203575D01*
X72987701Y-101130516D01*
X73045510Y-101059714D01*
X73058871Y-101036570D01*
X73063060Y-101030232D01*
X73079117Y-101008865D01*
X73121587Y-100927944D01*
X73167289Y-100848787D01*
X73176766Y-100823795D01*
X73179885Y-100816864D01*
X73192304Y-100793205D01*
X73221242Y-100706525D01*
X73253656Y-100621057D01*
X73259002Y-100594865D01*
X73260965Y-100587536D01*
X73269431Y-100562182D01*
X73284089Y-100471985D01*
X73302374Y-100382421D01*
X73303449Y-100355714D01*
X73304215Y-100348140D01*
X73308500Y-100321779D01*
X73308500Y-100230404D01*
X73312181Y-100139061D01*
X73308960Y-100112532D01*
X73308500Y-100104932D01*
X73308500Y-99710775D01*
X88642000Y-99710775D01*
X88656685Y-99892682D01*
X88714954Y-100129090D01*
X88810387Y-100353080D01*
X88940520Y-100558870D01*
X88940521Y-100558871D01*
X89101967Y-100741106D01*
X89101977Y-100741115D01*
X89290563Y-100895091D01*
X89501426Y-101016834D01*
X89501429Y-101016836D01*
X89729080Y-101103173D01*
X89895999Y-101137248D01*
X89896000Y-101137248D01*
X89896000Y-100081115D01*
X89940156Y-100109493D01*
X90078111Y-100150000D01*
X90221889Y-100150000D01*
X90359844Y-100109493D01*
X90404000Y-100081115D01*
X90404000Y-101138234D01*
X90452616Y-101132331D01*
X90452628Y-101132328D01*
X90686477Y-101064594D01*
X90906450Y-100960216D01*
X91106832Y-100821901D01*
X91282424Y-100653242D01*
X91428694Y-100458594D01*
X91541843Y-100243004D01*
X91618944Y-100012058D01*
X91618946Y-100012050D01*
X91657998Y-99771748D01*
X91658000Y-99771733D01*
X91658000Y-99710775D01*
X101642000Y-99710775D01*
X101656685Y-99892682D01*
X101714954Y-100129090D01*
X101810387Y-100353080D01*
X101940520Y-100558870D01*
X101940521Y-100558871D01*
X102101967Y-100741106D01*
X102101977Y-100741115D01*
X102290563Y-100895091D01*
X102501426Y-101016834D01*
X102501429Y-101016836D01*
X102729080Y-101103173D01*
X102896000Y-101137248D01*
X102896000Y-100081115D01*
X102940156Y-100109493D01*
X103078111Y-100150000D01*
X103221889Y-100150000D01*
X103359844Y-100109493D01*
X103404000Y-100081115D01*
X103404000Y-101138234D01*
X103452616Y-101132331D01*
X103452628Y-101132328D01*
X103686477Y-101064594D01*
X103906450Y-100960216D01*
X104106832Y-100821901D01*
X104282424Y-100653242D01*
X104428694Y-100458594D01*
X104541843Y-100243004D01*
X104618944Y-100012058D01*
X104618946Y-100012050D01*
X104657998Y-99771748D01*
X104658000Y-99771733D01*
X104658000Y-98804000D01*
X103650000Y-98804000D01*
X103650000Y-98296000D01*
X104658000Y-98296000D01*
X104658000Y-97389225D01*
X104643314Y-97207317D01*
X104585045Y-96970909D01*
X104489612Y-96746919D01*
X104359479Y-96541129D01*
X104359478Y-96541128D01*
X104198032Y-96358893D01*
X104198022Y-96358884D01*
X104009436Y-96204908D01*
X103798573Y-96083165D01*
X103798570Y-96083163D01*
X103570920Y-95996827D01*
X103404000Y-95962749D01*
X103404000Y-97018884D01*
X103359844Y-96990507D01*
X103221889Y-96950000D01*
X103078111Y-96950000D01*
X102940156Y-96990507D01*
X102896000Y-97018884D01*
X102896000Y-95961765D01*
X102895999Y-95961765D01*
X102847382Y-95967668D01*
X102847373Y-95967670D01*
X102613522Y-96035405D01*
X102393549Y-96139783D01*
X102193167Y-96278098D01*
X102017575Y-96446757D01*
X101871305Y-96641405D01*
X101758156Y-96856995D01*
X101681055Y-97087941D01*
X101681053Y-97087949D01*
X101642001Y-97328251D01*
X101642000Y-97328266D01*
X101642000Y-98296000D01*
X102650000Y-98296000D01*
X102650000Y-98804000D01*
X101642000Y-98804000D01*
X101642000Y-99710775D01*
X91658000Y-99710775D01*
X91658000Y-98804000D01*
X90650000Y-98804000D01*
X90650000Y-98296000D01*
X91658000Y-98296000D01*
X91658000Y-97389225D01*
X91643314Y-97207317D01*
X91585045Y-96970909D01*
X91489612Y-96746919D01*
X91459088Y-96698649D01*
X95541500Y-96698649D01*
X95548009Y-96759196D01*
X95548011Y-96759204D01*
X95599110Y-96896202D01*
X95599112Y-96896207D01*
X95686738Y-97013261D01*
X95803792Y-97100887D01*
X95803794Y-97100888D01*
X95803796Y-97100889D01*
X95862875Y-97122924D01*
X95940795Y-97151988D01*
X95940803Y-97151990D01*
X96001350Y-97158499D01*
X96001355Y-97158499D01*
X96001362Y-97158500D01*
X96001368Y-97158500D01*
X100698632Y-97158500D01*
X100698638Y-97158500D01*
X100698645Y-97158499D01*
X100698649Y-97158499D01*
X100759196Y-97151990D01*
X100759199Y-97151989D01*
X100759201Y-97151989D01*
X100896204Y-97100889D01*
X100908986Y-97091321D01*
X101013261Y-97013261D01*
X101100887Y-96896207D01*
X101100887Y-96896206D01*
X101100889Y-96896204D01*
X101144960Y-96778045D01*
X101151988Y-96759204D01*
X101151990Y-96759196D01*
X101158499Y-96698649D01*
X101158500Y-96698632D01*
X101158500Y-94601367D01*
X101158499Y-94601350D01*
X101151990Y-94540803D01*
X101151988Y-94540795D01*
X101110326Y-94429097D01*
X101100889Y-94403796D01*
X101100888Y-94403794D01*
X101100887Y-94403792D01*
X101013261Y-94286738D01*
X100896207Y-94199112D01*
X100896202Y-94199110D01*
X100759204Y-94148011D01*
X100759196Y-94148009D01*
X100698649Y-94141500D01*
X100698638Y-94141500D01*
X96001362Y-94141500D01*
X96001350Y-94141500D01*
X95940803Y-94148009D01*
X95940795Y-94148011D01*
X95803797Y-94199110D01*
X95803792Y-94199112D01*
X95686738Y-94286738D01*
X95599112Y-94403792D01*
X95599110Y-94403797D01*
X95548011Y-94540795D01*
X95548009Y-94540803D01*
X95541500Y-94601350D01*
X95541500Y-96698649D01*
X91459088Y-96698649D01*
X91359479Y-96541129D01*
X91359478Y-96541128D01*
X91198032Y-96358893D01*
X91198022Y-96358884D01*
X91009436Y-96204908D01*
X90798573Y-96083165D01*
X90798570Y-96083163D01*
X90570920Y-95996827D01*
X90404000Y-95962749D01*
X90404000Y-97018884D01*
X90359844Y-96990507D01*
X90221889Y-96950000D01*
X90078111Y-96950000D01*
X89940156Y-96990507D01*
X89896000Y-97018884D01*
X89896000Y-95961765D01*
X89895999Y-95961765D01*
X89847382Y-95967668D01*
X89847373Y-95967670D01*
X89613522Y-96035405D01*
X89393549Y-96139783D01*
X89193167Y-96278098D01*
X89017575Y-96446757D01*
X88871305Y-96641405D01*
X88758156Y-96856995D01*
X88681055Y-97087941D01*
X88681053Y-97087949D01*
X88642001Y-97328251D01*
X88642000Y-97328266D01*
X88642000Y-98296000D01*
X89650000Y-98296000D01*
X89650000Y-98804000D01*
X88642000Y-98804000D01*
X88642000Y-99710775D01*
X73308500Y-99710775D01*
X73308500Y-98784500D01*
X73328502Y-98716379D01*
X73382158Y-98669886D01*
X73434500Y-98658500D01*
X85437540Y-98658500D01*
X85437546Y-98658500D01*
X85699857Y-98643222D01*
X86044984Y-98582367D01*
X86380712Y-98481857D01*
X86702501Y-98343050D01*
X87006000Y-98167825D01*
X87287104Y-97958551D01*
X87542012Y-97718057D01*
X87767278Y-97449597D01*
X87959853Y-97156800D01*
X88065001Y-96947431D01*
X88076721Y-96928486D01*
X88100889Y-96896204D01*
X88100890Y-96896202D01*
X88151987Y-96759208D01*
X88151988Y-96759204D01*
X88151988Y-96759203D01*
X88151989Y-96759201D01*
X88152080Y-96758346D01*
X88158958Y-96728715D01*
X88165988Y-96709402D01*
X88236996Y-96514310D01*
X88317816Y-96173306D01*
X88358500Y-95825225D01*
X88358500Y-95474775D01*
X88350203Y-95403792D01*
X88326280Y-95199110D01*
X88317816Y-95126694D01*
X88236996Y-94785690D01*
X88158958Y-94571282D01*
X88152080Y-94541650D01*
X88151989Y-94540799D01*
X88100889Y-94403796D01*
X88076725Y-94371517D01*
X88064996Y-94352558D01*
X87959853Y-94143200D01*
X87767278Y-93850403D01*
X87767276Y-93850400D01*
X87767273Y-93850396D01*
X87542022Y-93581954D01*
X87542016Y-93581948D01*
X87542012Y-93581943D01*
X87287104Y-93341449D01*
X87006000Y-93132175D01*
X86702501Y-92956950D01*
X86702493Y-92956946D01*
X86702488Y-92956944D01*
X86380719Y-92818146D01*
X86380718Y-92818145D01*
X86380712Y-92818143D01*
X86044984Y-92717633D01*
X86044985Y-92717633D01*
X85936566Y-92698516D01*
X85699857Y-92656778D01*
X85699853Y-92656777D01*
X85699849Y-92656777D01*
X85541293Y-92647542D01*
X85437546Y-92641500D01*
X85437540Y-92641500D01*
X59062254Y-92641500D01*
X58994133Y-92621498D01*
X58947640Y-92567842D01*
X58936254Y-92515500D01*
X58936254Y-91980397D01*
X58936558Y-91974218D01*
X58941134Y-91927756D01*
X58941134Y-91927749D01*
X58921664Y-91730061D01*
X58921663Y-91730059D01*
X58921663Y-91730053D01*
X58877416Y-91584196D01*
X58863995Y-91539950D01*
X58770349Y-91364750D01*
X58644322Y-91211186D01*
X58608217Y-91181555D01*
X58603647Y-91177413D01*
X58595405Y-91169171D01*
X58561379Y-91106859D01*
X58558500Y-91080076D01*
X58558500Y-88298597D01*
X66002000Y-88298597D01*
X66008505Y-88359093D01*
X66059555Y-88495964D01*
X66059555Y-88495965D01*
X66147095Y-88612904D01*
X66264034Y-88700444D01*
X66400906Y-88751494D01*
X66461402Y-88757999D01*
X66461415Y-88758000D01*
X67106000Y-88758000D01*
X67106000Y-87833674D01*
X67217685Y-87884680D01*
X67324237Y-87900000D01*
X67395763Y-87900000D01*
X67502315Y-87884680D01*
X67614000Y-87833674D01*
X67614000Y-88758000D01*
X68258585Y-88758000D01*
X68258597Y-88757999D01*
X68319093Y-88751494D01*
X68455964Y-88700444D01*
X68455965Y-88700444D01*
X68572904Y-88612904D01*
X68660444Y-88495965D01*
X68704618Y-88377530D01*
X68747165Y-88320694D01*
X68813685Y-88295883D01*
X68883059Y-88310974D01*
X68915372Y-88336222D01*
X68953400Y-88377530D01*
X68976762Y-88402908D01*
X69021057Y-88437384D01*
X69154424Y-88541189D01*
X69352426Y-88648342D01*
X69352427Y-88648342D01*
X69352428Y-88648343D01*
X69464227Y-88686723D01*
X69565365Y-88721444D01*
X69787431Y-88758500D01*
X69787442Y-88758500D01*
X69790288Y-88758736D01*
X69791383Y-88759158D01*
X69792571Y-88759357D01*
X69792530Y-88759601D01*
X69856524Y-88784296D01*
X69868977Y-88795211D01*
X70849659Y-89775893D01*
X70853801Y-89780463D01*
X70883432Y-89816568D01*
X71036996Y-89942595D01*
X71184036Y-90021189D01*
X71212196Y-90036241D01*
X71323790Y-90070093D01*
X71402295Y-90093908D01*
X71402296Y-90093908D01*
X71402299Y-90093909D01*
X71402303Y-90093909D01*
X71402307Y-90093910D01*
X71599996Y-90113380D01*
X71600000Y-90113380D01*
X71600003Y-90113380D01*
X71646465Y-90108804D01*
X71652644Y-90108500D01*
X75805690Y-90108500D01*
X75811869Y-90108804D01*
X75858331Y-90113380D01*
X75858334Y-90113380D01*
X75858338Y-90113380D01*
X76056026Y-90093910D01*
X76056027Y-90093909D01*
X76056035Y-90093909D01*
X76246138Y-90036241D01*
X76274298Y-90021189D01*
X76421338Y-89942595D01*
X76574902Y-89816568D01*
X76604545Y-89780445D01*
X76608659Y-89775907D01*
X81268036Y-85116530D01*
X98687747Y-85116530D01*
X98689858Y-85156801D01*
X98691414Y-85186493D01*
X98691500Y-85189764D01*
X98691500Y-85211943D01*
X98691501Y-85211964D01*
X98693818Y-85234011D01*
X98694076Y-85237296D01*
X98697742Y-85307242D01*
X98701384Y-85320835D01*
X98704985Y-85340262D01*
X98706458Y-85354267D01*
X98706459Y-85354273D01*
X98709948Y-85365010D01*
X98728112Y-85420915D01*
X98729041Y-85424052D01*
X98747170Y-85491709D01*
X98753558Y-85504245D01*
X98761123Y-85522509D01*
X98765472Y-85535894D01*
X98800496Y-85596557D01*
X98802062Y-85599442D01*
X98833871Y-85661870D01*
X98842732Y-85672814D01*
X98853920Y-85689091D01*
X98860960Y-85701284D01*
X98893821Y-85737780D01*
X98907832Y-85753342D01*
X98909971Y-85755847D01*
X98923928Y-85773081D01*
X98939626Y-85788779D01*
X98941863Y-85791136D01*
X98963051Y-85814668D01*
X98988745Y-85843205D01*
X99000128Y-85851475D01*
X99015164Y-85864317D01*
X101259087Y-88108240D01*
X101259102Y-88108254D01*
X101370292Y-88198294D01*
X101370297Y-88198297D01*
X101370300Y-88198299D01*
X101540460Y-88285000D01*
X101724927Y-88334427D01*
X101839354Y-88340424D01*
X101915638Y-88344422D01*
X101915638Y-88344421D01*
X101915640Y-88344422D01*
X102104263Y-88314547D01*
X102282552Y-88246108D01*
X102442717Y-88142096D01*
X102577756Y-88007057D01*
X102681768Y-87846892D01*
X102750207Y-87668603D01*
X102780082Y-87479980D01*
X102770087Y-87289267D01*
X102720660Y-87104800D01*
X102633959Y-86934640D01*
X102633957Y-86934637D01*
X102633954Y-86934632D01*
X102543914Y-86823442D01*
X102543900Y-86823427D01*
X101275591Y-85555117D01*
X109281725Y-85555117D01*
X109299786Y-85773081D01*
X109300318Y-85779492D01*
X109355583Y-85997729D01*
X109355584Y-85997730D01*
X109355585Y-85997733D01*
X109423102Y-86151658D01*
X109446022Y-86203910D01*
X109569156Y-86392382D01*
X109569159Y-86392385D01*
X109613826Y-86440906D01*
X109712356Y-86547937D01*
X109743777Y-86611602D01*
X109735790Y-86682148D01*
X109690932Y-86737177D01*
X109663688Y-86751330D01*
X109548678Y-86794227D01*
X109548673Y-86794229D01*
X109431619Y-86881855D01*
X109343993Y-86998909D01*
X109343991Y-86998914D01*
X109292892Y-87135912D01*
X109292890Y-87135920D01*
X109286381Y-87196467D01*
X109286381Y-88993766D01*
X109292890Y-89054313D01*
X109292892Y-89054321D01*
X109343991Y-89191319D01*
X109343993Y-89191324D01*
X109431619Y-89308378D01*
X109548673Y-89396004D01*
X109548675Y-89396005D01*
X109548677Y-89396006D01*
X109607756Y-89418041D01*
X109685676Y-89447105D01*
X109685684Y-89447107D01*
X109746231Y-89453616D01*
X109746236Y-89453616D01*
X109746243Y-89453617D01*
X109746249Y-89453617D01*
X111543513Y-89453617D01*
X111543519Y-89453617D01*
X111543526Y-89453616D01*
X111543530Y-89453616D01*
X111604077Y-89447107D01*
X111604080Y-89447106D01*
X111604082Y-89447106D01*
X111741085Y-89396006D01*
X111858142Y-89308378D01*
X111945770Y-89191321D01*
X111996870Y-89054318D01*
X112003381Y-88993755D01*
X112003381Y-87196479D01*
X112003380Y-87196467D01*
X111996871Y-87135920D01*
X111996869Y-87135912D01*
X111945770Y-86998914D01*
X111945768Y-86998909D01*
X111858142Y-86881855D01*
X111741088Y-86794229D01*
X111741084Y-86794227D01*
X111626073Y-86751330D01*
X111569237Y-86708784D01*
X111544427Y-86642263D01*
X111559519Y-86572889D01*
X111577406Y-86547937D01*
X111720595Y-86392394D01*
X111720605Y-86392382D01*
X111778325Y-86304035D01*
X111843741Y-86203908D01*
X111934177Y-85997733D01*
X111989445Y-85779485D01*
X112008037Y-85555117D01*
X111989445Y-85330749D01*
X111986934Y-85320835D01*
X111934178Y-85112504D01*
X111934177Y-85112503D01*
X111934177Y-85112501D01*
X111843741Y-84906326D01*
X111749853Y-84762619D01*
X111720605Y-84717851D01*
X111720601Y-84717846D01*
X111568118Y-84552208D01*
X111486263Y-84488498D01*
X111390457Y-84413928D01*
X111192455Y-84306775D01*
X111192453Y-84306774D01*
X111192452Y-84306773D01*
X110979520Y-84233674D01*
X110979511Y-84233672D01*
X110935357Y-84226304D01*
X110757450Y-84196617D01*
X110532312Y-84196617D01*
X110384092Y-84221350D01*
X110310250Y-84233672D01*
X110310241Y-84233674D01*
X110097309Y-84306773D01*
X110097307Y-84306775D01*
X109899307Y-84413927D01*
X109899305Y-84413928D01*
X109721643Y-84552208D01*
X109569160Y-84717846D01*
X109569156Y-84717851D01*
X109446022Y-84906323D01*
X109355584Y-85112503D01*
X109355583Y-85112504D01*
X109300318Y-85330741D01*
X109300317Y-85330747D01*
X109300317Y-85330749D01*
X109281725Y-85555117D01*
X101275591Y-85555117D01*
X100545405Y-84824931D01*
X100511379Y-84762619D01*
X100508500Y-84735836D01*
X100508500Y-81816103D01*
X106593758Y-81816103D01*
X106593759Y-81816104D01*
X107410415Y-81816104D01*
X107364456Y-81844561D01*
X107296865Y-81934066D01*
X107266171Y-82041944D01*
X107276520Y-82153625D01*
X107326514Y-82254026D01*
X107403384Y-82324104D01*
X106593759Y-82324104D01*
X106634289Y-82457714D01*
X106634290Y-82457716D01*
X106727890Y-82632828D01*
X106853854Y-82786315D01*
X107007341Y-82912279D01*
X107182451Y-83005878D01*
X107182466Y-83005884D01*
X107372459Y-83063518D01*
X107372471Y-83063520D01*
X107520539Y-83078103D01*
X107520557Y-83078104D01*
X107866066Y-83078104D01*
X107866066Y-82370104D01*
X108374066Y-82370104D01*
X108374066Y-83078104D01*
X108719575Y-83078104D01*
X108719592Y-83078103D01*
X108867660Y-83063520D01*
X108867672Y-83063518D01*
X109057665Y-83005884D01*
X109057680Y-83005878D01*
X109232790Y-82912279D01*
X109386277Y-82786315D01*
X109512241Y-82632828D01*
X109605841Y-82457716D01*
X109605842Y-82457714D01*
X109646373Y-82324104D01*
X108829717Y-82324104D01*
X108875676Y-82295647D01*
X108943267Y-82206142D01*
X108973961Y-82098264D01*
X108963612Y-81986583D01*
X108913618Y-81886182D01*
X108836748Y-81816104D01*
X109646373Y-81816104D01*
X109646373Y-81816103D01*
X110923844Y-81816103D01*
X110923845Y-81816104D01*
X111740501Y-81816104D01*
X111694542Y-81844561D01*
X111626951Y-81934066D01*
X111596257Y-82041944D01*
X111606606Y-82153625D01*
X111656600Y-82254026D01*
X111733470Y-82324104D01*
X110923845Y-82324104D01*
X110964375Y-82457714D01*
X110964376Y-82457716D01*
X111057976Y-82632828D01*
X111183940Y-82786315D01*
X111337427Y-82912279D01*
X111512537Y-83005878D01*
X111512552Y-83005884D01*
X111702545Y-83063518D01*
X111702557Y-83063520D01*
X111850625Y-83078103D01*
X111850643Y-83078104D01*
X112046152Y-83078104D01*
X112046152Y-82370104D01*
X112554152Y-82370104D01*
X112554152Y-83078104D01*
X112749661Y-83078104D01*
X112749678Y-83078103D01*
X112897746Y-83063520D01*
X112897758Y-83063518D01*
X113087751Y-83005884D01*
X113087766Y-83005878D01*
X113262876Y-82912279D01*
X113416363Y-82786315D01*
X113542327Y-82632828D01*
X113635927Y-82457716D01*
X113635928Y-82457714D01*
X113676459Y-82324104D01*
X112859803Y-82324104D01*
X112905762Y-82295647D01*
X112973353Y-82206142D01*
X113004047Y-82098264D01*
X112993698Y-81986583D01*
X112943704Y-81886182D01*
X112866834Y-81816104D01*
X113676459Y-81816104D01*
X113676459Y-81816103D01*
X113635928Y-81682493D01*
X113635927Y-81682491D01*
X113542327Y-81507379D01*
X113416363Y-81353892D01*
X113262876Y-81227928D01*
X113087766Y-81134329D01*
X113087751Y-81134323D01*
X112897758Y-81076689D01*
X112897746Y-81076687D01*
X112749678Y-81062104D01*
X112554152Y-81062104D01*
X112554152Y-81770104D01*
X112046152Y-81770104D01*
X112046152Y-81062104D01*
X111850625Y-81062104D01*
X111702557Y-81076687D01*
X111702545Y-81076689D01*
X111512552Y-81134323D01*
X111512537Y-81134329D01*
X111337427Y-81227928D01*
X111183940Y-81353892D01*
X111057976Y-81507379D01*
X110964376Y-81682491D01*
X110964375Y-81682493D01*
X110923844Y-81816103D01*
X109646373Y-81816103D01*
X109605842Y-81682493D01*
X109605841Y-81682491D01*
X109512241Y-81507379D01*
X109386277Y-81353892D01*
X109232790Y-81227928D01*
X109132662Y-81174408D01*
X109082014Y-81124655D01*
X109066304Y-81055419D01*
X109090520Y-80988680D01*
X109092030Y-80986668D01*
X109126126Y-80942234D01*
X109127760Y-80938291D01*
X109153766Y-80875504D01*
X109184517Y-80801265D01*
X109204433Y-80649987D01*
X109184517Y-80498709D01*
X109144535Y-80402183D01*
X109126128Y-80357743D01*
X109090802Y-80311705D01*
X109033239Y-80236687D01*
X108912186Y-80143800D01*
X108912185Y-80143799D01*
X108912182Y-80143797D01*
X108771217Y-80085409D01*
X108657920Y-80070493D01*
X108657918Y-80070493D01*
X108581960Y-80070493D01*
X108581957Y-80070493D01*
X108468660Y-80085409D01*
X108327695Y-80143797D01*
X108206639Y-80236687D01*
X108113749Y-80357743D01*
X108055361Y-80498708D01*
X108035445Y-80649986D01*
X108035445Y-80649987D01*
X108055361Y-80801265D01*
X108091240Y-80887887D01*
X108098829Y-80958477D01*
X108067049Y-81021964D01*
X108005990Y-81058190D01*
X107974831Y-81062104D01*
X107520539Y-81062104D01*
X107372471Y-81076687D01*
X107372459Y-81076689D01*
X107182466Y-81134323D01*
X107182451Y-81134329D01*
X107007341Y-81227928D01*
X106853854Y-81353892D01*
X106727890Y-81507379D01*
X106634290Y-81682491D01*
X106634289Y-81682493D01*
X106593758Y-81816103D01*
X100508500Y-81816103D01*
X100508500Y-77552392D01*
X100508499Y-77552384D01*
X100506377Y-77532196D01*
X100493542Y-77410072D01*
X100434527Y-77228444D01*
X100339040Y-77063056D01*
X100339038Y-77063054D01*
X100339034Y-77063048D01*
X100211255Y-76921135D01*
X100056752Y-76808882D01*
X99882288Y-76731206D01*
X99695487Y-76691500D01*
X99504513Y-76691500D01*
X99317711Y-76731206D01*
X99143247Y-76808882D01*
X98988744Y-76921135D01*
X98860965Y-77063048D01*
X98860958Y-77063058D01*
X98765476Y-77228438D01*
X98765473Y-77228444D01*
X98763235Y-77235332D01*
X98706457Y-77410072D01*
X98691500Y-77552384D01*
X98691500Y-85082922D01*
X98689949Y-85102631D01*
X98687747Y-85116530D01*
X81268036Y-85116530D01*
X83584566Y-82800000D01*
X87305600Y-82800000D01*
X87323180Y-82967265D01*
X87325146Y-82985961D01*
X87382922Y-83163779D01*
X87382928Y-83163791D01*
X87476410Y-83325709D01*
X87476414Y-83325715D01*
X87601527Y-83464667D01*
X87752795Y-83574570D01*
X87752797Y-83574571D01*
X87752800Y-83574573D01*
X87923615Y-83650625D01*
X87956099Y-83657529D01*
X88018573Y-83691255D01*
X88019000Y-83691681D01*
X88218092Y-83890773D01*
X88230065Y-83904627D01*
X88244530Y-83924057D01*
X88284975Y-83957994D01*
X88289021Y-83961702D01*
X88294899Y-83967580D01*
X88320896Y-83988136D01*
X88380360Y-84038032D01*
X88380366Y-84038035D01*
X88386495Y-84042067D01*
X88386457Y-84042123D01*
X88392811Y-84046171D01*
X88392847Y-84046114D01*
X88399089Y-84049964D01*
X88399091Y-84049965D01*
X88399094Y-84049967D01*
X88469447Y-84082773D01*
X88538812Y-84117609D01*
X88538814Y-84117609D01*
X88545713Y-84120121D01*
X88545689Y-84120184D01*
X88552806Y-84122658D01*
X88552828Y-84122594D01*
X88559792Y-84124902D01*
X88635818Y-84140599D01*
X88711343Y-84158500D01*
X88718632Y-84159352D01*
X88718624Y-84159418D01*
X88726122Y-84160184D01*
X88726128Y-84160118D01*
X88733435Y-84160756D01*
X88733442Y-84160758D01*
X88811045Y-84158500D01*
X90491199Y-84158500D01*
X90546170Y-84173228D01*
X90546768Y-84171887D01*
X90552798Y-84174572D01*
X90552800Y-84174573D01*
X90723615Y-84250625D01*
X90867633Y-84281236D01*
X90906509Y-84289500D01*
X90906510Y-84289500D01*
X91093491Y-84289500D01*
X91125551Y-84282685D01*
X91276385Y-84250625D01*
X91447200Y-84174573D01*
X91598470Y-84064669D01*
X91611711Y-84049964D01*
X91723585Y-83925715D01*
X91723589Y-83925709D01*
X91787837Y-83814427D01*
X91817075Y-83763785D01*
X91874855Y-83585956D01*
X91894400Y-83400000D01*
X91874855Y-83214044D01*
X91825947Y-83063520D01*
X91817077Y-83036220D01*
X91817071Y-83036208D01*
X91723589Y-82874290D01*
X91723585Y-82874284D01*
X91598472Y-82735332D01*
X91447204Y-82625429D01*
X91276385Y-82549375D01*
X91093491Y-82510500D01*
X91093490Y-82510500D01*
X90906510Y-82510500D01*
X90906509Y-82510500D01*
X90723614Y-82549375D01*
X90627186Y-82592307D01*
X90552800Y-82625427D01*
X90552798Y-82625427D01*
X90546768Y-82628113D01*
X90546170Y-82626771D01*
X90491199Y-82641500D01*
X89175320Y-82641500D01*
X89107199Y-82621498D01*
X89060706Y-82567842D01*
X89055487Y-82554435D01*
X89017078Y-82436222D01*
X89017075Y-82436217D01*
X89017075Y-82436215D01*
X88970008Y-82354692D01*
X88923589Y-82274290D01*
X88923585Y-82274284D01*
X88798472Y-82135332D01*
X88647204Y-82025429D01*
X88476385Y-81949375D01*
X88293491Y-81910500D01*
X88293490Y-81910500D01*
X88106510Y-81910500D01*
X88106509Y-81910500D01*
X87923614Y-81949375D01*
X87752795Y-82025429D01*
X87601527Y-82135332D01*
X87476414Y-82274284D01*
X87476410Y-82274290D01*
X87382928Y-82436208D01*
X87382922Y-82436220D01*
X87325146Y-82614038D01*
X87325145Y-82614042D01*
X87325145Y-82614044D01*
X87305600Y-82800000D01*
X83584566Y-82800000D01*
X86825907Y-79558659D01*
X86830445Y-79554545D01*
X86866568Y-79524902D01*
X86882901Y-79505000D01*
X92281384Y-79505000D01*
X92301783Y-79686047D01*
X92301783Y-79686049D01*
X92301784Y-79686050D01*
X92361957Y-79858015D01*
X92361958Y-79858018D01*
X92458887Y-80012279D01*
X92458888Y-80012281D01*
X92587718Y-80141111D01*
X92587720Y-80141112D01*
X92741981Y-80238041D01*
X92741982Y-80238041D01*
X92741985Y-80238043D01*
X92913953Y-80298217D01*
X93095000Y-80318616D01*
X93276047Y-80298217D01*
X93448015Y-80238043D01*
X93602281Y-80141111D01*
X93731111Y-80012281D01*
X93828043Y-79858015D01*
X93888217Y-79686047D01*
X93908616Y-79505000D01*
X93888217Y-79323953D01*
X93828043Y-79151985D01*
X93828041Y-79151982D01*
X93828040Y-79151979D01*
X93822812Y-79143658D01*
X93803500Y-79076624D01*
X93803500Y-78960659D01*
X93823502Y-78892538D01*
X93840405Y-78871564D01*
X94312968Y-78399001D01*
X94623405Y-78088564D01*
X94685716Y-78054539D01*
X94756531Y-78059604D01*
X94813367Y-78102151D01*
X94838178Y-78168671D01*
X94838499Y-78177660D01*
X94838499Y-78307564D01*
X94818497Y-78375685D01*
X94779538Y-78414249D01*
X94760220Y-78426387D01*
X94760214Y-78426392D01*
X94631388Y-78555218D01*
X94631387Y-78555220D01*
X94534458Y-78709481D01*
X94534457Y-78709484D01*
X94492832Y-78828444D01*
X94474283Y-78881453D01*
X94453884Y-79062500D01*
X94474283Y-79243547D01*
X94474283Y-79243549D01*
X94474284Y-79243550D01*
X94534457Y-79415515D01*
X94534458Y-79415518D01*
X94631387Y-79569779D01*
X94631388Y-79569781D01*
X94760218Y-79698611D01*
X94760220Y-79698612D01*
X94914481Y-79795541D01*
X94914482Y-79795541D01*
X94914485Y-79795543D01*
X95086453Y-79855717D01*
X95267500Y-79876116D01*
X95448547Y-79855717D01*
X95620515Y-79795543D01*
X95774781Y-79698611D01*
X95903611Y-79569781D01*
X95952077Y-79492647D01*
X96000542Y-79415517D01*
X96000543Y-79415515D01*
X96036758Y-79312013D01*
X96072134Y-79259317D01*
X96081215Y-79251273D01*
X96116867Y-79199621D01*
X96119063Y-79196636D01*
X96157775Y-79147226D01*
X96161961Y-79137922D01*
X96173161Y-79118066D01*
X96178954Y-79109675D01*
X96201202Y-79051009D01*
X96202634Y-79047552D01*
X96228389Y-78990329D01*
X96230226Y-78980303D01*
X96236351Y-78958330D01*
X96239965Y-78948801D01*
X96247526Y-78886523D01*
X96248090Y-78882815D01*
X96259402Y-78821092D01*
X96255614Y-78758481D01*
X96255500Y-78754679D01*
X96255500Y-76375374D01*
X96274815Y-76308335D01*
X96280043Y-76300015D01*
X96340217Y-76128047D01*
X96360616Y-75947000D01*
X96340217Y-75765953D01*
X96280043Y-75593985D01*
X96280041Y-75593982D01*
X96280041Y-75593981D01*
X96183112Y-75439720D01*
X96183111Y-75439718D01*
X96054281Y-75310888D01*
X96054279Y-75310887D01*
X95900018Y-75213958D01*
X95900015Y-75213957D01*
X95728050Y-75153784D01*
X95728049Y-75153783D01*
X95728047Y-75153783D01*
X95547000Y-75133384D01*
X95365953Y-75153783D01*
X95365950Y-75153783D01*
X95365949Y-75153784D01*
X95193984Y-75213957D01*
X95193981Y-75213958D01*
X95039720Y-75310887D01*
X95039718Y-75310888D01*
X94910888Y-75439718D01*
X94910887Y-75439720D01*
X94813958Y-75593981D01*
X94813957Y-75593984D01*
X94813957Y-75593985D01*
X94753783Y-75765953D01*
X94742976Y-75861864D01*
X94736180Y-75922181D01*
X94708676Y-75987634D01*
X94652589Y-76027002D01*
X94566980Y-76056958D01*
X94412720Y-76153887D01*
X94412718Y-76153888D01*
X94283888Y-76282718D01*
X94283887Y-76282720D01*
X94186958Y-76436982D01*
X94151192Y-76539192D01*
X94121358Y-76586670D01*
X92610511Y-78097518D01*
X92607740Y-78100126D01*
X92560784Y-78141726D01*
X92525157Y-78193339D01*
X92522904Y-78196401D01*
X92484227Y-78245769D01*
X92484222Y-78245779D01*
X92480035Y-78255080D01*
X92468846Y-78274921D01*
X92463045Y-78283326D01*
X92440807Y-78341961D01*
X92439351Y-78345476D01*
X92413613Y-78402665D01*
X92413609Y-78402678D01*
X92411770Y-78412711D01*
X92405651Y-78434661D01*
X92402034Y-78444199D01*
X92394476Y-78506441D01*
X92393904Y-78510201D01*
X92382597Y-78571907D01*
X92386384Y-78634509D01*
X92386499Y-78638313D01*
X92386500Y-79076624D01*
X92367188Y-79143658D01*
X92361959Y-79151979D01*
X92361957Y-79151984D01*
X92318108Y-79277299D01*
X92301783Y-79323953D01*
X92281384Y-79505000D01*
X86882901Y-79505000D01*
X86992595Y-79371338D01*
X87086241Y-79196138D01*
X87106640Y-79128893D01*
X87143909Y-79006034D01*
X87143909Y-79006032D01*
X87143910Y-79006030D01*
X87163380Y-78808338D01*
X87163380Y-78808330D01*
X87158804Y-78761868D01*
X87158500Y-78755689D01*
X87158500Y-77972641D01*
X87158804Y-77966461D01*
X87163380Y-77920001D01*
X87163380Y-77919996D01*
X87143909Y-77722305D01*
X87143908Y-77722303D01*
X87143908Y-77722299D01*
X87086241Y-77532196D01*
X86992595Y-77356996D01*
X86866568Y-77203432D01*
X86713004Y-77077405D01*
X86537804Y-76983759D01*
X86347701Y-76926092D01*
X86347700Y-76926091D01*
X86347694Y-76926090D01*
X86150003Y-76906620D01*
X86149997Y-76906620D01*
X85952305Y-76926090D01*
X85762195Y-76983759D01*
X85586995Y-77077405D01*
X85433432Y-77203432D01*
X85307405Y-77356995D01*
X85213758Y-77532196D01*
X85213756Y-77532201D01*
X85186326Y-77622627D01*
X85147411Y-77682008D01*
X85082569Y-77710924D01*
X85012389Y-77700193D01*
X84959150Y-77653223D01*
X84945919Y-77624987D01*
X84917077Y-77536219D01*
X84917071Y-77536208D01*
X84823589Y-77374290D01*
X84823585Y-77374284D01*
X84698472Y-77235332D01*
X84547204Y-77125429D01*
X84520768Y-77113659D01*
X84376385Y-77049375D01*
X84376385Y-77049374D01*
X84193491Y-77010500D01*
X84193490Y-77010500D01*
X84006510Y-77010500D01*
X84006509Y-77010500D01*
X83823614Y-77049375D01*
X83652795Y-77125429D01*
X83501527Y-77235332D01*
X83376414Y-77374284D01*
X83376410Y-77374290D01*
X83282928Y-77536208D01*
X83282922Y-77536220D01*
X83225146Y-77714038D01*
X83225145Y-77714042D01*
X83225145Y-77714044D01*
X83205600Y-77900000D01*
X83222375Y-78059604D01*
X83225146Y-78085961D01*
X83282922Y-78263779D01*
X83282925Y-78263786D01*
X83289354Y-78274921D01*
X83321850Y-78331206D01*
X83324619Y-78336001D01*
X83341500Y-78399001D01*
X83341500Y-78882723D01*
X83321498Y-78950844D01*
X83309137Y-78967033D01*
X83242813Y-79040692D01*
X83242813Y-79040693D01*
X83149331Y-79202611D01*
X83149325Y-79202623D01*
X83091549Y-79380441D01*
X83091548Y-79380445D01*
X83091548Y-79380447D01*
X83072003Y-79566403D01*
X83085632Y-79696075D01*
X83091549Y-79752364D01*
X83149325Y-79930182D01*
X83149331Y-79930194D01*
X83242813Y-80092112D01*
X83242813Y-80092113D01*
X83256226Y-80107009D01*
X83286943Y-80171017D01*
X83278178Y-80241470D01*
X83251684Y-80280414D01*
X76487812Y-87044286D01*
X76425500Y-87078312D01*
X76354685Y-87073247D01*
X76297849Y-87030700D01*
X76276573Y-86986122D01*
X76269296Y-86957384D01*
X76178860Y-86751209D01*
X76169327Y-86736617D01*
X76055724Y-86562734D01*
X76055720Y-86562729D01*
X75903237Y-86397091D01*
X75783679Y-86304035D01*
X75725576Y-86258811D01*
X75527574Y-86151658D01*
X75527572Y-86151657D01*
X75527571Y-86151656D01*
X75314639Y-86078557D01*
X75314630Y-86078555D01*
X75270476Y-86071187D01*
X75092569Y-86041500D01*
X75092565Y-86041500D01*
X74958503Y-86041500D01*
X74890382Y-86021498D01*
X74869408Y-86004595D01*
X74451117Y-85586304D01*
X74417091Y-85523992D01*
X74418507Y-85464592D01*
X74419657Y-85460304D01*
X74419657Y-85460296D01*
X74419658Y-85460295D01*
X74421722Y-85420890D01*
X74423323Y-85390335D01*
X74423580Y-85387078D01*
X74425899Y-85365022D01*
X74425900Y-85365008D01*
X74425900Y-85342825D01*
X74425985Y-85339554D01*
X74429652Y-85269591D01*
X74427451Y-85255692D01*
X74425900Y-85235983D01*
X74425900Y-80649670D01*
X74427451Y-80629959D01*
X74429652Y-80616061D01*
X74429164Y-80606756D01*
X74425985Y-80546099D01*
X74425900Y-80542827D01*
X74425900Y-80520645D01*
X74425899Y-80520631D01*
X74423924Y-80501844D01*
X74423578Y-80498554D01*
X74423324Y-80495321D01*
X74419657Y-80425350D01*
X74416013Y-80411752D01*
X74412413Y-80392328D01*
X74410942Y-80378325D01*
X74389293Y-80311699D01*
X74388358Y-80308541D01*
X74370231Y-80240886D01*
X74370230Y-80240885D01*
X74370230Y-80240883D01*
X74363837Y-80228337D01*
X74356273Y-80210074D01*
X74351928Y-80196701D01*
X74351927Y-80196697D01*
X74316902Y-80136031D01*
X74315344Y-80133164D01*
X74283529Y-80070723D01*
X74274667Y-80059779D01*
X74263476Y-80043495D01*
X74256440Y-80031309D01*
X74209569Y-79979251D01*
X74207428Y-79976745D01*
X74193475Y-79959515D01*
X74193472Y-79959512D01*
X74177771Y-79943811D01*
X74175536Y-79941456D01*
X74128653Y-79889387D01*
X74120362Y-79883363D01*
X74113324Y-79878249D01*
X74108195Y-79874095D01*
X74106784Y-79872824D01*
X73995588Y-79782780D01*
X73995582Y-79782776D01*
X73995581Y-79782775D01*
X73825421Y-79696075D01*
X73825420Y-79696074D01*
X73825419Y-79696074D01*
X73640954Y-79646647D01*
X73640948Y-79646646D01*
X73450239Y-79636651D01*
X73443646Y-79636997D01*
X73443522Y-79634644D01*
X73383784Y-79626916D01*
X73329476Y-79581187D01*
X73308513Y-79513356D01*
X73308500Y-79511574D01*
X73308500Y-79152392D01*
X73308499Y-79152384D01*
X73308456Y-79151979D01*
X73293542Y-79010072D01*
X73234527Y-78828444D01*
X73139040Y-78663056D01*
X73139038Y-78663054D01*
X73139034Y-78663048D01*
X73011255Y-78521135D01*
X72856752Y-78408882D01*
X72682288Y-78331206D01*
X72495487Y-78291500D01*
X72304513Y-78291500D01*
X72117711Y-78331206D01*
X71943247Y-78408882D01*
X71788744Y-78521135D01*
X71660965Y-78663048D01*
X71660958Y-78663058D01*
X71565476Y-78828438D01*
X71565473Y-78828445D01*
X71506457Y-79010072D01*
X71491500Y-79152384D01*
X71491500Y-80918582D01*
X71489949Y-80938291D01*
X71487747Y-80952190D01*
X71488077Y-80958477D01*
X71491414Y-81022153D01*
X71491500Y-81025424D01*
X71491500Y-81047603D01*
X71491501Y-81047624D01*
X71493818Y-81069671D01*
X71494076Y-81072956D01*
X71497742Y-81142902D01*
X71501384Y-81156495D01*
X71504985Y-81175922D01*
X71506458Y-81189927D01*
X71506458Y-81189930D01*
X71514463Y-81214565D01*
X71525333Y-81248022D01*
X71531500Y-81286956D01*
X71531500Y-86331915D01*
X71511498Y-86400036D01*
X71498201Y-86417253D01*
X71364280Y-86562729D01*
X71364279Y-86562729D01*
X71275483Y-86698643D01*
X71221479Y-86744731D01*
X71151131Y-86754306D01*
X71086774Y-86724329D01*
X71064517Y-86698643D01*
X70975720Y-86562729D01*
X70823237Y-86397091D01*
X70703679Y-86304035D01*
X70645576Y-86258811D01*
X70447574Y-86151658D01*
X70447572Y-86151657D01*
X70447571Y-86151656D01*
X70234639Y-86078557D01*
X70234630Y-86078555D01*
X70190476Y-86071187D01*
X70012569Y-86041500D01*
X69787431Y-86041500D01*
X69639210Y-86066233D01*
X69565369Y-86078555D01*
X69565360Y-86078557D01*
X69352428Y-86151656D01*
X69352426Y-86151658D01*
X69255873Y-86203910D01*
X69154426Y-86258810D01*
X69154424Y-86258811D01*
X68976759Y-86397094D01*
X68915374Y-86463775D01*
X68854521Y-86500346D01*
X68783557Y-86498211D01*
X68725012Y-86458049D01*
X68704618Y-86422470D01*
X68660443Y-86304033D01*
X68572904Y-86187095D01*
X68455965Y-86099555D01*
X68319093Y-86048505D01*
X68258597Y-86042000D01*
X67614000Y-86042000D01*
X67614000Y-86966325D01*
X67502315Y-86915320D01*
X67395763Y-86900000D01*
X67324237Y-86900000D01*
X67217685Y-86915320D01*
X67106000Y-86966325D01*
X67106000Y-86042000D01*
X66461402Y-86042000D01*
X66400906Y-86048505D01*
X66264035Y-86099555D01*
X66264034Y-86099555D01*
X66147095Y-86187095D01*
X66059555Y-86304034D01*
X66059555Y-86304035D01*
X66008505Y-86440906D01*
X66002000Y-86501402D01*
X66002000Y-87146000D01*
X66928884Y-87146000D01*
X66900507Y-87190156D01*
X66860000Y-87328111D01*
X66860000Y-87471889D01*
X66900507Y-87609844D01*
X66928884Y-87654000D01*
X66002000Y-87654000D01*
X66002000Y-88298597D01*
X58558500Y-88298597D01*
X58558500Y-87752641D01*
X58558804Y-87746461D01*
X58563380Y-87700001D01*
X58563380Y-87699997D01*
X58558804Y-87653536D01*
X58558500Y-87647357D01*
X58558500Y-83602643D01*
X58558804Y-83596464D01*
X58563380Y-83550002D01*
X58563380Y-83550000D01*
X58559671Y-83512344D01*
X58559671Y-83487654D01*
X58563380Y-83450000D01*
X58560222Y-83417938D01*
X58558804Y-83403535D01*
X58558500Y-83397356D01*
X58558500Y-81302643D01*
X58558804Y-81296464D01*
X58563380Y-81250002D01*
X58563380Y-81249995D01*
X58543910Y-81052307D01*
X58543908Y-81052295D01*
X58486241Y-80862196D01*
X58486240Y-80862194D01*
X58443412Y-80782069D01*
X58392594Y-80686995D01*
X58362221Y-80649986D01*
X58266568Y-80533432D01*
X58230463Y-80503801D01*
X58225893Y-80499659D01*
X56530334Y-78804100D01*
X56526189Y-78799526D01*
X56496567Y-78763431D01*
X56460466Y-78733804D01*
X56455884Y-78729650D01*
X56453082Y-78726848D01*
X56453080Y-78726846D01*
X56453076Y-78726842D01*
X56338003Y-78632405D01*
X56162805Y-78538759D01*
X56162803Y-78538758D01*
X55972704Y-78481091D01*
X55972692Y-78481089D01*
X55775004Y-78461620D01*
X55774996Y-78461620D01*
X55577307Y-78481089D01*
X55577295Y-78481091D01*
X55387196Y-78538758D01*
X55387194Y-78538759D01*
X55211999Y-78632403D01*
X55058432Y-78758432D01*
X54932403Y-78911999D01*
X54838759Y-79087194D01*
X54838758Y-79087196D01*
X54781091Y-79277295D01*
X54781089Y-79277307D01*
X54761620Y-79474995D01*
X54761620Y-79475004D01*
X54781089Y-79672692D01*
X54781091Y-79672704D01*
X54838758Y-79862803D01*
X54838759Y-79862805D01*
X54932405Y-80038003D01*
X55026842Y-80153076D01*
X55026846Y-80153080D01*
X55026848Y-80153082D01*
X55029650Y-80155884D01*
X55033801Y-80160463D01*
X55063432Y-80196568D01*
X55099531Y-80226194D01*
X55104100Y-80230334D01*
X55812057Y-80938291D01*
X56504595Y-81630829D01*
X56538621Y-81693141D01*
X56541500Y-81719924D01*
X56541500Y-83166883D01*
X56536074Y-83203459D01*
X56506089Y-83302302D01*
X56486620Y-83499995D01*
X56486620Y-83500004D01*
X56506089Y-83697692D01*
X56506091Y-83697701D01*
X56526139Y-83763791D01*
X56536074Y-83796539D01*
X56541500Y-83833116D01*
X56541500Y-86565500D01*
X56521498Y-86633621D01*
X56467842Y-86680114D01*
X56415500Y-86691500D01*
X56050446Y-86691500D01*
X55902305Y-86706090D01*
X55712195Y-86763759D01*
X55536995Y-86857405D01*
X55383432Y-86983432D01*
X55257405Y-87136995D01*
X55163759Y-87312195D01*
X55106090Y-87502305D01*
X55086620Y-87699996D01*
X55086620Y-87700003D01*
X55106090Y-87897694D01*
X55106091Y-87897700D01*
X55106092Y-87897701D01*
X55163759Y-88087804D01*
X55257405Y-88263004D01*
X55383432Y-88416568D01*
X55536996Y-88542595D01*
X55712196Y-88636241D01*
X55902299Y-88693908D01*
X55902303Y-88693908D01*
X55902305Y-88693909D01*
X55986513Y-88702202D01*
X56050453Y-88708500D01*
X56415500Y-88708500D01*
X56483621Y-88728502D01*
X56530114Y-88782158D01*
X56541500Y-88834500D01*
X56541500Y-91497355D01*
X56541196Y-91503534D01*
X56536620Y-91549996D01*
X56536620Y-91550004D01*
X56556089Y-91747692D01*
X56556091Y-91747701D01*
X56590951Y-91862616D01*
X56613759Y-91937804D01*
X56707405Y-92113004D01*
X56762898Y-92180622D01*
X56790653Y-92245968D01*
X56791500Y-92260556D01*
X56791500Y-92778663D01*
X56771498Y-92846784D01*
X56717842Y-92893277D01*
X56712022Y-92895760D01*
X56654149Y-92918752D01*
X56654143Y-92918754D01*
X56617947Y-92938272D01*
X56613000Y-92940667D01*
X56575267Y-92956943D01*
X56575252Y-92956950D01*
X56461416Y-93022673D01*
X56345685Y-93085075D01*
X56345679Y-93085079D01*
X56312001Y-93108660D01*
X56307368Y-93111612D01*
X56271749Y-93132178D01*
X56166297Y-93210684D01*
X56058609Y-93286088D01*
X56027894Y-93313422D01*
X56023633Y-93316893D01*
X55990650Y-93341449D01*
X55933171Y-93395678D01*
X55895018Y-93431673D01*
X55862334Y-93460759D01*
X55831381Y-93491711D01*
X55735746Y-93581938D01*
X55735735Y-93581950D01*
X55709302Y-93613451D01*
X55705587Y-93617504D01*
X54168496Y-95154596D01*
X54106186Y-95188620D01*
X54079403Y-95191500D01*
X47698352Y-95191500D01*
X47630231Y-95171498D01*
X47609257Y-95154595D01*
X47345405Y-94890743D01*
X47311379Y-94828431D01*
X47308500Y-94801648D01*
X47308500Y-85134116D01*
X47308740Y-85128623D01*
X47311013Y-85102631D01*
X47312324Y-85087650D01*
X47308500Y-84956218D01*
X47308500Y-84912454D01*
X47305955Y-84868771D01*
X47302132Y-84737348D01*
X47296169Y-84696643D01*
X47295612Y-84691188D01*
X47293222Y-84650150D01*
X47293222Y-84650147D01*
X47293222Y-84650143D01*
X47270395Y-84520685D01*
X47251340Y-84390598D01*
X47240696Y-84350874D01*
X47239510Y-84345529D01*
X47232367Y-84305016D01*
X47194661Y-84179069D01*
X47160637Y-84052089D01*
X47145451Y-84013863D01*
X47143652Y-84008686D01*
X47137500Y-83988137D01*
X47131857Y-83969288D01*
X47131119Y-83967578D01*
X47079790Y-83848584D01*
X47046104Y-83763791D01*
X47031249Y-83726398D01*
X47011723Y-83690186D01*
X47009331Y-83685244D01*
X46993050Y-83647499D01*
X46927326Y-83533662D01*
X46864925Y-83417932D01*
X46850517Y-83397356D01*
X46841339Y-83384248D01*
X46838385Y-83379610D01*
X46817832Y-83344012D01*
X46817831Y-83344010D01*
X46817825Y-83344000D01*
X46817819Y-83343992D01*
X46817814Y-83343984D01*
X46739315Y-83238543D01*
X46663914Y-83130859D01*
X46636572Y-83100135D01*
X46633107Y-83095881D01*
X46608552Y-83062897D01*
X46518327Y-82967265D01*
X46489233Y-82934572D01*
X46458288Y-82903627D01*
X46458287Y-82903626D01*
X46368057Y-82807988D01*
X46368050Y-82807982D01*
X46368045Y-82807977D01*
X46336547Y-82781547D01*
X46332493Y-82777832D01*
X40565427Y-77010766D01*
X40369146Y-76836090D01*
X40369141Y-76836086D01*
X40082078Y-76635082D01*
X40082073Y-76635079D01*
X40082069Y-76635076D01*
X40082062Y-76635072D01*
X39773605Y-76468752D01*
X39610756Y-76404056D01*
X39447911Y-76339363D01*
X39447909Y-76339362D01*
X39447908Y-76339362D01*
X39109409Y-76248661D01*
X39097283Y-76246884D01*
X38903243Y-76218462D01*
X38838743Y-76188799D01*
X38800517Y-76128971D01*
X38799363Y-76062861D01*
X38808444Y-76027002D01*
X38844564Y-75884368D01*
X38863156Y-75660000D01*
X38844564Y-75435632D01*
X38812975Y-75310889D01*
X38789297Y-75217387D01*
X38789296Y-75217386D01*
X38789296Y-75217384D01*
X38698860Y-75011209D01*
X38692140Y-75000924D01*
X38575724Y-74822734D01*
X38575720Y-74822729D01*
X38423237Y-74657091D01*
X38308515Y-74567799D01*
X38245576Y-74518811D01*
X38211792Y-74500528D01*
X38161402Y-74450516D01*
X38146050Y-74381199D01*
X38170610Y-74314586D01*
X38211793Y-74278901D01*
X38245300Y-74260767D01*
X38245301Y-74260767D01*
X38422902Y-74122534D01*
X38575325Y-73956958D01*
X38698419Y-73768548D01*
X38788820Y-73562456D01*
X38788823Y-73562449D01*
X38836544Y-73374000D01*
X37931116Y-73374000D01*
X37959493Y-73329844D01*
X38000000Y-73191889D01*
X38000000Y-73176022D01*
X106593758Y-73176022D01*
X106593759Y-73176023D01*
X107410415Y-73176023D01*
X107364456Y-73204480D01*
X107296865Y-73293985D01*
X107266171Y-73401863D01*
X107276520Y-73513544D01*
X107326514Y-73613945D01*
X107403384Y-73684023D01*
X106593759Y-73684023D01*
X106634289Y-73817633D01*
X106634290Y-73817635D01*
X106727890Y-73992747D01*
X106853854Y-74146234D01*
X107007341Y-74272198D01*
X107182451Y-74365797D01*
X107182466Y-74365803D01*
X107372459Y-74423437D01*
X107372471Y-74423439D01*
X107520539Y-74438022D01*
X107520557Y-74438023D01*
X107978934Y-74438023D01*
X108047055Y-74458025D01*
X108093548Y-74511681D01*
X108103652Y-74581955D01*
X108095343Y-74612240D01*
X108055361Y-74708767D01*
X108035445Y-74860045D01*
X108035445Y-74860046D01*
X108055361Y-75011324D01*
X108113749Y-75152289D01*
X108113751Y-75152292D01*
X108113752Y-75152293D01*
X108206639Y-75273346D01*
X108327692Y-75366233D01*
X108327695Y-75366235D01*
X108407181Y-75399158D01*
X108468661Y-75424624D01*
X108581960Y-75439540D01*
X108581967Y-75439540D01*
X108657911Y-75439540D01*
X108657918Y-75439540D01*
X108771217Y-75424624D01*
X108876167Y-75381152D01*
X108912182Y-75366235D01*
X108912182Y-75366234D01*
X108912186Y-75366233D01*
X109033239Y-75273346D01*
X109126126Y-75152293D01*
X109184517Y-75011324D01*
X109204433Y-74860046D01*
X109184517Y-74708768D01*
X109131990Y-74581955D01*
X109126128Y-74567802D01*
X109088536Y-74518811D01*
X109086704Y-74516423D01*
X109061105Y-74450204D01*
X109075370Y-74380656D01*
X109124971Y-74329860D01*
X109127272Y-74328599D01*
X109232790Y-74272198D01*
X109386277Y-74146234D01*
X109512241Y-73992747D01*
X109605841Y-73817635D01*
X109605842Y-73817633D01*
X109646373Y-73684023D01*
X108829717Y-73684023D01*
X108875676Y-73655566D01*
X108943267Y-73566061D01*
X108973961Y-73458183D01*
X108963612Y-73346502D01*
X108913618Y-73246101D01*
X108836748Y-73176023D01*
X109646373Y-73176023D01*
X109646373Y-73176022D01*
X110923844Y-73176022D01*
X110923845Y-73176023D01*
X111740501Y-73176023D01*
X111694542Y-73204480D01*
X111626951Y-73293985D01*
X111596257Y-73401863D01*
X111606606Y-73513544D01*
X111656600Y-73613945D01*
X111733470Y-73684023D01*
X110923845Y-73684023D01*
X110964375Y-73817633D01*
X110964376Y-73817635D01*
X111057976Y-73992747D01*
X111183940Y-74146234D01*
X111337427Y-74272198D01*
X111512537Y-74365797D01*
X111512552Y-74365803D01*
X111702545Y-74423437D01*
X111702557Y-74423439D01*
X111850625Y-74438022D01*
X111850643Y-74438023D01*
X112046152Y-74438023D01*
X112046152Y-73730023D01*
X112554152Y-73730023D01*
X112554152Y-74438023D01*
X112749661Y-74438023D01*
X112749678Y-74438022D01*
X112897746Y-74423439D01*
X112897758Y-74423437D01*
X113087751Y-74365803D01*
X113087766Y-74365797D01*
X113262876Y-74272198D01*
X113416363Y-74146234D01*
X113542327Y-73992747D01*
X113635927Y-73817635D01*
X113635928Y-73817633D01*
X113676459Y-73684023D01*
X112859803Y-73684023D01*
X112905762Y-73655566D01*
X112973353Y-73566061D01*
X113004047Y-73458183D01*
X112993698Y-73346502D01*
X112943704Y-73246101D01*
X112866834Y-73176023D01*
X113676459Y-73176023D01*
X113676459Y-73176022D01*
X113635928Y-73042412D01*
X113635927Y-73042410D01*
X113542327Y-72867298D01*
X113416363Y-72713811D01*
X113262876Y-72587847D01*
X113087766Y-72494248D01*
X113087751Y-72494242D01*
X112897758Y-72436608D01*
X112897746Y-72436606D01*
X112749678Y-72422023D01*
X112554152Y-72422023D01*
X112554152Y-73130023D01*
X112046152Y-73130023D01*
X112046152Y-72422023D01*
X111850625Y-72422023D01*
X111702557Y-72436606D01*
X111702545Y-72436608D01*
X111512552Y-72494242D01*
X111512537Y-72494248D01*
X111337427Y-72587847D01*
X111183940Y-72713811D01*
X111057976Y-72867298D01*
X110964376Y-73042410D01*
X110964375Y-73042412D01*
X110923844Y-73176022D01*
X109646373Y-73176022D01*
X109605842Y-73042412D01*
X109605841Y-73042410D01*
X109512241Y-72867298D01*
X109386277Y-72713811D01*
X109232790Y-72587847D01*
X109057680Y-72494248D01*
X109057665Y-72494242D01*
X108867672Y-72436608D01*
X108867660Y-72436606D01*
X108719592Y-72422023D01*
X108374066Y-72422023D01*
X108374066Y-73130023D01*
X107866066Y-73130023D01*
X107866066Y-72422023D01*
X107520539Y-72422023D01*
X107372471Y-72436606D01*
X107372459Y-72436608D01*
X107182466Y-72494242D01*
X107182451Y-72494248D01*
X107007341Y-72587847D01*
X106853854Y-72713811D01*
X106727890Y-72867298D01*
X106634290Y-73042410D01*
X106634289Y-73042412D01*
X106593758Y-73176022D01*
X38000000Y-73176022D01*
X38000000Y-73048111D01*
X37959493Y-72910156D01*
X37931116Y-72866000D01*
X38836544Y-72866000D01*
X38836544Y-72865999D01*
X38788823Y-72677550D01*
X38788820Y-72677543D01*
X38698419Y-72471451D01*
X38575325Y-72283041D01*
X38422902Y-72117465D01*
X38245301Y-71979232D01*
X38245300Y-71979231D01*
X38047371Y-71872117D01*
X38047369Y-71872116D01*
X37834512Y-71799043D01*
X37834501Y-71799040D01*
X37754000Y-71785606D01*
X37754000Y-72686325D01*
X37642315Y-72635320D01*
X37535763Y-72620000D01*
X37464237Y-72620000D01*
X37357685Y-72635320D01*
X37246000Y-72686325D01*
X37246000Y-71785607D01*
X37245999Y-71785606D01*
X37165498Y-71799040D01*
X37165487Y-71799043D01*
X36952630Y-71872116D01*
X36952628Y-71872117D01*
X36754699Y-71979231D01*
X36754698Y-71979232D01*
X36577097Y-72117465D01*
X36424674Y-72283041D01*
X36301580Y-72471451D01*
X36241887Y-72607537D01*
X36196206Y-72661885D01*
X36128393Y-72682909D01*
X36059980Y-72663933D01*
X36012686Y-72610982D01*
X36000500Y-72556923D01*
X36000500Y-70800000D01*
X41896844Y-70800000D01*
X41915437Y-71024375D01*
X41970702Y-71242612D01*
X41970703Y-71242613D01*
X42061141Y-71448793D01*
X42184275Y-71637265D01*
X42184279Y-71637270D01*
X42336762Y-71802908D01*
X42391331Y-71845381D01*
X42514424Y-71941189D01*
X42712426Y-72048342D01*
X42712427Y-72048342D01*
X42712428Y-72048343D01*
X42824227Y-72086723D01*
X42925365Y-72121444D01*
X43147431Y-72158500D01*
X43147435Y-72158500D01*
X43372565Y-72158500D01*
X43372569Y-72158500D01*
X43594635Y-72121444D01*
X43807574Y-72048342D01*
X44005576Y-71941189D01*
X44183240Y-71802906D01*
X44244245Y-71736637D01*
X44305096Y-71700067D01*
X44376061Y-71702200D01*
X44434606Y-71742362D01*
X44455000Y-71777941D01*
X44499111Y-71896204D01*
X44499112Y-71896207D01*
X44586738Y-72013261D01*
X44703792Y-72100887D01*
X44703794Y-72100888D01*
X44703796Y-72100889D01*
X44748238Y-72117465D01*
X44840795Y-72151988D01*
X44840803Y-72151990D01*
X44901350Y-72158499D01*
X44901355Y-72158499D01*
X44901362Y-72158500D01*
X44901368Y-72158500D01*
X46698632Y-72158500D01*
X46698638Y-72158500D01*
X46698645Y-72158499D01*
X46698649Y-72158499D01*
X46759196Y-72151990D01*
X46759199Y-72151989D01*
X46759201Y-72151989D01*
X46896204Y-72100889D01*
X46966399Y-72048342D01*
X47013261Y-72013261D01*
X47100887Y-71896207D01*
X47100887Y-71896206D01*
X47100889Y-71896204D01*
X47151989Y-71759201D01*
X47153800Y-71742362D01*
X47158499Y-71698649D01*
X47158500Y-71698632D01*
X47158500Y-69901367D01*
X47158499Y-69901350D01*
X47151990Y-69840803D01*
X47151988Y-69840795D01*
X47100889Y-69703797D01*
X47100887Y-69703792D01*
X47013261Y-69586738D01*
X46896207Y-69499112D01*
X46896202Y-69499110D01*
X46759204Y-69448011D01*
X46759196Y-69448009D01*
X46698649Y-69441500D01*
X46698638Y-69441500D01*
X44901362Y-69441500D01*
X44901350Y-69441500D01*
X44840803Y-69448009D01*
X44840795Y-69448011D01*
X44703797Y-69499110D01*
X44703792Y-69499112D01*
X44586738Y-69586738D01*
X44499112Y-69703792D01*
X44499111Y-69703795D01*
X44455000Y-69822058D01*
X44412453Y-69878893D01*
X44345932Y-69903703D01*
X44276558Y-69888611D01*
X44244246Y-69863363D01*
X44183240Y-69797094D01*
X44183239Y-69797093D01*
X44183237Y-69797091D01*
X44063372Y-69703796D01*
X44005576Y-69658811D01*
X43807574Y-69551658D01*
X43807572Y-69551657D01*
X43807571Y-69551656D01*
X43594639Y-69478557D01*
X43594630Y-69478555D01*
X43550476Y-69471187D01*
X43372569Y-69441500D01*
X43147431Y-69441500D01*
X42999210Y-69466233D01*
X42925369Y-69478555D01*
X42925360Y-69478557D01*
X42712428Y-69551656D01*
X42712426Y-69551658D01*
X42514426Y-69658810D01*
X42514424Y-69658811D01*
X42336762Y-69797091D01*
X42184279Y-69962729D01*
X42184275Y-69962734D01*
X42061141Y-70151206D01*
X41970703Y-70357386D01*
X41970702Y-70357387D01*
X41915437Y-70575624D01*
X41896844Y-70800000D01*
X36000500Y-70800000D01*
X36000500Y-65001464D01*
X36000534Y-65000006D01*
X36286911Y-65000006D01*
X36307250Y-65388114D01*
X36368051Y-65771995D01*
X36468644Y-66147414D01*
X36607919Y-66510239D01*
X36607923Y-66510247D01*
X36784365Y-66856535D01*
X36784369Y-66856541D01*
X36996042Y-67182491D01*
X36996054Y-67182508D01*
X37202876Y-67437911D01*
X37202877Y-67437912D01*
X38120147Y-66520641D01*
X38067449Y-66599511D01*
X38048046Y-66697056D01*
X38067449Y-66794601D01*
X38122704Y-66877296D01*
X38205399Y-66932551D01*
X38278320Y-66947056D01*
X38327568Y-66947056D01*
X38400489Y-66932551D01*
X38479349Y-66879857D01*
X37562086Y-67797121D01*
X37562087Y-67797122D01*
X37817491Y-68003945D01*
X37817508Y-68003957D01*
X38143458Y-68215630D01*
X38143464Y-68215634D01*
X38489752Y-68392076D01*
X38489760Y-68392080D01*
X38852585Y-68531355D01*
X39228004Y-68631948D01*
X39611885Y-68692749D01*
X39999994Y-68713089D01*
X40000006Y-68713089D01*
X40388114Y-68692749D01*
X40771995Y-68631948D01*
X41147414Y-68531355D01*
X41510239Y-68392080D01*
X41510247Y-68392076D01*
X41856535Y-68215634D01*
X41856541Y-68215630D01*
X42182501Y-68003950D01*
X42437912Y-67797121D01*
X41520646Y-66879855D01*
X41599511Y-66932551D01*
X41672432Y-66947056D01*
X41721680Y-66947056D01*
X41794601Y-66932551D01*
X41877296Y-66877296D01*
X41932551Y-66794601D01*
X41951954Y-66697056D01*
X41932551Y-66599511D01*
X41879855Y-66520646D01*
X42797121Y-67437912D01*
X43003950Y-67182501D01*
X43215630Y-66856541D01*
X43215634Y-66856535D01*
X43392076Y-66510247D01*
X43392080Y-66510239D01*
X43531355Y-66147414D01*
X43631948Y-65771995D01*
X43692749Y-65388114D01*
X43713089Y-65000006D01*
X43713089Y-64999993D01*
X43692749Y-64611885D01*
X43631948Y-64228004D01*
X43531355Y-63852585D01*
X43392080Y-63489760D01*
X43392076Y-63489752D01*
X43215628Y-63143455D01*
X43003957Y-62817508D01*
X43003945Y-62817491D01*
X42797122Y-62562087D01*
X42797121Y-62562086D01*
X41879858Y-63479348D01*
X41932551Y-63400489D01*
X41951954Y-63302944D01*
X41932551Y-63205399D01*
X41877296Y-63122704D01*
X41794601Y-63067449D01*
X41721680Y-63052944D01*
X41672432Y-63052944D01*
X41599511Y-63067449D01*
X41520641Y-63120147D01*
X42437912Y-62202877D01*
X42437911Y-62202876D01*
X42182508Y-61996054D01*
X42182491Y-61996042D01*
X41856541Y-61784369D01*
X41856535Y-61784365D01*
X41510247Y-61607923D01*
X41510239Y-61607919D01*
X41147414Y-61468644D01*
X40771995Y-61368051D01*
X40388114Y-61307250D01*
X40000006Y-61286911D01*
X39999994Y-61286911D01*
X39611885Y-61307250D01*
X39228004Y-61368051D01*
X38852585Y-61468644D01*
X38489760Y-61607919D01*
X38489752Y-61607923D01*
X38143455Y-61784371D01*
X37817502Y-61996047D01*
X37562086Y-62202877D01*
X38479354Y-63120145D01*
X38400489Y-63067449D01*
X38327568Y-63052944D01*
X38278320Y-63052944D01*
X38205399Y-63067449D01*
X38122704Y-63122704D01*
X38067449Y-63205399D01*
X38048046Y-63302944D01*
X38067449Y-63400489D01*
X38120144Y-63479353D01*
X37202877Y-62562086D01*
X36996047Y-62817502D01*
X36784371Y-63143455D01*
X36607923Y-63489752D01*
X36607919Y-63489760D01*
X36468644Y-63852585D01*
X36368051Y-64228004D01*
X36307250Y-64611885D01*
X36286911Y-64999993D01*
X36286911Y-65000006D01*
X36000534Y-65000006D01*
X36000567Y-64998554D01*
X36017427Y-64633883D01*
X36017964Y-64628086D01*
X36056369Y-64352765D01*
X36068200Y-64267951D01*
X36069260Y-64262281D01*
X36152515Y-63908301D01*
X36154104Y-63902722D01*
X36269656Y-63557959D01*
X36271744Y-63552569D01*
X36418623Y-63219919D01*
X36421201Y-63214742D01*
X36598146Y-62897066D01*
X36601203Y-62892132D01*
X36640000Y-62835495D01*
X36806702Y-62592138D01*
X36810175Y-62587540D01*
X37042478Y-62307788D01*
X37046379Y-62303508D01*
X37303508Y-62046379D01*
X37307789Y-62042478D01*
X37363695Y-61996054D01*
X37587540Y-61810175D01*
X37592138Y-61806702D01*
X37892133Y-61601202D01*
X37897066Y-61598146D01*
X38214742Y-61421201D01*
X38219919Y-61418623D01*
X38552569Y-61271744D01*
X38557959Y-61269656D01*
X38902723Y-61154103D01*
X38908301Y-61152515D01*
X39262281Y-61069260D01*
X39267951Y-61068200D01*
X39555871Y-61028037D01*
X39628086Y-61017964D01*
X39633883Y-61017427D01*
X39998556Y-61000567D01*
X40001466Y-61000500D01*
X40092710Y-61000500D01*
X52548232Y-61000500D01*
X52616353Y-61020502D01*
G37*
%TD.AperFunction*%
%TD*%
M02*
