%TF.GenerationSoftware,KiCad,Pcbnew,7.0.6-1.fc37*%
%TF.CreationDate,2023-08-13T21:27:01-07:00*%
%TF.ProjectId,iot_led_strip_pcb,696f745f-6c65-4645-9f73-747269705f70,rev?*%
%TF.SameCoordinates,Original*%
%TF.FileFunction,Drillmap*%
%TF.FilePolarity,Positive*%
%FSLAX45Y45*%
G04 Gerber Fmt 4.5, Leading zero omitted, Abs format (unit mm)*
G04 Created by KiCad (PCBNEW 7.0.6-1.fc37) date 2023-08-13 21:27:01*
%MOMM*%
%LPD*%
G01*
G04 APERTURE LIST*
%ADD10C,0.100000*%
%ADD11C,0.200000*%
%ADD12C,0.064998*%
G04 APERTURE END LIST*
D10*
X4000000Y-6000000D02*
X5360000Y-6000000D01*
X4000000Y-6000000D02*
G75*
G03*
X3500000Y-6500000I0J-500000D01*
G01*
X11000000Y-11000000D02*
X4000000Y-11000000D01*
X11000000Y-11000000D02*
G75*
G03*
X11500000Y-10500000I0J500000D01*
G01*
X3500000Y-10500000D02*
G75*
G03*
X4000000Y-11000000I500000J0D01*
G01*
X3500000Y-10500000D02*
X3500000Y-6500000D01*
X7700000Y-6740000D02*
X6100000Y-6740000D01*
X8440000Y-6000000D02*
X11000000Y-6000000D01*
X11500000Y-6500000D02*
X11500000Y-10500000D01*
X7700000Y-6740000D02*
G75*
G03*
X8440000Y-6000000I0J740000D01*
G01*
X11500000Y-6500000D02*
G75*
G03*
X11000000Y-6000000I-500000J0D01*
G01*
X5360000Y-6000000D02*
G75*
G03*
X6100000Y-6740000I740000J0D01*
G01*
D11*
D12*
X10829495Y-7453505D02*
X10894493Y-7518504D01*
X10894493Y-7453505D02*
X10829495Y-7518504D01*
X10829495Y-8032499D02*
X10894493Y-8097498D01*
X10894493Y-8032499D02*
X10829495Y-8097498D01*
D11*
X3755777Y-11316484D02*
X3755777Y-11116484D01*
X3755777Y-11116484D02*
X3803396Y-11116484D01*
X3803396Y-11116484D02*
X3831967Y-11126008D01*
X3831967Y-11126008D02*
X3851015Y-11145055D01*
X3851015Y-11145055D02*
X3860539Y-11164103D01*
X3860539Y-11164103D02*
X3870062Y-11202198D01*
X3870062Y-11202198D02*
X3870062Y-11230769D01*
X3870062Y-11230769D02*
X3860539Y-11268865D01*
X3860539Y-11268865D02*
X3851015Y-11287912D01*
X3851015Y-11287912D02*
X3831967Y-11306960D01*
X3831967Y-11306960D02*
X3803396Y-11316484D01*
X3803396Y-11316484D02*
X3755777Y-11316484D01*
X3955777Y-11316484D02*
X3955777Y-11183150D01*
X3955777Y-11221246D02*
X3965301Y-11202198D01*
X3965301Y-11202198D02*
X3974824Y-11192674D01*
X3974824Y-11192674D02*
X3993872Y-11183150D01*
X3993872Y-11183150D02*
X4012920Y-11183150D01*
X4079586Y-11316484D02*
X4079586Y-11183150D01*
X4079586Y-11116484D02*
X4070062Y-11126008D01*
X4070062Y-11126008D02*
X4079586Y-11135531D01*
X4079586Y-11135531D02*
X4089110Y-11126008D01*
X4089110Y-11126008D02*
X4079586Y-11116484D01*
X4079586Y-11116484D02*
X4079586Y-11135531D01*
X4203396Y-11316484D02*
X4184348Y-11306960D01*
X4184348Y-11306960D02*
X4174824Y-11287912D01*
X4174824Y-11287912D02*
X4174824Y-11116484D01*
X4308158Y-11316484D02*
X4289110Y-11306960D01*
X4289110Y-11306960D02*
X4279586Y-11287912D01*
X4279586Y-11287912D02*
X4279586Y-11116484D01*
X4536729Y-11316484D02*
X4536729Y-11116484D01*
X4536729Y-11116484D02*
X4603396Y-11259341D01*
X4603396Y-11259341D02*
X4670063Y-11116484D01*
X4670063Y-11116484D02*
X4670063Y-11316484D01*
X4851015Y-11316484D02*
X4851015Y-11211722D01*
X4851015Y-11211722D02*
X4841491Y-11192674D01*
X4841491Y-11192674D02*
X4822444Y-11183150D01*
X4822444Y-11183150D02*
X4784348Y-11183150D01*
X4784348Y-11183150D02*
X4765301Y-11192674D01*
X4851015Y-11306960D02*
X4831967Y-11316484D01*
X4831967Y-11316484D02*
X4784348Y-11316484D01*
X4784348Y-11316484D02*
X4765301Y-11306960D01*
X4765301Y-11306960D02*
X4755777Y-11287912D01*
X4755777Y-11287912D02*
X4755777Y-11268865D01*
X4755777Y-11268865D02*
X4765301Y-11249817D01*
X4765301Y-11249817D02*
X4784348Y-11240293D01*
X4784348Y-11240293D02*
X4831967Y-11240293D01*
X4831967Y-11240293D02*
X4851015Y-11230769D01*
X4946253Y-11183150D02*
X4946253Y-11383150D01*
X4946253Y-11192674D02*
X4965301Y-11183150D01*
X4965301Y-11183150D02*
X5003396Y-11183150D01*
X5003396Y-11183150D02*
X5022444Y-11192674D01*
X5022444Y-11192674D02*
X5031967Y-11202198D01*
X5031967Y-11202198D02*
X5041491Y-11221246D01*
X5041491Y-11221246D02*
X5041491Y-11278388D01*
X5041491Y-11278388D02*
X5031967Y-11297436D01*
X5031967Y-11297436D02*
X5022444Y-11306960D01*
X5022444Y-11306960D02*
X5003396Y-11316484D01*
X5003396Y-11316484D02*
X4965301Y-11316484D01*
X4965301Y-11316484D02*
X4946253Y-11306960D01*
X5127205Y-11297436D02*
X5136729Y-11306960D01*
X5136729Y-11306960D02*
X5127205Y-11316484D01*
X5127205Y-11316484D02*
X5117682Y-11306960D01*
X5117682Y-11306960D02*
X5127205Y-11297436D01*
X5127205Y-11297436D02*
X5127205Y-11316484D01*
X5127205Y-11192674D02*
X5136729Y-11202198D01*
X5136729Y-11202198D02*
X5127205Y-11211722D01*
X5127205Y-11211722D02*
X5117682Y-11202198D01*
X5117682Y-11202198D02*
X5127205Y-11192674D01*
X5127205Y-11192674D02*
X5127205Y-11211722D01*
D12*
X3430001Y-11612501D02*
X3495000Y-11677499D01*
X3495000Y-11612501D02*
X3430001Y-11677499D01*
D11*
X3793872Y-11536484D02*
X3812920Y-11536484D01*
X3812920Y-11536484D02*
X3831967Y-11546008D01*
X3831967Y-11546008D02*
X3841491Y-11555531D01*
X3841491Y-11555531D02*
X3851015Y-11574579D01*
X3851015Y-11574579D02*
X3860539Y-11612674D01*
X3860539Y-11612674D02*
X3860539Y-11660293D01*
X3860539Y-11660293D02*
X3851015Y-11698388D01*
X3851015Y-11698388D02*
X3841491Y-11717436D01*
X3841491Y-11717436D02*
X3831967Y-11726960D01*
X3831967Y-11726960D02*
X3812920Y-11736484D01*
X3812920Y-11736484D02*
X3793872Y-11736484D01*
X3793872Y-11736484D02*
X3774824Y-11726960D01*
X3774824Y-11726960D02*
X3765301Y-11717436D01*
X3765301Y-11717436D02*
X3755777Y-11698388D01*
X3755777Y-11698388D02*
X3746253Y-11660293D01*
X3746253Y-11660293D02*
X3746253Y-11612674D01*
X3746253Y-11612674D02*
X3755777Y-11574579D01*
X3755777Y-11574579D02*
X3765301Y-11555531D01*
X3765301Y-11555531D02*
X3774824Y-11546008D01*
X3774824Y-11546008D02*
X3793872Y-11536484D01*
X3946253Y-11717436D02*
X3955777Y-11726960D01*
X3955777Y-11726960D02*
X3946253Y-11736484D01*
X3946253Y-11736484D02*
X3936729Y-11726960D01*
X3936729Y-11726960D02*
X3946253Y-11717436D01*
X3946253Y-11717436D02*
X3946253Y-11736484D01*
X4127205Y-11536484D02*
X4089110Y-11536484D01*
X4089110Y-11536484D02*
X4070062Y-11546008D01*
X4070062Y-11546008D02*
X4060539Y-11555531D01*
X4060539Y-11555531D02*
X4041491Y-11584103D01*
X4041491Y-11584103D02*
X4031967Y-11622198D01*
X4031967Y-11622198D02*
X4031967Y-11698388D01*
X4031967Y-11698388D02*
X4041491Y-11717436D01*
X4041491Y-11717436D02*
X4051015Y-11726960D01*
X4051015Y-11726960D02*
X4070062Y-11736484D01*
X4070062Y-11736484D02*
X4108158Y-11736484D01*
X4108158Y-11736484D02*
X4127205Y-11726960D01*
X4127205Y-11726960D02*
X4136729Y-11717436D01*
X4136729Y-11717436D02*
X4146253Y-11698388D01*
X4146253Y-11698388D02*
X4146253Y-11650769D01*
X4146253Y-11650769D02*
X4136729Y-11631722D01*
X4136729Y-11631722D02*
X4127205Y-11622198D01*
X4127205Y-11622198D02*
X4108158Y-11612674D01*
X4108158Y-11612674D02*
X4070062Y-11612674D01*
X4070062Y-11612674D02*
X4051015Y-11622198D01*
X4051015Y-11622198D02*
X4041491Y-11631722D01*
X4041491Y-11631722D02*
X4031967Y-11650769D01*
X4327205Y-11536484D02*
X4231967Y-11536484D01*
X4231967Y-11536484D02*
X4222444Y-11631722D01*
X4222444Y-11631722D02*
X4231967Y-11622198D01*
X4231967Y-11622198D02*
X4251015Y-11612674D01*
X4251015Y-11612674D02*
X4298634Y-11612674D01*
X4298634Y-11612674D02*
X4317682Y-11622198D01*
X4317682Y-11622198D02*
X4327205Y-11631722D01*
X4327205Y-11631722D02*
X4336729Y-11650769D01*
X4336729Y-11650769D02*
X4336729Y-11698388D01*
X4336729Y-11698388D02*
X4327205Y-11717436D01*
X4327205Y-11717436D02*
X4317682Y-11726960D01*
X4317682Y-11726960D02*
X4298634Y-11736484D01*
X4298634Y-11736484D02*
X4251015Y-11736484D01*
X4251015Y-11736484D02*
X4231967Y-11726960D01*
X4231967Y-11726960D02*
X4222444Y-11717436D01*
X4460539Y-11536484D02*
X4479586Y-11536484D01*
X4479586Y-11536484D02*
X4498634Y-11546008D01*
X4498634Y-11546008D02*
X4508158Y-11555531D01*
X4508158Y-11555531D02*
X4517682Y-11574579D01*
X4517682Y-11574579D02*
X4527205Y-11612674D01*
X4527205Y-11612674D02*
X4527205Y-11660293D01*
X4527205Y-11660293D02*
X4517682Y-11698388D01*
X4517682Y-11698388D02*
X4508158Y-11717436D01*
X4508158Y-11717436D02*
X4498634Y-11726960D01*
X4498634Y-11726960D02*
X4479586Y-11736484D01*
X4479586Y-11736484D02*
X4460539Y-11736484D01*
X4460539Y-11736484D02*
X4441491Y-11726960D01*
X4441491Y-11726960D02*
X4431967Y-11717436D01*
X4431967Y-11717436D02*
X4422444Y-11698388D01*
X4422444Y-11698388D02*
X4412920Y-11660293D01*
X4412920Y-11660293D02*
X4412920Y-11612674D01*
X4412920Y-11612674D02*
X4422444Y-11574579D01*
X4422444Y-11574579D02*
X4431967Y-11555531D01*
X4431967Y-11555531D02*
X4441491Y-11546008D01*
X4441491Y-11546008D02*
X4460539Y-11536484D01*
X4612920Y-11736484D02*
X4612920Y-11603150D01*
X4612920Y-11622198D02*
X4622444Y-11612674D01*
X4622444Y-11612674D02*
X4641491Y-11603150D01*
X4641491Y-11603150D02*
X4670063Y-11603150D01*
X4670063Y-11603150D02*
X4689110Y-11612674D01*
X4689110Y-11612674D02*
X4698634Y-11631722D01*
X4698634Y-11631722D02*
X4698634Y-11736484D01*
X4698634Y-11631722D02*
X4708158Y-11612674D01*
X4708158Y-11612674D02*
X4727205Y-11603150D01*
X4727205Y-11603150D02*
X4755777Y-11603150D01*
X4755777Y-11603150D02*
X4774825Y-11612674D01*
X4774825Y-11612674D02*
X4784348Y-11631722D01*
X4784348Y-11631722D02*
X4784348Y-11736484D01*
X4879586Y-11736484D02*
X4879586Y-11603150D01*
X4879586Y-11622198D02*
X4889110Y-11612674D01*
X4889110Y-11612674D02*
X4908158Y-11603150D01*
X4908158Y-11603150D02*
X4936729Y-11603150D01*
X4936729Y-11603150D02*
X4955777Y-11612674D01*
X4955777Y-11612674D02*
X4965301Y-11631722D01*
X4965301Y-11631722D02*
X4965301Y-11736484D01*
X4965301Y-11631722D02*
X4974825Y-11612674D01*
X4974825Y-11612674D02*
X4993872Y-11603150D01*
X4993872Y-11603150D02*
X5022444Y-11603150D01*
X5022444Y-11603150D02*
X5041491Y-11612674D01*
X5041491Y-11612674D02*
X5051015Y-11631722D01*
X5051015Y-11631722D02*
X5051015Y-11736484D01*
X5441491Y-11526960D02*
X5270063Y-11784103D01*
X5698634Y-11536484D02*
X5717682Y-11536484D01*
X5717682Y-11536484D02*
X5736729Y-11546008D01*
X5736729Y-11546008D02*
X5746253Y-11555531D01*
X5746253Y-11555531D02*
X5755777Y-11574579D01*
X5755777Y-11574579D02*
X5765301Y-11612674D01*
X5765301Y-11612674D02*
X5765301Y-11660293D01*
X5765301Y-11660293D02*
X5755777Y-11698388D01*
X5755777Y-11698388D02*
X5746253Y-11717436D01*
X5746253Y-11717436D02*
X5736729Y-11726960D01*
X5736729Y-11726960D02*
X5717682Y-11736484D01*
X5717682Y-11736484D02*
X5698634Y-11736484D01*
X5698634Y-11736484D02*
X5679586Y-11726960D01*
X5679586Y-11726960D02*
X5670063Y-11717436D01*
X5670063Y-11717436D02*
X5660539Y-11698388D01*
X5660539Y-11698388D02*
X5651015Y-11660293D01*
X5651015Y-11660293D02*
X5651015Y-11612674D01*
X5651015Y-11612674D02*
X5660539Y-11574579D01*
X5660539Y-11574579D02*
X5670063Y-11555531D01*
X5670063Y-11555531D02*
X5679586Y-11546008D01*
X5679586Y-11546008D02*
X5698634Y-11536484D01*
X5851015Y-11717436D02*
X5860539Y-11726960D01*
X5860539Y-11726960D02*
X5851015Y-11736484D01*
X5851015Y-11736484D02*
X5841491Y-11726960D01*
X5841491Y-11726960D02*
X5851015Y-11717436D01*
X5851015Y-11717436D02*
X5851015Y-11736484D01*
X5984348Y-11536484D02*
X6003396Y-11536484D01*
X6003396Y-11536484D02*
X6022444Y-11546008D01*
X6022444Y-11546008D02*
X6031967Y-11555531D01*
X6031967Y-11555531D02*
X6041491Y-11574579D01*
X6041491Y-11574579D02*
X6051015Y-11612674D01*
X6051015Y-11612674D02*
X6051015Y-11660293D01*
X6051015Y-11660293D02*
X6041491Y-11698388D01*
X6041491Y-11698388D02*
X6031967Y-11717436D01*
X6031967Y-11717436D02*
X6022444Y-11726960D01*
X6022444Y-11726960D02*
X6003396Y-11736484D01*
X6003396Y-11736484D02*
X5984348Y-11736484D01*
X5984348Y-11736484D02*
X5965301Y-11726960D01*
X5965301Y-11726960D02*
X5955777Y-11717436D01*
X5955777Y-11717436D02*
X5946253Y-11698388D01*
X5946253Y-11698388D02*
X5936729Y-11660293D01*
X5936729Y-11660293D02*
X5936729Y-11612674D01*
X5936729Y-11612674D02*
X5946253Y-11574579D01*
X5946253Y-11574579D02*
X5955777Y-11555531D01*
X5955777Y-11555531D02*
X5965301Y-11546008D01*
X5965301Y-11546008D02*
X5984348Y-11536484D01*
X6127206Y-11555531D02*
X6136729Y-11546008D01*
X6136729Y-11546008D02*
X6155777Y-11536484D01*
X6155777Y-11536484D02*
X6203396Y-11536484D01*
X6203396Y-11536484D02*
X6222444Y-11546008D01*
X6222444Y-11546008D02*
X6231967Y-11555531D01*
X6231967Y-11555531D02*
X6241491Y-11574579D01*
X6241491Y-11574579D02*
X6241491Y-11593627D01*
X6241491Y-11593627D02*
X6231967Y-11622198D01*
X6231967Y-11622198D02*
X6117682Y-11736484D01*
X6117682Y-11736484D02*
X6241491Y-11736484D01*
X6422444Y-11536484D02*
X6327206Y-11536484D01*
X6327206Y-11536484D02*
X6317682Y-11631722D01*
X6317682Y-11631722D02*
X6327206Y-11622198D01*
X6327206Y-11622198D02*
X6346253Y-11612674D01*
X6346253Y-11612674D02*
X6393872Y-11612674D01*
X6393872Y-11612674D02*
X6412920Y-11622198D01*
X6412920Y-11622198D02*
X6422444Y-11631722D01*
X6422444Y-11631722D02*
X6431967Y-11650769D01*
X6431967Y-11650769D02*
X6431967Y-11698388D01*
X6431967Y-11698388D02*
X6422444Y-11717436D01*
X6422444Y-11717436D02*
X6412920Y-11726960D01*
X6412920Y-11726960D02*
X6393872Y-11736484D01*
X6393872Y-11736484D02*
X6346253Y-11736484D01*
X6346253Y-11736484D02*
X6327206Y-11726960D01*
X6327206Y-11726960D02*
X6317682Y-11717436D01*
X6603396Y-11536484D02*
X6565301Y-11536484D01*
X6565301Y-11536484D02*
X6546253Y-11546008D01*
X6546253Y-11546008D02*
X6536729Y-11555531D01*
X6536729Y-11555531D02*
X6517682Y-11584103D01*
X6517682Y-11584103D02*
X6508158Y-11622198D01*
X6508158Y-11622198D02*
X6508158Y-11698388D01*
X6508158Y-11698388D02*
X6517682Y-11717436D01*
X6517682Y-11717436D02*
X6527206Y-11726960D01*
X6527206Y-11726960D02*
X6546253Y-11736484D01*
X6546253Y-11736484D02*
X6584348Y-11736484D01*
X6584348Y-11736484D02*
X6603396Y-11726960D01*
X6603396Y-11726960D02*
X6612920Y-11717436D01*
X6612920Y-11717436D02*
X6622444Y-11698388D01*
X6622444Y-11698388D02*
X6622444Y-11650769D01*
X6622444Y-11650769D02*
X6612920Y-11631722D01*
X6612920Y-11631722D02*
X6603396Y-11622198D01*
X6603396Y-11622198D02*
X6584348Y-11612674D01*
X6584348Y-11612674D02*
X6546253Y-11612674D01*
X6546253Y-11612674D02*
X6527206Y-11622198D01*
X6527206Y-11622198D02*
X6517682Y-11631722D01*
X6517682Y-11631722D02*
X6508158Y-11650769D01*
X6698634Y-11536484D02*
X6698634Y-11574579D01*
X6774825Y-11536484D02*
X6774825Y-11574579D01*
X7070063Y-11812674D02*
X7060539Y-11803150D01*
X7060539Y-11803150D02*
X7041491Y-11774579D01*
X7041491Y-11774579D02*
X7031968Y-11755531D01*
X7031968Y-11755531D02*
X7022444Y-11726960D01*
X7022444Y-11726960D02*
X7012920Y-11679341D01*
X7012920Y-11679341D02*
X7012920Y-11641246D01*
X7012920Y-11641246D02*
X7022444Y-11593627D01*
X7022444Y-11593627D02*
X7031968Y-11565055D01*
X7031968Y-11565055D02*
X7041491Y-11546008D01*
X7041491Y-11546008D02*
X7060539Y-11517436D01*
X7060539Y-11517436D02*
X7070063Y-11507912D01*
X7136729Y-11555531D02*
X7146253Y-11546008D01*
X7146253Y-11546008D02*
X7165301Y-11536484D01*
X7165301Y-11536484D02*
X7212920Y-11536484D01*
X7212920Y-11536484D02*
X7231968Y-11546008D01*
X7231968Y-11546008D02*
X7241491Y-11555531D01*
X7241491Y-11555531D02*
X7251015Y-11574579D01*
X7251015Y-11574579D02*
X7251015Y-11593627D01*
X7251015Y-11593627D02*
X7241491Y-11622198D01*
X7241491Y-11622198D02*
X7127206Y-11736484D01*
X7127206Y-11736484D02*
X7251015Y-11736484D01*
X7489110Y-11736484D02*
X7489110Y-11536484D01*
X7574825Y-11736484D02*
X7574825Y-11631722D01*
X7574825Y-11631722D02*
X7565301Y-11612674D01*
X7565301Y-11612674D02*
X7546253Y-11603150D01*
X7546253Y-11603150D02*
X7517682Y-11603150D01*
X7517682Y-11603150D02*
X7498634Y-11612674D01*
X7498634Y-11612674D02*
X7489110Y-11622198D01*
X7698634Y-11736484D02*
X7679587Y-11726960D01*
X7679587Y-11726960D02*
X7670063Y-11717436D01*
X7670063Y-11717436D02*
X7660539Y-11698388D01*
X7660539Y-11698388D02*
X7660539Y-11641246D01*
X7660539Y-11641246D02*
X7670063Y-11622198D01*
X7670063Y-11622198D02*
X7679587Y-11612674D01*
X7679587Y-11612674D02*
X7698634Y-11603150D01*
X7698634Y-11603150D02*
X7727206Y-11603150D01*
X7727206Y-11603150D02*
X7746253Y-11612674D01*
X7746253Y-11612674D02*
X7755777Y-11622198D01*
X7755777Y-11622198D02*
X7765301Y-11641246D01*
X7765301Y-11641246D02*
X7765301Y-11698388D01*
X7765301Y-11698388D02*
X7755777Y-11717436D01*
X7755777Y-11717436D02*
X7746253Y-11726960D01*
X7746253Y-11726960D02*
X7727206Y-11736484D01*
X7727206Y-11736484D02*
X7698634Y-11736484D01*
X7879587Y-11736484D02*
X7860539Y-11726960D01*
X7860539Y-11726960D02*
X7851015Y-11707912D01*
X7851015Y-11707912D02*
X7851015Y-11536484D01*
X8031968Y-11726960D02*
X8012920Y-11736484D01*
X8012920Y-11736484D02*
X7974825Y-11736484D01*
X7974825Y-11736484D02*
X7955777Y-11726960D01*
X7955777Y-11726960D02*
X7946253Y-11707912D01*
X7946253Y-11707912D02*
X7946253Y-11631722D01*
X7946253Y-11631722D02*
X7955777Y-11612674D01*
X7955777Y-11612674D02*
X7974825Y-11603150D01*
X7974825Y-11603150D02*
X8012920Y-11603150D01*
X8012920Y-11603150D02*
X8031968Y-11612674D01*
X8031968Y-11612674D02*
X8041491Y-11631722D01*
X8041491Y-11631722D02*
X8041491Y-11650769D01*
X8041491Y-11650769D02*
X7946253Y-11669817D01*
X8117682Y-11726960D02*
X8136730Y-11736484D01*
X8136730Y-11736484D02*
X8174825Y-11736484D01*
X8174825Y-11736484D02*
X8193872Y-11726960D01*
X8193872Y-11726960D02*
X8203396Y-11707912D01*
X8203396Y-11707912D02*
X8203396Y-11698388D01*
X8203396Y-11698388D02*
X8193872Y-11679341D01*
X8193872Y-11679341D02*
X8174825Y-11669817D01*
X8174825Y-11669817D02*
X8146253Y-11669817D01*
X8146253Y-11669817D02*
X8127206Y-11660293D01*
X8127206Y-11660293D02*
X8117682Y-11641246D01*
X8117682Y-11641246D02*
X8117682Y-11631722D01*
X8117682Y-11631722D02*
X8127206Y-11612674D01*
X8127206Y-11612674D02*
X8146253Y-11603150D01*
X8146253Y-11603150D02*
X8174825Y-11603150D01*
X8174825Y-11603150D02*
X8193872Y-11612674D01*
X8270063Y-11812674D02*
X8279587Y-11803150D01*
X8279587Y-11803150D02*
X8298634Y-11774579D01*
X8298634Y-11774579D02*
X8308158Y-11755531D01*
X8308158Y-11755531D02*
X8317682Y-11726960D01*
X8317682Y-11726960D02*
X8327206Y-11679341D01*
X8327206Y-11679341D02*
X8327206Y-11641246D01*
X8327206Y-11641246D02*
X8317682Y-11593627D01*
X8317682Y-11593627D02*
X8308158Y-11565055D01*
X8308158Y-11565055D02*
X8298634Y-11546008D01*
X8298634Y-11546008D02*
X8279587Y-11517436D01*
X8279587Y-11517436D02*
X8270063Y-11507912D01*
X8631968Y-11812674D02*
X8622444Y-11803150D01*
X8622444Y-11803150D02*
X8603396Y-11774579D01*
X8603396Y-11774579D02*
X8593873Y-11755531D01*
X8593873Y-11755531D02*
X8584349Y-11726960D01*
X8584349Y-11726960D02*
X8574825Y-11679341D01*
X8574825Y-11679341D02*
X8574825Y-11641246D01*
X8574825Y-11641246D02*
X8584349Y-11593627D01*
X8584349Y-11593627D02*
X8593873Y-11565055D01*
X8593873Y-11565055D02*
X8603396Y-11546008D01*
X8603396Y-11546008D02*
X8622444Y-11517436D01*
X8622444Y-11517436D02*
X8631968Y-11507912D01*
X8708158Y-11603150D02*
X8708158Y-11736484D01*
X8708158Y-11622198D02*
X8717682Y-11612674D01*
X8717682Y-11612674D02*
X8736730Y-11603150D01*
X8736730Y-11603150D02*
X8765301Y-11603150D01*
X8765301Y-11603150D02*
X8784349Y-11612674D01*
X8784349Y-11612674D02*
X8793873Y-11631722D01*
X8793873Y-11631722D02*
X8793873Y-11736484D01*
X8917682Y-11736484D02*
X8898634Y-11726960D01*
X8898634Y-11726960D02*
X8889111Y-11717436D01*
X8889111Y-11717436D02*
X8879587Y-11698388D01*
X8879587Y-11698388D02*
X8879587Y-11641246D01*
X8879587Y-11641246D02*
X8889111Y-11622198D01*
X8889111Y-11622198D02*
X8898634Y-11612674D01*
X8898634Y-11612674D02*
X8917682Y-11603150D01*
X8917682Y-11603150D02*
X8946254Y-11603150D01*
X8946254Y-11603150D02*
X8965301Y-11612674D01*
X8965301Y-11612674D02*
X8974825Y-11622198D01*
X8974825Y-11622198D02*
X8984349Y-11641246D01*
X8984349Y-11641246D02*
X8984349Y-11698388D01*
X8984349Y-11698388D02*
X8974825Y-11717436D01*
X8974825Y-11717436D02*
X8965301Y-11726960D01*
X8965301Y-11726960D02*
X8946254Y-11736484D01*
X8946254Y-11736484D02*
X8917682Y-11736484D01*
X9041492Y-11603150D02*
X9117682Y-11603150D01*
X9070063Y-11536484D02*
X9070063Y-11707912D01*
X9070063Y-11707912D02*
X9079587Y-11726960D01*
X9079587Y-11726960D02*
X9098634Y-11736484D01*
X9098634Y-11736484D02*
X9117682Y-11736484D01*
X9336730Y-11603150D02*
X9336730Y-11803150D01*
X9336730Y-11612674D02*
X9355777Y-11603150D01*
X9355777Y-11603150D02*
X9393873Y-11603150D01*
X9393873Y-11603150D02*
X9412920Y-11612674D01*
X9412920Y-11612674D02*
X9422444Y-11622198D01*
X9422444Y-11622198D02*
X9431968Y-11641246D01*
X9431968Y-11641246D02*
X9431968Y-11698388D01*
X9431968Y-11698388D02*
X9422444Y-11717436D01*
X9422444Y-11717436D02*
X9412920Y-11726960D01*
X9412920Y-11726960D02*
X9393873Y-11736484D01*
X9393873Y-11736484D02*
X9355777Y-11736484D01*
X9355777Y-11736484D02*
X9336730Y-11726960D01*
X9546254Y-11736484D02*
X9527206Y-11726960D01*
X9527206Y-11726960D02*
X9517682Y-11707912D01*
X9517682Y-11707912D02*
X9517682Y-11536484D01*
X9708158Y-11736484D02*
X9708158Y-11631722D01*
X9708158Y-11631722D02*
X9698635Y-11612674D01*
X9698635Y-11612674D02*
X9679587Y-11603150D01*
X9679587Y-11603150D02*
X9641492Y-11603150D01*
X9641492Y-11603150D02*
X9622444Y-11612674D01*
X9708158Y-11726960D02*
X9689111Y-11736484D01*
X9689111Y-11736484D02*
X9641492Y-11736484D01*
X9641492Y-11736484D02*
X9622444Y-11726960D01*
X9622444Y-11726960D02*
X9612920Y-11707912D01*
X9612920Y-11707912D02*
X9612920Y-11688865D01*
X9612920Y-11688865D02*
X9622444Y-11669817D01*
X9622444Y-11669817D02*
X9641492Y-11660293D01*
X9641492Y-11660293D02*
X9689111Y-11660293D01*
X9689111Y-11660293D02*
X9708158Y-11650769D01*
X9774825Y-11603150D02*
X9851015Y-11603150D01*
X9803396Y-11536484D02*
X9803396Y-11707912D01*
X9803396Y-11707912D02*
X9812920Y-11726960D01*
X9812920Y-11726960D02*
X9831968Y-11736484D01*
X9831968Y-11736484D02*
X9851015Y-11736484D01*
X9993873Y-11726960D02*
X9974825Y-11736484D01*
X9974825Y-11736484D02*
X9936730Y-11736484D01*
X9936730Y-11736484D02*
X9917682Y-11726960D01*
X9917682Y-11726960D02*
X9908158Y-11707912D01*
X9908158Y-11707912D02*
X9908158Y-11631722D01*
X9908158Y-11631722D02*
X9917682Y-11612674D01*
X9917682Y-11612674D02*
X9936730Y-11603150D01*
X9936730Y-11603150D02*
X9974825Y-11603150D01*
X9974825Y-11603150D02*
X9993873Y-11612674D01*
X9993873Y-11612674D02*
X10003396Y-11631722D01*
X10003396Y-11631722D02*
X10003396Y-11650769D01*
X10003396Y-11650769D02*
X9908158Y-11669817D01*
X10174825Y-11736484D02*
X10174825Y-11536484D01*
X10174825Y-11726960D02*
X10155777Y-11736484D01*
X10155777Y-11736484D02*
X10117682Y-11736484D01*
X10117682Y-11736484D02*
X10098635Y-11726960D01*
X10098635Y-11726960D02*
X10089111Y-11717436D01*
X10089111Y-11717436D02*
X10079587Y-11698388D01*
X10079587Y-11698388D02*
X10079587Y-11641246D01*
X10079587Y-11641246D02*
X10089111Y-11622198D01*
X10089111Y-11622198D02*
X10098635Y-11612674D01*
X10098635Y-11612674D02*
X10117682Y-11603150D01*
X10117682Y-11603150D02*
X10155777Y-11603150D01*
X10155777Y-11603150D02*
X10174825Y-11612674D01*
X10251016Y-11812674D02*
X10260539Y-11803150D01*
X10260539Y-11803150D02*
X10279587Y-11774579D01*
X10279587Y-11774579D02*
X10289111Y-11755531D01*
X10289111Y-11755531D02*
X10298635Y-11726960D01*
X10298635Y-11726960D02*
X10308158Y-11679341D01*
X10308158Y-11679341D02*
X10308158Y-11641246D01*
X10308158Y-11641246D02*
X10298635Y-11593627D01*
X10298635Y-11593627D02*
X10289111Y-11565055D01*
X10289111Y-11565055D02*
X10279587Y-11546008D01*
X10279587Y-11546008D02*
X10260539Y-11517436D01*
X10260539Y-11517436D02*
X10251016Y-11507912D01*
M02*
