%TF.GenerationSoftware,KiCad,Pcbnew,7.0.6-1.fc37*%
%TF.CreationDate,2023-08-13T21:26:51-07:00*%
%TF.ProjectId,iot_led_strip_pcb,696f745f-6c65-4645-9f73-747269705f70,rev?*%
%TF.SameCoordinates,Original*%
%TF.FileFunction,Soldermask,Top*%
%TF.FilePolarity,Negative*%
%FSLAX46Y46*%
G04 Gerber Fmt 4.6, Leading zero omitted, Abs format (unit mm)*
G04 Created by KiCad (PCBNEW 7.0.6-1.fc37) date 2023-08-13 21:26:51*
%MOMM*%
%LPD*%
G01*
G04 APERTURE LIST*
G04 Aperture macros list*
%AMRoundRect*
0 Rectangle with rounded corners*
0 $1 Rounding radius*
0 $2 $3 $4 $5 $6 $7 $8 $9 X,Y pos of 4 corners*
0 Add a 4 corners polygon primitive as box body*
4,1,4,$2,$3,$4,$5,$6,$7,$8,$9,$2,$3,0*
0 Add four circle primitives for the rounded corners*
1,1,$1+$1,$2,$3*
1,1,$1+$1,$4,$5*
1,1,$1+$1,$6,$7*
1,1,$1+$1,$8,$9*
0 Add four rect primitives between the rounded corners*
20,1,$1+$1,$2,$3,$4,$5,0*
20,1,$1+$1,$4,$5,$6,$7,0*
20,1,$1+$1,$6,$7,$8,$9,0*
20,1,$1+$1,$8,$9,$2,$3,0*%
%AMFreePoly0*
4,1,19,0.500000,-0.750000,0.000000,-0.750000,0.000000,-0.744911,-0.071157,-0.744911,-0.207708,-0.704816,-0.327430,-0.627875,-0.420627,-0.520320,-0.479746,-0.390866,-0.500000,-0.250000,-0.500000,0.250000,-0.479746,0.390866,-0.420627,0.520320,-0.327430,0.627875,-0.207708,0.704816,-0.071157,0.744911,0.000000,0.744911,0.000000,0.750000,0.500000,0.750000,0.500000,-0.750000,0.500000,-0.750000,
$1*%
%AMFreePoly1*
4,1,19,0.000000,0.744911,0.071157,0.744911,0.207708,0.704816,0.327430,0.627875,0.420627,0.520320,0.479746,0.390866,0.500000,0.250000,0.500000,-0.250000,0.479746,-0.390866,0.420627,-0.520320,0.327430,-0.627875,0.207708,-0.704816,0.071157,-0.744911,0.000000,-0.744911,0.000000,-0.750000,-0.500000,-0.750000,-0.500000,0.750000,0.000000,0.750000,0.000000,0.744911,0.000000,0.744911,
$1*%
G04 Aperture macros list end*
%ADD10R,1.560000X0.650000*%
%ADD11R,1.700000X1.700000*%
%ADD12O,1.700000X1.700000*%
%ADD13RoundRect,0.250000X0.350000X0.450000X-0.350000X0.450000X-0.350000X-0.450000X0.350000X-0.450000X0*%
%ADD14C,1.500000*%
%ADD15RoundRect,0.250000X-0.350000X-0.450000X0.350000X-0.450000X0.350000X0.450000X-0.350000X0.450000X0*%
%ADD16RoundRect,0.250000X0.337500X0.475000X-0.337500X0.475000X-0.337500X-0.475000X0.337500X-0.475000X0*%
%ADD17R,1.400000X1.300000*%
%ADD18FreePoly0,180.000000*%
%ADD19FreePoly1,180.000000*%
%ADD20RoundRect,0.250000X-0.475000X0.337500X-0.475000X-0.337500X0.475000X-0.337500X0.475000X0.337500X0*%
%ADD21C,2.000000*%
%ADD22RoundRect,0.250000X0.475000X-0.337500X0.475000X0.337500X-0.475000X0.337500X-0.475000X-0.337500X0*%
%ADD23R,1.700000X1.000000*%
%ADD24RoundRect,0.250000X-0.325000X-0.450000X0.325000X-0.450000X0.325000X0.450000X-0.325000X0.450000X0*%
%ADD25RoundRect,0.150000X-0.150000X0.512500X-0.150000X-0.512500X0.150000X-0.512500X0.150000X0.512500X0*%
%ADD26R,2.200000X1.200000*%
%ADD27R,6.400000X5.800000*%
%ADD28R,4.600000X2.000000*%
%ADD29O,4.200000X2.000000*%
%ADD30O,2.000000X4.200000*%
%ADD31R,2.500000X1.000000*%
%ADD32R,1.000000X1.800000*%
%ADD33R,1.800000X2.100000*%
%ADD34RoundRect,0.250000X0.450000X-0.350000X0.450000X0.350000X-0.450000X0.350000X-0.450000X-0.350000X0*%
%ADD35C,0.800000*%
%ADD36C,6.400000*%
%ADD37RoundRect,0.150000X-0.150000X0.825000X-0.150000X-0.825000X0.150000X-0.825000X0.150000X0.825000X0*%
%ADD38R,1.000000X1.000000*%
%ADD39RoundRect,0.250000X-0.337500X-0.475000X0.337500X-0.475000X0.337500X0.475000X-0.337500X0.475000X0*%
%ADD40R,1.500000X2.000000*%
%ADD41R,3.800000X2.000000*%
%ADD42FreePoly0,90.000000*%
%ADD43FreePoly1,90.000000*%
%ADD44RoundRect,0.250000X-0.450000X0.350000X-0.450000X-0.350000X0.450000X-0.350000X0.450000X0.350000X0*%
%ADD45C,1.000000*%
%ADD46R,1.300000X1.400000*%
%ADD47C,0.649987*%
%ADD48O,2.100000X1.000000*%
%ADD49O,1.800000X1.000000*%
%ADD50R,1.240005X0.600000*%
%ADD51R,1.240005X0.300000*%
G04 APERTURE END LIST*
D10*
%TO.C,U8*%
X57250000Y-80450000D03*
X57250000Y-79500000D03*
X57250000Y-78550000D03*
X54550000Y-78550000D03*
X54550000Y-80450000D03*
%TD*%
D11*
%TO.C,J4*%
X37500000Y-96500000D03*
D12*
X37500000Y-93960000D03*
X37500000Y-91420000D03*
X37500000Y-88880000D03*
%TD*%
D13*
%TO.C,R9*%
X94800000Y-63000000D03*
X92800000Y-63000000D03*
%TD*%
D14*
%TO.C,TP2*%
X101200000Y-77200000D03*
%TD*%
D15*
%TO.C,R12*%
X53300000Y-69300000D03*
X55300000Y-69300000D03*
%TD*%
%TO.C,R13*%
X53300000Y-71600000D03*
X55300000Y-71600000D03*
%TD*%
D16*
%TO.C,C16*%
X73300000Y-93600000D03*
X71225000Y-93600000D03*
%TD*%
%TO.C,C3*%
X88437500Y-75746800D03*
X86362500Y-75746800D03*
%TD*%
D14*
%TO.C,TP3*%
X82650000Y-70350000D03*
%TD*%
D17*
%TO.C,D5*%
X65860970Y-93731250D03*
X65860970Y-90831250D03*
%TD*%
D18*
%TO.C,JP3*%
X45300000Y-73900000D03*
D19*
X44000000Y-73900000D03*
%TD*%
D20*
%TO.C,C1*%
X102000000Y-67325000D03*
X102000000Y-69400000D03*
%TD*%
D21*
%TO.C,TP8*%
X81000000Y-92100000D03*
%TD*%
D13*
%TO.C,R8*%
X94800000Y-65000000D03*
X92800000Y-65000000D03*
%TD*%
D16*
%TO.C,C14*%
X56437500Y-76500000D03*
X54362500Y-76500000D03*
%TD*%
D22*
%TO.C,C10*%
X54900000Y-103037500D03*
X54900000Y-100962500D03*
%TD*%
D21*
%TO.C,TP6*%
X68200000Y-101800000D03*
%TD*%
D23*
%TO.C,SW1*%
X89300000Y-88100000D03*
X83000000Y-88100000D03*
X89300000Y-84300000D03*
X83000000Y-84300000D03*
%TD*%
D13*
%TO.C,R7*%
X82100000Y-81000000D03*
X80100000Y-81000000D03*
%TD*%
D11*
%TO.C,JP4*%
X45800000Y-70800000D03*
D12*
X43260000Y-70800000D03*
%TD*%
D24*
%TO.C,D3*%
X49250000Y-69300000D03*
X51300000Y-69300000D03*
%TD*%
D10*
%TO.C,U7*%
X57450000Y-96700000D03*
X57450000Y-95750000D03*
X57450000Y-94800000D03*
X54750000Y-94800000D03*
X54750000Y-96700000D03*
%TD*%
D13*
%TO.C,R16*%
X56500000Y-82400000D03*
X54500000Y-82400000D03*
%TD*%
D25*
%TO.C,Q1*%
X90100000Y-79062500D03*
X88200000Y-79062500D03*
X89150000Y-81337500D03*
%TD*%
D22*
%TO.C,C15*%
X106600000Y-91575000D03*
X106600000Y-89500000D03*
%TD*%
D16*
%TO.C,C13*%
X56600000Y-92800000D03*
X54525000Y-92800000D03*
%TD*%
D26*
%TO.C,Q5*%
X51925000Y-82855000D03*
D27*
X45625000Y-80575000D03*
D26*
X51925000Y-78295000D03*
%TD*%
D11*
%TO.C,J5*%
X67360000Y-87400000D03*
D12*
X69900000Y-87400000D03*
X72440000Y-87400000D03*
X74980000Y-87400000D03*
%TD*%
D14*
%TO.C,TP1*%
X102800000Y-71600000D03*
%TD*%
D28*
%TO.C,J3*%
X85350000Y-95650000D03*
D29*
X85350000Y-101950000D03*
D30*
X90150000Y-98550000D03*
%TD*%
D13*
%TO.C,R14*%
X56500000Y-90700000D03*
X54500000Y-90700000D03*
%TD*%
D31*
%TO.C,U3*%
X61332500Y-68724500D03*
X61332500Y-70724500D03*
X61332500Y-72724500D03*
X61332500Y-74724500D03*
X61332500Y-76724500D03*
X61332500Y-78724500D03*
X61332500Y-80724500D03*
X61332500Y-82724500D03*
D32*
X63932500Y-84224500D03*
X65932500Y-84224500D03*
X67932500Y-84224500D03*
X69932500Y-84224500D03*
X71932500Y-84224500D03*
X73932500Y-84224500D03*
D31*
X76532500Y-82724500D03*
X76532500Y-80724500D03*
X76532500Y-78724500D03*
X76532500Y-76724500D03*
X76532500Y-74724500D03*
X76532500Y-72724500D03*
X76532500Y-70724500D03*
X76532500Y-68724500D03*
%TD*%
D17*
%TO.C,D6*%
X68662500Y-93731250D03*
X68662500Y-90831250D03*
%TD*%
D33*
%TO.C,Y1*%
X86250000Y-70296800D03*
X86250000Y-73196800D03*
X88550000Y-73196800D03*
X88550000Y-70296800D03*
%TD*%
D34*
%TO.C,R3*%
X104644881Y-75555117D03*
X104644881Y-73555117D03*
%TD*%
D35*
%TO.C,H4*%
X107600000Y-105000000D03*
X108302944Y-103302944D03*
X108302944Y-106697056D03*
X110000000Y-102600000D03*
D36*
X110000000Y-105000000D03*
D35*
X110000000Y-107400000D03*
X111697056Y-103302944D03*
X111697056Y-106697056D03*
X112400000Y-105000000D03*
%TD*%
D37*
%TO.C,U1*%
X99620000Y-69000000D03*
X98350000Y-69000000D03*
X97080000Y-69000000D03*
X95810000Y-69000000D03*
X94540000Y-69000000D03*
X93270000Y-69000000D03*
X92000000Y-69000000D03*
X90730000Y-69000000D03*
X90730000Y-73950000D03*
X92000000Y-73950000D03*
X93270000Y-73950000D03*
X94540000Y-73950000D03*
X95810000Y-73950000D03*
X97080000Y-73950000D03*
X98350000Y-73950000D03*
X99620000Y-73950000D03*
%TD*%
D21*
%TO.C,TP7*%
X68100000Y-97300000D03*
%TD*%
D22*
%TO.C,C5*%
X101800000Y-91600000D03*
X101800000Y-89525000D03*
%TD*%
D38*
%TO.C,D7*%
X96400000Y-92200000D03*
X93900000Y-92200000D03*
%TD*%
D16*
%TO.C,C7*%
X73262500Y-91000000D03*
X71187500Y-91000000D03*
%TD*%
D10*
%TO.C,U6*%
X57350000Y-88650000D03*
X57350000Y-87700000D03*
X57350000Y-86750000D03*
X54650000Y-86750000D03*
X54650000Y-88650000D03*
%TD*%
D39*
%TO.C,C4*%
X62062500Y-86500000D03*
X64137500Y-86500000D03*
%TD*%
D14*
%TO.C,TP4*%
X80550000Y-68650000D03*
%TD*%
D34*
%TO.C,R11*%
X100450000Y-81700000D03*
X100450000Y-79700000D03*
%TD*%
D11*
%TO.C,J7*%
X37500000Y-78200000D03*
D12*
X37500000Y-75660000D03*
X37500000Y-73120000D03*
%TD*%
D40*
%TO.C,U4*%
X72050000Y-103500000D03*
X74350000Y-103500000D03*
D41*
X74350000Y-97200000D03*
D40*
X76650000Y-103500000D03*
%TD*%
D13*
%TO.C,R2*%
X94150000Y-81200000D03*
X92150000Y-81200000D03*
%TD*%
D24*
%TO.C,D1*%
X49250000Y-71600000D03*
X51300000Y-71600000D03*
%TD*%
D38*
%TO.C,D8*%
X63562500Y-91181250D03*
X63562500Y-93681250D03*
%TD*%
D21*
%TO.C,TP5*%
X110100000Y-97100000D03*
%TD*%
D42*
%TO.C,JP2*%
X107072163Y-87432170D03*
D43*
X107072163Y-86132170D03*
%TD*%
D16*
%TO.C,C12*%
X56600000Y-84700000D03*
X54525000Y-84700000D03*
%TD*%
D26*
%TO.C,Q4*%
X51900000Y-97680000D03*
D27*
X45600000Y-95400000D03*
D26*
X51900000Y-93120000D03*
%TD*%
D39*
%TO.C,C2*%
X86400000Y-67746800D03*
X88475000Y-67746800D03*
%TD*%
D22*
%TO.C,C11*%
X57102000Y-103037500D03*
X57102000Y-100962500D03*
%TD*%
D35*
%TO.C,H1*%
X37600000Y-65000000D03*
X38302944Y-63302944D03*
X38302944Y-66697056D03*
X40000000Y-62600000D03*
D36*
X40000000Y-65000000D03*
D35*
X40000000Y-67400000D03*
X41697056Y-63302944D03*
X41697056Y-66697056D03*
X42400000Y-65000000D03*
%TD*%
D44*
%TO.C,R10*%
X86150000Y-79200000D03*
X86150000Y-81200000D03*
%TD*%
D45*
%TO.C,FID3*%
X110000000Y-70000000D03*
%TD*%
D22*
%TO.C,C6*%
X104200000Y-91600000D03*
X104200000Y-89525000D03*
%TD*%
D46*
%TO.C,D4*%
X110250000Y-94200000D03*
X107350000Y-94200000D03*
%TD*%
D23*
%TO.C,SW2*%
X98800000Y-88100000D03*
X92500000Y-88100000D03*
X98800000Y-84300000D03*
X92500000Y-84300000D03*
%TD*%
D39*
%TO.C,C8*%
X75550000Y-93600000D03*
X77625000Y-93600000D03*
%TD*%
D26*
%TO.C,Q3*%
X51900000Y-90180000D03*
D27*
X45600000Y-87900000D03*
D26*
X51900000Y-85620000D03*
%TD*%
D25*
%TO.C,Q2*%
X98100000Y-79062500D03*
X96200000Y-79062500D03*
X97150000Y-81337500D03*
%TD*%
D35*
%TO.C,H3*%
X37600000Y-105000000D03*
X38302944Y-103302944D03*
X38302944Y-106697056D03*
X40000000Y-102600000D03*
D36*
X40000000Y-105000000D03*
D35*
X40000000Y-107400000D03*
X41697056Y-103302944D03*
X41697056Y-106697056D03*
X42400000Y-105000000D03*
%TD*%
D15*
%TO.C,R1*%
X92150000Y-78700000D03*
X94150000Y-78700000D03*
%TD*%
D35*
%TO.C,H2*%
X107600000Y-65000000D03*
X108302944Y-63302944D03*
X108302944Y-66697056D03*
X110000000Y-62600000D03*
D36*
X110000000Y-65000000D03*
D35*
X110000000Y-67400000D03*
X111697056Y-63302944D03*
X111697056Y-66697056D03*
X112400000Y-65000000D03*
%TD*%
D39*
%TO.C,C9*%
X75587500Y-91000000D03*
X77662500Y-91000000D03*
%TD*%
D13*
%TO.C,R5*%
X82100000Y-78700000D03*
X80100000Y-78700000D03*
%TD*%
D11*
%TO.C,JP1*%
X110644881Y-88095117D03*
D12*
X110644881Y-85555117D03*
%TD*%
D45*
%TO.C,FID1*%
X110000000Y-100000000D03*
%TD*%
%TO.C,FID2*%
X40000000Y-70000000D03*
%TD*%
D47*
%TO.C,J1*%
X108619939Y-80649987D03*
X108619939Y-74860046D03*
D48*
X108120066Y-82070104D03*
X108120066Y-73430023D03*
D49*
X112300152Y-73430023D03*
X112300152Y-82070104D03*
D50*
X107500051Y-80949962D03*
X107500051Y-80150114D03*
D51*
X107500051Y-79000000D03*
X107500051Y-78000000D03*
X107500051Y-77500127D03*
X107500051Y-76500127D03*
D50*
X107500051Y-74550165D03*
X107500051Y-75350013D03*
D51*
X107500051Y-76000000D03*
X107500051Y-77000000D03*
X107500051Y-78500127D03*
X107500051Y-79500127D03*
%TD*%
D44*
%TO.C,R4*%
X104644881Y-79555117D03*
X104644881Y-81555117D03*
%TD*%
D13*
%TO.C,R15*%
X56200000Y-98700000D03*
X54200000Y-98700000D03*
%TD*%
D40*
%TO.C,U5*%
X60100000Y-103500000D03*
X62400000Y-103500000D03*
D41*
X62400000Y-97200000D03*
D40*
X64700000Y-103500000D03*
%TD*%
D44*
%TO.C,R6*%
X58432500Y-70724500D03*
X58432500Y-72724500D03*
%TD*%
D28*
%TO.C,J2*%
X98350000Y-95650000D03*
D29*
X98350000Y-101950000D03*
D30*
X103150000Y-98550000D03*
%TD*%
M02*
