%TF.GenerationSoftware,KiCad,Pcbnew,7.0.6-1.fc37*%
%TF.CreationDate,2023-08-13T21:26:52-07:00*%
%TF.ProjectId,iot_led_strip_pcb,696f745f-6c65-4645-9f73-747269705f70,rev?*%
%TF.SameCoordinates,Original*%
%TF.FileFunction,Soldermask,Bot*%
%TF.FilePolarity,Negative*%
%FSLAX46Y46*%
G04 Gerber Fmt 4.6, Leading zero omitted, Abs format (unit mm)*
G04 Created by KiCad (PCBNEW 7.0.6-1.fc37) date 2023-08-13 21:26:52*
%MOMM*%
%LPD*%
G01*
G04 APERTURE LIST*
%ADD10R,1.700000X1.700000*%
%ADD11O,1.700000X1.700000*%
%ADD12R,4.600000X2.000000*%
%ADD13O,4.200000X2.000000*%
%ADD14O,2.000000X4.200000*%
%ADD15C,0.800000*%
%ADD16C,6.400000*%
%ADD17C,0.649987*%
%ADD18O,2.100000X1.000000*%
%ADD19O,1.800000X1.000000*%
G04 APERTURE END LIST*
D10*
%TO.C,J4*%
X37500000Y-96500000D03*
D11*
X37500000Y-93960000D03*
X37500000Y-91420000D03*
X37500000Y-88880000D03*
%TD*%
D10*
%TO.C,JP4*%
X45800000Y-70800000D03*
D11*
X43260000Y-70800000D03*
%TD*%
D10*
%TO.C,J5*%
X67360000Y-87400000D03*
D11*
X69900000Y-87400000D03*
X72440000Y-87400000D03*
X74980000Y-87400000D03*
%TD*%
D12*
%TO.C,J3*%
X85350000Y-95650000D03*
D13*
X85350000Y-101950000D03*
D14*
X90150000Y-98550000D03*
%TD*%
D15*
%TO.C,H4*%
X107600000Y-105000000D03*
X108302944Y-103302944D03*
X108302944Y-106697056D03*
X110000000Y-102600000D03*
D16*
X110000000Y-105000000D03*
D15*
X110000000Y-107400000D03*
X111697056Y-103302944D03*
X111697056Y-106697056D03*
X112400000Y-105000000D03*
%TD*%
D10*
%TO.C,J7*%
X37500000Y-78200000D03*
D11*
X37500000Y-75660000D03*
X37500000Y-73120000D03*
%TD*%
D15*
%TO.C,H1*%
X37600000Y-65000000D03*
X38302944Y-63302944D03*
X38302944Y-66697056D03*
X40000000Y-62600000D03*
D16*
X40000000Y-65000000D03*
D15*
X40000000Y-67400000D03*
X41697056Y-63302944D03*
X41697056Y-66697056D03*
X42400000Y-65000000D03*
%TD*%
%TO.C,H3*%
X37600000Y-105000000D03*
X38302944Y-103302944D03*
X38302944Y-106697056D03*
X40000000Y-102600000D03*
D16*
X40000000Y-105000000D03*
D15*
X40000000Y-107400000D03*
X41697056Y-103302944D03*
X41697056Y-106697056D03*
X42400000Y-105000000D03*
%TD*%
%TO.C,H2*%
X107600000Y-65000000D03*
X108302944Y-63302944D03*
X108302944Y-66697056D03*
X110000000Y-62600000D03*
D16*
X110000000Y-65000000D03*
D15*
X110000000Y-67400000D03*
X111697056Y-63302944D03*
X111697056Y-66697056D03*
X112400000Y-65000000D03*
%TD*%
D10*
%TO.C,JP1*%
X110644881Y-88095117D03*
D11*
X110644881Y-85555117D03*
%TD*%
D17*
%TO.C,J1*%
X108619939Y-80649987D03*
X108619939Y-74860046D03*
D18*
X108120066Y-82070104D03*
X108120066Y-73430023D03*
D19*
X112300152Y-73430023D03*
X112300152Y-82070104D03*
%TD*%
D12*
%TO.C,J2*%
X98350000Y-95650000D03*
D13*
X98350000Y-101950000D03*
D14*
X103150000Y-98550000D03*
%TD*%
M02*
