%TF.GenerationSoftware,KiCad,Pcbnew,7.0.6-1.fc37*%
%TF.CreationDate,2023-08-13T21:26:52-07:00*%
%TF.ProjectId,iot_led_strip_pcb,696f745f-6c65-4645-9f73-747269705f70,rev?*%
%TF.SameCoordinates,Original*%
%TF.FileFunction,AssemblyDrawing,Top*%
%FSLAX46Y46*%
G04 Gerber Fmt 4.6, Leading zero omitted, Abs format (unit mm)*
G04 Created by KiCad (PCBNEW 7.0.6-1.fc37) date 2023-08-13 21:26:52*
%MOMM*%
%LPD*%
G01*
G04 APERTURE LIST*
%ADD10C,0.150000*%
%ADD11C,0.075000*%
%ADD12C,0.080000*%
%ADD13C,0.060000*%
%ADD14C,0.105000*%
%ADD15C,0.120000*%
%ADD16C,0.040000*%
%ADD17C,0.100000*%
%ADD18C,0.250012*%
G04 APERTURE END LIST*
D10*
X52661905Y-77054819D02*
X52661905Y-76054819D01*
X52661905Y-76054819D02*
X52995238Y-76769104D01*
X52995238Y-76769104D02*
X53328571Y-76054819D01*
X53328571Y-76054819D02*
X53328571Y-77054819D01*
X54376190Y-76959580D02*
X54328571Y-77007200D01*
X54328571Y-77007200D02*
X54185714Y-77054819D01*
X54185714Y-77054819D02*
X54090476Y-77054819D01*
X54090476Y-77054819D02*
X53947619Y-77007200D01*
X53947619Y-77007200D02*
X53852381Y-76911961D01*
X53852381Y-76911961D02*
X53804762Y-76816723D01*
X53804762Y-76816723D02*
X53757143Y-76626247D01*
X53757143Y-76626247D02*
X53757143Y-76483390D01*
X53757143Y-76483390D02*
X53804762Y-76292914D01*
X53804762Y-76292914D02*
X53852381Y-76197676D01*
X53852381Y-76197676D02*
X53947619Y-76102438D01*
X53947619Y-76102438D02*
X54090476Y-76054819D01*
X54090476Y-76054819D02*
X54185714Y-76054819D01*
X54185714Y-76054819D02*
X54328571Y-76102438D01*
X54328571Y-76102438D02*
X54376190Y-76150057D01*
X54804762Y-77054819D02*
X54804762Y-76054819D01*
X54804762Y-76054819D02*
X55185714Y-76054819D01*
X55185714Y-76054819D02*
X55280952Y-76102438D01*
X55280952Y-76102438D02*
X55328571Y-76150057D01*
X55328571Y-76150057D02*
X55376190Y-76245295D01*
X55376190Y-76245295D02*
X55376190Y-76388152D01*
X55376190Y-76388152D02*
X55328571Y-76483390D01*
X55328571Y-76483390D02*
X55280952Y-76531009D01*
X55280952Y-76531009D02*
X55185714Y-76578628D01*
X55185714Y-76578628D02*
X54804762Y-76578628D01*
X56328571Y-77054819D02*
X55757143Y-77054819D01*
X56042857Y-77054819D02*
X56042857Y-76054819D01*
X56042857Y-76054819D02*
X55947619Y-76197676D01*
X55947619Y-76197676D02*
X55852381Y-76292914D01*
X55852381Y-76292914D02*
X55757143Y-76340533D01*
X57185714Y-76388152D02*
X57185714Y-77054819D01*
X56947619Y-76007200D02*
X56709524Y-76721485D01*
X56709524Y-76721485D02*
X57328571Y-76721485D01*
X58233333Y-77054819D02*
X57661905Y-77054819D01*
X57947619Y-77054819D02*
X57947619Y-76054819D01*
X57947619Y-76054819D02*
X57852381Y-76197676D01*
X57852381Y-76197676D02*
X57757143Y-76292914D01*
X57757143Y-76292914D02*
X57661905Y-76340533D01*
X59090476Y-76054819D02*
X58900000Y-76054819D01*
X58900000Y-76054819D02*
X58804762Y-76102438D01*
X58804762Y-76102438D02*
X58757143Y-76150057D01*
X58757143Y-76150057D02*
X58661905Y-76292914D01*
X58661905Y-76292914D02*
X58614286Y-76483390D01*
X58614286Y-76483390D02*
X58614286Y-76864342D01*
X58614286Y-76864342D02*
X58661905Y-76959580D01*
X58661905Y-76959580D02*
X58709524Y-77007200D01*
X58709524Y-77007200D02*
X58804762Y-77054819D01*
X58804762Y-77054819D02*
X58995238Y-77054819D01*
X58995238Y-77054819D02*
X59090476Y-77007200D01*
X59090476Y-77007200D02*
X59138095Y-76959580D01*
X59138095Y-76959580D02*
X59185714Y-76864342D01*
X59185714Y-76864342D02*
X59185714Y-76626247D01*
X59185714Y-76626247D02*
X59138095Y-76531009D01*
X59138095Y-76531009D02*
X59090476Y-76483390D01*
X59090476Y-76483390D02*
X58995238Y-76435771D01*
X58995238Y-76435771D02*
X58804762Y-76435771D01*
X58804762Y-76435771D02*
X58709524Y-76483390D01*
X58709524Y-76483390D02*
X58661905Y-76531009D01*
X58661905Y-76531009D02*
X58614286Y-76626247D01*
D11*
X55627409Y-79880952D02*
X56032171Y-79880952D01*
X56032171Y-79880952D02*
X56079790Y-79857142D01*
X56079790Y-79857142D02*
X56103600Y-79833333D01*
X56103600Y-79833333D02*
X56127409Y-79785714D01*
X56127409Y-79785714D02*
X56127409Y-79690476D01*
X56127409Y-79690476D02*
X56103600Y-79642857D01*
X56103600Y-79642857D02*
X56079790Y-79619047D01*
X56079790Y-79619047D02*
X56032171Y-79595238D01*
X56032171Y-79595238D02*
X55627409Y-79595238D01*
X55841695Y-79285713D02*
X55817885Y-79333332D01*
X55817885Y-79333332D02*
X55794076Y-79357142D01*
X55794076Y-79357142D02*
X55746457Y-79380951D01*
X55746457Y-79380951D02*
X55722647Y-79380951D01*
X55722647Y-79380951D02*
X55675028Y-79357142D01*
X55675028Y-79357142D02*
X55651219Y-79333332D01*
X55651219Y-79333332D02*
X55627409Y-79285713D01*
X55627409Y-79285713D02*
X55627409Y-79190475D01*
X55627409Y-79190475D02*
X55651219Y-79142856D01*
X55651219Y-79142856D02*
X55675028Y-79119047D01*
X55675028Y-79119047D02*
X55722647Y-79095237D01*
X55722647Y-79095237D02*
X55746457Y-79095237D01*
X55746457Y-79095237D02*
X55794076Y-79119047D01*
X55794076Y-79119047D02*
X55817885Y-79142856D01*
X55817885Y-79142856D02*
X55841695Y-79190475D01*
X55841695Y-79190475D02*
X55841695Y-79285713D01*
X55841695Y-79285713D02*
X55865504Y-79333332D01*
X55865504Y-79333332D02*
X55889314Y-79357142D01*
X55889314Y-79357142D02*
X55936933Y-79380951D01*
X55936933Y-79380951D02*
X56032171Y-79380951D01*
X56032171Y-79380951D02*
X56079790Y-79357142D01*
X56079790Y-79357142D02*
X56103600Y-79333332D01*
X56103600Y-79333332D02*
X56127409Y-79285713D01*
X56127409Y-79285713D02*
X56127409Y-79190475D01*
X56127409Y-79190475D02*
X56103600Y-79142856D01*
X56103600Y-79142856D02*
X56079790Y-79119047D01*
X56079790Y-79119047D02*
X56032171Y-79095237D01*
X56032171Y-79095237D02*
X55936933Y-79095237D01*
X55936933Y-79095237D02*
X55889314Y-79119047D01*
X55889314Y-79119047D02*
X55865504Y-79142856D01*
X55865504Y-79142856D02*
X55841695Y-79190475D01*
D10*
X36954819Y-93023333D02*
X37669104Y-93023333D01*
X37669104Y-93023333D02*
X37811961Y-93070952D01*
X37811961Y-93070952D02*
X37907200Y-93166190D01*
X37907200Y-93166190D02*
X37954819Y-93309047D01*
X37954819Y-93309047D02*
X37954819Y-93404285D01*
X37288152Y-92118571D02*
X37954819Y-92118571D01*
X36907200Y-92356666D02*
X37621485Y-92594761D01*
X37621485Y-92594761D02*
X37621485Y-91975714D01*
X93038095Y-61138152D02*
X93038095Y-61804819D01*
X92800000Y-60757200D02*
X92561905Y-61471485D01*
X92561905Y-61471485D02*
X93180952Y-61471485D01*
X93466667Y-60804819D02*
X94133333Y-60804819D01*
X94133333Y-60804819D02*
X93704762Y-61804819D01*
X94704762Y-60804819D02*
X94800000Y-60804819D01*
X94800000Y-60804819D02*
X94895238Y-60852438D01*
X94895238Y-60852438D02*
X94942857Y-60900057D01*
X94942857Y-60900057D02*
X94990476Y-60995295D01*
X94990476Y-60995295D02*
X95038095Y-61185771D01*
X95038095Y-61185771D02*
X95038095Y-61423866D01*
X95038095Y-61423866D02*
X94990476Y-61614342D01*
X94990476Y-61614342D02*
X94942857Y-61709580D01*
X94942857Y-61709580D02*
X94895238Y-61757200D01*
X94895238Y-61757200D02*
X94800000Y-61804819D01*
X94800000Y-61804819D02*
X94704762Y-61804819D01*
X94704762Y-61804819D02*
X94609524Y-61757200D01*
X94609524Y-61757200D02*
X94561905Y-61709580D01*
X94561905Y-61709580D02*
X94514286Y-61614342D01*
X94514286Y-61614342D02*
X94466667Y-61423866D01*
X94466667Y-61423866D02*
X94466667Y-61185771D01*
X94466667Y-61185771D02*
X94514286Y-60995295D01*
X94514286Y-60995295D02*
X94561905Y-60900057D01*
X94561905Y-60900057D02*
X94609524Y-60852438D01*
X94609524Y-60852438D02*
X94704762Y-60804819D01*
D12*
X93716666Y-63227149D02*
X93550000Y-62989054D01*
X93430952Y-63227149D02*
X93430952Y-62727149D01*
X93430952Y-62727149D02*
X93621428Y-62727149D01*
X93621428Y-62727149D02*
X93669047Y-62750959D01*
X93669047Y-62750959D02*
X93692857Y-62774768D01*
X93692857Y-62774768D02*
X93716666Y-62822387D01*
X93716666Y-62822387D02*
X93716666Y-62893816D01*
X93716666Y-62893816D02*
X93692857Y-62941435D01*
X93692857Y-62941435D02*
X93669047Y-62965244D01*
X93669047Y-62965244D02*
X93621428Y-62989054D01*
X93621428Y-62989054D02*
X93430952Y-62989054D01*
X93954762Y-63227149D02*
X94050000Y-63227149D01*
X94050000Y-63227149D02*
X94097619Y-63203340D01*
X94097619Y-63203340D02*
X94121428Y-63179530D01*
X94121428Y-63179530D02*
X94169047Y-63108101D01*
X94169047Y-63108101D02*
X94192857Y-63012863D01*
X94192857Y-63012863D02*
X94192857Y-62822387D01*
X94192857Y-62822387D02*
X94169047Y-62774768D01*
X94169047Y-62774768D02*
X94145238Y-62750959D01*
X94145238Y-62750959D02*
X94097619Y-62727149D01*
X94097619Y-62727149D02*
X94002381Y-62727149D01*
X94002381Y-62727149D02*
X93954762Y-62750959D01*
X93954762Y-62750959D02*
X93930952Y-62774768D01*
X93930952Y-62774768D02*
X93907143Y-62822387D01*
X93907143Y-62822387D02*
X93907143Y-62941435D01*
X93907143Y-62941435D02*
X93930952Y-62989054D01*
X93930952Y-62989054D02*
X93954762Y-63012863D01*
X93954762Y-63012863D02*
X94002381Y-63036673D01*
X94002381Y-63036673D02*
X94097619Y-63036673D01*
X94097619Y-63036673D02*
X94145238Y-63012863D01*
X94145238Y-63012863D02*
X94169047Y-62989054D01*
X94169047Y-62989054D02*
X94192857Y-62941435D01*
D10*
X53538095Y-70738152D02*
X53538095Y-71404819D01*
X53300000Y-70357200D02*
X53061905Y-71071485D01*
X53061905Y-71071485D02*
X53680952Y-71071485D01*
X53966667Y-70404819D02*
X54633333Y-70404819D01*
X54633333Y-70404819D02*
X54204762Y-71404819D01*
X55204762Y-70404819D02*
X55300000Y-70404819D01*
X55300000Y-70404819D02*
X55395238Y-70452438D01*
X55395238Y-70452438D02*
X55442857Y-70500057D01*
X55442857Y-70500057D02*
X55490476Y-70595295D01*
X55490476Y-70595295D02*
X55538095Y-70785771D01*
X55538095Y-70785771D02*
X55538095Y-71023866D01*
X55538095Y-71023866D02*
X55490476Y-71214342D01*
X55490476Y-71214342D02*
X55442857Y-71309580D01*
X55442857Y-71309580D02*
X55395238Y-71357200D01*
X55395238Y-71357200D02*
X55300000Y-71404819D01*
X55300000Y-71404819D02*
X55204762Y-71404819D01*
X55204762Y-71404819D02*
X55109524Y-71357200D01*
X55109524Y-71357200D02*
X55061905Y-71309580D01*
X55061905Y-71309580D02*
X55014286Y-71214342D01*
X55014286Y-71214342D02*
X54966667Y-71023866D01*
X54966667Y-71023866D02*
X54966667Y-70785771D01*
X54966667Y-70785771D02*
X55014286Y-70595295D01*
X55014286Y-70595295D02*
X55061905Y-70500057D01*
X55061905Y-70500057D02*
X55109524Y-70452438D01*
X55109524Y-70452438D02*
X55204762Y-70404819D01*
D12*
X53978571Y-69527149D02*
X53811905Y-69289054D01*
X53692857Y-69527149D02*
X53692857Y-69027149D01*
X53692857Y-69027149D02*
X53883333Y-69027149D01*
X53883333Y-69027149D02*
X53930952Y-69050959D01*
X53930952Y-69050959D02*
X53954762Y-69074768D01*
X53954762Y-69074768D02*
X53978571Y-69122387D01*
X53978571Y-69122387D02*
X53978571Y-69193816D01*
X53978571Y-69193816D02*
X53954762Y-69241435D01*
X53954762Y-69241435D02*
X53930952Y-69265244D01*
X53930952Y-69265244D02*
X53883333Y-69289054D01*
X53883333Y-69289054D02*
X53692857Y-69289054D01*
X54454762Y-69527149D02*
X54169048Y-69527149D01*
X54311905Y-69527149D02*
X54311905Y-69027149D01*
X54311905Y-69027149D02*
X54264286Y-69098578D01*
X54264286Y-69098578D02*
X54216667Y-69146197D01*
X54216667Y-69146197D02*
X54169048Y-69170006D01*
X54645238Y-69074768D02*
X54669047Y-69050959D01*
X54669047Y-69050959D02*
X54716666Y-69027149D01*
X54716666Y-69027149D02*
X54835714Y-69027149D01*
X54835714Y-69027149D02*
X54883333Y-69050959D01*
X54883333Y-69050959D02*
X54907142Y-69074768D01*
X54907142Y-69074768D02*
X54930952Y-69122387D01*
X54930952Y-69122387D02*
X54930952Y-69170006D01*
X54930952Y-69170006D02*
X54907142Y-69241435D01*
X54907142Y-69241435D02*
X54621428Y-69527149D01*
X54621428Y-69527149D02*
X54930952Y-69527149D01*
D10*
X53633333Y-73704819D02*
X53061905Y-73704819D01*
X53347619Y-73704819D02*
X53347619Y-72704819D01*
X53347619Y-72704819D02*
X53252381Y-72847676D01*
X53252381Y-72847676D02*
X53157143Y-72942914D01*
X53157143Y-72942914D02*
X53061905Y-72990533D01*
X54252381Y-72704819D02*
X54347619Y-72704819D01*
X54347619Y-72704819D02*
X54442857Y-72752438D01*
X54442857Y-72752438D02*
X54490476Y-72800057D01*
X54490476Y-72800057D02*
X54538095Y-72895295D01*
X54538095Y-72895295D02*
X54585714Y-73085771D01*
X54585714Y-73085771D02*
X54585714Y-73323866D01*
X54585714Y-73323866D02*
X54538095Y-73514342D01*
X54538095Y-73514342D02*
X54490476Y-73609580D01*
X54490476Y-73609580D02*
X54442857Y-73657200D01*
X54442857Y-73657200D02*
X54347619Y-73704819D01*
X54347619Y-73704819D02*
X54252381Y-73704819D01*
X54252381Y-73704819D02*
X54157143Y-73657200D01*
X54157143Y-73657200D02*
X54109524Y-73609580D01*
X54109524Y-73609580D02*
X54061905Y-73514342D01*
X54061905Y-73514342D02*
X54014286Y-73323866D01*
X54014286Y-73323866D02*
X54014286Y-73085771D01*
X54014286Y-73085771D02*
X54061905Y-72895295D01*
X54061905Y-72895295D02*
X54109524Y-72800057D01*
X54109524Y-72800057D02*
X54157143Y-72752438D01*
X54157143Y-72752438D02*
X54252381Y-72704819D01*
X55204762Y-72704819D02*
X55300000Y-72704819D01*
X55300000Y-72704819D02*
X55395238Y-72752438D01*
X55395238Y-72752438D02*
X55442857Y-72800057D01*
X55442857Y-72800057D02*
X55490476Y-72895295D01*
X55490476Y-72895295D02*
X55538095Y-73085771D01*
X55538095Y-73085771D02*
X55538095Y-73323866D01*
X55538095Y-73323866D02*
X55490476Y-73514342D01*
X55490476Y-73514342D02*
X55442857Y-73609580D01*
X55442857Y-73609580D02*
X55395238Y-73657200D01*
X55395238Y-73657200D02*
X55300000Y-73704819D01*
X55300000Y-73704819D02*
X55204762Y-73704819D01*
X55204762Y-73704819D02*
X55109524Y-73657200D01*
X55109524Y-73657200D02*
X55061905Y-73609580D01*
X55061905Y-73609580D02*
X55014286Y-73514342D01*
X55014286Y-73514342D02*
X54966667Y-73323866D01*
X54966667Y-73323866D02*
X54966667Y-73085771D01*
X54966667Y-73085771D02*
X55014286Y-72895295D01*
X55014286Y-72895295D02*
X55061905Y-72800057D01*
X55061905Y-72800057D02*
X55109524Y-72752438D01*
X55109524Y-72752438D02*
X55204762Y-72704819D01*
D12*
X53978571Y-71827149D02*
X53811905Y-71589054D01*
X53692857Y-71827149D02*
X53692857Y-71327149D01*
X53692857Y-71327149D02*
X53883333Y-71327149D01*
X53883333Y-71327149D02*
X53930952Y-71350959D01*
X53930952Y-71350959D02*
X53954762Y-71374768D01*
X53954762Y-71374768D02*
X53978571Y-71422387D01*
X53978571Y-71422387D02*
X53978571Y-71493816D01*
X53978571Y-71493816D02*
X53954762Y-71541435D01*
X53954762Y-71541435D02*
X53930952Y-71565244D01*
X53930952Y-71565244D02*
X53883333Y-71589054D01*
X53883333Y-71589054D02*
X53692857Y-71589054D01*
X54454762Y-71827149D02*
X54169048Y-71827149D01*
X54311905Y-71827149D02*
X54311905Y-71327149D01*
X54311905Y-71327149D02*
X54264286Y-71398578D01*
X54264286Y-71398578D02*
X54216667Y-71446197D01*
X54216667Y-71446197D02*
X54169048Y-71470006D01*
X54621428Y-71327149D02*
X54930952Y-71327149D01*
X54930952Y-71327149D02*
X54764285Y-71517625D01*
X54764285Y-71517625D02*
X54835714Y-71517625D01*
X54835714Y-71517625D02*
X54883333Y-71541435D01*
X54883333Y-71541435D02*
X54907142Y-71565244D01*
X54907142Y-71565244D02*
X54930952Y-71612863D01*
X54930952Y-71612863D02*
X54930952Y-71731911D01*
X54930952Y-71731911D02*
X54907142Y-71779530D01*
X54907142Y-71779530D02*
X54883333Y-71803340D01*
X54883333Y-71803340D02*
X54835714Y-71827149D01*
X54835714Y-71827149D02*
X54692857Y-71827149D01*
X54692857Y-71827149D02*
X54645238Y-71803340D01*
X54645238Y-71803340D02*
X54621428Y-71779530D01*
D10*
X71191071Y-92374819D02*
X70619643Y-92374819D01*
X70905357Y-92374819D02*
X70905357Y-91374819D01*
X70905357Y-91374819D02*
X70810119Y-91517676D01*
X70810119Y-91517676D02*
X70714881Y-91612914D01*
X70714881Y-91612914D02*
X70619643Y-91660533D01*
X71810119Y-91374819D02*
X71905357Y-91374819D01*
X71905357Y-91374819D02*
X72000595Y-91422438D01*
X72000595Y-91422438D02*
X72048214Y-91470057D01*
X72048214Y-91470057D02*
X72095833Y-91565295D01*
X72095833Y-91565295D02*
X72143452Y-91755771D01*
X72143452Y-91755771D02*
X72143452Y-91993866D01*
X72143452Y-91993866D02*
X72095833Y-92184342D01*
X72095833Y-92184342D02*
X72048214Y-92279580D01*
X72048214Y-92279580D02*
X72000595Y-92327200D01*
X72000595Y-92327200D02*
X71905357Y-92374819D01*
X71905357Y-92374819D02*
X71810119Y-92374819D01*
X71810119Y-92374819D02*
X71714881Y-92327200D01*
X71714881Y-92327200D02*
X71667262Y-92279580D01*
X71667262Y-92279580D02*
X71619643Y-92184342D01*
X71619643Y-92184342D02*
X71572024Y-91993866D01*
X71572024Y-91993866D02*
X71572024Y-91755771D01*
X71572024Y-91755771D02*
X71619643Y-91565295D01*
X71619643Y-91565295D02*
X71667262Y-91470057D01*
X71667262Y-91470057D02*
X71714881Y-91422438D01*
X71714881Y-91422438D02*
X71810119Y-91374819D01*
X73000595Y-91708152D02*
X73000595Y-92374819D01*
X72572024Y-91708152D02*
X72572024Y-92231961D01*
X72572024Y-92231961D02*
X72619643Y-92327200D01*
X72619643Y-92327200D02*
X72714881Y-92374819D01*
X72714881Y-92374819D02*
X72857738Y-92374819D01*
X72857738Y-92374819D02*
X72952976Y-92327200D01*
X72952976Y-92327200D02*
X73000595Y-92279580D01*
X73810119Y-91851009D02*
X73476786Y-91851009D01*
X73476786Y-92374819D02*
X73476786Y-91374819D01*
X73476786Y-91374819D02*
X73952976Y-91374819D01*
D12*
X71941071Y-93779530D02*
X71917262Y-93803340D01*
X71917262Y-93803340D02*
X71845833Y-93827149D01*
X71845833Y-93827149D02*
X71798214Y-93827149D01*
X71798214Y-93827149D02*
X71726786Y-93803340D01*
X71726786Y-93803340D02*
X71679167Y-93755720D01*
X71679167Y-93755720D02*
X71655357Y-93708101D01*
X71655357Y-93708101D02*
X71631548Y-93612863D01*
X71631548Y-93612863D02*
X71631548Y-93541435D01*
X71631548Y-93541435D02*
X71655357Y-93446197D01*
X71655357Y-93446197D02*
X71679167Y-93398578D01*
X71679167Y-93398578D02*
X71726786Y-93350959D01*
X71726786Y-93350959D02*
X71798214Y-93327149D01*
X71798214Y-93327149D02*
X71845833Y-93327149D01*
X71845833Y-93327149D02*
X71917262Y-93350959D01*
X71917262Y-93350959D02*
X71941071Y-93374768D01*
X72417262Y-93827149D02*
X72131548Y-93827149D01*
X72274405Y-93827149D02*
X72274405Y-93327149D01*
X72274405Y-93327149D02*
X72226786Y-93398578D01*
X72226786Y-93398578D02*
X72179167Y-93446197D01*
X72179167Y-93446197D02*
X72131548Y-93470006D01*
X72845833Y-93327149D02*
X72750595Y-93327149D01*
X72750595Y-93327149D02*
X72702976Y-93350959D01*
X72702976Y-93350959D02*
X72679166Y-93374768D01*
X72679166Y-93374768D02*
X72631547Y-93446197D01*
X72631547Y-93446197D02*
X72607738Y-93541435D01*
X72607738Y-93541435D02*
X72607738Y-93731911D01*
X72607738Y-93731911D02*
X72631547Y-93779530D01*
X72631547Y-93779530D02*
X72655357Y-93803340D01*
X72655357Y-93803340D02*
X72702976Y-93827149D01*
X72702976Y-93827149D02*
X72798214Y-93827149D01*
X72798214Y-93827149D02*
X72845833Y-93803340D01*
X72845833Y-93803340D02*
X72869642Y-93779530D01*
X72869642Y-93779530D02*
X72893452Y-93731911D01*
X72893452Y-93731911D02*
X72893452Y-93612863D01*
X72893452Y-93612863D02*
X72869642Y-93565244D01*
X72869642Y-93565244D02*
X72845833Y-93541435D01*
X72845833Y-93541435D02*
X72798214Y-93517625D01*
X72798214Y-93517625D02*
X72702976Y-93517625D01*
X72702976Y-93517625D02*
X72655357Y-93541435D01*
X72655357Y-93541435D02*
X72631547Y-93565244D01*
X72631547Y-93565244D02*
X72607738Y-93612863D01*
D10*
X85757143Y-73616857D02*
X85804762Y-73569238D01*
X85804762Y-73569238D02*
X85900000Y-73521619D01*
X85900000Y-73521619D02*
X86138095Y-73521619D01*
X86138095Y-73521619D02*
X86233333Y-73569238D01*
X86233333Y-73569238D02*
X86280952Y-73616857D01*
X86280952Y-73616857D02*
X86328571Y-73712095D01*
X86328571Y-73712095D02*
X86328571Y-73807333D01*
X86328571Y-73807333D02*
X86280952Y-73950190D01*
X86280952Y-73950190D02*
X85709524Y-74521619D01*
X85709524Y-74521619D02*
X86328571Y-74521619D01*
X86709524Y-73616857D02*
X86757143Y-73569238D01*
X86757143Y-73569238D02*
X86852381Y-73521619D01*
X86852381Y-73521619D02*
X87090476Y-73521619D01*
X87090476Y-73521619D02*
X87185714Y-73569238D01*
X87185714Y-73569238D02*
X87233333Y-73616857D01*
X87233333Y-73616857D02*
X87280952Y-73712095D01*
X87280952Y-73712095D02*
X87280952Y-73807333D01*
X87280952Y-73807333D02*
X87233333Y-73950190D01*
X87233333Y-73950190D02*
X86661905Y-74521619D01*
X86661905Y-74521619D02*
X87280952Y-74521619D01*
X87709524Y-73854952D02*
X87709524Y-74854952D01*
X87709524Y-73902571D02*
X87804762Y-73854952D01*
X87804762Y-73854952D02*
X87995238Y-73854952D01*
X87995238Y-73854952D02*
X88090476Y-73902571D01*
X88090476Y-73902571D02*
X88138095Y-73950190D01*
X88138095Y-73950190D02*
X88185714Y-74045428D01*
X88185714Y-74045428D02*
X88185714Y-74331142D01*
X88185714Y-74331142D02*
X88138095Y-74426380D01*
X88138095Y-74426380D02*
X88090476Y-74474000D01*
X88090476Y-74474000D02*
X87995238Y-74521619D01*
X87995238Y-74521619D02*
X87804762Y-74521619D01*
X87804762Y-74521619D02*
X87709524Y-74474000D01*
X88947619Y-73997809D02*
X88614286Y-73997809D01*
X88614286Y-74521619D02*
X88614286Y-73521619D01*
X88614286Y-73521619D02*
X89090476Y-73521619D01*
D12*
X87316666Y-75926330D02*
X87292857Y-75950140D01*
X87292857Y-75950140D02*
X87221428Y-75973949D01*
X87221428Y-75973949D02*
X87173809Y-75973949D01*
X87173809Y-75973949D02*
X87102381Y-75950140D01*
X87102381Y-75950140D02*
X87054762Y-75902520D01*
X87054762Y-75902520D02*
X87030952Y-75854901D01*
X87030952Y-75854901D02*
X87007143Y-75759663D01*
X87007143Y-75759663D02*
X87007143Y-75688235D01*
X87007143Y-75688235D02*
X87030952Y-75592997D01*
X87030952Y-75592997D02*
X87054762Y-75545378D01*
X87054762Y-75545378D02*
X87102381Y-75497759D01*
X87102381Y-75497759D02*
X87173809Y-75473949D01*
X87173809Y-75473949D02*
X87221428Y-75473949D01*
X87221428Y-75473949D02*
X87292857Y-75497759D01*
X87292857Y-75497759D02*
X87316666Y-75521568D01*
X87483333Y-75473949D02*
X87792857Y-75473949D01*
X87792857Y-75473949D02*
X87626190Y-75664425D01*
X87626190Y-75664425D02*
X87697619Y-75664425D01*
X87697619Y-75664425D02*
X87745238Y-75688235D01*
X87745238Y-75688235D02*
X87769047Y-75712044D01*
X87769047Y-75712044D02*
X87792857Y-75759663D01*
X87792857Y-75759663D02*
X87792857Y-75878711D01*
X87792857Y-75878711D02*
X87769047Y-75926330D01*
X87769047Y-75926330D02*
X87745238Y-75950140D01*
X87745238Y-75950140D02*
X87697619Y-75973949D01*
X87697619Y-75973949D02*
X87554762Y-75973949D01*
X87554762Y-75973949D02*
X87507143Y-75950140D01*
X87507143Y-75950140D02*
X87483333Y-75926330D01*
X102179530Y-68445833D02*
X102203340Y-68469642D01*
X102203340Y-68469642D02*
X102227149Y-68541071D01*
X102227149Y-68541071D02*
X102227149Y-68588690D01*
X102227149Y-68588690D02*
X102203340Y-68660118D01*
X102203340Y-68660118D02*
X102155720Y-68707737D01*
X102155720Y-68707737D02*
X102108101Y-68731547D01*
X102108101Y-68731547D02*
X102012863Y-68755356D01*
X102012863Y-68755356D02*
X101941435Y-68755356D01*
X101941435Y-68755356D02*
X101846197Y-68731547D01*
X101846197Y-68731547D02*
X101798578Y-68707737D01*
X101798578Y-68707737D02*
X101750959Y-68660118D01*
X101750959Y-68660118D02*
X101727149Y-68588690D01*
X101727149Y-68588690D02*
X101727149Y-68541071D01*
X101727149Y-68541071D02*
X101750959Y-68469642D01*
X101750959Y-68469642D02*
X101774768Y-68445833D01*
X102227149Y-67969642D02*
X102227149Y-68255356D01*
X102227149Y-68112499D02*
X101727149Y-68112499D01*
X101727149Y-68112499D02*
X101798578Y-68160118D01*
X101798578Y-68160118D02*
X101846197Y-68207737D01*
X101846197Y-68207737D02*
X101870006Y-68255356D01*
D10*
X93038095Y-63138152D02*
X93038095Y-63804819D01*
X92800000Y-62757200D02*
X92561905Y-63471485D01*
X92561905Y-63471485D02*
X93180952Y-63471485D01*
X93466667Y-62804819D02*
X94133333Y-62804819D01*
X94133333Y-62804819D02*
X93704762Y-63804819D01*
X94704762Y-62804819D02*
X94800000Y-62804819D01*
X94800000Y-62804819D02*
X94895238Y-62852438D01*
X94895238Y-62852438D02*
X94942857Y-62900057D01*
X94942857Y-62900057D02*
X94990476Y-62995295D01*
X94990476Y-62995295D02*
X95038095Y-63185771D01*
X95038095Y-63185771D02*
X95038095Y-63423866D01*
X95038095Y-63423866D02*
X94990476Y-63614342D01*
X94990476Y-63614342D02*
X94942857Y-63709580D01*
X94942857Y-63709580D02*
X94895238Y-63757200D01*
X94895238Y-63757200D02*
X94800000Y-63804819D01*
X94800000Y-63804819D02*
X94704762Y-63804819D01*
X94704762Y-63804819D02*
X94609524Y-63757200D01*
X94609524Y-63757200D02*
X94561905Y-63709580D01*
X94561905Y-63709580D02*
X94514286Y-63614342D01*
X94514286Y-63614342D02*
X94466667Y-63423866D01*
X94466667Y-63423866D02*
X94466667Y-63185771D01*
X94466667Y-63185771D02*
X94514286Y-62995295D01*
X94514286Y-62995295D02*
X94561905Y-62900057D01*
X94561905Y-62900057D02*
X94609524Y-62852438D01*
X94609524Y-62852438D02*
X94704762Y-62804819D01*
D12*
X93716666Y-65227149D02*
X93550000Y-64989054D01*
X93430952Y-65227149D02*
X93430952Y-64727149D01*
X93430952Y-64727149D02*
X93621428Y-64727149D01*
X93621428Y-64727149D02*
X93669047Y-64750959D01*
X93669047Y-64750959D02*
X93692857Y-64774768D01*
X93692857Y-64774768D02*
X93716666Y-64822387D01*
X93716666Y-64822387D02*
X93716666Y-64893816D01*
X93716666Y-64893816D02*
X93692857Y-64941435D01*
X93692857Y-64941435D02*
X93669047Y-64965244D01*
X93669047Y-64965244D02*
X93621428Y-64989054D01*
X93621428Y-64989054D02*
X93430952Y-64989054D01*
X94002381Y-64941435D02*
X93954762Y-64917625D01*
X93954762Y-64917625D02*
X93930952Y-64893816D01*
X93930952Y-64893816D02*
X93907143Y-64846197D01*
X93907143Y-64846197D02*
X93907143Y-64822387D01*
X93907143Y-64822387D02*
X93930952Y-64774768D01*
X93930952Y-64774768D02*
X93954762Y-64750959D01*
X93954762Y-64750959D02*
X94002381Y-64727149D01*
X94002381Y-64727149D02*
X94097619Y-64727149D01*
X94097619Y-64727149D02*
X94145238Y-64750959D01*
X94145238Y-64750959D02*
X94169047Y-64774768D01*
X94169047Y-64774768D02*
X94192857Y-64822387D01*
X94192857Y-64822387D02*
X94192857Y-64846197D01*
X94192857Y-64846197D02*
X94169047Y-64893816D01*
X94169047Y-64893816D02*
X94145238Y-64917625D01*
X94145238Y-64917625D02*
X94097619Y-64941435D01*
X94097619Y-64941435D02*
X94002381Y-64941435D01*
X94002381Y-64941435D02*
X93954762Y-64965244D01*
X93954762Y-64965244D02*
X93930952Y-64989054D01*
X93930952Y-64989054D02*
X93907143Y-65036673D01*
X93907143Y-65036673D02*
X93907143Y-65131911D01*
X93907143Y-65131911D02*
X93930952Y-65179530D01*
X93930952Y-65179530D02*
X93954762Y-65203340D01*
X93954762Y-65203340D02*
X94002381Y-65227149D01*
X94002381Y-65227149D02*
X94097619Y-65227149D01*
X94097619Y-65227149D02*
X94145238Y-65203340D01*
X94145238Y-65203340D02*
X94169047Y-65179530D01*
X94169047Y-65179530D02*
X94192857Y-65131911D01*
X94192857Y-65131911D02*
X94192857Y-65036673D01*
X94192857Y-65036673D02*
X94169047Y-64989054D01*
X94169047Y-64989054D02*
X94145238Y-64965244D01*
X94145238Y-64965244D02*
X94097619Y-64941435D01*
D10*
X54328571Y-75274819D02*
X53757143Y-75274819D01*
X54042857Y-75274819D02*
X54042857Y-74274819D01*
X54042857Y-74274819D02*
X53947619Y-74417676D01*
X53947619Y-74417676D02*
X53852381Y-74512914D01*
X53852381Y-74512914D02*
X53757143Y-74560533D01*
X54947619Y-74274819D02*
X55042857Y-74274819D01*
X55042857Y-74274819D02*
X55138095Y-74322438D01*
X55138095Y-74322438D02*
X55185714Y-74370057D01*
X55185714Y-74370057D02*
X55233333Y-74465295D01*
X55233333Y-74465295D02*
X55280952Y-74655771D01*
X55280952Y-74655771D02*
X55280952Y-74893866D01*
X55280952Y-74893866D02*
X55233333Y-75084342D01*
X55233333Y-75084342D02*
X55185714Y-75179580D01*
X55185714Y-75179580D02*
X55138095Y-75227200D01*
X55138095Y-75227200D02*
X55042857Y-75274819D01*
X55042857Y-75274819D02*
X54947619Y-75274819D01*
X54947619Y-75274819D02*
X54852381Y-75227200D01*
X54852381Y-75227200D02*
X54804762Y-75179580D01*
X54804762Y-75179580D02*
X54757143Y-75084342D01*
X54757143Y-75084342D02*
X54709524Y-74893866D01*
X54709524Y-74893866D02*
X54709524Y-74655771D01*
X54709524Y-74655771D02*
X54757143Y-74465295D01*
X54757143Y-74465295D02*
X54804762Y-74370057D01*
X54804762Y-74370057D02*
X54852381Y-74322438D01*
X54852381Y-74322438D02*
X54947619Y-74274819D01*
X56138095Y-74608152D02*
X56138095Y-75274819D01*
X55709524Y-74608152D02*
X55709524Y-75131961D01*
X55709524Y-75131961D02*
X55757143Y-75227200D01*
X55757143Y-75227200D02*
X55852381Y-75274819D01*
X55852381Y-75274819D02*
X55995238Y-75274819D01*
X55995238Y-75274819D02*
X56090476Y-75227200D01*
X56090476Y-75227200D02*
X56138095Y-75179580D01*
X56947619Y-74751009D02*
X56614286Y-74751009D01*
X56614286Y-75274819D02*
X56614286Y-74274819D01*
X56614286Y-74274819D02*
X57090476Y-74274819D01*
D12*
X55078571Y-76679530D02*
X55054762Y-76703340D01*
X55054762Y-76703340D02*
X54983333Y-76727149D01*
X54983333Y-76727149D02*
X54935714Y-76727149D01*
X54935714Y-76727149D02*
X54864286Y-76703340D01*
X54864286Y-76703340D02*
X54816667Y-76655720D01*
X54816667Y-76655720D02*
X54792857Y-76608101D01*
X54792857Y-76608101D02*
X54769048Y-76512863D01*
X54769048Y-76512863D02*
X54769048Y-76441435D01*
X54769048Y-76441435D02*
X54792857Y-76346197D01*
X54792857Y-76346197D02*
X54816667Y-76298578D01*
X54816667Y-76298578D02*
X54864286Y-76250959D01*
X54864286Y-76250959D02*
X54935714Y-76227149D01*
X54935714Y-76227149D02*
X54983333Y-76227149D01*
X54983333Y-76227149D02*
X55054762Y-76250959D01*
X55054762Y-76250959D02*
X55078571Y-76274768D01*
X55554762Y-76727149D02*
X55269048Y-76727149D01*
X55411905Y-76727149D02*
X55411905Y-76227149D01*
X55411905Y-76227149D02*
X55364286Y-76298578D01*
X55364286Y-76298578D02*
X55316667Y-76346197D01*
X55316667Y-76346197D02*
X55269048Y-76370006D01*
X55983333Y-76393816D02*
X55983333Y-76727149D01*
X55864285Y-76203340D02*
X55745238Y-76560482D01*
X55745238Y-76560482D02*
X56054761Y-76560482D01*
D10*
X80504761Y-79804819D02*
X79933333Y-79804819D01*
X80219047Y-79804819D02*
X80219047Y-78804819D01*
X80219047Y-78804819D02*
X80123809Y-78947676D01*
X80123809Y-78947676D02*
X80028571Y-79042914D01*
X80028571Y-79042914D02*
X79933333Y-79090533D01*
X81123809Y-78804819D02*
X81219047Y-78804819D01*
X81219047Y-78804819D02*
X81314285Y-78852438D01*
X81314285Y-78852438D02*
X81361904Y-78900057D01*
X81361904Y-78900057D02*
X81409523Y-78995295D01*
X81409523Y-78995295D02*
X81457142Y-79185771D01*
X81457142Y-79185771D02*
X81457142Y-79423866D01*
X81457142Y-79423866D02*
X81409523Y-79614342D01*
X81409523Y-79614342D02*
X81361904Y-79709580D01*
X81361904Y-79709580D02*
X81314285Y-79757200D01*
X81314285Y-79757200D02*
X81219047Y-79804819D01*
X81219047Y-79804819D02*
X81123809Y-79804819D01*
X81123809Y-79804819D02*
X81028571Y-79757200D01*
X81028571Y-79757200D02*
X80980952Y-79709580D01*
X80980952Y-79709580D02*
X80933333Y-79614342D01*
X80933333Y-79614342D02*
X80885714Y-79423866D01*
X80885714Y-79423866D02*
X80885714Y-79185771D01*
X80885714Y-79185771D02*
X80933333Y-78995295D01*
X80933333Y-78995295D02*
X80980952Y-78900057D01*
X80980952Y-78900057D02*
X81028571Y-78852438D01*
X81028571Y-78852438D02*
X81123809Y-78804819D01*
X81885714Y-79804819D02*
X81885714Y-78804819D01*
X81980952Y-79423866D02*
X82266666Y-79804819D01*
X82266666Y-79138152D02*
X81885714Y-79519104D01*
D12*
X81016666Y-81227149D02*
X80850000Y-80989054D01*
X80730952Y-81227149D02*
X80730952Y-80727149D01*
X80730952Y-80727149D02*
X80921428Y-80727149D01*
X80921428Y-80727149D02*
X80969047Y-80750959D01*
X80969047Y-80750959D02*
X80992857Y-80774768D01*
X80992857Y-80774768D02*
X81016666Y-80822387D01*
X81016666Y-80822387D02*
X81016666Y-80893816D01*
X81016666Y-80893816D02*
X80992857Y-80941435D01*
X80992857Y-80941435D02*
X80969047Y-80965244D01*
X80969047Y-80965244D02*
X80921428Y-80989054D01*
X80921428Y-80989054D02*
X80730952Y-80989054D01*
X81183333Y-80727149D02*
X81516666Y-80727149D01*
X81516666Y-80727149D02*
X81302381Y-81227149D01*
D10*
X52861905Y-93304819D02*
X52861905Y-92304819D01*
X52861905Y-92304819D02*
X53195238Y-93019104D01*
X53195238Y-93019104D02*
X53528571Y-92304819D01*
X53528571Y-92304819D02*
X53528571Y-93304819D01*
X54576190Y-93209580D02*
X54528571Y-93257200D01*
X54528571Y-93257200D02*
X54385714Y-93304819D01*
X54385714Y-93304819D02*
X54290476Y-93304819D01*
X54290476Y-93304819D02*
X54147619Y-93257200D01*
X54147619Y-93257200D02*
X54052381Y-93161961D01*
X54052381Y-93161961D02*
X54004762Y-93066723D01*
X54004762Y-93066723D02*
X53957143Y-92876247D01*
X53957143Y-92876247D02*
X53957143Y-92733390D01*
X53957143Y-92733390D02*
X54004762Y-92542914D01*
X54004762Y-92542914D02*
X54052381Y-92447676D01*
X54052381Y-92447676D02*
X54147619Y-92352438D01*
X54147619Y-92352438D02*
X54290476Y-92304819D01*
X54290476Y-92304819D02*
X54385714Y-92304819D01*
X54385714Y-92304819D02*
X54528571Y-92352438D01*
X54528571Y-92352438D02*
X54576190Y-92400057D01*
X55004762Y-93304819D02*
X55004762Y-92304819D01*
X55004762Y-92304819D02*
X55385714Y-92304819D01*
X55385714Y-92304819D02*
X55480952Y-92352438D01*
X55480952Y-92352438D02*
X55528571Y-92400057D01*
X55528571Y-92400057D02*
X55576190Y-92495295D01*
X55576190Y-92495295D02*
X55576190Y-92638152D01*
X55576190Y-92638152D02*
X55528571Y-92733390D01*
X55528571Y-92733390D02*
X55480952Y-92781009D01*
X55480952Y-92781009D02*
X55385714Y-92828628D01*
X55385714Y-92828628D02*
X55004762Y-92828628D01*
X56528571Y-93304819D02*
X55957143Y-93304819D01*
X56242857Y-93304819D02*
X56242857Y-92304819D01*
X56242857Y-92304819D02*
X56147619Y-92447676D01*
X56147619Y-92447676D02*
X56052381Y-92542914D01*
X56052381Y-92542914D02*
X55957143Y-92590533D01*
X57385714Y-92638152D02*
X57385714Y-93304819D01*
X57147619Y-92257200D02*
X56909524Y-92971485D01*
X56909524Y-92971485D02*
X57528571Y-92971485D01*
X58433333Y-93304819D02*
X57861905Y-93304819D01*
X58147619Y-93304819D02*
X58147619Y-92304819D01*
X58147619Y-92304819D02*
X58052381Y-92447676D01*
X58052381Y-92447676D02*
X57957143Y-92542914D01*
X57957143Y-92542914D02*
X57861905Y-92590533D01*
X59290476Y-92304819D02*
X59100000Y-92304819D01*
X59100000Y-92304819D02*
X59004762Y-92352438D01*
X59004762Y-92352438D02*
X58957143Y-92400057D01*
X58957143Y-92400057D02*
X58861905Y-92542914D01*
X58861905Y-92542914D02*
X58814286Y-92733390D01*
X58814286Y-92733390D02*
X58814286Y-93114342D01*
X58814286Y-93114342D02*
X58861905Y-93209580D01*
X58861905Y-93209580D02*
X58909524Y-93257200D01*
X58909524Y-93257200D02*
X59004762Y-93304819D01*
X59004762Y-93304819D02*
X59195238Y-93304819D01*
X59195238Y-93304819D02*
X59290476Y-93257200D01*
X59290476Y-93257200D02*
X59338095Y-93209580D01*
X59338095Y-93209580D02*
X59385714Y-93114342D01*
X59385714Y-93114342D02*
X59385714Y-92876247D01*
X59385714Y-92876247D02*
X59338095Y-92781009D01*
X59338095Y-92781009D02*
X59290476Y-92733390D01*
X59290476Y-92733390D02*
X59195238Y-92685771D01*
X59195238Y-92685771D02*
X59004762Y-92685771D01*
X59004762Y-92685771D02*
X58909524Y-92733390D01*
X58909524Y-92733390D02*
X58861905Y-92781009D01*
X58861905Y-92781009D02*
X58814286Y-92876247D01*
D11*
X55827409Y-96130952D02*
X56232171Y-96130952D01*
X56232171Y-96130952D02*
X56279790Y-96107142D01*
X56279790Y-96107142D02*
X56303600Y-96083333D01*
X56303600Y-96083333D02*
X56327409Y-96035714D01*
X56327409Y-96035714D02*
X56327409Y-95940476D01*
X56327409Y-95940476D02*
X56303600Y-95892857D01*
X56303600Y-95892857D02*
X56279790Y-95869047D01*
X56279790Y-95869047D02*
X56232171Y-95845238D01*
X56232171Y-95845238D02*
X55827409Y-95845238D01*
X55827409Y-95654761D02*
X55827409Y-95321428D01*
X55827409Y-95321428D02*
X56327409Y-95535713D01*
D10*
X54833333Y-81204819D02*
X54261905Y-81204819D01*
X54547619Y-81204819D02*
X54547619Y-80204819D01*
X54547619Y-80204819D02*
X54452381Y-80347676D01*
X54452381Y-80347676D02*
X54357143Y-80442914D01*
X54357143Y-80442914D02*
X54261905Y-80490533D01*
X55452381Y-80204819D02*
X55547619Y-80204819D01*
X55547619Y-80204819D02*
X55642857Y-80252438D01*
X55642857Y-80252438D02*
X55690476Y-80300057D01*
X55690476Y-80300057D02*
X55738095Y-80395295D01*
X55738095Y-80395295D02*
X55785714Y-80585771D01*
X55785714Y-80585771D02*
X55785714Y-80823866D01*
X55785714Y-80823866D02*
X55738095Y-81014342D01*
X55738095Y-81014342D02*
X55690476Y-81109580D01*
X55690476Y-81109580D02*
X55642857Y-81157200D01*
X55642857Y-81157200D02*
X55547619Y-81204819D01*
X55547619Y-81204819D02*
X55452381Y-81204819D01*
X55452381Y-81204819D02*
X55357143Y-81157200D01*
X55357143Y-81157200D02*
X55309524Y-81109580D01*
X55309524Y-81109580D02*
X55261905Y-81014342D01*
X55261905Y-81014342D02*
X55214286Y-80823866D01*
X55214286Y-80823866D02*
X55214286Y-80585771D01*
X55214286Y-80585771D02*
X55261905Y-80395295D01*
X55261905Y-80395295D02*
X55309524Y-80300057D01*
X55309524Y-80300057D02*
X55357143Y-80252438D01*
X55357143Y-80252438D02*
X55452381Y-80204819D01*
X56404762Y-80204819D02*
X56500000Y-80204819D01*
X56500000Y-80204819D02*
X56595238Y-80252438D01*
X56595238Y-80252438D02*
X56642857Y-80300057D01*
X56642857Y-80300057D02*
X56690476Y-80395295D01*
X56690476Y-80395295D02*
X56738095Y-80585771D01*
X56738095Y-80585771D02*
X56738095Y-80823866D01*
X56738095Y-80823866D02*
X56690476Y-81014342D01*
X56690476Y-81014342D02*
X56642857Y-81109580D01*
X56642857Y-81109580D02*
X56595238Y-81157200D01*
X56595238Y-81157200D02*
X56500000Y-81204819D01*
X56500000Y-81204819D02*
X56404762Y-81204819D01*
X56404762Y-81204819D02*
X56309524Y-81157200D01*
X56309524Y-81157200D02*
X56261905Y-81109580D01*
X56261905Y-81109580D02*
X56214286Y-81014342D01*
X56214286Y-81014342D02*
X56166667Y-80823866D01*
X56166667Y-80823866D02*
X56166667Y-80585771D01*
X56166667Y-80585771D02*
X56214286Y-80395295D01*
X56214286Y-80395295D02*
X56261905Y-80300057D01*
X56261905Y-80300057D02*
X56309524Y-80252438D01*
X56309524Y-80252438D02*
X56404762Y-80204819D01*
D12*
X55178571Y-82627149D02*
X55011905Y-82389054D01*
X54892857Y-82627149D02*
X54892857Y-82127149D01*
X54892857Y-82127149D02*
X55083333Y-82127149D01*
X55083333Y-82127149D02*
X55130952Y-82150959D01*
X55130952Y-82150959D02*
X55154762Y-82174768D01*
X55154762Y-82174768D02*
X55178571Y-82222387D01*
X55178571Y-82222387D02*
X55178571Y-82293816D01*
X55178571Y-82293816D02*
X55154762Y-82341435D01*
X55154762Y-82341435D02*
X55130952Y-82365244D01*
X55130952Y-82365244D02*
X55083333Y-82389054D01*
X55083333Y-82389054D02*
X54892857Y-82389054D01*
X55654762Y-82627149D02*
X55369048Y-82627149D01*
X55511905Y-82627149D02*
X55511905Y-82127149D01*
X55511905Y-82127149D02*
X55464286Y-82198578D01*
X55464286Y-82198578D02*
X55416667Y-82246197D01*
X55416667Y-82246197D02*
X55369048Y-82270006D01*
X56083333Y-82127149D02*
X55988095Y-82127149D01*
X55988095Y-82127149D02*
X55940476Y-82150959D01*
X55940476Y-82150959D02*
X55916666Y-82174768D01*
X55916666Y-82174768D02*
X55869047Y-82246197D01*
X55869047Y-82246197D02*
X55845238Y-82341435D01*
X55845238Y-82341435D02*
X55845238Y-82531911D01*
X55845238Y-82531911D02*
X55869047Y-82579530D01*
X55869047Y-82579530D02*
X55892857Y-82603340D01*
X55892857Y-82603340D02*
X55940476Y-82627149D01*
X55940476Y-82627149D02*
X56035714Y-82627149D01*
X56035714Y-82627149D02*
X56083333Y-82603340D01*
X56083333Y-82603340D02*
X56107142Y-82579530D01*
X56107142Y-82579530D02*
X56130952Y-82531911D01*
X56130952Y-82531911D02*
X56130952Y-82412863D01*
X56130952Y-82412863D02*
X56107142Y-82365244D01*
X56107142Y-82365244D02*
X56083333Y-82341435D01*
X56083333Y-82341435D02*
X56035714Y-82317625D01*
X56035714Y-82317625D02*
X55940476Y-82317625D01*
X55940476Y-82317625D02*
X55892857Y-82341435D01*
X55892857Y-82341435D02*
X55869047Y-82365244D01*
X55869047Y-82365244D02*
X55845238Y-82412863D01*
D13*
X89370022Y-80238095D02*
X89350975Y-80276190D01*
X89350975Y-80276190D02*
X89312880Y-80314285D01*
X89312880Y-80314285D02*
X89255737Y-80371428D01*
X89255737Y-80371428D02*
X89236689Y-80409523D01*
X89236689Y-80409523D02*
X89236689Y-80447619D01*
X89331927Y-80428571D02*
X89312880Y-80466666D01*
X89312880Y-80466666D02*
X89274784Y-80504761D01*
X89274784Y-80504761D02*
X89198594Y-80523809D01*
X89198594Y-80523809D02*
X89065260Y-80523809D01*
X89065260Y-80523809D02*
X88989070Y-80504761D01*
X88989070Y-80504761D02*
X88950975Y-80466666D01*
X88950975Y-80466666D02*
X88931927Y-80428571D01*
X88931927Y-80428571D02*
X88931927Y-80352380D01*
X88931927Y-80352380D02*
X88950975Y-80314285D01*
X88950975Y-80314285D02*
X88989070Y-80276190D01*
X88989070Y-80276190D02*
X89065260Y-80257142D01*
X89065260Y-80257142D02*
X89198594Y-80257142D01*
X89198594Y-80257142D02*
X89274784Y-80276190D01*
X89274784Y-80276190D02*
X89312880Y-80314285D01*
X89312880Y-80314285D02*
X89331927Y-80352380D01*
X89331927Y-80352380D02*
X89331927Y-80428571D01*
X89331927Y-79876190D02*
X89331927Y-80104761D01*
X89331927Y-79990475D02*
X88931927Y-79990475D01*
X88931927Y-79990475D02*
X88989070Y-80028571D01*
X88989070Y-80028571D02*
X89027165Y-80066666D01*
X89027165Y-80066666D02*
X89046213Y-80104761D01*
D10*
X47629761Y-81125057D02*
X47534523Y-81077438D01*
X47534523Y-81077438D02*
X47439285Y-80982200D01*
X47439285Y-80982200D02*
X47296428Y-80839342D01*
X47296428Y-80839342D02*
X47201190Y-80791723D01*
X47201190Y-80791723D02*
X47105952Y-80791723D01*
X47153571Y-81029819D02*
X47058333Y-80982200D01*
X47058333Y-80982200D02*
X46963095Y-80886961D01*
X46963095Y-80886961D02*
X46915476Y-80696485D01*
X46915476Y-80696485D02*
X46915476Y-80363152D01*
X46915476Y-80363152D02*
X46963095Y-80172676D01*
X46963095Y-80172676D02*
X47058333Y-80077438D01*
X47058333Y-80077438D02*
X47153571Y-80029819D01*
X47153571Y-80029819D02*
X47344047Y-80029819D01*
X47344047Y-80029819D02*
X47439285Y-80077438D01*
X47439285Y-80077438D02*
X47534523Y-80172676D01*
X47534523Y-80172676D02*
X47582142Y-80363152D01*
X47582142Y-80363152D02*
X47582142Y-80696485D01*
X47582142Y-80696485D02*
X47534523Y-80886961D01*
X47534523Y-80886961D02*
X47439285Y-80982200D01*
X47439285Y-80982200D02*
X47344047Y-81029819D01*
X47344047Y-81029819D02*
X47153571Y-81029819D01*
X48486904Y-80029819D02*
X48010714Y-80029819D01*
X48010714Y-80029819D02*
X47963095Y-80506009D01*
X47963095Y-80506009D02*
X48010714Y-80458390D01*
X48010714Y-80458390D02*
X48105952Y-80410771D01*
X48105952Y-80410771D02*
X48344047Y-80410771D01*
X48344047Y-80410771D02*
X48439285Y-80458390D01*
X48439285Y-80458390D02*
X48486904Y-80506009D01*
X48486904Y-80506009D02*
X48534523Y-80601247D01*
X48534523Y-80601247D02*
X48534523Y-80839342D01*
X48534523Y-80839342D02*
X48486904Y-80934580D01*
X48486904Y-80934580D02*
X48439285Y-80982200D01*
X48439285Y-80982200D02*
X48344047Y-81029819D01*
X48344047Y-81029819D02*
X48105952Y-81029819D01*
X48105952Y-81029819D02*
X48010714Y-80982200D01*
X48010714Y-80982200D02*
X47963095Y-80934580D01*
X77764819Y-92519047D02*
X76764819Y-92519047D01*
X76860057Y-92090476D02*
X76812438Y-92042857D01*
X76812438Y-92042857D02*
X76764819Y-91947619D01*
X76764819Y-91947619D02*
X76764819Y-91709524D01*
X76764819Y-91709524D02*
X76812438Y-91614286D01*
X76812438Y-91614286D02*
X76860057Y-91566667D01*
X76860057Y-91566667D02*
X76955295Y-91519048D01*
X76955295Y-91519048D02*
X77050533Y-91519048D01*
X77050533Y-91519048D02*
X77193390Y-91566667D01*
X77193390Y-91566667D02*
X77764819Y-92138095D01*
X77764819Y-92138095D02*
X77764819Y-91519048D01*
X77669580Y-90519048D02*
X77717200Y-90566667D01*
X77717200Y-90566667D02*
X77764819Y-90709524D01*
X77764819Y-90709524D02*
X77764819Y-90804762D01*
X77764819Y-90804762D02*
X77717200Y-90947619D01*
X77717200Y-90947619D02*
X77621961Y-91042857D01*
X77621961Y-91042857D02*
X77526723Y-91090476D01*
X77526723Y-91090476D02*
X77336247Y-91138095D01*
X77336247Y-91138095D02*
X77193390Y-91138095D01*
X77193390Y-91138095D02*
X77002914Y-91090476D01*
X77002914Y-91090476D02*
X76907676Y-91042857D01*
X76907676Y-91042857D02*
X76812438Y-90947619D01*
X76812438Y-90947619D02*
X76764819Y-90804762D01*
X76764819Y-90804762D02*
X76764819Y-90709524D01*
X76764819Y-90709524D02*
X76812438Y-90566667D01*
X76812438Y-90566667D02*
X76860057Y-90519048D01*
X77241009Y-89328571D02*
X77241009Y-88995238D01*
X77764819Y-88852381D02*
X77764819Y-89328571D01*
X77764819Y-89328571D02*
X76764819Y-89328571D01*
X76764819Y-89328571D02*
X76764819Y-88852381D01*
X77764819Y-88519047D02*
X77098152Y-87995238D01*
X77098152Y-88519047D02*
X77764819Y-87995238D01*
X77098152Y-87614285D02*
X78098152Y-87614285D01*
X77145771Y-87614285D02*
X77098152Y-87519047D01*
X77098152Y-87519047D02*
X77098152Y-87328571D01*
X77098152Y-87328571D02*
X77145771Y-87233333D01*
X77145771Y-87233333D02*
X77193390Y-87185714D01*
X77193390Y-87185714D02*
X77288628Y-87138095D01*
X77288628Y-87138095D02*
X77574342Y-87138095D01*
X77574342Y-87138095D02*
X77669580Y-87185714D01*
X77669580Y-87185714D02*
X77717200Y-87233333D01*
X77717200Y-87233333D02*
X77764819Y-87328571D01*
X77764819Y-87328571D02*
X77764819Y-87519047D01*
X77764819Y-87519047D02*
X77717200Y-87614285D01*
X77764819Y-86280952D02*
X77241009Y-86280952D01*
X77241009Y-86280952D02*
X77145771Y-86328571D01*
X77145771Y-86328571D02*
X77098152Y-86423809D01*
X77098152Y-86423809D02*
X77098152Y-86614285D01*
X77098152Y-86614285D02*
X77145771Y-86709523D01*
X77717200Y-86280952D02*
X77764819Y-86376190D01*
X77764819Y-86376190D02*
X77764819Y-86614285D01*
X77764819Y-86614285D02*
X77717200Y-86709523D01*
X77717200Y-86709523D02*
X77621961Y-86757142D01*
X77621961Y-86757142D02*
X77526723Y-86757142D01*
X77526723Y-86757142D02*
X77431485Y-86709523D01*
X77431485Y-86709523D02*
X77383866Y-86614285D01*
X77383866Y-86614285D02*
X77383866Y-86376190D01*
X77383866Y-86376190D02*
X77336247Y-86280952D01*
X77098152Y-85804761D02*
X77764819Y-85804761D01*
X77193390Y-85804761D02*
X77145771Y-85757142D01*
X77145771Y-85757142D02*
X77098152Y-85661904D01*
X77098152Y-85661904D02*
X77098152Y-85519047D01*
X77098152Y-85519047D02*
X77145771Y-85423809D01*
X77145771Y-85423809D02*
X77241009Y-85376190D01*
X77241009Y-85376190D02*
X77764819Y-85376190D01*
X77717200Y-84947618D02*
X77764819Y-84852380D01*
X77764819Y-84852380D02*
X77764819Y-84661904D01*
X77764819Y-84661904D02*
X77717200Y-84566666D01*
X77717200Y-84566666D02*
X77621961Y-84519047D01*
X77621961Y-84519047D02*
X77574342Y-84519047D01*
X77574342Y-84519047D02*
X77479104Y-84566666D01*
X77479104Y-84566666D02*
X77431485Y-84661904D01*
X77431485Y-84661904D02*
X77431485Y-84804761D01*
X77431485Y-84804761D02*
X77383866Y-84899999D01*
X77383866Y-84899999D02*
X77288628Y-84947618D01*
X77288628Y-84947618D02*
X77241009Y-84947618D01*
X77241009Y-84947618D02*
X77145771Y-84899999D01*
X77145771Y-84899999D02*
X77098152Y-84804761D01*
X77098152Y-84804761D02*
X77098152Y-84661904D01*
X77098152Y-84661904D02*
X77145771Y-84566666D01*
X77764819Y-84090475D02*
X77098152Y-84090475D01*
X76764819Y-84090475D02*
X76812438Y-84138094D01*
X76812438Y-84138094D02*
X76860057Y-84090475D01*
X76860057Y-84090475D02*
X76812438Y-84042856D01*
X76812438Y-84042856D02*
X76764819Y-84090475D01*
X76764819Y-84090475D02*
X76860057Y-84090475D01*
X77764819Y-83471428D02*
X77717200Y-83566666D01*
X77717200Y-83566666D02*
X77669580Y-83614285D01*
X77669580Y-83614285D02*
X77574342Y-83661904D01*
X77574342Y-83661904D02*
X77288628Y-83661904D01*
X77288628Y-83661904D02*
X77193390Y-83614285D01*
X77193390Y-83614285D02*
X77145771Y-83566666D01*
X77145771Y-83566666D02*
X77098152Y-83471428D01*
X77098152Y-83471428D02*
X77098152Y-83328571D01*
X77098152Y-83328571D02*
X77145771Y-83233333D01*
X77145771Y-83233333D02*
X77193390Y-83185714D01*
X77193390Y-83185714D02*
X77288628Y-83138095D01*
X77288628Y-83138095D02*
X77574342Y-83138095D01*
X77574342Y-83138095D02*
X77669580Y-83185714D01*
X77669580Y-83185714D02*
X77717200Y-83233333D01*
X77717200Y-83233333D02*
X77764819Y-83328571D01*
X77764819Y-83328571D02*
X77764819Y-83471428D01*
X77098152Y-82709523D02*
X77764819Y-82709523D01*
X77193390Y-82709523D02*
X77145771Y-82661904D01*
X77145771Y-82661904D02*
X77098152Y-82566666D01*
X77098152Y-82566666D02*
X77098152Y-82423809D01*
X77098152Y-82423809D02*
X77145771Y-82328571D01*
X77145771Y-82328571D02*
X77241009Y-82280952D01*
X77241009Y-82280952D02*
X77764819Y-82280952D01*
X70836666Y-86854819D02*
X70836666Y-87569104D01*
X70836666Y-87569104D02*
X70789047Y-87711961D01*
X70789047Y-87711961D02*
X70693809Y-87807200D01*
X70693809Y-87807200D02*
X70550952Y-87854819D01*
X70550952Y-87854819D02*
X70455714Y-87854819D01*
X71789047Y-86854819D02*
X71312857Y-86854819D01*
X71312857Y-86854819D02*
X71265238Y-87331009D01*
X71265238Y-87331009D02*
X71312857Y-87283390D01*
X71312857Y-87283390D02*
X71408095Y-87235771D01*
X71408095Y-87235771D02*
X71646190Y-87235771D01*
X71646190Y-87235771D02*
X71741428Y-87283390D01*
X71741428Y-87283390D02*
X71789047Y-87331009D01*
X71789047Y-87331009D02*
X71836666Y-87426247D01*
X71836666Y-87426247D02*
X71836666Y-87664342D01*
X71836666Y-87664342D02*
X71789047Y-87759580D01*
X71789047Y-87759580D02*
X71741428Y-87807200D01*
X71741428Y-87807200D02*
X71646190Y-87854819D01*
X71646190Y-87854819D02*
X71408095Y-87854819D01*
X71408095Y-87854819D02*
X71312857Y-87807200D01*
X71312857Y-87807200D02*
X71265238Y-87759580D01*
X83207142Y-110604819D02*
X82730952Y-110604819D01*
X82730952Y-110604819D02*
X82683333Y-111081009D01*
X82683333Y-111081009D02*
X82730952Y-111033390D01*
X82730952Y-111033390D02*
X82826190Y-110985771D01*
X82826190Y-110985771D02*
X83064285Y-110985771D01*
X83064285Y-110985771D02*
X83159523Y-111033390D01*
X83159523Y-111033390D02*
X83207142Y-111081009D01*
X83207142Y-111081009D02*
X83254761Y-111176247D01*
X83254761Y-111176247D02*
X83254761Y-111414342D01*
X83254761Y-111414342D02*
X83207142Y-111509580D01*
X83207142Y-111509580D02*
X83159523Y-111557200D01*
X83159523Y-111557200D02*
X83064285Y-111604819D01*
X83064285Y-111604819D02*
X82826190Y-111604819D01*
X82826190Y-111604819D02*
X82730952Y-111557200D01*
X82730952Y-111557200D02*
X82683333Y-111509580D01*
X83540476Y-110604819D02*
X83873809Y-111604819D01*
X83873809Y-111604819D02*
X84207142Y-110604819D01*
X85302381Y-111604819D02*
X85302381Y-110604819D01*
X85302381Y-110604819D02*
X85683333Y-110604819D01*
X85683333Y-110604819D02*
X85778571Y-110652438D01*
X85778571Y-110652438D02*
X85826190Y-110700057D01*
X85826190Y-110700057D02*
X85873809Y-110795295D01*
X85873809Y-110795295D02*
X85873809Y-110938152D01*
X85873809Y-110938152D02*
X85826190Y-111033390D01*
X85826190Y-111033390D02*
X85778571Y-111081009D01*
X85778571Y-111081009D02*
X85683333Y-111128628D01*
X85683333Y-111128628D02*
X85302381Y-111128628D01*
X86207143Y-110604819D02*
X86445238Y-111604819D01*
X86445238Y-111604819D02*
X86635714Y-110890533D01*
X86635714Y-110890533D02*
X86826190Y-111604819D01*
X86826190Y-111604819D02*
X87064286Y-110604819D01*
X88016666Y-111604819D02*
X87683333Y-111128628D01*
X87445238Y-111604819D02*
X87445238Y-110604819D01*
X87445238Y-110604819D02*
X87826190Y-110604819D01*
X87826190Y-110604819D02*
X87921428Y-110652438D01*
X87921428Y-110652438D02*
X87969047Y-110700057D01*
X87969047Y-110700057D02*
X88016666Y-110795295D01*
X88016666Y-110795295D02*
X88016666Y-110938152D01*
X88016666Y-110938152D02*
X87969047Y-111033390D01*
X87969047Y-111033390D02*
X87921428Y-111081009D01*
X87921428Y-111081009D02*
X87826190Y-111128628D01*
X87826190Y-111128628D02*
X87445238Y-111128628D01*
X85016666Y-98104819D02*
X85016666Y-98819104D01*
X85016666Y-98819104D02*
X84969047Y-98961961D01*
X84969047Y-98961961D02*
X84873809Y-99057200D01*
X84873809Y-99057200D02*
X84730952Y-99104819D01*
X84730952Y-99104819D02*
X84635714Y-99104819D01*
X85397619Y-98104819D02*
X86016666Y-98104819D01*
X86016666Y-98104819D02*
X85683333Y-98485771D01*
X85683333Y-98485771D02*
X85826190Y-98485771D01*
X85826190Y-98485771D02*
X85921428Y-98533390D01*
X85921428Y-98533390D02*
X85969047Y-98581009D01*
X85969047Y-98581009D02*
X86016666Y-98676247D01*
X86016666Y-98676247D02*
X86016666Y-98914342D01*
X86016666Y-98914342D02*
X85969047Y-99009580D01*
X85969047Y-99009580D02*
X85921428Y-99057200D01*
X85921428Y-99057200D02*
X85826190Y-99104819D01*
X85826190Y-99104819D02*
X85540476Y-99104819D01*
X85540476Y-99104819D02*
X85445238Y-99057200D01*
X85445238Y-99057200D02*
X85397619Y-99009580D01*
X54833333Y-89504819D02*
X54261905Y-89504819D01*
X54547619Y-89504819D02*
X54547619Y-88504819D01*
X54547619Y-88504819D02*
X54452381Y-88647676D01*
X54452381Y-88647676D02*
X54357143Y-88742914D01*
X54357143Y-88742914D02*
X54261905Y-88790533D01*
X55452381Y-88504819D02*
X55547619Y-88504819D01*
X55547619Y-88504819D02*
X55642857Y-88552438D01*
X55642857Y-88552438D02*
X55690476Y-88600057D01*
X55690476Y-88600057D02*
X55738095Y-88695295D01*
X55738095Y-88695295D02*
X55785714Y-88885771D01*
X55785714Y-88885771D02*
X55785714Y-89123866D01*
X55785714Y-89123866D02*
X55738095Y-89314342D01*
X55738095Y-89314342D02*
X55690476Y-89409580D01*
X55690476Y-89409580D02*
X55642857Y-89457200D01*
X55642857Y-89457200D02*
X55547619Y-89504819D01*
X55547619Y-89504819D02*
X55452381Y-89504819D01*
X55452381Y-89504819D02*
X55357143Y-89457200D01*
X55357143Y-89457200D02*
X55309524Y-89409580D01*
X55309524Y-89409580D02*
X55261905Y-89314342D01*
X55261905Y-89314342D02*
X55214286Y-89123866D01*
X55214286Y-89123866D02*
X55214286Y-88885771D01*
X55214286Y-88885771D02*
X55261905Y-88695295D01*
X55261905Y-88695295D02*
X55309524Y-88600057D01*
X55309524Y-88600057D02*
X55357143Y-88552438D01*
X55357143Y-88552438D02*
X55452381Y-88504819D01*
X56404762Y-88504819D02*
X56500000Y-88504819D01*
X56500000Y-88504819D02*
X56595238Y-88552438D01*
X56595238Y-88552438D02*
X56642857Y-88600057D01*
X56642857Y-88600057D02*
X56690476Y-88695295D01*
X56690476Y-88695295D02*
X56738095Y-88885771D01*
X56738095Y-88885771D02*
X56738095Y-89123866D01*
X56738095Y-89123866D02*
X56690476Y-89314342D01*
X56690476Y-89314342D02*
X56642857Y-89409580D01*
X56642857Y-89409580D02*
X56595238Y-89457200D01*
X56595238Y-89457200D02*
X56500000Y-89504819D01*
X56500000Y-89504819D02*
X56404762Y-89504819D01*
X56404762Y-89504819D02*
X56309524Y-89457200D01*
X56309524Y-89457200D02*
X56261905Y-89409580D01*
X56261905Y-89409580D02*
X56214286Y-89314342D01*
X56214286Y-89314342D02*
X56166667Y-89123866D01*
X56166667Y-89123866D02*
X56166667Y-88885771D01*
X56166667Y-88885771D02*
X56214286Y-88695295D01*
X56214286Y-88695295D02*
X56261905Y-88600057D01*
X56261905Y-88600057D02*
X56309524Y-88552438D01*
X56309524Y-88552438D02*
X56404762Y-88504819D01*
D12*
X55178571Y-90927149D02*
X55011905Y-90689054D01*
X54892857Y-90927149D02*
X54892857Y-90427149D01*
X54892857Y-90427149D02*
X55083333Y-90427149D01*
X55083333Y-90427149D02*
X55130952Y-90450959D01*
X55130952Y-90450959D02*
X55154762Y-90474768D01*
X55154762Y-90474768D02*
X55178571Y-90522387D01*
X55178571Y-90522387D02*
X55178571Y-90593816D01*
X55178571Y-90593816D02*
X55154762Y-90641435D01*
X55154762Y-90641435D02*
X55130952Y-90665244D01*
X55130952Y-90665244D02*
X55083333Y-90689054D01*
X55083333Y-90689054D02*
X54892857Y-90689054D01*
X55654762Y-90927149D02*
X55369048Y-90927149D01*
X55511905Y-90927149D02*
X55511905Y-90427149D01*
X55511905Y-90427149D02*
X55464286Y-90498578D01*
X55464286Y-90498578D02*
X55416667Y-90546197D01*
X55416667Y-90546197D02*
X55369048Y-90570006D01*
X56083333Y-90593816D02*
X56083333Y-90927149D01*
X55964285Y-90403340D02*
X55845238Y-90760482D01*
X55845238Y-90760482D02*
X56154761Y-90760482D01*
D10*
X65658214Y-59375509D02*
X65991547Y-59375509D01*
X66134404Y-59899319D02*
X65658214Y-59899319D01*
X65658214Y-59899319D02*
X65658214Y-58899319D01*
X65658214Y-58899319D02*
X66134404Y-58899319D01*
X66515357Y-59851700D02*
X66658214Y-59899319D01*
X66658214Y-59899319D02*
X66896309Y-59899319D01*
X66896309Y-59899319D02*
X66991547Y-59851700D01*
X66991547Y-59851700D02*
X67039166Y-59804080D01*
X67039166Y-59804080D02*
X67086785Y-59708842D01*
X67086785Y-59708842D02*
X67086785Y-59613604D01*
X67086785Y-59613604D02*
X67039166Y-59518366D01*
X67039166Y-59518366D02*
X66991547Y-59470747D01*
X66991547Y-59470747D02*
X66896309Y-59423128D01*
X66896309Y-59423128D02*
X66705833Y-59375509D01*
X66705833Y-59375509D02*
X66610595Y-59327890D01*
X66610595Y-59327890D02*
X66562976Y-59280271D01*
X66562976Y-59280271D02*
X66515357Y-59185033D01*
X66515357Y-59185033D02*
X66515357Y-59089795D01*
X66515357Y-59089795D02*
X66562976Y-58994557D01*
X66562976Y-58994557D02*
X66610595Y-58946938D01*
X66610595Y-58946938D02*
X66705833Y-58899319D01*
X66705833Y-58899319D02*
X66943928Y-58899319D01*
X66943928Y-58899319D02*
X67086785Y-58946938D01*
X67515357Y-59899319D02*
X67515357Y-58899319D01*
X67515357Y-58899319D02*
X67896309Y-58899319D01*
X67896309Y-58899319D02*
X67991547Y-58946938D01*
X67991547Y-58946938D02*
X68039166Y-58994557D01*
X68039166Y-58994557D02*
X68086785Y-59089795D01*
X68086785Y-59089795D02*
X68086785Y-59232652D01*
X68086785Y-59232652D02*
X68039166Y-59327890D01*
X68039166Y-59327890D02*
X67991547Y-59375509D01*
X67991547Y-59375509D02*
X67896309Y-59423128D01*
X67896309Y-59423128D02*
X67515357Y-59423128D01*
X68515357Y-59518366D02*
X69277262Y-59518366D01*
X70277261Y-59899319D02*
X69705833Y-59899319D01*
X69991547Y-59899319D02*
X69991547Y-58899319D01*
X69991547Y-58899319D02*
X69896309Y-59042176D01*
X69896309Y-59042176D02*
X69801071Y-59137414D01*
X69801071Y-59137414D02*
X69705833Y-59185033D01*
X70658214Y-58994557D02*
X70705833Y-58946938D01*
X70705833Y-58946938D02*
X70801071Y-58899319D01*
X70801071Y-58899319D02*
X71039166Y-58899319D01*
X71039166Y-58899319D02*
X71134404Y-58946938D01*
X71134404Y-58946938D02*
X71182023Y-58994557D01*
X71182023Y-58994557D02*
X71229642Y-59089795D01*
X71229642Y-59089795D02*
X71229642Y-59185033D01*
X71229642Y-59185033D02*
X71182023Y-59327890D01*
X71182023Y-59327890D02*
X70610595Y-59899319D01*
X70610595Y-59899319D02*
X71229642Y-59899319D01*
X71658214Y-59375509D02*
X71991547Y-59375509D01*
X72134404Y-59899319D02*
X71658214Y-59899319D01*
X71658214Y-59899319D02*
X71658214Y-58899319D01*
X71658214Y-58899319D02*
X72134404Y-58899319D01*
X68660595Y-70879319D02*
X68660595Y-71688842D01*
X68660595Y-71688842D02*
X68708214Y-71784080D01*
X68708214Y-71784080D02*
X68755833Y-71831700D01*
X68755833Y-71831700D02*
X68851071Y-71879319D01*
X68851071Y-71879319D02*
X69041547Y-71879319D01*
X69041547Y-71879319D02*
X69136785Y-71831700D01*
X69136785Y-71831700D02*
X69184404Y-71784080D01*
X69184404Y-71784080D02*
X69232023Y-71688842D01*
X69232023Y-71688842D02*
X69232023Y-70879319D01*
X69612976Y-70879319D02*
X70232023Y-70879319D01*
X70232023Y-70879319D02*
X69898690Y-71260271D01*
X69898690Y-71260271D02*
X70041547Y-71260271D01*
X70041547Y-71260271D02*
X70136785Y-71307890D01*
X70136785Y-71307890D02*
X70184404Y-71355509D01*
X70184404Y-71355509D02*
X70232023Y-71450747D01*
X70232023Y-71450747D02*
X70232023Y-71688842D01*
X70232023Y-71688842D02*
X70184404Y-71784080D01*
X70184404Y-71784080D02*
X70136785Y-71831700D01*
X70136785Y-71831700D02*
X70041547Y-71879319D01*
X70041547Y-71879319D02*
X69755833Y-71879319D01*
X69755833Y-71879319D02*
X69660595Y-71831700D01*
X69660595Y-71831700D02*
X69612976Y-71784080D01*
D14*
X87385040Y-72080133D02*
X87718373Y-72080133D01*
X87018373Y-72313466D02*
X87385040Y-72080133D01*
X87385040Y-72080133D02*
X87018373Y-71846799D01*
X87718373Y-71246799D02*
X87718373Y-71646799D01*
X87718373Y-71446799D02*
X87018373Y-71446799D01*
X87018373Y-71446799D02*
X87118373Y-71513466D01*
X87118373Y-71513466D02*
X87185040Y-71580133D01*
X87185040Y-71580133D02*
X87218373Y-71646799D01*
D10*
X105749700Y-75436069D02*
X105749700Y-75912259D01*
X105749700Y-75912259D02*
X106225890Y-75959878D01*
X106225890Y-75959878D02*
X106178271Y-75912259D01*
X106178271Y-75912259D02*
X106130652Y-75817021D01*
X106130652Y-75817021D02*
X106130652Y-75578926D01*
X106130652Y-75578926D02*
X106178271Y-75483688D01*
X106178271Y-75483688D02*
X106225890Y-75436069D01*
X106225890Y-75436069D02*
X106321128Y-75388450D01*
X106321128Y-75388450D02*
X106559223Y-75388450D01*
X106559223Y-75388450D02*
X106654461Y-75436069D01*
X106654461Y-75436069D02*
X106702081Y-75483688D01*
X106702081Y-75483688D02*
X106749700Y-75578926D01*
X106749700Y-75578926D02*
X106749700Y-75817021D01*
X106749700Y-75817021D02*
X106702081Y-75912259D01*
X106702081Y-75912259D02*
X106654461Y-75959878D01*
X106654461Y-74959878D02*
X106702081Y-74912259D01*
X106702081Y-74912259D02*
X106749700Y-74959878D01*
X106749700Y-74959878D02*
X106702081Y-75007497D01*
X106702081Y-75007497D02*
X106654461Y-74959878D01*
X106654461Y-74959878D02*
X106749700Y-74959878D01*
X106749700Y-73959879D02*
X106749700Y-74531307D01*
X106749700Y-74245593D02*
X105749700Y-74245593D01*
X105749700Y-74245593D02*
X105892557Y-74340831D01*
X105892557Y-74340831D02*
X105987795Y-74436069D01*
X105987795Y-74436069D02*
X106035414Y-74531307D01*
X106749700Y-73531307D02*
X105749700Y-73531307D01*
X106368747Y-73436069D02*
X106749700Y-73150355D01*
X106083033Y-73150355D02*
X106463985Y-73531307D01*
D12*
X104872030Y-74638450D02*
X104633935Y-74805116D01*
X104872030Y-74924164D02*
X104372030Y-74924164D01*
X104372030Y-74924164D02*
X104372030Y-74733688D01*
X104372030Y-74733688D02*
X104395840Y-74686069D01*
X104395840Y-74686069D02*
X104419649Y-74662259D01*
X104419649Y-74662259D02*
X104467268Y-74638450D01*
X104467268Y-74638450D02*
X104538697Y-74638450D01*
X104538697Y-74638450D02*
X104586316Y-74662259D01*
X104586316Y-74662259D02*
X104610125Y-74686069D01*
X104610125Y-74686069D02*
X104633935Y-74733688D01*
X104633935Y-74733688D02*
X104633935Y-74924164D01*
X104372030Y-74471783D02*
X104372030Y-74162259D01*
X104372030Y-74162259D02*
X104562506Y-74328926D01*
X104562506Y-74328926D02*
X104562506Y-74257497D01*
X104562506Y-74257497D02*
X104586316Y-74209878D01*
X104586316Y-74209878D02*
X104610125Y-74186069D01*
X104610125Y-74186069D02*
X104657744Y-74162259D01*
X104657744Y-74162259D02*
X104776792Y-74162259D01*
X104776792Y-74162259D02*
X104824411Y-74186069D01*
X104824411Y-74186069D02*
X104848221Y-74209878D01*
X104848221Y-74209878D02*
X104872030Y-74257497D01*
X104872030Y-74257497D02*
X104872030Y-74400354D01*
X104872030Y-74400354D02*
X104848221Y-74447973D01*
X104848221Y-74447973D02*
X104824411Y-74471783D01*
D10*
X89859580Y-74889657D02*
X89907200Y-74937276D01*
X89907200Y-74937276D02*
X89954819Y-75080133D01*
X89954819Y-75080133D02*
X89954819Y-75175371D01*
X89954819Y-75175371D02*
X89907200Y-75318228D01*
X89907200Y-75318228D02*
X89811961Y-75413466D01*
X89811961Y-75413466D02*
X89716723Y-75461085D01*
X89716723Y-75461085D02*
X89526247Y-75508704D01*
X89526247Y-75508704D02*
X89383390Y-75508704D01*
X89383390Y-75508704D02*
X89192914Y-75461085D01*
X89192914Y-75461085D02*
X89097676Y-75413466D01*
X89097676Y-75413466D02*
X89002438Y-75318228D01*
X89002438Y-75318228D02*
X88954819Y-75175371D01*
X88954819Y-75175371D02*
X88954819Y-75080133D01*
X88954819Y-75080133D02*
X89002438Y-74937276D01*
X89002438Y-74937276D02*
X89050057Y-74889657D01*
X89954819Y-74461085D02*
X88954819Y-74461085D01*
X89431009Y-74461085D02*
X89431009Y-73889657D01*
X89954819Y-73889657D02*
X88954819Y-73889657D01*
X88954819Y-73508704D02*
X88954819Y-72889657D01*
X88954819Y-72889657D02*
X89335771Y-73222990D01*
X89335771Y-73222990D02*
X89335771Y-73080133D01*
X89335771Y-73080133D02*
X89383390Y-72984895D01*
X89383390Y-72984895D02*
X89431009Y-72937276D01*
X89431009Y-72937276D02*
X89526247Y-72889657D01*
X89526247Y-72889657D02*
X89764342Y-72889657D01*
X89764342Y-72889657D02*
X89859580Y-72937276D01*
X89859580Y-72937276D02*
X89907200Y-72984895D01*
X89907200Y-72984895D02*
X89954819Y-73080133D01*
X89954819Y-73080133D02*
X89954819Y-73365847D01*
X89954819Y-73365847D02*
X89907200Y-73461085D01*
X89907200Y-73461085D02*
X89859580Y-73508704D01*
X89288152Y-72032514D02*
X89954819Y-72032514D01*
X88907200Y-72270609D02*
X89621485Y-72508704D01*
X89621485Y-72508704D02*
X89621485Y-71889657D01*
X88954819Y-71318228D02*
X88954819Y-71222990D01*
X88954819Y-71222990D02*
X89002438Y-71127752D01*
X89002438Y-71127752D02*
X89050057Y-71080133D01*
X89050057Y-71080133D02*
X89145295Y-71032514D01*
X89145295Y-71032514D02*
X89335771Y-70984895D01*
X89335771Y-70984895D02*
X89573866Y-70984895D01*
X89573866Y-70984895D02*
X89764342Y-71032514D01*
X89764342Y-71032514D02*
X89859580Y-71080133D01*
X89859580Y-71080133D02*
X89907200Y-71127752D01*
X89907200Y-71127752D02*
X89954819Y-71222990D01*
X89954819Y-71222990D02*
X89954819Y-71318228D01*
X89954819Y-71318228D02*
X89907200Y-71413466D01*
X89907200Y-71413466D02*
X89859580Y-71461085D01*
X89859580Y-71461085D02*
X89764342Y-71508704D01*
X89764342Y-71508704D02*
X89573866Y-71556323D01*
X89573866Y-71556323D02*
X89335771Y-71556323D01*
X89335771Y-71556323D02*
X89145295Y-71508704D01*
X89145295Y-71508704D02*
X89050057Y-71461085D01*
X89050057Y-71461085D02*
X89002438Y-71413466D01*
X89002438Y-71413466D02*
X88954819Y-71318228D01*
X89002438Y-70032514D02*
X88954819Y-70127752D01*
X88954819Y-70127752D02*
X88954819Y-70270609D01*
X88954819Y-70270609D02*
X89002438Y-70413466D01*
X89002438Y-70413466D02*
X89097676Y-70508704D01*
X89097676Y-70508704D02*
X89192914Y-70556323D01*
X89192914Y-70556323D02*
X89383390Y-70603942D01*
X89383390Y-70603942D02*
X89526247Y-70603942D01*
X89526247Y-70603942D02*
X89716723Y-70556323D01*
X89716723Y-70556323D02*
X89811961Y-70508704D01*
X89811961Y-70508704D02*
X89907200Y-70413466D01*
X89907200Y-70413466D02*
X89954819Y-70270609D01*
X89954819Y-70270609D02*
X89954819Y-70175371D01*
X89954819Y-70175371D02*
X89907200Y-70032514D01*
X89907200Y-70032514D02*
X89859580Y-69984895D01*
X89859580Y-69984895D02*
X89526247Y-69984895D01*
X89526247Y-69984895D02*
X89526247Y-70175371D01*
X94640566Y-72221666D02*
X95433900Y-72221666D01*
X95433900Y-72221666D02*
X95527233Y-72175000D01*
X95527233Y-72175000D02*
X95573900Y-72128333D01*
X95573900Y-72128333D02*
X95620566Y-72035000D01*
X95620566Y-72035000D02*
X95620566Y-71848333D01*
X95620566Y-71848333D02*
X95573900Y-71755000D01*
X95573900Y-71755000D02*
X95527233Y-71708333D01*
X95527233Y-71708333D02*
X95433900Y-71661666D01*
X95433900Y-71661666D02*
X94640566Y-71661666D01*
X95620566Y-70681666D02*
X95620566Y-71241666D01*
X95620566Y-70961666D02*
X94640566Y-70961666D01*
X94640566Y-70961666D02*
X94780566Y-71054999D01*
X94780566Y-71054999D02*
X94873900Y-71148333D01*
X94873900Y-71148333D02*
X94920566Y-71241666D01*
X70677380Y-89774819D02*
X70105952Y-89774819D01*
X70391666Y-89774819D02*
X70391666Y-88774819D01*
X70391666Y-88774819D02*
X70296428Y-88917676D01*
X70296428Y-88917676D02*
X70201190Y-89012914D01*
X70201190Y-89012914D02*
X70105952Y-89060533D01*
X71296428Y-88774819D02*
X71391666Y-88774819D01*
X71391666Y-88774819D02*
X71486904Y-88822438D01*
X71486904Y-88822438D02*
X71534523Y-88870057D01*
X71534523Y-88870057D02*
X71582142Y-88965295D01*
X71582142Y-88965295D02*
X71629761Y-89155771D01*
X71629761Y-89155771D02*
X71629761Y-89393866D01*
X71629761Y-89393866D02*
X71582142Y-89584342D01*
X71582142Y-89584342D02*
X71534523Y-89679580D01*
X71534523Y-89679580D02*
X71486904Y-89727200D01*
X71486904Y-89727200D02*
X71391666Y-89774819D01*
X71391666Y-89774819D02*
X71296428Y-89774819D01*
X71296428Y-89774819D02*
X71201190Y-89727200D01*
X71201190Y-89727200D02*
X71153571Y-89679580D01*
X71153571Y-89679580D02*
X71105952Y-89584342D01*
X71105952Y-89584342D02*
X71058333Y-89393866D01*
X71058333Y-89393866D02*
X71058333Y-89155771D01*
X71058333Y-89155771D02*
X71105952Y-88965295D01*
X71105952Y-88965295D02*
X71153571Y-88870057D01*
X71153571Y-88870057D02*
X71201190Y-88822438D01*
X71201190Y-88822438D02*
X71296428Y-88774819D01*
X72248809Y-88774819D02*
X72344047Y-88774819D01*
X72344047Y-88774819D02*
X72439285Y-88822438D01*
X72439285Y-88822438D02*
X72486904Y-88870057D01*
X72486904Y-88870057D02*
X72534523Y-88965295D01*
X72534523Y-88965295D02*
X72582142Y-89155771D01*
X72582142Y-89155771D02*
X72582142Y-89393866D01*
X72582142Y-89393866D02*
X72534523Y-89584342D01*
X72534523Y-89584342D02*
X72486904Y-89679580D01*
X72486904Y-89679580D02*
X72439285Y-89727200D01*
X72439285Y-89727200D02*
X72344047Y-89774819D01*
X72344047Y-89774819D02*
X72248809Y-89774819D01*
X72248809Y-89774819D02*
X72153571Y-89727200D01*
X72153571Y-89727200D02*
X72105952Y-89679580D01*
X72105952Y-89679580D02*
X72058333Y-89584342D01*
X72058333Y-89584342D02*
X72010714Y-89393866D01*
X72010714Y-89393866D02*
X72010714Y-89155771D01*
X72010714Y-89155771D02*
X72058333Y-88965295D01*
X72058333Y-88965295D02*
X72105952Y-88870057D01*
X72105952Y-88870057D02*
X72153571Y-88822438D01*
X72153571Y-88822438D02*
X72248809Y-88774819D01*
X73010714Y-89108152D02*
X73010714Y-89774819D01*
X73010714Y-89203390D02*
X73058333Y-89155771D01*
X73058333Y-89155771D02*
X73153571Y-89108152D01*
X73153571Y-89108152D02*
X73296428Y-89108152D01*
X73296428Y-89108152D02*
X73391666Y-89155771D01*
X73391666Y-89155771D02*
X73439285Y-89251009D01*
X73439285Y-89251009D02*
X73439285Y-89774819D01*
X74248809Y-89251009D02*
X73915476Y-89251009D01*
X73915476Y-89774819D02*
X73915476Y-88774819D01*
X73915476Y-88774819D02*
X74391666Y-88774819D01*
D12*
X72141666Y-91179530D02*
X72117857Y-91203340D01*
X72117857Y-91203340D02*
X72046428Y-91227149D01*
X72046428Y-91227149D02*
X71998809Y-91227149D01*
X71998809Y-91227149D02*
X71927381Y-91203340D01*
X71927381Y-91203340D02*
X71879762Y-91155720D01*
X71879762Y-91155720D02*
X71855952Y-91108101D01*
X71855952Y-91108101D02*
X71832143Y-91012863D01*
X71832143Y-91012863D02*
X71832143Y-90941435D01*
X71832143Y-90941435D02*
X71855952Y-90846197D01*
X71855952Y-90846197D02*
X71879762Y-90798578D01*
X71879762Y-90798578D02*
X71927381Y-90750959D01*
X71927381Y-90750959D02*
X71998809Y-90727149D01*
X71998809Y-90727149D02*
X72046428Y-90727149D01*
X72046428Y-90727149D02*
X72117857Y-90750959D01*
X72117857Y-90750959D02*
X72141666Y-90774768D01*
X72308333Y-90727149D02*
X72641666Y-90727149D01*
X72641666Y-90727149D02*
X72427381Y-91227149D01*
D10*
X52761905Y-85254819D02*
X52761905Y-84254819D01*
X52761905Y-84254819D02*
X53095238Y-84969104D01*
X53095238Y-84969104D02*
X53428571Y-84254819D01*
X53428571Y-84254819D02*
X53428571Y-85254819D01*
X54476190Y-85159580D02*
X54428571Y-85207200D01*
X54428571Y-85207200D02*
X54285714Y-85254819D01*
X54285714Y-85254819D02*
X54190476Y-85254819D01*
X54190476Y-85254819D02*
X54047619Y-85207200D01*
X54047619Y-85207200D02*
X53952381Y-85111961D01*
X53952381Y-85111961D02*
X53904762Y-85016723D01*
X53904762Y-85016723D02*
X53857143Y-84826247D01*
X53857143Y-84826247D02*
X53857143Y-84683390D01*
X53857143Y-84683390D02*
X53904762Y-84492914D01*
X53904762Y-84492914D02*
X53952381Y-84397676D01*
X53952381Y-84397676D02*
X54047619Y-84302438D01*
X54047619Y-84302438D02*
X54190476Y-84254819D01*
X54190476Y-84254819D02*
X54285714Y-84254819D01*
X54285714Y-84254819D02*
X54428571Y-84302438D01*
X54428571Y-84302438D02*
X54476190Y-84350057D01*
X54904762Y-85254819D02*
X54904762Y-84254819D01*
X54904762Y-84254819D02*
X55285714Y-84254819D01*
X55285714Y-84254819D02*
X55380952Y-84302438D01*
X55380952Y-84302438D02*
X55428571Y-84350057D01*
X55428571Y-84350057D02*
X55476190Y-84445295D01*
X55476190Y-84445295D02*
X55476190Y-84588152D01*
X55476190Y-84588152D02*
X55428571Y-84683390D01*
X55428571Y-84683390D02*
X55380952Y-84731009D01*
X55380952Y-84731009D02*
X55285714Y-84778628D01*
X55285714Y-84778628D02*
X54904762Y-84778628D01*
X56428571Y-85254819D02*
X55857143Y-85254819D01*
X56142857Y-85254819D02*
X56142857Y-84254819D01*
X56142857Y-84254819D02*
X56047619Y-84397676D01*
X56047619Y-84397676D02*
X55952381Y-84492914D01*
X55952381Y-84492914D02*
X55857143Y-84540533D01*
X57285714Y-84588152D02*
X57285714Y-85254819D01*
X57047619Y-84207200D02*
X56809524Y-84921485D01*
X56809524Y-84921485D02*
X57428571Y-84921485D01*
X58333333Y-85254819D02*
X57761905Y-85254819D01*
X58047619Y-85254819D02*
X58047619Y-84254819D01*
X58047619Y-84254819D02*
X57952381Y-84397676D01*
X57952381Y-84397676D02*
X57857143Y-84492914D01*
X57857143Y-84492914D02*
X57761905Y-84540533D01*
X59190476Y-84254819D02*
X59000000Y-84254819D01*
X59000000Y-84254819D02*
X58904762Y-84302438D01*
X58904762Y-84302438D02*
X58857143Y-84350057D01*
X58857143Y-84350057D02*
X58761905Y-84492914D01*
X58761905Y-84492914D02*
X58714286Y-84683390D01*
X58714286Y-84683390D02*
X58714286Y-85064342D01*
X58714286Y-85064342D02*
X58761905Y-85159580D01*
X58761905Y-85159580D02*
X58809524Y-85207200D01*
X58809524Y-85207200D02*
X58904762Y-85254819D01*
X58904762Y-85254819D02*
X59095238Y-85254819D01*
X59095238Y-85254819D02*
X59190476Y-85207200D01*
X59190476Y-85207200D02*
X59238095Y-85159580D01*
X59238095Y-85159580D02*
X59285714Y-85064342D01*
X59285714Y-85064342D02*
X59285714Y-84826247D01*
X59285714Y-84826247D02*
X59238095Y-84731009D01*
X59238095Y-84731009D02*
X59190476Y-84683390D01*
X59190476Y-84683390D02*
X59095238Y-84635771D01*
X59095238Y-84635771D02*
X58904762Y-84635771D01*
X58904762Y-84635771D02*
X58809524Y-84683390D01*
X58809524Y-84683390D02*
X58761905Y-84731009D01*
X58761905Y-84731009D02*
X58714286Y-84826247D01*
D11*
X55727409Y-88080952D02*
X56132171Y-88080952D01*
X56132171Y-88080952D02*
X56179790Y-88057142D01*
X56179790Y-88057142D02*
X56203600Y-88033333D01*
X56203600Y-88033333D02*
X56227409Y-87985714D01*
X56227409Y-87985714D02*
X56227409Y-87890476D01*
X56227409Y-87890476D02*
X56203600Y-87842857D01*
X56203600Y-87842857D02*
X56179790Y-87819047D01*
X56179790Y-87819047D02*
X56132171Y-87795238D01*
X56132171Y-87795238D02*
X55727409Y-87795238D01*
X55727409Y-87342856D02*
X55727409Y-87438094D01*
X55727409Y-87438094D02*
X55751219Y-87485713D01*
X55751219Y-87485713D02*
X55775028Y-87509523D01*
X55775028Y-87509523D02*
X55846457Y-87557142D01*
X55846457Y-87557142D02*
X55941695Y-87580951D01*
X55941695Y-87580951D02*
X56132171Y-87580951D01*
X56132171Y-87580951D02*
X56179790Y-87557142D01*
X56179790Y-87557142D02*
X56203600Y-87533332D01*
X56203600Y-87533332D02*
X56227409Y-87485713D01*
X56227409Y-87485713D02*
X56227409Y-87390475D01*
X56227409Y-87390475D02*
X56203600Y-87342856D01*
X56203600Y-87342856D02*
X56179790Y-87319047D01*
X56179790Y-87319047D02*
X56132171Y-87295237D01*
X56132171Y-87295237D02*
X56013123Y-87295237D01*
X56013123Y-87295237D02*
X55965504Y-87319047D01*
X55965504Y-87319047D02*
X55941695Y-87342856D01*
X55941695Y-87342856D02*
X55917885Y-87390475D01*
X55917885Y-87390475D02*
X55917885Y-87485713D01*
X55917885Y-87485713D02*
X55941695Y-87533332D01*
X55941695Y-87533332D02*
X55965504Y-87557142D01*
X55965504Y-87557142D02*
X56013123Y-87580951D01*
D10*
X62028571Y-88634819D02*
X61457143Y-88634819D01*
X61742857Y-88634819D02*
X61742857Y-87634819D01*
X61742857Y-87634819D02*
X61647619Y-87777676D01*
X61647619Y-87777676D02*
X61552381Y-87872914D01*
X61552381Y-87872914D02*
X61457143Y-87920533D01*
X62647619Y-87634819D02*
X62742857Y-87634819D01*
X62742857Y-87634819D02*
X62838095Y-87682438D01*
X62838095Y-87682438D02*
X62885714Y-87730057D01*
X62885714Y-87730057D02*
X62933333Y-87825295D01*
X62933333Y-87825295D02*
X62980952Y-88015771D01*
X62980952Y-88015771D02*
X62980952Y-88253866D01*
X62980952Y-88253866D02*
X62933333Y-88444342D01*
X62933333Y-88444342D02*
X62885714Y-88539580D01*
X62885714Y-88539580D02*
X62838095Y-88587200D01*
X62838095Y-88587200D02*
X62742857Y-88634819D01*
X62742857Y-88634819D02*
X62647619Y-88634819D01*
X62647619Y-88634819D02*
X62552381Y-88587200D01*
X62552381Y-88587200D02*
X62504762Y-88539580D01*
X62504762Y-88539580D02*
X62457143Y-88444342D01*
X62457143Y-88444342D02*
X62409524Y-88253866D01*
X62409524Y-88253866D02*
X62409524Y-88015771D01*
X62409524Y-88015771D02*
X62457143Y-87825295D01*
X62457143Y-87825295D02*
X62504762Y-87730057D01*
X62504762Y-87730057D02*
X62552381Y-87682438D01*
X62552381Y-87682438D02*
X62647619Y-87634819D01*
X63838095Y-87968152D02*
X63838095Y-88634819D01*
X63409524Y-87968152D02*
X63409524Y-88491961D01*
X63409524Y-88491961D02*
X63457143Y-88587200D01*
X63457143Y-88587200D02*
X63552381Y-88634819D01*
X63552381Y-88634819D02*
X63695238Y-88634819D01*
X63695238Y-88634819D02*
X63790476Y-88587200D01*
X63790476Y-88587200D02*
X63838095Y-88539580D01*
X64647619Y-88111009D02*
X64314286Y-88111009D01*
X64314286Y-88634819D02*
X64314286Y-87634819D01*
X64314286Y-87634819D02*
X64790476Y-87634819D01*
D12*
X63016666Y-86679530D02*
X62992857Y-86703340D01*
X62992857Y-86703340D02*
X62921428Y-86727149D01*
X62921428Y-86727149D02*
X62873809Y-86727149D01*
X62873809Y-86727149D02*
X62802381Y-86703340D01*
X62802381Y-86703340D02*
X62754762Y-86655720D01*
X62754762Y-86655720D02*
X62730952Y-86608101D01*
X62730952Y-86608101D02*
X62707143Y-86512863D01*
X62707143Y-86512863D02*
X62707143Y-86441435D01*
X62707143Y-86441435D02*
X62730952Y-86346197D01*
X62730952Y-86346197D02*
X62754762Y-86298578D01*
X62754762Y-86298578D02*
X62802381Y-86250959D01*
X62802381Y-86250959D02*
X62873809Y-86227149D01*
X62873809Y-86227149D02*
X62921428Y-86227149D01*
X62921428Y-86227149D02*
X62992857Y-86250959D01*
X62992857Y-86250959D02*
X63016666Y-86274768D01*
X63445238Y-86393816D02*
X63445238Y-86727149D01*
X63326190Y-86203340D02*
X63207143Y-86560482D01*
X63207143Y-86560482D02*
X63516666Y-86560482D01*
D10*
X102554819Y-81295238D02*
X102554819Y-81866666D01*
X102554819Y-81580952D02*
X101554819Y-81580952D01*
X101554819Y-81580952D02*
X101697676Y-81676190D01*
X101697676Y-81676190D02*
X101792914Y-81771428D01*
X101792914Y-81771428D02*
X101840533Y-81866666D01*
X101554819Y-80676190D02*
X101554819Y-80580952D01*
X101554819Y-80580952D02*
X101602438Y-80485714D01*
X101602438Y-80485714D02*
X101650057Y-80438095D01*
X101650057Y-80438095D02*
X101745295Y-80390476D01*
X101745295Y-80390476D02*
X101935771Y-80342857D01*
X101935771Y-80342857D02*
X102173866Y-80342857D01*
X102173866Y-80342857D02*
X102364342Y-80390476D01*
X102364342Y-80390476D02*
X102459580Y-80438095D01*
X102459580Y-80438095D02*
X102507200Y-80485714D01*
X102507200Y-80485714D02*
X102554819Y-80580952D01*
X102554819Y-80580952D02*
X102554819Y-80676190D01*
X102554819Y-80676190D02*
X102507200Y-80771428D01*
X102507200Y-80771428D02*
X102459580Y-80819047D01*
X102459580Y-80819047D02*
X102364342Y-80866666D01*
X102364342Y-80866666D02*
X102173866Y-80914285D01*
X102173866Y-80914285D02*
X101935771Y-80914285D01*
X101935771Y-80914285D02*
X101745295Y-80866666D01*
X101745295Y-80866666D02*
X101650057Y-80819047D01*
X101650057Y-80819047D02*
X101602438Y-80771428D01*
X101602438Y-80771428D02*
X101554819Y-80676190D01*
X102554819Y-79914285D02*
X101554819Y-79914285D01*
X102173866Y-79819047D02*
X102554819Y-79533333D01*
X101888152Y-79533333D02*
X102269104Y-79914285D01*
D12*
X100677149Y-81021428D02*
X100439054Y-81188094D01*
X100677149Y-81307142D02*
X100177149Y-81307142D01*
X100177149Y-81307142D02*
X100177149Y-81116666D01*
X100177149Y-81116666D02*
X100200959Y-81069047D01*
X100200959Y-81069047D02*
X100224768Y-81045237D01*
X100224768Y-81045237D02*
X100272387Y-81021428D01*
X100272387Y-81021428D02*
X100343816Y-81021428D01*
X100343816Y-81021428D02*
X100391435Y-81045237D01*
X100391435Y-81045237D02*
X100415244Y-81069047D01*
X100415244Y-81069047D02*
X100439054Y-81116666D01*
X100439054Y-81116666D02*
X100439054Y-81307142D01*
X100677149Y-80545237D02*
X100677149Y-80830951D01*
X100677149Y-80688094D02*
X100177149Y-80688094D01*
X100177149Y-80688094D02*
X100248578Y-80735713D01*
X100248578Y-80735713D02*
X100296197Y-80783332D01*
X100296197Y-80783332D02*
X100320006Y-80830951D01*
X100677149Y-80069047D02*
X100677149Y-80354761D01*
X100677149Y-80211904D02*
X100177149Y-80211904D01*
X100177149Y-80211904D02*
X100248578Y-80259523D01*
X100248578Y-80259523D02*
X100296197Y-80307142D01*
X100296197Y-80307142D02*
X100320006Y-80354761D01*
D10*
X36954819Y-75993333D02*
X37669104Y-75993333D01*
X37669104Y-75993333D02*
X37811961Y-76040952D01*
X37811961Y-76040952D02*
X37907200Y-76136190D01*
X37907200Y-76136190D02*
X37954819Y-76279047D01*
X37954819Y-76279047D02*
X37954819Y-76374285D01*
X36954819Y-75612380D02*
X36954819Y-74945714D01*
X36954819Y-74945714D02*
X37954819Y-75374285D01*
X79019104Y-105349999D02*
X79019104Y-104873809D01*
X79304819Y-105445237D02*
X78304819Y-105111904D01*
X78304819Y-105111904D02*
X79304819Y-104778571D01*
X79304819Y-104445237D02*
X78304819Y-104445237D01*
X78304819Y-104445237D02*
X79019104Y-104111904D01*
X79019104Y-104111904D02*
X78304819Y-103778571D01*
X78304819Y-103778571D02*
X79304819Y-103778571D01*
X79257200Y-103349999D02*
X79304819Y-103207142D01*
X79304819Y-103207142D02*
X79304819Y-102969047D01*
X79304819Y-102969047D02*
X79257200Y-102873809D01*
X79257200Y-102873809D02*
X79209580Y-102826190D01*
X79209580Y-102826190D02*
X79114342Y-102778571D01*
X79114342Y-102778571D02*
X79019104Y-102778571D01*
X79019104Y-102778571D02*
X78923866Y-102826190D01*
X78923866Y-102826190D02*
X78876247Y-102873809D01*
X78876247Y-102873809D02*
X78828628Y-102969047D01*
X78828628Y-102969047D02*
X78781009Y-103159523D01*
X78781009Y-103159523D02*
X78733390Y-103254761D01*
X78733390Y-103254761D02*
X78685771Y-103302380D01*
X78685771Y-103302380D02*
X78590533Y-103349999D01*
X78590533Y-103349999D02*
X78495295Y-103349999D01*
X78495295Y-103349999D02*
X78400057Y-103302380D01*
X78400057Y-103302380D02*
X78352438Y-103254761D01*
X78352438Y-103254761D02*
X78304819Y-103159523D01*
X78304819Y-103159523D02*
X78304819Y-102921428D01*
X78304819Y-102921428D02*
X78352438Y-102778571D01*
X79304819Y-101826190D02*
X79304819Y-102397618D01*
X79304819Y-102111904D02*
X78304819Y-102111904D01*
X78304819Y-102111904D02*
X78447676Y-102207142D01*
X78447676Y-102207142D02*
X78542914Y-102302380D01*
X78542914Y-102302380D02*
X78590533Y-102397618D01*
X79304819Y-100873809D02*
X79304819Y-101445237D01*
X79304819Y-101159523D02*
X78304819Y-101159523D01*
X78304819Y-101159523D02*
X78447676Y-101254761D01*
X78447676Y-101254761D02*
X78542914Y-101349999D01*
X78542914Y-101349999D02*
X78590533Y-101445237D01*
X79304819Y-99921428D02*
X79304819Y-100492856D01*
X79304819Y-100207142D02*
X78304819Y-100207142D01*
X78304819Y-100207142D02*
X78447676Y-100302380D01*
X78447676Y-100302380D02*
X78542914Y-100397618D01*
X78542914Y-100397618D02*
X78590533Y-100492856D01*
X78304819Y-99588094D02*
X78304819Y-98921428D01*
X78304819Y-98921428D02*
X79304819Y-99349999D01*
X78923866Y-98540475D02*
X78923866Y-97778571D01*
X78304819Y-96826190D02*
X78304819Y-97302380D01*
X78304819Y-97302380D02*
X78781009Y-97349999D01*
X78781009Y-97349999D02*
X78733390Y-97302380D01*
X78733390Y-97302380D02*
X78685771Y-97207142D01*
X78685771Y-97207142D02*
X78685771Y-96969047D01*
X78685771Y-96969047D02*
X78733390Y-96873809D01*
X78733390Y-96873809D02*
X78781009Y-96826190D01*
X78781009Y-96826190D02*
X78876247Y-96778571D01*
X78876247Y-96778571D02*
X79114342Y-96778571D01*
X79114342Y-96778571D02*
X79209580Y-96826190D01*
X79209580Y-96826190D02*
X79257200Y-96873809D01*
X79257200Y-96873809D02*
X79304819Y-96969047D01*
X79304819Y-96969047D02*
X79304819Y-97207142D01*
X79304819Y-97207142D02*
X79257200Y-97302380D01*
X79257200Y-97302380D02*
X79209580Y-97349999D01*
X79209580Y-96349999D02*
X79257200Y-96302380D01*
X79257200Y-96302380D02*
X79304819Y-96349999D01*
X79304819Y-96349999D02*
X79257200Y-96397618D01*
X79257200Y-96397618D02*
X79209580Y-96349999D01*
X79209580Y-96349999D02*
X79304819Y-96349999D01*
X78304819Y-95683333D02*
X78304819Y-95588095D01*
X78304819Y-95588095D02*
X78352438Y-95492857D01*
X78352438Y-95492857D02*
X78400057Y-95445238D01*
X78400057Y-95445238D02*
X78495295Y-95397619D01*
X78495295Y-95397619D02*
X78685771Y-95350000D01*
X78685771Y-95350000D02*
X78923866Y-95350000D01*
X78923866Y-95350000D02*
X79114342Y-95397619D01*
X79114342Y-95397619D02*
X79209580Y-95445238D01*
X79209580Y-95445238D02*
X79257200Y-95492857D01*
X79257200Y-95492857D02*
X79304819Y-95588095D01*
X79304819Y-95588095D02*
X79304819Y-95683333D01*
X79304819Y-95683333D02*
X79257200Y-95778571D01*
X79257200Y-95778571D02*
X79209580Y-95826190D01*
X79209580Y-95826190D02*
X79114342Y-95873809D01*
X79114342Y-95873809D02*
X78923866Y-95921428D01*
X78923866Y-95921428D02*
X78685771Y-95921428D01*
X78685771Y-95921428D02*
X78495295Y-95873809D01*
X78495295Y-95873809D02*
X78400057Y-95826190D01*
X78400057Y-95826190D02*
X78352438Y-95778571D01*
X78352438Y-95778571D02*
X78304819Y-95683333D01*
D15*
X73740476Y-99913855D02*
X73740476Y-100561474D01*
X73740476Y-100561474D02*
X73778571Y-100637664D01*
X73778571Y-100637664D02*
X73816666Y-100675760D01*
X73816666Y-100675760D02*
X73892857Y-100713855D01*
X73892857Y-100713855D02*
X74045238Y-100713855D01*
X74045238Y-100713855D02*
X74121428Y-100675760D01*
X74121428Y-100675760D02*
X74159523Y-100637664D01*
X74159523Y-100637664D02*
X74197619Y-100561474D01*
X74197619Y-100561474D02*
X74197619Y-99913855D01*
X74921428Y-100180521D02*
X74921428Y-100713855D01*
X74730952Y-99875760D02*
X74540475Y-100447188D01*
X74540475Y-100447188D02*
X75035714Y-100447188D01*
D10*
X92554761Y-80004819D02*
X91983333Y-80004819D01*
X92269047Y-80004819D02*
X92269047Y-79004819D01*
X92269047Y-79004819D02*
X92173809Y-79147676D01*
X92173809Y-79147676D02*
X92078571Y-79242914D01*
X92078571Y-79242914D02*
X91983333Y-79290533D01*
X93173809Y-79004819D02*
X93269047Y-79004819D01*
X93269047Y-79004819D02*
X93364285Y-79052438D01*
X93364285Y-79052438D02*
X93411904Y-79100057D01*
X93411904Y-79100057D02*
X93459523Y-79195295D01*
X93459523Y-79195295D02*
X93507142Y-79385771D01*
X93507142Y-79385771D02*
X93507142Y-79623866D01*
X93507142Y-79623866D02*
X93459523Y-79814342D01*
X93459523Y-79814342D02*
X93411904Y-79909580D01*
X93411904Y-79909580D02*
X93364285Y-79957200D01*
X93364285Y-79957200D02*
X93269047Y-80004819D01*
X93269047Y-80004819D02*
X93173809Y-80004819D01*
X93173809Y-80004819D02*
X93078571Y-79957200D01*
X93078571Y-79957200D02*
X93030952Y-79909580D01*
X93030952Y-79909580D02*
X92983333Y-79814342D01*
X92983333Y-79814342D02*
X92935714Y-79623866D01*
X92935714Y-79623866D02*
X92935714Y-79385771D01*
X92935714Y-79385771D02*
X92983333Y-79195295D01*
X92983333Y-79195295D02*
X93030952Y-79100057D01*
X93030952Y-79100057D02*
X93078571Y-79052438D01*
X93078571Y-79052438D02*
X93173809Y-79004819D01*
X93935714Y-80004819D02*
X93935714Y-79004819D01*
X94030952Y-79623866D02*
X94316666Y-80004819D01*
X94316666Y-79338152D02*
X93935714Y-79719104D01*
D12*
X93066666Y-81427149D02*
X92900000Y-81189054D01*
X92780952Y-81427149D02*
X92780952Y-80927149D01*
X92780952Y-80927149D02*
X92971428Y-80927149D01*
X92971428Y-80927149D02*
X93019047Y-80950959D01*
X93019047Y-80950959D02*
X93042857Y-80974768D01*
X93042857Y-80974768D02*
X93066666Y-81022387D01*
X93066666Y-81022387D02*
X93066666Y-81093816D01*
X93066666Y-81093816D02*
X93042857Y-81141435D01*
X93042857Y-81141435D02*
X93019047Y-81165244D01*
X93019047Y-81165244D02*
X92971428Y-81189054D01*
X92971428Y-81189054D02*
X92780952Y-81189054D01*
X93257143Y-80974768D02*
X93280952Y-80950959D01*
X93280952Y-80950959D02*
X93328571Y-80927149D01*
X93328571Y-80927149D02*
X93447619Y-80927149D01*
X93447619Y-80927149D02*
X93495238Y-80950959D01*
X93495238Y-80950959D02*
X93519047Y-80974768D01*
X93519047Y-80974768D02*
X93542857Y-81022387D01*
X93542857Y-81022387D02*
X93542857Y-81070006D01*
X93542857Y-81070006D02*
X93519047Y-81141435D01*
X93519047Y-81141435D02*
X93233333Y-81427149D01*
X93233333Y-81427149D02*
X93542857Y-81427149D01*
D10*
X62117319Y-95721726D02*
X62117319Y-96293154D01*
X62117319Y-96007440D02*
X61117319Y-96007440D01*
X61117319Y-96007440D02*
X61260176Y-96102678D01*
X61260176Y-96102678D02*
X61355414Y-96197916D01*
X61355414Y-96197916D02*
X61403033Y-96293154D01*
X62117319Y-95293154D02*
X61117319Y-95293154D01*
X61117319Y-95293154D02*
X62117319Y-94721726D01*
X62117319Y-94721726D02*
X61117319Y-94721726D01*
X61117319Y-93769345D02*
X61117319Y-94245535D01*
X61117319Y-94245535D02*
X61593509Y-94293154D01*
X61593509Y-94293154D02*
X61545890Y-94245535D01*
X61545890Y-94245535D02*
X61498271Y-94150297D01*
X61498271Y-94150297D02*
X61498271Y-93912202D01*
X61498271Y-93912202D02*
X61545890Y-93816964D01*
X61545890Y-93816964D02*
X61593509Y-93769345D01*
X61593509Y-93769345D02*
X61688747Y-93721726D01*
X61688747Y-93721726D02*
X61926842Y-93721726D01*
X61926842Y-93721726D02*
X62022080Y-93769345D01*
X62022080Y-93769345D02*
X62069700Y-93816964D01*
X62069700Y-93816964D02*
X62117319Y-93912202D01*
X62117319Y-93912202D02*
X62117319Y-94150297D01*
X62117319Y-94150297D02*
X62069700Y-94245535D01*
X62069700Y-94245535D02*
X62022080Y-94293154D01*
X61545890Y-93150297D02*
X61498271Y-93245535D01*
X61498271Y-93245535D02*
X61450652Y-93293154D01*
X61450652Y-93293154D02*
X61355414Y-93340773D01*
X61355414Y-93340773D02*
X61307795Y-93340773D01*
X61307795Y-93340773D02*
X61212557Y-93293154D01*
X61212557Y-93293154D02*
X61164938Y-93245535D01*
X61164938Y-93245535D02*
X61117319Y-93150297D01*
X61117319Y-93150297D02*
X61117319Y-92959821D01*
X61117319Y-92959821D02*
X61164938Y-92864583D01*
X61164938Y-92864583D02*
X61212557Y-92816964D01*
X61212557Y-92816964D02*
X61307795Y-92769345D01*
X61307795Y-92769345D02*
X61355414Y-92769345D01*
X61355414Y-92769345D02*
X61450652Y-92816964D01*
X61450652Y-92816964D02*
X61498271Y-92864583D01*
X61498271Y-92864583D02*
X61545890Y-92959821D01*
X61545890Y-92959821D02*
X61545890Y-93150297D01*
X61545890Y-93150297D02*
X61593509Y-93245535D01*
X61593509Y-93245535D02*
X61641128Y-93293154D01*
X61641128Y-93293154D02*
X61736366Y-93340773D01*
X61736366Y-93340773D02*
X61926842Y-93340773D01*
X61926842Y-93340773D02*
X62022080Y-93293154D01*
X62022080Y-93293154D02*
X62069700Y-93245535D01*
X62069700Y-93245535D02*
X62117319Y-93150297D01*
X62117319Y-93150297D02*
X62117319Y-92959821D01*
X62117319Y-92959821D02*
X62069700Y-92864583D01*
X62069700Y-92864583D02*
X62022080Y-92816964D01*
X62022080Y-92816964D02*
X61926842Y-92769345D01*
X61926842Y-92769345D02*
X61736366Y-92769345D01*
X61736366Y-92769345D02*
X61641128Y-92816964D01*
X61641128Y-92816964D02*
X61593509Y-92864583D01*
X61593509Y-92864583D02*
X61545890Y-92959821D01*
X62117319Y-91816964D02*
X62117319Y-92388392D01*
X62117319Y-92102678D02*
X61117319Y-92102678D01*
X61117319Y-92102678D02*
X61260176Y-92197916D01*
X61260176Y-92197916D02*
X61355414Y-92293154D01*
X61355414Y-92293154D02*
X61403033Y-92388392D01*
X62117319Y-91340773D02*
X62117319Y-91150297D01*
X62117319Y-91150297D02*
X62069700Y-91055059D01*
X62069700Y-91055059D02*
X62022080Y-91007440D01*
X62022080Y-91007440D02*
X61879223Y-90912202D01*
X61879223Y-90912202D02*
X61688747Y-90864583D01*
X61688747Y-90864583D02*
X61307795Y-90864583D01*
X61307795Y-90864583D02*
X61212557Y-90912202D01*
X61212557Y-90912202D02*
X61164938Y-90959821D01*
X61164938Y-90959821D02*
X61117319Y-91055059D01*
X61117319Y-91055059D02*
X61117319Y-91245535D01*
X61117319Y-91245535D02*
X61164938Y-91340773D01*
X61164938Y-91340773D02*
X61212557Y-91388392D01*
X61212557Y-91388392D02*
X61307795Y-91436011D01*
X61307795Y-91436011D02*
X61545890Y-91436011D01*
X61545890Y-91436011D02*
X61641128Y-91388392D01*
X61641128Y-91388392D02*
X61688747Y-91340773D01*
X61688747Y-91340773D02*
X61736366Y-91245535D01*
X61736366Y-91245535D02*
X61736366Y-91055059D01*
X61736366Y-91055059D02*
X61688747Y-90959821D01*
X61688747Y-90959821D02*
X61641128Y-90912202D01*
X61641128Y-90912202D02*
X61545890Y-90864583D01*
X61117319Y-90531249D02*
X62117319Y-90293154D01*
X62117319Y-90293154D02*
X61403033Y-90102678D01*
X61403033Y-90102678D02*
X62117319Y-89912202D01*
X62117319Y-89912202D02*
X61117319Y-89674107D01*
X62069700Y-89340773D02*
X62117319Y-89197916D01*
X62117319Y-89197916D02*
X62117319Y-88959821D01*
X62117319Y-88959821D02*
X62069700Y-88864583D01*
X62069700Y-88864583D02*
X62022080Y-88816964D01*
X62022080Y-88816964D02*
X61926842Y-88769345D01*
X61926842Y-88769345D02*
X61831604Y-88769345D01*
X61831604Y-88769345D02*
X61736366Y-88816964D01*
X61736366Y-88816964D02*
X61688747Y-88864583D01*
X61688747Y-88864583D02*
X61641128Y-88959821D01*
X61641128Y-88959821D02*
X61593509Y-89150297D01*
X61593509Y-89150297D02*
X61545890Y-89245535D01*
X61545890Y-89245535D02*
X61498271Y-89293154D01*
X61498271Y-89293154D02*
X61403033Y-89340773D01*
X61403033Y-89340773D02*
X61307795Y-89340773D01*
X61307795Y-89340773D02*
X61212557Y-89293154D01*
X61212557Y-89293154D02*
X61164938Y-89245535D01*
X61164938Y-89245535D02*
X61117319Y-89150297D01*
X61117319Y-89150297D02*
X61117319Y-88912202D01*
X61117319Y-88912202D02*
X61164938Y-88769345D01*
X65867319Y-93169344D02*
X64867319Y-93169344D01*
X64867319Y-93169344D02*
X64867319Y-92931249D01*
X64867319Y-92931249D02*
X64914938Y-92788392D01*
X64914938Y-92788392D02*
X65010176Y-92693154D01*
X65010176Y-92693154D02*
X65105414Y-92645535D01*
X65105414Y-92645535D02*
X65295890Y-92597916D01*
X65295890Y-92597916D02*
X65438747Y-92597916D01*
X65438747Y-92597916D02*
X65629223Y-92645535D01*
X65629223Y-92645535D02*
X65724461Y-92693154D01*
X65724461Y-92693154D02*
X65819700Y-92788392D01*
X65819700Y-92788392D02*
X65867319Y-92931249D01*
X65867319Y-92931249D02*
X65867319Y-93169344D01*
X65295890Y-92026487D02*
X65248271Y-92121725D01*
X65248271Y-92121725D02*
X65200652Y-92169344D01*
X65200652Y-92169344D02*
X65105414Y-92216963D01*
X65105414Y-92216963D02*
X65057795Y-92216963D01*
X65057795Y-92216963D02*
X64962557Y-92169344D01*
X64962557Y-92169344D02*
X64914938Y-92121725D01*
X64914938Y-92121725D02*
X64867319Y-92026487D01*
X64867319Y-92026487D02*
X64867319Y-91836011D01*
X64867319Y-91836011D02*
X64914938Y-91740773D01*
X64914938Y-91740773D02*
X64962557Y-91693154D01*
X64962557Y-91693154D02*
X65057795Y-91645535D01*
X65057795Y-91645535D02*
X65105414Y-91645535D01*
X65105414Y-91645535D02*
X65200652Y-91693154D01*
X65200652Y-91693154D02*
X65248271Y-91740773D01*
X65248271Y-91740773D02*
X65295890Y-91836011D01*
X65295890Y-91836011D02*
X65295890Y-92026487D01*
X65295890Y-92026487D02*
X65343509Y-92121725D01*
X65343509Y-92121725D02*
X65391128Y-92169344D01*
X65391128Y-92169344D02*
X65486366Y-92216963D01*
X65486366Y-92216963D02*
X65676842Y-92216963D01*
X65676842Y-92216963D02*
X65772080Y-92169344D01*
X65772080Y-92169344D02*
X65819700Y-92121725D01*
X65819700Y-92121725D02*
X65867319Y-92026487D01*
X65867319Y-92026487D02*
X65867319Y-91836011D01*
X65867319Y-91836011D02*
X65819700Y-91740773D01*
X65819700Y-91740773D02*
X65772080Y-91693154D01*
X65772080Y-91693154D02*
X65676842Y-91645535D01*
X65676842Y-91645535D02*
X65486366Y-91645535D01*
X65486366Y-91645535D02*
X65391128Y-91693154D01*
X65391128Y-91693154D02*
X65343509Y-91740773D01*
X65343509Y-91740773D02*
X65295890Y-91836011D01*
X54491071Y-83474819D02*
X53919643Y-83474819D01*
X54205357Y-83474819D02*
X54205357Y-82474819D01*
X54205357Y-82474819D02*
X54110119Y-82617676D01*
X54110119Y-82617676D02*
X54014881Y-82712914D01*
X54014881Y-82712914D02*
X53919643Y-82760533D01*
X55110119Y-82474819D02*
X55205357Y-82474819D01*
X55205357Y-82474819D02*
X55300595Y-82522438D01*
X55300595Y-82522438D02*
X55348214Y-82570057D01*
X55348214Y-82570057D02*
X55395833Y-82665295D01*
X55395833Y-82665295D02*
X55443452Y-82855771D01*
X55443452Y-82855771D02*
X55443452Y-83093866D01*
X55443452Y-83093866D02*
X55395833Y-83284342D01*
X55395833Y-83284342D02*
X55348214Y-83379580D01*
X55348214Y-83379580D02*
X55300595Y-83427200D01*
X55300595Y-83427200D02*
X55205357Y-83474819D01*
X55205357Y-83474819D02*
X55110119Y-83474819D01*
X55110119Y-83474819D02*
X55014881Y-83427200D01*
X55014881Y-83427200D02*
X54967262Y-83379580D01*
X54967262Y-83379580D02*
X54919643Y-83284342D01*
X54919643Y-83284342D02*
X54872024Y-83093866D01*
X54872024Y-83093866D02*
X54872024Y-82855771D01*
X54872024Y-82855771D02*
X54919643Y-82665295D01*
X54919643Y-82665295D02*
X54967262Y-82570057D01*
X54967262Y-82570057D02*
X55014881Y-82522438D01*
X55014881Y-82522438D02*
X55110119Y-82474819D01*
X56300595Y-82808152D02*
X56300595Y-83474819D01*
X55872024Y-82808152D02*
X55872024Y-83331961D01*
X55872024Y-83331961D02*
X55919643Y-83427200D01*
X55919643Y-83427200D02*
X56014881Y-83474819D01*
X56014881Y-83474819D02*
X56157738Y-83474819D01*
X56157738Y-83474819D02*
X56252976Y-83427200D01*
X56252976Y-83427200D02*
X56300595Y-83379580D01*
X57110119Y-82951009D02*
X56776786Y-82951009D01*
X56776786Y-83474819D02*
X56776786Y-82474819D01*
X56776786Y-82474819D02*
X57252976Y-82474819D01*
D12*
X55241071Y-84879530D02*
X55217262Y-84903340D01*
X55217262Y-84903340D02*
X55145833Y-84927149D01*
X55145833Y-84927149D02*
X55098214Y-84927149D01*
X55098214Y-84927149D02*
X55026786Y-84903340D01*
X55026786Y-84903340D02*
X54979167Y-84855720D01*
X54979167Y-84855720D02*
X54955357Y-84808101D01*
X54955357Y-84808101D02*
X54931548Y-84712863D01*
X54931548Y-84712863D02*
X54931548Y-84641435D01*
X54931548Y-84641435D02*
X54955357Y-84546197D01*
X54955357Y-84546197D02*
X54979167Y-84498578D01*
X54979167Y-84498578D02*
X55026786Y-84450959D01*
X55026786Y-84450959D02*
X55098214Y-84427149D01*
X55098214Y-84427149D02*
X55145833Y-84427149D01*
X55145833Y-84427149D02*
X55217262Y-84450959D01*
X55217262Y-84450959D02*
X55241071Y-84474768D01*
X55717262Y-84927149D02*
X55431548Y-84927149D01*
X55574405Y-84927149D02*
X55574405Y-84427149D01*
X55574405Y-84427149D02*
X55526786Y-84498578D01*
X55526786Y-84498578D02*
X55479167Y-84546197D01*
X55479167Y-84546197D02*
X55431548Y-84570006D01*
X55907738Y-84474768D02*
X55931547Y-84450959D01*
X55931547Y-84450959D02*
X55979166Y-84427149D01*
X55979166Y-84427149D02*
X56098214Y-84427149D01*
X56098214Y-84427149D02*
X56145833Y-84450959D01*
X56145833Y-84450959D02*
X56169642Y-84474768D01*
X56169642Y-84474768D02*
X56193452Y-84522387D01*
X56193452Y-84522387D02*
X56193452Y-84570006D01*
X56193452Y-84570006D02*
X56169642Y-84641435D01*
X56169642Y-84641435D02*
X55883928Y-84927149D01*
X55883928Y-84927149D02*
X56193452Y-84927149D01*
D10*
X47604761Y-95950057D02*
X47509523Y-95902438D01*
X47509523Y-95902438D02*
X47414285Y-95807200D01*
X47414285Y-95807200D02*
X47271428Y-95664342D01*
X47271428Y-95664342D02*
X47176190Y-95616723D01*
X47176190Y-95616723D02*
X47080952Y-95616723D01*
X47128571Y-95854819D02*
X47033333Y-95807200D01*
X47033333Y-95807200D02*
X46938095Y-95711961D01*
X46938095Y-95711961D02*
X46890476Y-95521485D01*
X46890476Y-95521485D02*
X46890476Y-95188152D01*
X46890476Y-95188152D02*
X46938095Y-94997676D01*
X46938095Y-94997676D02*
X47033333Y-94902438D01*
X47033333Y-94902438D02*
X47128571Y-94854819D01*
X47128571Y-94854819D02*
X47319047Y-94854819D01*
X47319047Y-94854819D02*
X47414285Y-94902438D01*
X47414285Y-94902438D02*
X47509523Y-94997676D01*
X47509523Y-94997676D02*
X47557142Y-95188152D01*
X47557142Y-95188152D02*
X47557142Y-95521485D01*
X47557142Y-95521485D02*
X47509523Y-95711961D01*
X47509523Y-95711961D02*
X47414285Y-95807200D01*
X47414285Y-95807200D02*
X47319047Y-95854819D01*
X47319047Y-95854819D02*
X47128571Y-95854819D01*
X48414285Y-95188152D02*
X48414285Y-95854819D01*
X48176190Y-94807200D02*
X47938095Y-95521485D01*
X47938095Y-95521485D02*
X48557142Y-95521485D01*
X85794643Y-68976857D02*
X85842262Y-68929238D01*
X85842262Y-68929238D02*
X85937500Y-68881619D01*
X85937500Y-68881619D02*
X86175595Y-68881619D01*
X86175595Y-68881619D02*
X86270833Y-68929238D01*
X86270833Y-68929238D02*
X86318452Y-68976857D01*
X86318452Y-68976857D02*
X86366071Y-69072095D01*
X86366071Y-69072095D02*
X86366071Y-69167333D01*
X86366071Y-69167333D02*
X86318452Y-69310190D01*
X86318452Y-69310190D02*
X85747024Y-69881619D01*
X85747024Y-69881619D02*
X86366071Y-69881619D01*
X86747024Y-68976857D02*
X86794643Y-68929238D01*
X86794643Y-68929238D02*
X86889881Y-68881619D01*
X86889881Y-68881619D02*
X87127976Y-68881619D01*
X87127976Y-68881619D02*
X87223214Y-68929238D01*
X87223214Y-68929238D02*
X87270833Y-68976857D01*
X87270833Y-68976857D02*
X87318452Y-69072095D01*
X87318452Y-69072095D02*
X87318452Y-69167333D01*
X87318452Y-69167333D02*
X87270833Y-69310190D01*
X87270833Y-69310190D02*
X86699405Y-69881619D01*
X86699405Y-69881619D02*
X87318452Y-69881619D01*
X87747024Y-69214952D02*
X87747024Y-70214952D01*
X87747024Y-69262571D02*
X87842262Y-69214952D01*
X87842262Y-69214952D02*
X88032738Y-69214952D01*
X88032738Y-69214952D02*
X88127976Y-69262571D01*
X88127976Y-69262571D02*
X88175595Y-69310190D01*
X88175595Y-69310190D02*
X88223214Y-69405428D01*
X88223214Y-69405428D02*
X88223214Y-69691142D01*
X88223214Y-69691142D02*
X88175595Y-69786380D01*
X88175595Y-69786380D02*
X88127976Y-69834000D01*
X88127976Y-69834000D02*
X88032738Y-69881619D01*
X88032738Y-69881619D02*
X87842262Y-69881619D01*
X87842262Y-69881619D02*
X87747024Y-69834000D01*
X88985119Y-69357809D02*
X88651786Y-69357809D01*
X88651786Y-69881619D02*
X88651786Y-68881619D01*
X88651786Y-68881619D02*
X89127976Y-68881619D01*
D12*
X87354166Y-67926330D02*
X87330357Y-67950140D01*
X87330357Y-67950140D02*
X87258928Y-67973949D01*
X87258928Y-67973949D02*
X87211309Y-67973949D01*
X87211309Y-67973949D02*
X87139881Y-67950140D01*
X87139881Y-67950140D02*
X87092262Y-67902520D01*
X87092262Y-67902520D02*
X87068452Y-67854901D01*
X87068452Y-67854901D02*
X87044643Y-67759663D01*
X87044643Y-67759663D02*
X87044643Y-67688235D01*
X87044643Y-67688235D02*
X87068452Y-67592997D01*
X87068452Y-67592997D02*
X87092262Y-67545378D01*
X87092262Y-67545378D02*
X87139881Y-67497759D01*
X87139881Y-67497759D02*
X87211309Y-67473949D01*
X87211309Y-67473949D02*
X87258928Y-67473949D01*
X87258928Y-67473949D02*
X87330357Y-67497759D01*
X87330357Y-67497759D02*
X87354166Y-67521568D01*
X87544643Y-67521568D02*
X87568452Y-67497759D01*
X87568452Y-67497759D02*
X87616071Y-67473949D01*
X87616071Y-67473949D02*
X87735119Y-67473949D01*
X87735119Y-67473949D02*
X87782738Y-67497759D01*
X87782738Y-67497759D02*
X87806547Y-67521568D01*
X87806547Y-67521568D02*
X87830357Y-67569187D01*
X87830357Y-67569187D02*
X87830357Y-67616806D01*
X87830357Y-67616806D02*
X87806547Y-67688235D01*
X87806547Y-67688235D02*
X87520833Y-67973949D01*
X87520833Y-67973949D02*
X87830357Y-67973949D01*
D10*
X39238095Y-65454819D02*
X39238095Y-64454819D01*
X39238095Y-64931009D02*
X39809523Y-64931009D01*
X39809523Y-65454819D02*
X39809523Y-64454819D01*
X40809523Y-65454819D02*
X40238095Y-65454819D01*
X40523809Y-65454819D02*
X40523809Y-64454819D01*
X40523809Y-64454819D02*
X40428571Y-64597676D01*
X40428571Y-64597676D02*
X40333333Y-64692914D01*
X40333333Y-64692914D02*
X40238095Y-64740533D01*
X84954819Y-80795238D02*
X84954819Y-81366666D01*
X84954819Y-81080952D02*
X83954819Y-81080952D01*
X83954819Y-81080952D02*
X84097676Y-81176190D01*
X84097676Y-81176190D02*
X84192914Y-81271428D01*
X84192914Y-81271428D02*
X84240533Y-81366666D01*
X83954819Y-80176190D02*
X83954819Y-80080952D01*
X83954819Y-80080952D02*
X84002438Y-79985714D01*
X84002438Y-79985714D02*
X84050057Y-79938095D01*
X84050057Y-79938095D02*
X84145295Y-79890476D01*
X84145295Y-79890476D02*
X84335771Y-79842857D01*
X84335771Y-79842857D02*
X84573866Y-79842857D01*
X84573866Y-79842857D02*
X84764342Y-79890476D01*
X84764342Y-79890476D02*
X84859580Y-79938095D01*
X84859580Y-79938095D02*
X84907200Y-79985714D01*
X84907200Y-79985714D02*
X84954819Y-80080952D01*
X84954819Y-80080952D02*
X84954819Y-80176190D01*
X84954819Y-80176190D02*
X84907200Y-80271428D01*
X84907200Y-80271428D02*
X84859580Y-80319047D01*
X84859580Y-80319047D02*
X84764342Y-80366666D01*
X84764342Y-80366666D02*
X84573866Y-80414285D01*
X84573866Y-80414285D02*
X84335771Y-80414285D01*
X84335771Y-80414285D02*
X84145295Y-80366666D01*
X84145295Y-80366666D02*
X84050057Y-80319047D01*
X84050057Y-80319047D02*
X84002438Y-80271428D01*
X84002438Y-80271428D02*
X83954819Y-80176190D01*
X84954819Y-79414285D02*
X83954819Y-79414285D01*
X84573866Y-79319047D02*
X84954819Y-79033333D01*
X84288152Y-79033333D02*
X84669104Y-79414285D01*
D12*
X86377149Y-80521428D02*
X86139054Y-80688094D01*
X86377149Y-80807142D02*
X85877149Y-80807142D01*
X85877149Y-80807142D02*
X85877149Y-80616666D01*
X85877149Y-80616666D02*
X85900959Y-80569047D01*
X85900959Y-80569047D02*
X85924768Y-80545237D01*
X85924768Y-80545237D02*
X85972387Y-80521428D01*
X85972387Y-80521428D02*
X86043816Y-80521428D01*
X86043816Y-80521428D02*
X86091435Y-80545237D01*
X86091435Y-80545237D02*
X86115244Y-80569047D01*
X86115244Y-80569047D02*
X86139054Y-80616666D01*
X86139054Y-80616666D02*
X86139054Y-80807142D01*
X86377149Y-80045237D02*
X86377149Y-80330951D01*
X86377149Y-80188094D02*
X85877149Y-80188094D01*
X85877149Y-80188094D02*
X85948578Y-80235713D01*
X85948578Y-80235713D02*
X85996197Y-80283332D01*
X85996197Y-80283332D02*
X86020006Y-80330951D01*
X85877149Y-79735714D02*
X85877149Y-79688095D01*
X85877149Y-79688095D02*
X85900959Y-79640476D01*
X85900959Y-79640476D02*
X85924768Y-79616666D01*
X85924768Y-79616666D02*
X85972387Y-79592857D01*
X85972387Y-79592857D02*
X86067625Y-79569047D01*
X86067625Y-79569047D02*
X86186673Y-79569047D01*
X86186673Y-79569047D02*
X86281911Y-79592857D01*
X86281911Y-79592857D02*
X86329530Y-79616666D01*
X86329530Y-79616666D02*
X86353340Y-79640476D01*
X86353340Y-79640476D02*
X86377149Y-79688095D01*
X86377149Y-79688095D02*
X86377149Y-79735714D01*
X86377149Y-79735714D02*
X86353340Y-79783333D01*
X86353340Y-79783333D02*
X86329530Y-79807142D01*
X86329530Y-79807142D02*
X86281911Y-79830952D01*
X86281911Y-79830952D02*
X86186673Y-79854761D01*
X86186673Y-79854761D02*
X86067625Y-79854761D01*
X86067625Y-79854761D02*
X85972387Y-79830952D01*
X85972387Y-79830952D02*
X85924768Y-79807142D01*
X85924768Y-79807142D02*
X85900959Y-79783333D01*
X85900959Y-79783333D02*
X85877149Y-79735714D01*
D16*
X109785714Y-69985681D02*
X109719048Y-69985681D01*
X109719048Y-70090443D02*
X109719048Y-69890443D01*
X109719048Y-69890443D02*
X109814286Y-69890443D01*
X109890477Y-70090443D02*
X109890477Y-69890443D01*
X109985715Y-70090443D02*
X109985715Y-69890443D01*
X109985715Y-69890443D02*
X110033334Y-69890443D01*
X110033334Y-69890443D02*
X110061905Y-69899967D01*
X110061905Y-69899967D02*
X110080953Y-69919015D01*
X110080953Y-69919015D02*
X110090476Y-69938062D01*
X110090476Y-69938062D02*
X110100000Y-69976158D01*
X110100000Y-69976158D02*
X110100000Y-70004729D01*
X110100000Y-70004729D02*
X110090476Y-70042824D01*
X110090476Y-70042824D02*
X110080953Y-70061872D01*
X110080953Y-70061872D02*
X110061905Y-70080920D01*
X110061905Y-70080920D02*
X110033334Y-70090443D01*
X110033334Y-70090443D02*
X109985715Y-70090443D01*
X110166667Y-69890443D02*
X110290476Y-69890443D01*
X110290476Y-69890443D02*
X110223810Y-69966634D01*
X110223810Y-69966634D02*
X110252381Y-69966634D01*
X110252381Y-69966634D02*
X110271429Y-69976158D01*
X110271429Y-69976158D02*
X110280953Y-69985681D01*
X110280953Y-69985681D02*
X110290476Y-70004729D01*
X110290476Y-70004729D02*
X110290476Y-70052348D01*
X110290476Y-70052348D02*
X110280953Y-70071396D01*
X110280953Y-70071396D02*
X110271429Y-70080920D01*
X110271429Y-70080920D02*
X110252381Y-70090443D01*
X110252381Y-70090443D02*
X110195238Y-70090443D01*
X110195238Y-70090443D02*
X110176191Y-70080920D01*
X110176191Y-70080920D02*
X110166667Y-70071396D01*
D10*
X75516071Y-95734819D02*
X74944643Y-95734819D01*
X75230357Y-95734819D02*
X75230357Y-94734819D01*
X75230357Y-94734819D02*
X75135119Y-94877676D01*
X75135119Y-94877676D02*
X75039881Y-94972914D01*
X75039881Y-94972914D02*
X74944643Y-95020533D01*
X76135119Y-94734819D02*
X76230357Y-94734819D01*
X76230357Y-94734819D02*
X76325595Y-94782438D01*
X76325595Y-94782438D02*
X76373214Y-94830057D01*
X76373214Y-94830057D02*
X76420833Y-94925295D01*
X76420833Y-94925295D02*
X76468452Y-95115771D01*
X76468452Y-95115771D02*
X76468452Y-95353866D01*
X76468452Y-95353866D02*
X76420833Y-95544342D01*
X76420833Y-95544342D02*
X76373214Y-95639580D01*
X76373214Y-95639580D02*
X76325595Y-95687200D01*
X76325595Y-95687200D02*
X76230357Y-95734819D01*
X76230357Y-95734819D02*
X76135119Y-95734819D01*
X76135119Y-95734819D02*
X76039881Y-95687200D01*
X76039881Y-95687200D02*
X75992262Y-95639580D01*
X75992262Y-95639580D02*
X75944643Y-95544342D01*
X75944643Y-95544342D02*
X75897024Y-95353866D01*
X75897024Y-95353866D02*
X75897024Y-95115771D01*
X75897024Y-95115771D02*
X75944643Y-94925295D01*
X75944643Y-94925295D02*
X75992262Y-94830057D01*
X75992262Y-94830057D02*
X76039881Y-94782438D01*
X76039881Y-94782438D02*
X76135119Y-94734819D01*
X77325595Y-95068152D02*
X77325595Y-95734819D01*
X76897024Y-95068152D02*
X76897024Y-95591961D01*
X76897024Y-95591961D02*
X76944643Y-95687200D01*
X76944643Y-95687200D02*
X77039881Y-95734819D01*
X77039881Y-95734819D02*
X77182738Y-95734819D01*
X77182738Y-95734819D02*
X77277976Y-95687200D01*
X77277976Y-95687200D02*
X77325595Y-95639580D01*
X78135119Y-95211009D02*
X77801786Y-95211009D01*
X77801786Y-95734819D02*
X77801786Y-94734819D01*
X77801786Y-94734819D02*
X78277976Y-94734819D01*
D12*
X76504166Y-93779530D02*
X76480357Y-93803340D01*
X76480357Y-93803340D02*
X76408928Y-93827149D01*
X76408928Y-93827149D02*
X76361309Y-93827149D01*
X76361309Y-93827149D02*
X76289881Y-93803340D01*
X76289881Y-93803340D02*
X76242262Y-93755720D01*
X76242262Y-93755720D02*
X76218452Y-93708101D01*
X76218452Y-93708101D02*
X76194643Y-93612863D01*
X76194643Y-93612863D02*
X76194643Y-93541435D01*
X76194643Y-93541435D02*
X76218452Y-93446197D01*
X76218452Y-93446197D02*
X76242262Y-93398578D01*
X76242262Y-93398578D02*
X76289881Y-93350959D01*
X76289881Y-93350959D02*
X76361309Y-93327149D01*
X76361309Y-93327149D02*
X76408928Y-93327149D01*
X76408928Y-93327149D02*
X76480357Y-93350959D01*
X76480357Y-93350959D02*
X76504166Y-93374768D01*
X76789881Y-93541435D02*
X76742262Y-93517625D01*
X76742262Y-93517625D02*
X76718452Y-93493816D01*
X76718452Y-93493816D02*
X76694643Y-93446197D01*
X76694643Y-93446197D02*
X76694643Y-93422387D01*
X76694643Y-93422387D02*
X76718452Y-93374768D01*
X76718452Y-93374768D02*
X76742262Y-93350959D01*
X76742262Y-93350959D02*
X76789881Y-93327149D01*
X76789881Y-93327149D02*
X76885119Y-93327149D01*
X76885119Y-93327149D02*
X76932738Y-93350959D01*
X76932738Y-93350959D02*
X76956547Y-93374768D01*
X76956547Y-93374768D02*
X76980357Y-93422387D01*
X76980357Y-93422387D02*
X76980357Y-93446197D01*
X76980357Y-93446197D02*
X76956547Y-93493816D01*
X76956547Y-93493816D02*
X76932738Y-93517625D01*
X76932738Y-93517625D02*
X76885119Y-93541435D01*
X76885119Y-93541435D02*
X76789881Y-93541435D01*
X76789881Y-93541435D02*
X76742262Y-93565244D01*
X76742262Y-93565244D02*
X76718452Y-93589054D01*
X76718452Y-93589054D02*
X76694643Y-93636673D01*
X76694643Y-93636673D02*
X76694643Y-93731911D01*
X76694643Y-93731911D02*
X76718452Y-93779530D01*
X76718452Y-93779530D02*
X76742262Y-93803340D01*
X76742262Y-93803340D02*
X76789881Y-93827149D01*
X76789881Y-93827149D02*
X76885119Y-93827149D01*
X76885119Y-93827149D02*
X76932738Y-93803340D01*
X76932738Y-93803340D02*
X76956547Y-93779530D01*
X76956547Y-93779530D02*
X76980357Y-93731911D01*
X76980357Y-93731911D02*
X76980357Y-93636673D01*
X76980357Y-93636673D02*
X76956547Y-93589054D01*
X76956547Y-93589054D02*
X76932738Y-93565244D01*
X76932738Y-93565244D02*
X76885119Y-93541435D01*
D10*
X47604761Y-88450057D02*
X47509523Y-88402438D01*
X47509523Y-88402438D02*
X47414285Y-88307200D01*
X47414285Y-88307200D02*
X47271428Y-88164342D01*
X47271428Y-88164342D02*
X47176190Y-88116723D01*
X47176190Y-88116723D02*
X47080952Y-88116723D01*
X47128571Y-88354819D02*
X47033333Y-88307200D01*
X47033333Y-88307200D02*
X46938095Y-88211961D01*
X46938095Y-88211961D02*
X46890476Y-88021485D01*
X46890476Y-88021485D02*
X46890476Y-87688152D01*
X46890476Y-87688152D02*
X46938095Y-87497676D01*
X46938095Y-87497676D02*
X47033333Y-87402438D01*
X47033333Y-87402438D02*
X47128571Y-87354819D01*
X47128571Y-87354819D02*
X47319047Y-87354819D01*
X47319047Y-87354819D02*
X47414285Y-87402438D01*
X47414285Y-87402438D02*
X47509523Y-87497676D01*
X47509523Y-87497676D02*
X47557142Y-87688152D01*
X47557142Y-87688152D02*
X47557142Y-88021485D01*
X47557142Y-88021485D02*
X47509523Y-88211961D01*
X47509523Y-88211961D02*
X47414285Y-88307200D01*
X47414285Y-88307200D02*
X47319047Y-88354819D01*
X47319047Y-88354819D02*
X47128571Y-88354819D01*
X47890476Y-87354819D02*
X48509523Y-87354819D01*
X48509523Y-87354819D02*
X48176190Y-87735771D01*
X48176190Y-87735771D02*
X48319047Y-87735771D01*
X48319047Y-87735771D02*
X48414285Y-87783390D01*
X48414285Y-87783390D02*
X48461904Y-87831009D01*
X48461904Y-87831009D02*
X48509523Y-87926247D01*
X48509523Y-87926247D02*
X48509523Y-88164342D01*
X48509523Y-88164342D02*
X48461904Y-88259580D01*
X48461904Y-88259580D02*
X48414285Y-88307200D01*
X48414285Y-88307200D02*
X48319047Y-88354819D01*
X48319047Y-88354819D02*
X48033333Y-88354819D01*
X48033333Y-88354819D02*
X47938095Y-88307200D01*
X47938095Y-88307200D02*
X47890476Y-88259580D01*
D13*
X97370022Y-80238095D02*
X97350975Y-80276190D01*
X97350975Y-80276190D02*
X97312880Y-80314285D01*
X97312880Y-80314285D02*
X97255737Y-80371428D01*
X97255737Y-80371428D02*
X97236689Y-80409523D01*
X97236689Y-80409523D02*
X97236689Y-80447619D01*
X97331927Y-80428571D02*
X97312880Y-80466666D01*
X97312880Y-80466666D02*
X97274784Y-80504761D01*
X97274784Y-80504761D02*
X97198594Y-80523809D01*
X97198594Y-80523809D02*
X97065260Y-80523809D01*
X97065260Y-80523809D02*
X96989070Y-80504761D01*
X96989070Y-80504761D02*
X96950975Y-80466666D01*
X96950975Y-80466666D02*
X96931927Y-80428571D01*
X96931927Y-80428571D02*
X96931927Y-80352380D01*
X96931927Y-80352380D02*
X96950975Y-80314285D01*
X96950975Y-80314285D02*
X96989070Y-80276190D01*
X96989070Y-80276190D02*
X97065260Y-80257142D01*
X97065260Y-80257142D02*
X97198594Y-80257142D01*
X97198594Y-80257142D02*
X97274784Y-80276190D01*
X97274784Y-80276190D02*
X97312880Y-80314285D01*
X97312880Y-80314285D02*
X97331927Y-80352380D01*
X97331927Y-80352380D02*
X97331927Y-80428571D01*
X96970022Y-80104761D02*
X96950975Y-80085713D01*
X96950975Y-80085713D02*
X96931927Y-80047618D01*
X96931927Y-80047618D02*
X96931927Y-79952380D01*
X96931927Y-79952380D02*
X96950975Y-79914285D01*
X96950975Y-79914285D02*
X96970022Y-79895237D01*
X96970022Y-79895237D02*
X97008118Y-79876190D01*
X97008118Y-79876190D02*
X97046213Y-79876190D01*
X97046213Y-79876190D02*
X97103356Y-79895237D01*
X97103356Y-79895237D02*
X97331927Y-80123809D01*
X97331927Y-80123809D02*
X97331927Y-79876190D01*
D10*
X39238095Y-105454819D02*
X39238095Y-104454819D01*
X39238095Y-104931009D02*
X39809523Y-104931009D01*
X39809523Y-105454819D02*
X39809523Y-104454819D01*
X40190476Y-104454819D02*
X40809523Y-104454819D01*
X40809523Y-104454819D02*
X40476190Y-104835771D01*
X40476190Y-104835771D02*
X40619047Y-104835771D01*
X40619047Y-104835771D02*
X40714285Y-104883390D01*
X40714285Y-104883390D02*
X40761904Y-104931009D01*
X40761904Y-104931009D02*
X40809523Y-105026247D01*
X40809523Y-105026247D02*
X40809523Y-105264342D01*
X40809523Y-105264342D02*
X40761904Y-105359580D01*
X40761904Y-105359580D02*
X40714285Y-105407200D01*
X40714285Y-105407200D02*
X40619047Y-105454819D01*
X40619047Y-105454819D02*
X40333333Y-105454819D01*
X40333333Y-105454819D02*
X40238095Y-105407200D01*
X40238095Y-105407200D02*
X40190476Y-105359580D01*
X92554761Y-80804819D02*
X91983333Y-80804819D01*
X92269047Y-80804819D02*
X92269047Y-79804819D01*
X92269047Y-79804819D02*
X92173809Y-79947676D01*
X92173809Y-79947676D02*
X92078571Y-80042914D01*
X92078571Y-80042914D02*
X91983333Y-80090533D01*
X93173809Y-79804819D02*
X93269047Y-79804819D01*
X93269047Y-79804819D02*
X93364285Y-79852438D01*
X93364285Y-79852438D02*
X93411904Y-79900057D01*
X93411904Y-79900057D02*
X93459523Y-79995295D01*
X93459523Y-79995295D02*
X93507142Y-80185771D01*
X93507142Y-80185771D02*
X93507142Y-80423866D01*
X93507142Y-80423866D02*
X93459523Y-80614342D01*
X93459523Y-80614342D02*
X93411904Y-80709580D01*
X93411904Y-80709580D02*
X93364285Y-80757200D01*
X93364285Y-80757200D02*
X93269047Y-80804819D01*
X93269047Y-80804819D02*
X93173809Y-80804819D01*
X93173809Y-80804819D02*
X93078571Y-80757200D01*
X93078571Y-80757200D02*
X93030952Y-80709580D01*
X93030952Y-80709580D02*
X92983333Y-80614342D01*
X92983333Y-80614342D02*
X92935714Y-80423866D01*
X92935714Y-80423866D02*
X92935714Y-80185771D01*
X92935714Y-80185771D02*
X92983333Y-79995295D01*
X92983333Y-79995295D02*
X93030952Y-79900057D01*
X93030952Y-79900057D02*
X93078571Y-79852438D01*
X93078571Y-79852438D02*
X93173809Y-79804819D01*
X93935714Y-80804819D02*
X93935714Y-79804819D01*
X94030952Y-80423866D02*
X94316666Y-80804819D01*
X94316666Y-80138152D02*
X93935714Y-80519104D01*
D12*
X93066666Y-78927149D02*
X92900000Y-78689054D01*
X92780952Y-78927149D02*
X92780952Y-78427149D01*
X92780952Y-78427149D02*
X92971428Y-78427149D01*
X92971428Y-78427149D02*
X93019047Y-78450959D01*
X93019047Y-78450959D02*
X93042857Y-78474768D01*
X93042857Y-78474768D02*
X93066666Y-78522387D01*
X93066666Y-78522387D02*
X93066666Y-78593816D01*
X93066666Y-78593816D02*
X93042857Y-78641435D01*
X93042857Y-78641435D02*
X93019047Y-78665244D01*
X93019047Y-78665244D02*
X92971428Y-78689054D01*
X92971428Y-78689054D02*
X92780952Y-78689054D01*
X93542857Y-78927149D02*
X93257143Y-78927149D01*
X93400000Y-78927149D02*
X93400000Y-78427149D01*
X93400000Y-78427149D02*
X93352381Y-78498578D01*
X93352381Y-78498578D02*
X93304762Y-78546197D01*
X93304762Y-78546197D02*
X93257143Y-78570006D01*
D10*
X109238095Y-65454819D02*
X109238095Y-64454819D01*
X109238095Y-64931009D02*
X109809523Y-64931009D01*
X109809523Y-65454819D02*
X109809523Y-64454819D01*
X110238095Y-64550057D02*
X110285714Y-64502438D01*
X110285714Y-64502438D02*
X110380952Y-64454819D01*
X110380952Y-64454819D02*
X110619047Y-64454819D01*
X110619047Y-64454819D02*
X110714285Y-64502438D01*
X110714285Y-64502438D02*
X110761904Y-64550057D01*
X110761904Y-64550057D02*
X110809523Y-64645295D01*
X110809523Y-64645295D02*
X110809523Y-64740533D01*
X110809523Y-64740533D02*
X110761904Y-64883390D01*
X110761904Y-64883390D02*
X110190476Y-65454819D01*
X110190476Y-65454819D02*
X110809523Y-65454819D01*
X75553571Y-93134819D02*
X74982143Y-93134819D01*
X75267857Y-93134819D02*
X75267857Y-92134819D01*
X75267857Y-92134819D02*
X75172619Y-92277676D01*
X75172619Y-92277676D02*
X75077381Y-92372914D01*
X75077381Y-92372914D02*
X74982143Y-92420533D01*
X76172619Y-92134819D02*
X76267857Y-92134819D01*
X76267857Y-92134819D02*
X76363095Y-92182438D01*
X76363095Y-92182438D02*
X76410714Y-92230057D01*
X76410714Y-92230057D02*
X76458333Y-92325295D01*
X76458333Y-92325295D02*
X76505952Y-92515771D01*
X76505952Y-92515771D02*
X76505952Y-92753866D01*
X76505952Y-92753866D02*
X76458333Y-92944342D01*
X76458333Y-92944342D02*
X76410714Y-93039580D01*
X76410714Y-93039580D02*
X76363095Y-93087200D01*
X76363095Y-93087200D02*
X76267857Y-93134819D01*
X76267857Y-93134819D02*
X76172619Y-93134819D01*
X76172619Y-93134819D02*
X76077381Y-93087200D01*
X76077381Y-93087200D02*
X76029762Y-93039580D01*
X76029762Y-93039580D02*
X75982143Y-92944342D01*
X75982143Y-92944342D02*
X75934524Y-92753866D01*
X75934524Y-92753866D02*
X75934524Y-92515771D01*
X75934524Y-92515771D02*
X75982143Y-92325295D01*
X75982143Y-92325295D02*
X76029762Y-92230057D01*
X76029762Y-92230057D02*
X76077381Y-92182438D01*
X76077381Y-92182438D02*
X76172619Y-92134819D01*
X77363095Y-92468152D02*
X77363095Y-93134819D01*
X76934524Y-92468152D02*
X76934524Y-92991961D01*
X76934524Y-92991961D02*
X76982143Y-93087200D01*
X76982143Y-93087200D02*
X77077381Y-93134819D01*
X77077381Y-93134819D02*
X77220238Y-93134819D01*
X77220238Y-93134819D02*
X77315476Y-93087200D01*
X77315476Y-93087200D02*
X77363095Y-93039580D01*
X78172619Y-92611009D02*
X77839286Y-92611009D01*
X77839286Y-93134819D02*
X77839286Y-92134819D01*
X77839286Y-92134819D02*
X78315476Y-92134819D01*
D12*
X76541666Y-91179530D02*
X76517857Y-91203340D01*
X76517857Y-91203340D02*
X76446428Y-91227149D01*
X76446428Y-91227149D02*
X76398809Y-91227149D01*
X76398809Y-91227149D02*
X76327381Y-91203340D01*
X76327381Y-91203340D02*
X76279762Y-91155720D01*
X76279762Y-91155720D02*
X76255952Y-91108101D01*
X76255952Y-91108101D02*
X76232143Y-91012863D01*
X76232143Y-91012863D02*
X76232143Y-90941435D01*
X76232143Y-90941435D02*
X76255952Y-90846197D01*
X76255952Y-90846197D02*
X76279762Y-90798578D01*
X76279762Y-90798578D02*
X76327381Y-90750959D01*
X76327381Y-90750959D02*
X76398809Y-90727149D01*
X76398809Y-90727149D02*
X76446428Y-90727149D01*
X76446428Y-90727149D02*
X76517857Y-90750959D01*
X76517857Y-90750959D02*
X76541666Y-90774768D01*
X76779762Y-91227149D02*
X76875000Y-91227149D01*
X76875000Y-91227149D02*
X76922619Y-91203340D01*
X76922619Y-91203340D02*
X76946428Y-91179530D01*
X76946428Y-91179530D02*
X76994047Y-91108101D01*
X76994047Y-91108101D02*
X77017857Y-91012863D01*
X77017857Y-91012863D02*
X77017857Y-90822387D01*
X77017857Y-90822387D02*
X76994047Y-90774768D01*
X76994047Y-90774768D02*
X76970238Y-90750959D01*
X76970238Y-90750959D02*
X76922619Y-90727149D01*
X76922619Y-90727149D02*
X76827381Y-90727149D01*
X76827381Y-90727149D02*
X76779762Y-90750959D01*
X76779762Y-90750959D02*
X76755952Y-90774768D01*
X76755952Y-90774768D02*
X76732143Y-90822387D01*
X76732143Y-90822387D02*
X76732143Y-90941435D01*
X76732143Y-90941435D02*
X76755952Y-90989054D01*
X76755952Y-90989054D02*
X76779762Y-91012863D01*
X76779762Y-91012863D02*
X76827381Y-91036673D01*
X76827381Y-91036673D02*
X76922619Y-91036673D01*
X76922619Y-91036673D02*
X76970238Y-91012863D01*
X76970238Y-91012863D02*
X76994047Y-90989054D01*
X76994047Y-90989054D02*
X77017857Y-90941435D01*
D10*
X80504761Y-77504819D02*
X79933333Y-77504819D01*
X80219047Y-77504819D02*
X80219047Y-76504819D01*
X80219047Y-76504819D02*
X80123809Y-76647676D01*
X80123809Y-76647676D02*
X80028571Y-76742914D01*
X80028571Y-76742914D02*
X79933333Y-76790533D01*
X81123809Y-76504819D02*
X81219047Y-76504819D01*
X81219047Y-76504819D02*
X81314285Y-76552438D01*
X81314285Y-76552438D02*
X81361904Y-76600057D01*
X81361904Y-76600057D02*
X81409523Y-76695295D01*
X81409523Y-76695295D02*
X81457142Y-76885771D01*
X81457142Y-76885771D02*
X81457142Y-77123866D01*
X81457142Y-77123866D02*
X81409523Y-77314342D01*
X81409523Y-77314342D02*
X81361904Y-77409580D01*
X81361904Y-77409580D02*
X81314285Y-77457200D01*
X81314285Y-77457200D02*
X81219047Y-77504819D01*
X81219047Y-77504819D02*
X81123809Y-77504819D01*
X81123809Y-77504819D02*
X81028571Y-77457200D01*
X81028571Y-77457200D02*
X80980952Y-77409580D01*
X80980952Y-77409580D02*
X80933333Y-77314342D01*
X80933333Y-77314342D02*
X80885714Y-77123866D01*
X80885714Y-77123866D02*
X80885714Y-76885771D01*
X80885714Y-76885771D02*
X80933333Y-76695295D01*
X80933333Y-76695295D02*
X80980952Y-76600057D01*
X80980952Y-76600057D02*
X81028571Y-76552438D01*
X81028571Y-76552438D02*
X81123809Y-76504819D01*
X81885714Y-77504819D02*
X81885714Y-76504819D01*
X81980952Y-77123866D02*
X82266666Y-77504819D01*
X82266666Y-76838152D02*
X81885714Y-77219104D01*
D12*
X81016666Y-78927149D02*
X80850000Y-78689054D01*
X80730952Y-78927149D02*
X80730952Y-78427149D01*
X80730952Y-78427149D02*
X80921428Y-78427149D01*
X80921428Y-78427149D02*
X80969047Y-78450959D01*
X80969047Y-78450959D02*
X80992857Y-78474768D01*
X80992857Y-78474768D02*
X81016666Y-78522387D01*
X81016666Y-78522387D02*
X81016666Y-78593816D01*
X81016666Y-78593816D02*
X80992857Y-78641435D01*
X80992857Y-78641435D02*
X80969047Y-78665244D01*
X80969047Y-78665244D02*
X80921428Y-78689054D01*
X80921428Y-78689054D02*
X80730952Y-78689054D01*
X81469047Y-78427149D02*
X81230952Y-78427149D01*
X81230952Y-78427149D02*
X81207143Y-78665244D01*
X81207143Y-78665244D02*
X81230952Y-78641435D01*
X81230952Y-78641435D02*
X81278571Y-78617625D01*
X81278571Y-78617625D02*
X81397619Y-78617625D01*
X81397619Y-78617625D02*
X81445238Y-78641435D01*
X81445238Y-78641435D02*
X81469047Y-78665244D01*
X81469047Y-78665244D02*
X81492857Y-78712863D01*
X81492857Y-78712863D02*
X81492857Y-78831911D01*
X81492857Y-78831911D02*
X81469047Y-78879530D01*
X81469047Y-78879530D02*
X81445238Y-78903340D01*
X81445238Y-78903340D02*
X81397619Y-78927149D01*
X81397619Y-78927149D02*
X81278571Y-78927149D01*
X81278571Y-78927149D02*
X81230952Y-78903340D01*
X81230952Y-78903340D02*
X81207143Y-78879530D01*
D10*
X110099700Y-87658450D02*
X110813985Y-87658450D01*
X110813985Y-87658450D02*
X110956842Y-87706069D01*
X110956842Y-87706069D02*
X111052081Y-87801307D01*
X111052081Y-87801307D02*
X111099700Y-87944164D01*
X111099700Y-87944164D02*
X111099700Y-88039402D01*
X111099700Y-87182259D02*
X110099700Y-87182259D01*
X110099700Y-87182259D02*
X110099700Y-86801307D01*
X110099700Y-86801307D02*
X110147319Y-86706069D01*
X110147319Y-86706069D02*
X110194938Y-86658450D01*
X110194938Y-86658450D02*
X110290176Y-86610831D01*
X110290176Y-86610831D02*
X110433033Y-86610831D01*
X110433033Y-86610831D02*
X110528271Y-86658450D01*
X110528271Y-86658450D02*
X110575890Y-86706069D01*
X110575890Y-86706069D02*
X110623509Y-86801307D01*
X110623509Y-86801307D02*
X110623509Y-87182259D01*
X111099700Y-85658450D02*
X111099700Y-86229878D01*
X111099700Y-85944164D02*
X110099700Y-85944164D01*
X110099700Y-85944164D02*
X110242557Y-86039402D01*
X110242557Y-86039402D02*
X110337795Y-86134640D01*
X110337795Y-86134640D02*
X110385414Y-86229878D01*
D16*
X109785714Y-99985681D02*
X109719048Y-99985681D01*
X109719048Y-100090443D02*
X109719048Y-99890443D01*
X109719048Y-99890443D02*
X109814286Y-99890443D01*
X109890477Y-100090443D02*
X109890477Y-99890443D01*
X109985715Y-100090443D02*
X109985715Y-99890443D01*
X109985715Y-99890443D02*
X110033334Y-99890443D01*
X110033334Y-99890443D02*
X110061905Y-99899967D01*
X110061905Y-99899967D02*
X110080953Y-99919015D01*
X110080953Y-99919015D02*
X110090476Y-99938062D01*
X110090476Y-99938062D02*
X110100000Y-99976158D01*
X110100000Y-99976158D02*
X110100000Y-100004729D01*
X110100000Y-100004729D02*
X110090476Y-100042824D01*
X110090476Y-100042824D02*
X110080953Y-100061872D01*
X110080953Y-100061872D02*
X110061905Y-100080920D01*
X110061905Y-100080920D02*
X110033334Y-100090443D01*
X110033334Y-100090443D02*
X109985715Y-100090443D01*
X110290476Y-100090443D02*
X110176191Y-100090443D01*
X110233334Y-100090443D02*
X110233334Y-99890443D01*
X110233334Y-99890443D02*
X110214286Y-99919015D01*
X110214286Y-99919015D02*
X110195238Y-99938062D01*
X110195238Y-99938062D02*
X110176191Y-99947586D01*
D10*
X123204819Y-78083333D02*
X122728628Y-78416666D01*
X123204819Y-78654761D02*
X122204819Y-78654761D01*
X122204819Y-78654761D02*
X122204819Y-78273809D01*
X122204819Y-78273809D02*
X122252438Y-78178571D01*
X122252438Y-78178571D02*
X122300057Y-78130952D01*
X122300057Y-78130952D02*
X122395295Y-78083333D01*
X122395295Y-78083333D02*
X122538152Y-78083333D01*
X122538152Y-78083333D02*
X122633390Y-78130952D01*
X122633390Y-78130952D02*
X122681009Y-78178571D01*
X122681009Y-78178571D02*
X122728628Y-78273809D01*
X122728628Y-78273809D02*
X122728628Y-78654761D01*
X122681009Y-77654761D02*
X122681009Y-77321428D01*
X123204819Y-77178571D02*
X123204819Y-77654761D01*
X123204819Y-77654761D02*
X122204819Y-77654761D01*
X122204819Y-77654761D02*
X122204819Y-77178571D01*
X122681009Y-76416666D02*
X122681009Y-76749999D01*
X123204819Y-76749999D02*
X122204819Y-76749999D01*
X122204819Y-76749999D02*
X122204819Y-76273809D01*
X122204819Y-75749999D02*
X122442914Y-75749999D01*
X122347676Y-75988094D02*
X122442914Y-75749999D01*
X122442914Y-75749999D02*
X122347676Y-75511904D01*
X122633390Y-75892856D02*
X122442914Y-75749999D01*
X122442914Y-75749999D02*
X122633390Y-75607142D01*
X122204819Y-74988094D02*
X122442914Y-74988094D01*
X122347676Y-75226189D02*
X122442914Y-74988094D01*
X122442914Y-74988094D02*
X122347676Y-74749999D01*
X122633390Y-75130951D02*
X122442914Y-74988094D01*
X122442914Y-74988094D02*
X122633390Y-74845237D01*
X102449700Y-81436069D02*
X102449700Y-81912259D01*
X102449700Y-81912259D02*
X102925890Y-81959878D01*
X102925890Y-81959878D02*
X102878271Y-81912259D01*
X102878271Y-81912259D02*
X102830652Y-81817021D01*
X102830652Y-81817021D02*
X102830652Y-81578926D01*
X102830652Y-81578926D02*
X102878271Y-81483688D01*
X102878271Y-81483688D02*
X102925890Y-81436069D01*
X102925890Y-81436069D02*
X103021128Y-81388450D01*
X103021128Y-81388450D02*
X103259223Y-81388450D01*
X103259223Y-81388450D02*
X103354461Y-81436069D01*
X103354461Y-81436069D02*
X103402081Y-81483688D01*
X103402081Y-81483688D02*
X103449700Y-81578926D01*
X103449700Y-81578926D02*
X103449700Y-81817021D01*
X103449700Y-81817021D02*
X103402081Y-81912259D01*
X103402081Y-81912259D02*
X103354461Y-81959878D01*
X103354461Y-80959878D02*
X103402081Y-80912259D01*
X103402081Y-80912259D02*
X103449700Y-80959878D01*
X103449700Y-80959878D02*
X103402081Y-81007497D01*
X103402081Y-81007497D02*
X103354461Y-80959878D01*
X103354461Y-80959878D02*
X103449700Y-80959878D01*
X103449700Y-79959879D02*
X103449700Y-80531307D01*
X103449700Y-80245593D02*
X102449700Y-80245593D01*
X102449700Y-80245593D02*
X102592557Y-80340831D01*
X102592557Y-80340831D02*
X102687795Y-80436069D01*
X102687795Y-80436069D02*
X102735414Y-80531307D01*
X103449700Y-79531307D02*
X102449700Y-79531307D01*
X103068747Y-79436069D02*
X103449700Y-79150355D01*
X102783033Y-79150355D02*
X103163985Y-79531307D01*
D12*
X104872030Y-80638450D02*
X104633935Y-80805116D01*
X104872030Y-80924164D02*
X104372030Y-80924164D01*
X104372030Y-80924164D02*
X104372030Y-80733688D01*
X104372030Y-80733688D02*
X104395840Y-80686069D01*
X104395840Y-80686069D02*
X104419649Y-80662259D01*
X104419649Y-80662259D02*
X104467268Y-80638450D01*
X104467268Y-80638450D02*
X104538697Y-80638450D01*
X104538697Y-80638450D02*
X104586316Y-80662259D01*
X104586316Y-80662259D02*
X104610125Y-80686069D01*
X104610125Y-80686069D02*
X104633935Y-80733688D01*
X104633935Y-80733688D02*
X104633935Y-80924164D01*
X104538697Y-80209878D02*
X104872030Y-80209878D01*
X104348221Y-80328926D02*
X104705363Y-80447973D01*
X104705363Y-80447973D02*
X104705363Y-80138450D01*
D10*
X54533333Y-97504819D02*
X53961905Y-97504819D01*
X54247619Y-97504819D02*
X54247619Y-96504819D01*
X54247619Y-96504819D02*
X54152381Y-96647676D01*
X54152381Y-96647676D02*
X54057143Y-96742914D01*
X54057143Y-96742914D02*
X53961905Y-96790533D01*
X55152381Y-96504819D02*
X55247619Y-96504819D01*
X55247619Y-96504819D02*
X55342857Y-96552438D01*
X55342857Y-96552438D02*
X55390476Y-96600057D01*
X55390476Y-96600057D02*
X55438095Y-96695295D01*
X55438095Y-96695295D02*
X55485714Y-96885771D01*
X55485714Y-96885771D02*
X55485714Y-97123866D01*
X55485714Y-97123866D02*
X55438095Y-97314342D01*
X55438095Y-97314342D02*
X55390476Y-97409580D01*
X55390476Y-97409580D02*
X55342857Y-97457200D01*
X55342857Y-97457200D02*
X55247619Y-97504819D01*
X55247619Y-97504819D02*
X55152381Y-97504819D01*
X55152381Y-97504819D02*
X55057143Y-97457200D01*
X55057143Y-97457200D02*
X55009524Y-97409580D01*
X55009524Y-97409580D02*
X54961905Y-97314342D01*
X54961905Y-97314342D02*
X54914286Y-97123866D01*
X54914286Y-97123866D02*
X54914286Y-96885771D01*
X54914286Y-96885771D02*
X54961905Y-96695295D01*
X54961905Y-96695295D02*
X55009524Y-96600057D01*
X55009524Y-96600057D02*
X55057143Y-96552438D01*
X55057143Y-96552438D02*
X55152381Y-96504819D01*
X56104762Y-96504819D02*
X56200000Y-96504819D01*
X56200000Y-96504819D02*
X56295238Y-96552438D01*
X56295238Y-96552438D02*
X56342857Y-96600057D01*
X56342857Y-96600057D02*
X56390476Y-96695295D01*
X56390476Y-96695295D02*
X56438095Y-96885771D01*
X56438095Y-96885771D02*
X56438095Y-97123866D01*
X56438095Y-97123866D02*
X56390476Y-97314342D01*
X56390476Y-97314342D02*
X56342857Y-97409580D01*
X56342857Y-97409580D02*
X56295238Y-97457200D01*
X56295238Y-97457200D02*
X56200000Y-97504819D01*
X56200000Y-97504819D02*
X56104762Y-97504819D01*
X56104762Y-97504819D02*
X56009524Y-97457200D01*
X56009524Y-97457200D02*
X55961905Y-97409580D01*
X55961905Y-97409580D02*
X55914286Y-97314342D01*
X55914286Y-97314342D02*
X55866667Y-97123866D01*
X55866667Y-97123866D02*
X55866667Y-96885771D01*
X55866667Y-96885771D02*
X55914286Y-96695295D01*
X55914286Y-96695295D02*
X55961905Y-96600057D01*
X55961905Y-96600057D02*
X56009524Y-96552438D01*
X56009524Y-96552438D02*
X56104762Y-96504819D01*
D12*
X54878571Y-98927149D02*
X54711905Y-98689054D01*
X54592857Y-98927149D02*
X54592857Y-98427149D01*
X54592857Y-98427149D02*
X54783333Y-98427149D01*
X54783333Y-98427149D02*
X54830952Y-98450959D01*
X54830952Y-98450959D02*
X54854762Y-98474768D01*
X54854762Y-98474768D02*
X54878571Y-98522387D01*
X54878571Y-98522387D02*
X54878571Y-98593816D01*
X54878571Y-98593816D02*
X54854762Y-98641435D01*
X54854762Y-98641435D02*
X54830952Y-98665244D01*
X54830952Y-98665244D02*
X54783333Y-98689054D01*
X54783333Y-98689054D02*
X54592857Y-98689054D01*
X55354762Y-98927149D02*
X55069048Y-98927149D01*
X55211905Y-98927149D02*
X55211905Y-98427149D01*
X55211905Y-98427149D02*
X55164286Y-98498578D01*
X55164286Y-98498578D02*
X55116667Y-98546197D01*
X55116667Y-98546197D02*
X55069048Y-98570006D01*
X55807142Y-98427149D02*
X55569047Y-98427149D01*
X55569047Y-98427149D02*
X55545238Y-98665244D01*
X55545238Y-98665244D02*
X55569047Y-98641435D01*
X55569047Y-98641435D02*
X55616666Y-98617625D01*
X55616666Y-98617625D02*
X55735714Y-98617625D01*
X55735714Y-98617625D02*
X55783333Y-98641435D01*
X55783333Y-98641435D02*
X55807142Y-98665244D01*
X55807142Y-98665244D02*
X55830952Y-98712863D01*
X55830952Y-98712863D02*
X55830952Y-98831911D01*
X55830952Y-98831911D02*
X55807142Y-98879530D01*
X55807142Y-98879530D02*
X55783333Y-98903340D01*
X55783333Y-98903340D02*
X55735714Y-98927149D01*
X55735714Y-98927149D02*
X55616666Y-98927149D01*
X55616666Y-98927149D02*
X55569047Y-98903340D01*
X55569047Y-98903340D02*
X55545238Y-98879530D01*
D10*
X67069104Y-105349999D02*
X67069104Y-104873809D01*
X67354819Y-105445237D02*
X66354819Y-105111904D01*
X66354819Y-105111904D02*
X67354819Y-104778571D01*
X67354819Y-104445237D02*
X66354819Y-104445237D01*
X66354819Y-104445237D02*
X67069104Y-104111904D01*
X67069104Y-104111904D02*
X66354819Y-103778571D01*
X66354819Y-103778571D02*
X67354819Y-103778571D01*
X67307200Y-103349999D02*
X67354819Y-103207142D01*
X67354819Y-103207142D02*
X67354819Y-102969047D01*
X67354819Y-102969047D02*
X67307200Y-102873809D01*
X67307200Y-102873809D02*
X67259580Y-102826190D01*
X67259580Y-102826190D02*
X67164342Y-102778571D01*
X67164342Y-102778571D02*
X67069104Y-102778571D01*
X67069104Y-102778571D02*
X66973866Y-102826190D01*
X66973866Y-102826190D02*
X66926247Y-102873809D01*
X66926247Y-102873809D02*
X66878628Y-102969047D01*
X66878628Y-102969047D02*
X66831009Y-103159523D01*
X66831009Y-103159523D02*
X66783390Y-103254761D01*
X66783390Y-103254761D02*
X66735771Y-103302380D01*
X66735771Y-103302380D02*
X66640533Y-103349999D01*
X66640533Y-103349999D02*
X66545295Y-103349999D01*
X66545295Y-103349999D02*
X66450057Y-103302380D01*
X66450057Y-103302380D02*
X66402438Y-103254761D01*
X66402438Y-103254761D02*
X66354819Y-103159523D01*
X66354819Y-103159523D02*
X66354819Y-102921428D01*
X66354819Y-102921428D02*
X66402438Y-102778571D01*
X67354819Y-101826190D02*
X67354819Y-102397618D01*
X67354819Y-102111904D02*
X66354819Y-102111904D01*
X66354819Y-102111904D02*
X66497676Y-102207142D01*
X66497676Y-102207142D02*
X66592914Y-102302380D01*
X66592914Y-102302380D02*
X66640533Y-102397618D01*
X67354819Y-100873809D02*
X67354819Y-101445237D01*
X67354819Y-101159523D02*
X66354819Y-101159523D01*
X66354819Y-101159523D02*
X66497676Y-101254761D01*
X66497676Y-101254761D02*
X66592914Y-101349999D01*
X66592914Y-101349999D02*
X66640533Y-101445237D01*
X67354819Y-99921428D02*
X67354819Y-100492856D01*
X67354819Y-100207142D02*
X66354819Y-100207142D01*
X66354819Y-100207142D02*
X66497676Y-100302380D01*
X66497676Y-100302380D02*
X66592914Y-100397618D01*
X66592914Y-100397618D02*
X66640533Y-100492856D01*
X66354819Y-99588094D02*
X66354819Y-98921428D01*
X66354819Y-98921428D02*
X67354819Y-99349999D01*
X66973866Y-98540475D02*
X66973866Y-97778571D01*
X66354819Y-97397618D02*
X66354819Y-96778571D01*
X66354819Y-96778571D02*
X66735771Y-97111904D01*
X66735771Y-97111904D02*
X66735771Y-96969047D01*
X66735771Y-96969047D02*
X66783390Y-96873809D01*
X66783390Y-96873809D02*
X66831009Y-96826190D01*
X66831009Y-96826190D02*
X66926247Y-96778571D01*
X66926247Y-96778571D02*
X67164342Y-96778571D01*
X67164342Y-96778571D02*
X67259580Y-96826190D01*
X67259580Y-96826190D02*
X67307200Y-96873809D01*
X67307200Y-96873809D02*
X67354819Y-96969047D01*
X67354819Y-96969047D02*
X67354819Y-97254761D01*
X67354819Y-97254761D02*
X67307200Y-97349999D01*
X67307200Y-97349999D02*
X67259580Y-97397618D01*
X67259580Y-96349999D02*
X67307200Y-96302380D01*
X67307200Y-96302380D02*
X67354819Y-96349999D01*
X67354819Y-96349999D02*
X67307200Y-96397618D01*
X67307200Y-96397618D02*
X67259580Y-96349999D01*
X67259580Y-96349999D02*
X67354819Y-96349999D01*
X66354819Y-95969047D02*
X66354819Y-95350000D01*
X66354819Y-95350000D02*
X66735771Y-95683333D01*
X66735771Y-95683333D02*
X66735771Y-95540476D01*
X66735771Y-95540476D02*
X66783390Y-95445238D01*
X66783390Y-95445238D02*
X66831009Y-95397619D01*
X66831009Y-95397619D02*
X66926247Y-95350000D01*
X66926247Y-95350000D02*
X67164342Y-95350000D01*
X67164342Y-95350000D02*
X67259580Y-95397619D01*
X67259580Y-95397619D02*
X67307200Y-95445238D01*
X67307200Y-95445238D02*
X67354819Y-95540476D01*
X67354819Y-95540476D02*
X67354819Y-95826190D01*
X67354819Y-95826190D02*
X67307200Y-95921428D01*
X67307200Y-95921428D02*
X67259580Y-95969047D01*
D15*
X61790476Y-99913855D02*
X61790476Y-100561474D01*
X61790476Y-100561474D02*
X61828571Y-100637664D01*
X61828571Y-100637664D02*
X61866666Y-100675760D01*
X61866666Y-100675760D02*
X61942857Y-100713855D01*
X61942857Y-100713855D02*
X62095238Y-100713855D01*
X62095238Y-100713855D02*
X62171428Y-100675760D01*
X62171428Y-100675760D02*
X62209523Y-100637664D01*
X62209523Y-100637664D02*
X62247619Y-100561474D01*
X62247619Y-100561474D02*
X62247619Y-99913855D01*
X63009523Y-99913855D02*
X62628571Y-99913855D01*
X62628571Y-99913855D02*
X62590475Y-100294807D01*
X62590475Y-100294807D02*
X62628571Y-100256712D01*
X62628571Y-100256712D02*
X62704761Y-100218617D01*
X62704761Y-100218617D02*
X62895237Y-100218617D01*
X62895237Y-100218617D02*
X62971428Y-100256712D01*
X62971428Y-100256712D02*
X63009523Y-100294807D01*
X63009523Y-100294807D02*
X63047618Y-100370998D01*
X63047618Y-100370998D02*
X63047618Y-100561474D01*
X63047618Y-100561474D02*
X63009523Y-100637664D01*
X63009523Y-100637664D02*
X62971428Y-100675760D01*
X62971428Y-100675760D02*
X62895237Y-100713855D01*
X62895237Y-100713855D02*
X62704761Y-100713855D01*
X62704761Y-100713855D02*
X62628571Y-100675760D01*
X62628571Y-100675760D02*
X62590475Y-100637664D01*
D10*
X57237319Y-72319738D02*
X57237319Y-72891166D01*
X57237319Y-72605452D02*
X56237319Y-72605452D01*
X56237319Y-72605452D02*
X56380176Y-72700690D01*
X56380176Y-72700690D02*
X56475414Y-72795928D01*
X56475414Y-72795928D02*
X56523033Y-72891166D01*
X56237319Y-71700690D02*
X56237319Y-71605452D01*
X56237319Y-71605452D02*
X56284938Y-71510214D01*
X56284938Y-71510214D02*
X56332557Y-71462595D01*
X56332557Y-71462595D02*
X56427795Y-71414976D01*
X56427795Y-71414976D02*
X56618271Y-71367357D01*
X56618271Y-71367357D02*
X56856366Y-71367357D01*
X56856366Y-71367357D02*
X57046842Y-71414976D01*
X57046842Y-71414976D02*
X57142080Y-71462595D01*
X57142080Y-71462595D02*
X57189700Y-71510214D01*
X57189700Y-71510214D02*
X57237319Y-71605452D01*
X57237319Y-71605452D02*
X57237319Y-71700690D01*
X57237319Y-71700690D02*
X57189700Y-71795928D01*
X57189700Y-71795928D02*
X57142080Y-71843547D01*
X57142080Y-71843547D02*
X57046842Y-71891166D01*
X57046842Y-71891166D02*
X56856366Y-71938785D01*
X56856366Y-71938785D02*
X56618271Y-71938785D01*
X56618271Y-71938785D02*
X56427795Y-71891166D01*
X56427795Y-71891166D02*
X56332557Y-71843547D01*
X56332557Y-71843547D02*
X56284938Y-71795928D01*
X56284938Y-71795928D02*
X56237319Y-71700690D01*
X57237319Y-70938785D02*
X56237319Y-70938785D01*
X56856366Y-70843547D02*
X57237319Y-70557833D01*
X56570652Y-70557833D02*
X56951604Y-70938785D01*
D12*
X58659649Y-71807833D02*
X58421554Y-71974499D01*
X58659649Y-72093547D02*
X58159649Y-72093547D01*
X58159649Y-72093547D02*
X58159649Y-71903071D01*
X58159649Y-71903071D02*
X58183459Y-71855452D01*
X58183459Y-71855452D02*
X58207268Y-71831642D01*
X58207268Y-71831642D02*
X58254887Y-71807833D01*
X58254887Y-71807833D02*
X58326316Y-71807833D01*
X58326316Y-71807833D02*
X58373935Y-71831642D01*
X58373935Y-71831642D02*
X58397744Y-71855452D01*
X58397744Y-71855452D02*
X58421554Y-71903071D01*
X58421554Y-71903071D02*
X58421554Y-72093547D01*
X58159649Y-71379261D02*
X58159649Y-71474499D01*
X58159649Y-71474499D02*
X58183459Y-71522118D01*
X58183459Y-71522118D02*
X58207268Y-71545928D01*
X58207268Y-71545928D02*
X58278697Y-71593547D01*
X58278697Y-71593547D02*
X58373935Y-71617356D01*
X58373935Y-71617356D02*
X58564411Y-71617356D01*
X58564411Y-71617356D02*
X58612030Y-71593547D01*
X58612030Y-71593547D02*
X58635840Y-71569737D01*
X58635840Y-71569737D02*
X58659649Y-71522118D01*
X58659649Y-71522118D02*
X58659649Y-71426880D01*
X58659649Y-71426880D02*
X58635840Y-71379261D01*
X58635840Y-71379261D02*
X58612030Y-71355452D01*
X58612030Y-71355452D02*
X58564411Y-71331642D01*
X58564411Y-71331642D02*
X58445363Y-71331642D01*
X58445363Y-71331642D02*
X58397744Y-71355452D01*
X58397744Y-71355452D02*
X58373935Y-71379261D01*
X58373935Y-71379261D02*
X58350125Y-71426880D01*
X58350125Y-71426880D02*
X58350125Y-71522118D01*
X58350125Y-71522118D02*
X58373935Y-71569737D01*
X58373935Y-71569737D02*
X58397744Y-71593547D01*
X58397744Y-71593547D02*
X58445363Y-71617356D01*
D10*
X95778571Y-111604819D02*
X95207143Y-111604819D01*
X95492857Y-111604819D02*
X95492857Y-110604819D01*
X95492857Y-110604819D02*
X95397619Y-110747676D01*
X95397619Y-110747676D02*
X95302381Y-110842914D01*
X95302381Y-110842914D02*
X95207143Y-110890533D01*
X96159524Y-110700057D02*
X96207143Y-110652438D01*
X96207143Y-110652438D02*
X96302381Y-110604819D01*
X96302381Y-110604819D02*
X96540476Y-110604819D01*
X96540476Y-110604819D02*
X96635714Y-110652438D01*
X96635714Y-110652438D02*
X96683333Y-110700057D01*
X96683333Y-110700057D02*
X96730952Y-110795295D01*
X96730952Y-110795295D02*
X96730952Y-110890533D01*
X96730952Y-110890533D02*
X96683333Y-111033390D01*
X96683333Y-111033390D02*
X96111905Y-111604819D01*
X96111905Y-111604819D02*
X96730952Y-111604819D01*
X97016667Y-110604819D02*
X97350000Y-111604819D01*
X97350000Y-111604819D02*
X97683333Y-110604819D01*
X98778572Y-111604819D02*
X98778572Y-110604819D01*
X98778572Y-110604819D02*
X99159524Y-110604819D01*
X99159524Y-110604819D02*
X99254762Y-110652438D01*
X99254762Y-110652438D02*
X99302381Y-110700057D01*
X99302381Y-110700057D02*
X99350000Y-110795295D01*
X99350000Y-110795295D02*
X99350000Y-110938152D01*
X99350000Y-110938152D02*
X99302381Y-111033390D01*
X99302381Y-111033390D02*
X99254762Y-111081009D01*
X99254762Y-111081009D02*
X99159524Y-111128628D01*
X99159524Y-111128628D02*
X98778572Y-111128628D01*
X99683334Y-110604819D02*
X99921429Y-111604819D01*
X99921429Y-111604819D02*
X100111905Y-110890533D01*
X100111905Y-110890533D02*
X100302381Y-111604819D01*
X100302381Y-111604819D02*
X100540477Y-110604819D01*
X101492857Y-111604819D02*
X101159524Y-111128628D01*
X100921429Y-111604819D02*
X100921429Y-110604819D01*
X100921429Y-110604819D02*
X101302381Y-110604819D01*
X101302381Y-110604819D02*
X101397619Y-110652438D01*
X101397619Y-110652438D02*
X101445238Y-110700057D01*
X101445238Y-110700057D02*
X101492857Y-110795295D01*
X101492857Y-110795295D02*
X101492857Y-110938152D01*
X101492857Y-110938152D02*
X101445238Y-111033390D01*
X101445238Y-111033390D02*
X101397619Y-111081009D01*
X101397619Y-111081009D02*
X101302381Y-111128628D01*
X101302381Y-111128628D02*
X100921429Y-111128628D01*
X98016666Y-98104819D02*
X98016666Y-98819104D01*
X98016666Y-98819104D02*
X97969047Y-98961961D01*
X97969047Y-98961961D02*
X97873809Y-99057200D01*
X97873809Y-99057200D02*
X97730952Y-99104819D01*
X97730952Y-99104819D02*
X97635714Y-99104819D01*
X98445238Y-98200057D02*
X98492857Y-98152438D01*
X98492857Y-98152438D02*
X98588095Y-98104819D01*
X98588095Y-98104819D02*
X98826190Y-98104819D01*
X98826190Y-98104819D02*
X98921428Y-98152438D01*
X98921428Y-98152438D02*
X98969047Y-98200057D01*
X98969047Y-98200057D02*
X99016666Y-98295295D01*
X99016666Y-98295295D02*
X99016666Y-98390533D01*
X99016666Y-98390533D02*
X98969047Y-98533390D01*
X98969047Y-98533390D02*
X98397619Y-99104819D01*
X98397619Y-99104819D02*
X99016666Y-99104819D01*
D17*
%TO.C,U8*%
X56800000Y-80400000D02*
X56800000Y-77950000D01*
X56800000Y-80400000D02*
X56150000Y-81050000D01*
X55000000Y-81050000D02*
X56150000Y-81050000D01*
X55000000Y-81050000D02*
X55000000Y-77950000D01*
X55000000Y-77950000D02*
X56800000Y-77950000D01*
%TO.C,J4*%
X38770000Y-97135000D02*
X38135000Y-97770000D01*
X38770000Y-87610000D02*
X38770000Y-97135000D01*
X38135000Y-97770000D02*
X36230000Y-97770000D01*
X36230000Y-97770000D02*
X36230000Y-87610000D01*
X36230000Y-87610000D02*
X38770000Y-87610000D01*
%TO.C,R9*%
X94800000Y-63625000D02*
X92800000Y-63625000D01*
X94800000Y-62375000D02*
X94800000Y-63625000D01*
X92800000Y-63625000D02*
X92800000Y-62375000D01*
X92800000Y-62375000D02*
X94800000Y-62375000D01*
%TO.C,R12*%
X53300000Y-68675000D02*
X55300000Y-68675000D01*
X53300000Y-69925000D02*
X53300000Y-68675000D01*
X55300000Y-68675000D02*
X55300000Y-69925000D01*
X55300000Y-69925000D02*
X53300000Y-69925000D01*
%TO.C,R13*%
X53300000Y-70975000D02*
X55300000Y-70975000D01*
X53300000Y-72225000D02*
X53300000Y-70975000D01*
X55300000Y-70975000D02*
X55300000Y-72225000D01*
X55300000Y-72225000D02*
X53300000Y-72225000D01*
%TO.C,C16*%
X73262500Y-94225000D02*
X71262500Y-94225000D01*
X73262500Y-92975000D02*
X73262500Y-94225000D01*
X71262500Y-94225000D02*
X71262500Y-92975000D01*
X71262500Y-92975000D02*
X73262500Y-92975000D01*
%TO.C,C3*%
X88400000Y-76371800D02*
X86400000Y-76371800D01*
X88400000Y-75121800D02*
X88400000Y-76371800D01*
X86400000Y-76371800D02*
X86400000Y-75121800D01*
X86400000Y-75121800D02*
X88400000Y-75121800D01*
%TO.C,D5*%
X66760970Y-93681250D02*
X64960970Y-93681250D01*
X65460970Y-92581250D02*
X66260970Y-92581250D01*
X65860970Y-92581250D02*
X65860970Y-93181250D01*
X65860970Y-92581250D02*
X65460970Y-91981250D01*
X65861990Y-92581250D02*
X66260970Y-91981250D01*
X65860970Y-91981250D02*
X65860970Y-91381250D01*
X66260970Y-91981250D02*
X65460970Y-91981250D01*
X64960970Y-90881250D02*
X64960970Y-93681250D01*
X64960970Y-90881250D02*
X66760970Y-90881250D01*
X66760970Y-90881250D02*
X66760970Y-93681250D01*
%TO.C,C1*%
X102625000Y-67362500D02*
X102625000Y-69362500D01*
X101375000Y-67362500D02*
X102625000Y-67362500D01*
X102625000Y-69362500D02*
X101375000Y-69362500D01*
X101375000Y-69362500D02*
X101375000Y-67362500D01*
%TO.C,R8*%
X94800000Y-65625000D02*
X92800000Y-65625000D01*
X94800000Y-64375000D02*
X94800000Y-65625000D01*
X92800000Y-65625000D02*
X92800000Y-64375000D01*
X92800000Y-64375000D02*
X94800000Y-64375000D01*
%TO.C,C14*%
X56400000Y-77125000D02*
X54400000Y-77125000D01*
X56400000Y-75875000D02*
X56400000Y-77125000D01*
X54400000Y-77125000D02*
X54400000Y-75875000D01*
X54400000Y-75875000D02*
X56400000Y-75875000D01*
%TO.C,C10*%
X54275000Y-103000000D02*
X54275000Y-101000000D01*
X55525000Y-103000000D02*
X54275000Y-103000000D01*
X54275000Y-101000000D02*
X55525000Y-101000000D01*
X55525000Y-101000000D02*
X55525000Y-103000000D01*
%TO.C,SW1*%
X89350000Y-88300000D02*
X89350000Y-87800000D01*
X89350000Y-87800000D02*
X88350000Y-87800000D01*
X89350000Y-84600000D02*
X88350000Y-84600000D01*
X89350000Y-84100000D02*
X89350000Y-84600000D01*
X88850000Y-88300000D02*
X88850000Y-87800000D01*
X88850000Y-84100000D02*
X88850000Y-84600000D01*
X88750000Y-87400000D02*
X88750000Y-85000000D01*
X88750000Y-85000000D02*
X87350000Y-83600000D01*
X88150000Y-87200000D02*
X87150000Y-88200000D01*
X88150000Y-85200000D02*
X88150000Y-87200000D01*
X87850000Y-88300000D02*
X89350000Y-88300000D01*
X87850000Y-84100000D02*
X89350000Y-84100000D01*
X87350000Y-88800000D02*
X88750000Y-87400000D01*
X87350000Y-83600000D02*
X84950000Y-83600000D01*
X87150000Y-88200000D02*
X85150000Y-88200000D01*
X87150000Y-84200000D02*
X88150000Y-85200000D01*
X85150000Y-88200000D02*
X84150000Y-87200000D01*
X85150000Y-84200000D02*
X87150000Y-84200000D01*
X84950000Y-88800000D02*
X87350000Y-88800000D01*
X84950000Y-83600000D02*
X83550000Y-85000000D01*
X84450000Y-88300000D02*
X82950000Y-88300000D01*
X84450000Y-84100000D02*
X82950000Y-84100000D01*
X84150000Y-87200000D02*
X84150000Y-85200000D01*
X84150000Y-85200000D02*
X85150000Y-84200000D01*
X83550000Y-87400000D02*
X84950000Y-88800000D01*
X83550000Y-85000000D02*
X83550000Y-87400000D01*
X83450000Y-88300000D02*
X83450000Y-87800000D01*
X83450000Y-84100000D02*
X83450000Y-84600000D01*
X82950000Y-88300000D02*
X82950000Y-87800000D01*
X82950000Y-87800000D02*
X83950000Y-87800000D01*
X82950000Y-84600000D02*
X83950000Y-84600000D01*
X82950000Y-84100000D02*
X82950000Y-84600000D01*
X87150000Y-86200000D02*
G75*
G03*
X87150000Y-86200000I-1000000J0D01*
G01*
%TO.C,R7*%
X82100000Y-81625000D02*
X80100000Y-81625000D01*
X82100000Y-80375000D02*
X82100000Y-81625000D01*
X80100000Y-81625000D02*
X80100000Y-80375000D01*
X80100000Y-80375000D02*
X82100000Y-80375000D01*
%TO.C,JP4*%
X46435000Y-69530000D02*
X47070000Y-70165000D01*
X41990000Y-69530000D02*
X46435000Y-69530000D01*
X47070000Y-70165000D02*
X47070000Y-72070000D01*
X47070000Y-72070000D02*
X41990000Y-72070000D01*
X41990000Y-72070000D02*
X41990000Y-69530000D01*
%TO.C,D3*%
X49275000Y-69000000D02*
X49275000Y-69900000D01*
X49275000Y-69900000D02*
X51275000Y-69900000D01*
X49575000Y-68700000D02*
X49275000Y-69000000D01*
X51275000Y-68700000D02*
X49575000Y-68700000D01*
X51275000Y-69900000D02*
X51275000Y-68700000D01*
%TO.C,U7*%
X57000000Y-96650000D02*
X57000000Y-94200000D01*
X57000000Y-96650000D02*
X56350000Y-97300000D01*
X55200000Y-97300000D02*
X56350000Y-97300000D01*
X55200000Y-97300000D02*
X55200000Y-94200000D01*
X55200000Y-94200000D02*
X57000000Y-94200000D01*
%TO.C,R16*%
X56500000Y-83025000D02*
X54500000Y-83025000D01*
X56500000Y-81775000D02*
X56500000Y-83025000D01*
X54500000Y-83025000D02*
X54500000Y-81775000D01*
X54500000Y-81775000D02*
X56500000Y-81775000D01*
%TO.C,Q1*%
X90200000Y-79400000D02*
X90600000Y-79800000D01*
X87700000Y-79400000D02*
X90200000Y-79400000D01*
X90600000Y-79800000D02*
X90600000Y-81000000D01*
X90600000Y-81000000D02*
X87700000Y-81000000D01*
X87700000Y-81000000D02*
X87700000Y-79400000D01*
%TO.C,C15*%
X105975000Y-91537500D02*
X105975000Y-89537500D01*
X107225000Y-91537500D02*
X105975000Y-91537500D01*
X105975000Y-89537500D02*
X107225000Y-89537500D01*
X107225000Y-89537500D02*
X107225000Y-91537500D01*
%TO.C,C13*%
X56562500Y-93425000D02*
X54562500Y-93425000D01*
X56562500Y-92175000D02*
X56562500Y-93425000D01*
X54562500Y-93425000D02*
X54562500Y-92175000D01*
X54562500Y-92175000D02*
X56562500Y-92175000D01*
%TO.C,Q5*%
X52695000Y-83230000D02*
X52695000Y-82480000D01*
X52695000Y-82480000D02*
X49995000Y-82480000D01*
X52695000Y-78670000D02*
X52695000Y-77920000D01*
X52695000Y-77920000D02*
X49995000Y-77920000D01*
X49995000Y-82825000D02*
X48995000Y-83825000D01*
X49995000Y-78670000D02*
X52695000Y-78670000D01*
X49995000Y-77325000D02*
X49995000Y-82825000D01*
X49590000Y-83230000D02*
X52695000Y-83230000D01*
X48995000Y-83825000D02*
X43775000Y-83825000D01*
X43775000Y-83825000D02*
X43775000Y-77325000D01*
X43775000Y-83275000D02*
X42775000Y-83275000D01*
X43775000Y-77325000D02*
X49995000Y-77325000D01*
X42775000Y-83275000D02*
X42775000Y-77875000D01*
X42775000Y-77875000D02*
X43775000Y-77875000D01*
%TO.C,J5*%
X66725000Y-88670000D02*
X66090000Y-88035000D01*
X76250000Y-88670000D02*
X66725000Y-88670000D01*
X66090000Y-88035000D02*
X66090000Y-86130000D01*
X66090000Y-86130000D02*
X76250000Y-86130000D01*
X76250000Y-86130000D02*
X76250000Y-88670000D01*
%TO.C,J3*%
X80850000Y-96050000D02*
X81850000Y-95050000D01*
X80850000Y-109350000D02*
X80850000Y-96050000D01*
X89850000Y-95050000D02*
X81850000Y-95050000D01*
X89850000Y-95050000D02*
X89850000Y-109350000D01*
X89850000Y-109350000D02*
X80850000Y-109350000D01*
%TO.C,R14*%
X56500000Y-91325000D02*
X54500000Y-91325000D01*
X56500000Y-90075000D02*
X56500000Y-91325000D01*
X54500000Y-91325000D02*
X54500000Y-90075000D01*
X54500000Y-90075000D02*
X56500000Y-90075000D01*
%TO.C,U3*%
X60932500Y-60224500D02*
X76932500Y-60224500D01*
X60932500Y-68224500D02*
X60932500Y-60224500D01*
X60932500Y-69224500D02*
X61432500Y-68724500D01*
X60932500Y-84224500D02*
X60932500Y-69224500D01*
X61432500Y-68724500D02*
X60932500Y-68224500D01*
X76932500Y-60224500D02*
X76932500Y-84224500D01*
X76932500Y-84224500D02*
X60932500Y-84224500D01*
%TO.C,D6*%
X69562500Y-93681250D02*
X67762500Y-93681250D01*
X68262500Y-92581250D02*
X69062500Y-92581250D01*
X68662500Y-92581250D02*
X68662500Y-93181250D01*
X68662500Y-92581250D02*
X68262500Y-91981250D01*
X68663520Y-92581250D02*
X69062500Y-91981250D01*
X68662500Y-91981250D02*
X68662500Y-91381250D01*
X69062500Y-91981250D02*
X68262500Y-91981250D01*
X67762500Y-90881250D02*
X67762500Y-93681250D01*
X67762500Y-90881250D02*
X69562500Y-90881250D01*
X69562500Y-90881250D02*
X69562500Y-93681250D01*
%TO.C,Y1*%
X88650000Y-70146800D02*
X86150000Y-70146800D01*
X87150000Y-70146800D02*
X86150000Y-71146800D01*
X86150000Y-70146800D02*
X86150000Y-73346800D01*
X88650000Y-73346800D02*
X88650000Y-70146800D01*
X86150000Y-73346800D02*
X88650000Y-73346800D01*
%TO.C,R3*%
X104019881Y-75555117D02*
X104019881Y-73555117D01*
X105269881Y-75555117D02*
X104019881Y-75555117D01*
X104019881Y-73555117D02*
X105269881Y-73555117D01*
X105269881Y-73555117D02*
X105269881Y-75555117D01*
%TO.C,U1*%
X99150000Y-69525000D02*
X100125000Y-70500000D01*
X90225000Y-69525000D02*
X99150000Y-69525000D01*
X100125000Y-70500000D02*
X100125000Y-73425000D01*
X100125000Y-73425000D02*
X90225000Y-73425000D01*
X90225000Y-73425000D02*
X90225000Y-69525000D01*
%TO.C,C5*%
X101175000Y-91562500D02*
X101175000Y-89562500D01*
X102425000Y-91562500D02*
X101175000Y-91562500D01*
X101175000Y-89562500D02*
X102425000Y-89562500D01*
X102425000Y-89562500D02*
X102425000Y-91562500D01*
%TO.C,D7*%
X96050000Y-92900000D02*
X94250000Y-92900000D01*
X96050000Y-91500000D02*
X96050000Y-92900000D01*
X95450000Y-92550000D02*
X95450000Y-91850000D01*
X95450000Y-92200000D02*
X95650000Y-92200000D01*
X95450000Y-92200000D02*
X94950000Y-92550000D01*
X94950000Y-92550000D02*
X94950000Y-91850000D01*
X94950000Y-92200000D02*
X94700000Y-92200000D01*
X94950000Y-91850000D02*
X95450000Y-92200000D01*
X94250000Y-92900000D02*
X94250000Y-91500000D01*
X94250000Y-91500000D02*
X96050000Y-91500000D01*
%TO.C,C7*%
X73225000Y-91625000D02*
X71225000Y-91625000D01*
X73225000Y-90375000D02*
X73225000Y-91625000D01*
X71225000Y-91625000D02*
X71225000Y-90375000D01*
X71225000Y-90375000D02*
X73225000Y-90375000D01*
%TO.C,U6*%
X56900000Y-88600000D02*
X56900000Y-86150000D01*
X56900000Y-88600000D02*
X56250000Y-89250000D01*
X55100000Y-89250000D02*
X56250000Y-89250000D01*
X55100000Y-89250000D02*
X55100000Y-86150000D01*
X55100000Y-86150000D02*
X56900000Y-86150000D01*
%TO.C,C4*%
X62100000Y-85875000D02*
X64100000Y-85875000D01*
X62100000Y-87125000D02*
X62100000Y-85875000D01*
X64100000Y-85875000D02*
X64100000Y-87125000D01*
X64100000Y-87125000D02*
X62100000Y-87125000D01*
%TO.C,R11*%
X99825000Y-81700000D02*
X99825000Y-79700000D01*
X101075000Y-81700000D02*
X99825000Y-81700000D01*
X99825000Y-79700000D02*
X101075000Y-79700000D01*
X101075000Y-79700000D02*
X101075000Y-81700000D01*
%TO.C,J7*%
X38770000Y-78835000D02*
X38135000Y-79470000D01*
X38770000Y-71850000D02*
X38770000Y-78835000D01*
X38135000Y-79470000D02*
X36230000Y-79470000D01*
X36230000Y-79470000D02*
X36230000Y-71850000D01*
X36230000Y-71850000D02*
X38770000Y-71850000D01*
%TO.C,U4*%
X72000000Y-102200000D02*
X77700000Y-102200000D01*
X72000000Y-102200000D02*
X71000000Y-101200000D01*
X77700000Y-102200000D02*
X77700000Y-98500000D01*
X71000000Y-101200000D02*
X71000000Y-98500000D01*
X71000000Y-98500000D02*
X77700000Y-98500000D01*
%TO.C,R2*%
X94150000Y-81825000D02*
X92150000Y-81825000D01*
X94150000Y-80575000D02*
X94150000Y-81825000D01*
X92150000Y-81825000D02*
X92150000Y-80575000D01*
X92150000Y-80575000D02*
X94150000Y-80575000D01*
%TO.C,D1*%
X49275000Y-71300000D02*
X49275000Y-72200000D01*
X49275000Y-72200000D02*
X51275000Y-72200000D01*
X49575000Y-71000000D02*
X49275000Y-71300000D01*
X51275000Y-71000000D02*
X49575000Y-71000000D01*
X51275000Y-72200000D02*
X51275000Y-71000000D01*
%TO.C,D8*%
X64262500Y-91531250D02*
X64262500Y-93331250D01*
X62862500Y-91531250D02*
X64262500Y-91531250D01*
X63912500Y-92131250D02*
X63212500Y-92131250D01*
X63562500Y-92131250D02*
X63562500Y-91931250D01*
X63562500Y-92131250D02*
X63912500Y-92631250D01*
X63912500Y-92631250D02*
X63212500Y-92631250D01*
X63562500Y-92631250D02*
X63562500Y-92881250D01*
X63212500Y-92631250D02*
X63562500Y-92131250D01*
X64262500Y-93331250D02*
X62862500Y-93331250D01*
X62862500Y-93331250D02*
X62862500Y-91531250D01*
%TO.C,C12*%
X56562500Y-85325000D02*
X54562500Y-85325000D01*
X56562500Y-84075000D02*
X56562500Y-85325000D01*
X54562500Y-85325000D02*
X54562500Y-84075000D01*
X54562500Y-84075000D02*
X56562500Y-84075000D01*
%TO.C,Q4*%
X52670000Y-98055000D02*
X52670000Y-97305000D01*
X52670000Y-97305000D02*
X49970000Y-97305000D01*
X52670000Y-93495000D02*
X52670000Y-92745000D01*
X52670000Y-92745000D02*
X49970000Y-92745000D01*
X49970000Y-97650000D02*
X48970000Y-98650000D01*
X49970000Y-93495000D02*
X52670000Y-93495000D01*
X49970000Y-92150000D02*
X49970000Y-97650000D01*
X49565000Y-98055000D02*
X52670000Y-98055000D01*
X48970000Y-98650000D02*
X43750000Y-98650000D01*
X43750000Y-98650000D02*
X43750000Y-92150000D01*
X43750000Y-98100000D02*
X42750000Y-98100000D01*
X43750000Y-92150000D02*
X49970000Y-92150000D01*
X42750000Y-98100000D02*
X42750000Y-92700000D01*
X42750000Y-92700000D02*
X43750000Y-92700000D01*
%TO.C,C2*%
X86437500Y-67121800D02*
X88437500Y-67121800D01*
X86437500Y-68371800D02*
X86437500Y-67121800D01*
X88437500Y-67121800D02*
X88437500Y-68371800D01*
X88437500Y-68371800D02*
X86437500Y-68371800D01*
%TO.C,C11*%
X56477000Y-103000000D02*
X56477000Y-101000000D01*
X57727000Y-103000000D02*
X56477000Y-103000000D01*
X56477000Y-101000000D02*
X57727000Y-101000000D01*
X57727000Y-101000000D02*
X57727000Y-103000000D01*
%TO.C,R10*%
X86775000Y-79200000D02*
X86775000Y-81200000D01*
X85525000Y-79200000D02*
X86775000Y-79200000D01*
X86775000Y-81200000D02*
X85525000Y-81200000D01*
X85525000Y-81200000D02*
X85525000Y-79200000D01*
%TO.C,FID3*%
X110500000Y-70000000D02*
G75*
G03*
X110500000Y-70000000I-500000J0D01*
G01*
%TO.C,C6*%
X103575000Y-91562500D02*
X103575000Y-89562500D01*
X104825000Y-91562500D02*
X103575000Y-91562500D01*
X103575000Y-89562500D02*
X104825000Y-89562500D01*
X104825000Y-89562500D02*
X104825000Y-91562500D01*
%TO.C,D4*%
X110200000Y-93300000D02*
X110200000Y-95100000D01*
X109100000Y-94600000D02*
X109100000Y-93800000D01*
X109100000Y-94200000D02*
X109700000Y-94200000D01*
X109100000Y-94200000D02*
X108500000Y-94600000D01*
X109100000Y-94198980D02*
X108500000Y-93800000D01*
X108500000Y-94200000D02*
X107900000Y-94200000D01*
X108500000Y-93800000D02*
X108500000Y-94600000D01*
X107400000Y-95100000D02*
X110200000Y-95100000D01*
X107400000Y-95100000D02*
X107400000Y-93300000D01*
X107400000Y-93300000D02*
X110200000Y-93300000D01*
%TO.C,SW2*%
X98850000Y-88300000D02*
X98850000Y-87800000D01*
X98850000Y-87800000D02*
X97850000Y-87800000D01*
X98850000Y-84600000D02*
X97850000Y-84600000D01*
X98850000Y-84100000D02*
X98850000Y-84600000D01*
X98350000Y-88300000D02*
X98350000Y-87800000D01*
X98350000Y-84100000D02*
X98350000Y-84600000D01*
X98250000Y-87400000D02*
X98250000Y-85000000D01*
X98250000Y-85000000D02*
X96850000Y-83600000D01*
X97650000Y-87200000D02*
X96650000Y-88200000D01*
X97650000Y-85200000D02*
X97650000Y-87200000D01*
X97350000Y-88300000D02*
X98850000Y-88300000D01*
X97350000Y-84100000D02*
X98850000Y-84100000D01*
X96850000Y-88800000D02*
X98250000Y-87400000D01*
X96850000Y-83600000D02*
X94450000Y-83600000D01*
X96650000Y-88200000D02*
X94650000Y-88200000D01*
X96650000Y-84200000D02*
X97650000Y-85200000D01*
X94650000Y-88200000D02*
X93650000Y-87200000D01*
X94650000Y-84200000D02*
X96650000Y-84200000D01*
X94450000Y-88800000D02*
X96850000Y-88800000D01*
X94450000Y-83600000D02*
X93050000Y-85000000D01*
X93950000Y-88300000D02*
X92450000Y-88300000D01*
X93950000Y-84100000D02*
X92450000Y-84100000D01*
X93650000Y-87200000D02*
X93650000Y-85200000D01*
X93650000Y-85200000D02*
X94650000Y-84200000D01*
X93050000Y-87400000D02*
X94450000Y-88800000D01*
X93050000Y-85000000D02*
X93050000Y-87400000D01*
X92950000Y-88300000D02*
X92950000Y-87800000D01*
X92950000Y-84100000D02*
X92950000Y-84600000D01*
X92450000Y-88300000D02*
X92450000Y-87800000D01*
X92450000Y-87800000D02*
X93450000Y-87800000D01*
X92450000Y-84600000D02*
X93450000Y-84600000D01*
X92450000Y-84100000D02*
X92450000Y-84600000D01*
X96650000Y-86200000D02*
G75*
G03*
X96650000Y-86200000I-1000000J0D01*
G01*
%TO.C,C8*%
X75587500Y-92975000D02*
X77587500Y-92975000D01*
X75587500Y-94225000D02*
X75587500Y-92975000D01*
X77587500Y-92975000D02*
X77587500Y-94225000D01*
X77587500Y-94225000D02*
X75587500Y-94225000D01*
%TO.C,Q3*%
X52670000Y-90555000D02*
X52670000Y-89805000D01*
X52670000Y-89805000D02*
X49970000Y-89805000D01*
X52670000Y-85995000D02*
X52670000Y-85245000D01*
X52670000Y-85245000D02*
X49970000Y-85245000D01*
X49970000Y-90150000D02*
X48970000Y-91150000D01*
X49970000Y-85995000D02*
X52670000Y-85995000D01*
X49970000Y-84650000D02*
X49970000Y-90150000D01*
X49565000Y-90555000D02*
X52670000Y-90555000D01*
X48970000Y-91150000D02*
X43750000Y-91150000D01*
X43750000Y-91150000D02*
X43750000Y-84650000D01*
X43750000Y-90600000D02*
X42750000Y-90600000D01*
X43750000Y-84650000D02*
X49970000Y-84650000D01*
X42750000Y-90600000D02*
X42750000Y-85200000D01*
X42750000Y-85200000D02*
X43750000Y-85200000D01*
%TO.C,Q2*%
X98200000Y-79400000D02*
X98600000Y-79800000D01*
X95700000Y-79400000D02*
X98200000Y-79400000D01*
X98600000Y-79800000D02*
X98600000Y-81000000D01*
X98600000Y-81000000D02*
X95700000Y-81000000D01*
X95700000Y-81000000D02*
X95700000Y-79400000D01*
%TO.C,R1*%
X92150000Y-78075000D02*
X94150000Y-78075000D01*
X92150000Y-79325000D02*
X92150000Y-78075000D01*
X94150000Y-78075000D02*
X94150000Y-79325000D01*
X94150000Y-79325000D02*
X92150000Y-79325000D01*
%TO.C,C9*%
X75625000Y-90375000D02*
X77625000Y-90375000D01*
X75625000Y-91625000D02*
X75625000Y-90375000D01*
X77625000Y-90375000D02*
X77625000Y-91625000D01*
X77625000Y-91625000D02*
X75625000Y-91625000D01*
%TO.C,R5*%
X82100000Y-79325000D02*
X80100000Y-79325000D01*
X82100000Y-78075000D02*
X82100000Y-79325000D01*
X80100000Y-79325000D02*
X80100000Y-78075000D01*
X80100000Y-78075000D02*
X82100000Y-78075000D01*
%TO.C,JP1*%
X111914881Y-88730117D02*
X111279881Y-89365117D01*
X111914881Y-84285117D02*
X111914881Y-88730117D01*
X111279881Y-89365117D02*
X109374881Y-89365117D01*
X109374881Y-89365117D02*
X109374881Y-84285117D01*
X109374881Y-84285117D02*
X111914881Y-84285117D01*
%TO.C,FID1*%
X110500000Y-100000000D02*
G75*
G03*
X110500000Y-100000000I-500000J0D01*
G01*
%TO.C,FID2*%
X40500000Y-70000000D02*
G75*
G03*
X40500000Y-70000000I-500000J0D01*
G01*
D18*
%TO.C,J1*%
X108744932Y-80649987D02*
G75*
G03*
X108744932Y-80649987I-124993J0D01*
G01*
X108744933Y-74860046D02*
G75*
G03*
X108744933Y-74860046I-124994J0D01*
G01*
D17*
%TO.C,R4*%
X105269881Y-79555117D02*
X105269881Y-81555117D01*
X104019881Y-79555117D02*
X105269881Y-79555117D01*
X105269881Y-81555117D02*
X104019881Y-81555117D01*
X104019881Y-81555117D02*
X104019881Y-79555117D01*
%TO.C,R15*%
X56200000Y-99325000D02*
X54200000Y-99325000D01*
X56200000Y-98075000D02*
X56200000Y-99325000D01*
X54200000Y-99325000D02*
X54200000Y-98075000D01*
X54200000Y-98075000D02*
X56200000Y-98075000D01*
%TO.C,U5*%
X60050000Y-102200000D02*
X65750000Y-102200000D01*
X60050000Y-102200000D02*
X59050000Y-101200000D01*
X65750000Y-102200000D02*
X65750000Y-98500000D01*
X59050000Y-101200000D02*
X59050000Y-98500000D01*
X59050000Y-98500000D02*
X65750000Y-98500000D01*
%TO.C,R6*%
X59057500Y-70724500D02*
X59057500Y-72724500D01*
X57807500Y-70724500D02*
X59057500Y-70724500D01*
X59057500Y-72724500D02*
X57807500Y-72724500D01*
X57807500Y-72724500D02*
X57807500Y-70724500D01*
%TO.C,J2*%
X93850000Y-96050000D02*
X94850000Y-95050000D01*
X93850000Y-109350000D02*
X93850000Y-96050000D01*
X102850000Y-95050000D02*
X94850000Y-95050000D01*
X102850000Y-95050000D02*
X102850000Y-109350000D01*
X102850000Y-109350000D02*
X93850000Y-109350000D01*
%TD*%
M02*
