M48
; DRILL file {KiCad 7.0.6-1.fc37} date Sun 13 Aug 2023 09:26:59 PM PDT
; FORMAT={-:-/ absolute / metric / decimal}
; #@! TF.CreationDate,2023-08-13T21:26:59-07:00
; #@! TF.GenerationSoftware,Kicad,Pcbnew,7.0.6-1.fc37
; #@! TF.FileFunction,Plated,1,2,PTH
FMAT,2
METRIC
; #@! TA.AperFunction,Plated,PTH,ViaDrill
T1C0.300
; #@! TA.AperFunction,Plated,PTH,ViaDrill
T2C0.381
; #@! TA.AperFunction,Plated,PTH,ViaDrill
T3C0.400
; #@! TA.AperFunction,Plated,PTH,ComponentDrill
T4C0.500
; #@! TA.AperFunction,Plated,PTH,ComponentDrill
T5C0.600
; #@! TA.AperFunction,Plated,PTH,ViaDrill
T6C0.700
; #@! TA.AperFunction,Plated,PTH,ComponentDrill
T7C1.000
; #@! TA.AperFunction,Plated,PTH,ComponentDrill
T8C3.200
%
G90
G05
T1
X72.4Y-79.2
X73.517Y-80.568
X93.095Y-79.505
X94.92Y-76.79
X95.267Y-79.062
X95.547Y-75.947
T2
X74.724Y-82.724
X81.0Y-82.0
X83.966Y-79.566
X84.1Y-77.9
X88.2Y-82.8
X91.0Y-83.4
T3
X53.6Y-85.8
X56.1Y-87.7
X67.312Y-90.831
X70.039Y-90.831
X70.062Y-92.281
X84.9Y-72.6
X84.9Y-73.5
X89.9Y-69.8
X89.9Y-70.8
X99.6Y-77.6
X101.868Y-87.432
T4
X37.6Y-65.0
X37.6Y-105.0
X38.303Y-63.303
X38.303Y-66.697
X38.303Y-103.303
X38.303Y-106.697
X40.0Y-62.6
X40.0Y-67.4
X40.0Y-102.6
X40.0Y-107.4
X41.697Y-63.303
X41.697Y-66.697
X41.697Y-103.303
X41.697Y-106.697
X42.4Y-65.0
X42.4Y-105.0
X107.6Y-65.0
X107.6Y-105.0
X108.303Y-63.303
X108.303Y-66.697
X108.303Y-103.303
X108.303Y-106.697
X110.0Y-62.6
X110.0Y-67.4
X110.0Y-102.6
X110.0Y-107.4
X111.697Y-63.303
X111.697Y-66.697
X111.697Y-103.303
X111.697Y-106.697
X112.4Y-65.0
X112.4Y-105.0
T6
X49.81Y-93.12
X49.9Y-85.6
X51.0Y-87.0
X51.16Y-94.68
X51.25Y-79.72
X52.56Y-94.68
X52.6Y-87.0
X52.65Y-79.76
X55.78Y-79.48
X57.5Y-83.5
X57.8Y-91.8
X58.15Y-99.85
X58.65Y-103.9
X59.4Y-105.2
X60.7Y-105.2
X68.8Y-100.2
X70.2Y-98.9
X70.2Y-100.2
X70.5Y-102.7
X70.5Y-104.0
X71.8Y-98.9
X71.8Y-100.2
X72.1Y-105.2
X80.0Y-89.9
X82.5Y-89.9
X86.15Y-77.92
X108.1Y-89.5
T7
X37.5Y-73.12
X37.5Y-75.66
X37.5Y-78.2
X37.5Y-88.88
X37.5Y-91.42
X37.5Y-93.96
X37.5Y-96.5
X43.26Y-70.8
X45.8Y-70.8
X67.36Y-87.4
X69.9Y-87.4
X72.44Y-87.4
X74.98Y-87.4
X110.645Y-85.555
X110.645Y-88.095
T8
X40.0Y-65.0
X40.0Y-105.0
X110.0Y-65.0
X110.0Y-105.0
T5
X107.57Y-73.43G85X108.67Y-73.43
G05
X107.57Y-82.07G85X108.67Y-82.07
G05
X111.9Y-73.43G85X112.7Y-73.43
G05
X111.9Y-82.07G85X112.7Y-82.07
G05
T7
X84.05Y-95.65G85X86.65Y-95.65
G05
X84.25Y-101.95G85X86.45Y-101.95
G05
X90.15Y-97.45G85X90.15Y-99.65
G05
X97.05Y-95.65G85X99.65Y-95.65
G05
X97.25Y-101.95G85X99.45Y-101.95
G05
X103.15Y-97.45G85X103.15Y-99.65
G05
T0
M30
