%TF.GenerationSoftware,KiCad,Pcbnew,7.0.6-1.fc37*%
%TF.CreationDate,2023-08-13T21:26:51-07:00*%
%TF.ProjectId,iot_led_strip_pcb,696f745f-6c65-4645-9f73-747269705f70,rev?*%
%TF.SameCoordinates,Original*%
%TF.FileFunction,Legend,Bot*%
%TF.FilePolarity,Positive*%
%FSLAX46Y46*%
G04 Gerber Fmt 4.6, Leading zero omitted, Abs format (unit mm)*
G04 Created by KiCad (PCBNEW 7.0.6-1.fc37) date 2023-08-13 21:26:51*
%MOMM*%
%LPD*%
G01*
G04 APERTURE LIST*
%ADD10C,0.150000*%
%ADD11C,0.400000*%
%ADD12C,0.550000*%
%ADD13R,1.700000X1.700000*%
%ADD14O,1.700000X1.700000*%
%ADD15R,4.600000X2.000000*%
%ADD16O,4.200000X2.000000*%
%ADD17O,2.000000X4.200000*%
%ADD18C,0.800000*%
%ADD19C,6.400000*%
%ADD20C,0.649987*%
%ADD21O,2.100000X1.000000*%
%ADD22O,1.800000X1.000000*%
G04 APERTURE END LIST*
D10*
X42961904Y-96673866D02*
X42200000Y-96673866D01*
X42580952Y-97054819D02*
X42580952Y-96292914D01*
X41200000Y-97054819D02*
X41771428Y-97054819D01*
X41485714Y-97054819D02*
X41485714Y-96054819D01*
X41485714Y-96054819D02*
X41580952Y-96197676D01*
X41580952Y-96197676D02*
X41676190Y-96292914D01*
X41676190Y-96292914D02*
X41771428Y-96340533D01*
X40819047Y-96150057D02*
X40771428Y-96102438D01*
X40771428Y-96102438D02*
X40676190Y-96054819D01*
X40676190Y-96054819D02*
X40438095Y-96054819D01*
X40438095Y-96054819D02*
X40342857Y-96102438D01*
X40342857Y-96102438D02*
X40295238Y-96150057D01*
X40295238Y-96150057D02*
X40247619Y-96245295D01*
X40247619Y-96245295D02*
X40247619Y-96340533D01*
X40247619Y-96340533D02*
X40295238Y-96483390D01*
X40295238Y-96483390D02*
X40866666Y-97054819D01*
X40866666Y-97054819D02*
X40247619Y-97054819D01*
X39961904Y-96054819D02*
X39628571Y-97054819D01*
X39628571Y-97054819D02*
X39295238Y-96054819D01*
X41061904Y-72602438D02*
X41157142Y-72554819D01*
X41157142Y-72554819D02*
X41299999Y-72554819D01*
X41299999Y-72554819D02*
X41442856Y-72602438D01*
X41442856Y-72602438D02*
X41538094Y-72697676D01*
X41538094Y-72697676D02*
X41585713Y-72792914D01*
X41585713Y-72792914D02*
X41633332Y-72983390D01*
X41633332Y-72983390D02*
X41633332Y-73126247D01*
X41633332Y-73126247D02*
X41585713Y-73316723D01*
X41585713Y-73316723D02*
X41538094Y-73411961D01*
X41538094Y-73411961D02*
X41442856Y-73507200D01*
X41442856Y-73507200D02*
X41299999Y-73554819D01*
X41299999Y-73554819D02*
X41204761Y-73554819D01*
X41204761Y-73554819D02*
X41061904Y-73507200D01*
X41061904Y-73507200D02*
X41014285Y-73459580D01*
X41014285Y-73459580D02*
X41014285Y-73126247D01*
X41014285Y-73126247D02*
X41204761Y-73126247D01*
X40585713Y-73554819D02*
X40585713Y-72554819D01*
X40585713Y-72554819D02*
X40014285Y-73554819D01*
X40014285Y-73554819D02*
X40014285Y-72554819D01*
X39538094Y-73554819D02*
X39538094Y-72554819D01*
X39538094Y-72554819D02*
X39299999Y-72554819D01*
X39299999Y-72554819D02*
X39157142Y-72602438D01*
X39157142Y-72602438D02*
X39061904Y-72697676D01*
X39061904Y-72697676D02*
X39014285Y-72792914D01*
X39014285Y-72792914D02*
X38966666Y-72983390D01*
X38966666Y-72983390D02*
X38966666Y-73126247D01*
X38966666Y-73126247D02*
X39014285Y-73316723D01*
X39014285Y-73316723D02*
X39061904Y-73411961D01*
X39061904Y-73411961D02*
X39157142Y-73507200D01*
X39157142Y-73507200D02*
X39299999Y-73554819D01*
X39299999Y-73554819D02*
X39538094Y-73554819D01*
X75324200Y-89047618D02*
X75362295Y-89161904D01*
X75362295Y-89161904D02*
X75362295Y-89352380D01*
X75362295Y-89352380D02*
X75324200Y-89428571D01*
X75324200Y-89428571D02*
X75286104Y-89466666D01*
X75286104Y-89466666D02*
X75209914Y-89504761D01*
X75209914Y-89504761D02*
X75133723Y-89504761D01*
X75133723Y-89504761D02*
X75057533Y-89466666D01*
X75057533Y-89466666D02*
X75019438Y-89428571D01*
X75019438Y-89428571D02*
X74981342Y-89352380D01*
X74981342Y-89352380D02*
X74943247Y-89199999D01*
X74943247Y-89199999D02*
X74905152Y-89123809D01*
X74905152Y-89123809D02*
X74867057Y-89085714D01*
X74867057Y-89085714D02*
X74790866Y-89047618D01*
X74790866Y-89047618D02*
X74714676Y-89047618D01*
X74714676Y-89047618D02*
X74638485Y-89085714D01*
X74638485Y-89085714D02*
X74600390Y-89123809D01*
X74600390Y-89123809D02*
X74562295Y-89199999D01*
X74562295Y-89199999D02*
X74562295Y-89390476D01*
X74562295Y-89390476D02*
X74600390Y-89504761D01*
X75286104Y-90304762D02*
X75324200Y-90266666D01*
X75324200Y-90266666D02*
X75362295Y-90152381D01*
X75362295Y-90152381D02*
X75362295Y-90076190D01*
X75362295Y-90076190D02*
X75324200Y-89961904D01*
X75324200Y-89961904D02*
X75248009Y-89885714D01*
X75248009Y-89885714D02*
X75171819Y-89847619D01*
X75171819Y-89847619D02*
X75019438Y-89809523D01*
X75019438Y-89809523D02*
X74905152Y-89809523D01*
X74905152Y-89809523D02*
X74752771Y-89847619D01*
X74752771Y-89847619D02*
X74676580Y-89885714D01*
X74676580Y-89885714D02*
X74600390Y-89961904D01*
X74600390Y-89961904D02*
X74562295Y-90076190D01*
X74562295Y-90076190D02*
X74562295Y-90152381D01*
X74562295Y-90152381D02*
X74600390Y-90266666D01*
X74600390Y-90266666D02*
X74638485Y-90304762D01*
X75362295Y-91028571D02*
X75362295Y-90647619D01*
X75362295Y-90647619D02*
X74562295Y-90647619D01*
X39290476Y-91854819D02*
X39623809Y-91378628D01*
X39861904Y-91854819D02*
X39861904Y-90854819D01*
X39861904Y-90854819D02*
X39480952Y-90854819D01*
X39480952Y-90854819D02*
X39385714Y-90902438D01*
X39385714Y-90902438D02*
X39338095Y-90950057D01*
X39338095Y-90950057D02*
X39290476Y-91045295D01*
X39290476Y-91045295D02*
X39290476Y-91188152D01*
X39290476Y-91188152D02*
X39338095Y-91283390D01*
X39338095Y-91283390D02*
X39385714Y-91331009D01*
X39385714Y-91331009D02*
X39480952Y-91378628D01*
X39480952Y-91378628D02*
X39861904Y-91378628D01*
X39528571Y-88731009D02*
X39385714Y-88778628D01*
X39385714Y-88778628D02*
X39338095Y-88826247D01*
X39338095Y-88826247D02*
X39290476Y-88921485D01*
X39290476Y-88921485D02*
X39290476Y-89064342D01*
X39290476Y-89064342D02*
X39338095Y-89159580D01*
X39338095Y-89159580D02*
X39385714Y-89207200D01*
X39385714Y-89207200D02*
X39480952Y-89254819D01*
X39480952Y-89254819D02*
X39861904Y-89254819D01*
X39861904Y-89254819D02*
X39861904Y-88254819D01*
X39861904Y-88254819D02*
X39528571Y-88254819D01*
X39528571Y-88254819D02*
X39433333Y-88302438D01*
X39433333Y-88302438D02*
X39385714Y-88350057D01*
X39385714Y-88350057D02*
X39338095Y-88445295D01*
X39338095Y-88445295D02*
X39338095Y-88540533D01*
X39338095Y-88540533D02*
X39385714Y-88635771D01*
X39385714Y-88635771D02*
X39433333Y-88683390D01*
X39433333Y-88683390D02*
X39528571Y-88731009D01*
X39528571Y-88731009D02*
X39861904Y-88731009D01*
X78587030Y-77745342D02*
X78472744Y-77745342D01*
X78472744Y-77745342D02*
X78358458Y-77802485D01*
X78358458Y-77802485D02*
X78301316Y-77859628D01*
X78301316Y-77859628D02*
X78244173Y-77973914D01*
X78244173Y-77973914D02*
X78187030Y-78202485D01*
X78187030Y-78202485D02*
X78187030Y-78488200D01*
X78187030Y-78488200D02*
X78244173Y-78716771D01*
X78244173Y-78716771D02*
X78301316Y-78831057D01*
X78301316Y-78831057D02*
X78358458Y-78888200D01*
X78358458Y-78888200D02*
X78472744Y-78945342D01*
X78472744Y-78945342D02*
X78587030Y-78945342D01*
X78587030Y-78945342D02*
X78701316Y-78888200D01*
X78701316Y-78888200D02*
X78758458Y-78831057D01*
X78758458Y-78831057D02*
X78815601Y-78716771D01*
X78815601Y-78716771D02*
X78872744Y-78488200D01*
X78872744Y-78488200D02*
X78872744Y-78202485D01*
X78872744Y-78202485D02*
X78815601Y-77973914D01*
X78815601Y-77973914D02*
X78758458Y-77859628D01*
X78758458Y-77859628D02*
X78701316Y-77802485D01*
X78701316Y-77802485D02*
X78587030Y-77745342D01*
X77787030Y-78945342D02*
X77158459Y-78145342D01*
X77787030Y-78145342D02*
X77158459Y-78945342D01*
X76701315Y-78145342D02*
X76701315Y-79173914D01*
X76701315Y-79173914D02*
X76758458Y-79288200D01*
X76758458Y-79288200D02*
X76872744Y-79345342D01*
X76872744Y-79345342D02*
X76929887Y-79345342D01*
X76701315Y-77745342D02*
X76758458Y-77802485D01*
X76758458Y-77802485D02*
X76701315Y-77859628D01*
X76701315Y-77859628D02*
X76644172Y-77802485D01*
X76644172Y-77802485D02*
X76701315Y-77745342D01*
X76701315Y-77745342D02*
X76701315Y-77859628D01*
X76129886Y-78945342D02*
X76129886Y-78145342D01*
X76129886Y-78259628D02*
X76072743Y-78202485D01*
X76072743Y-78202485D02*
X75958458Y-78145342D01*
X75958458Y-78145342D02*
X75787029Y-78145342D01*
X75787029Y-78145342D02*
X75672743Y-78202485D01*
X75672743Y-78202485D02*
X75615601Y-78316771D01*
X75615601Y-78316771D02*
X75615601Y-78945342D01*
X75615601Y-78316771D02*
X75558458Y-78202485D01*
X75558458Y-78202485D02*
X75444172Y-78145342D01*
X75444172Y-78145342D02*
X75272743Y-78145342D01*
X75272743Y-78145342D02*
X75158458Y-78202485D01*
X75158458Y-78202485D02*
X75101315Y-78316771D01*
X75101315Y-78316771D02*
X75101315Y-78945342D01*
X74015601Y-78145342D02*
X74015601Y-78945342D01*
X74529886Y-78145342D02*
X74529886Y-78773914D01*
X74529886Y-78773914D02*
X74472743Y-78888200D01*
X74472743Y-78888200D02*
X74358458Y-78945342D01*
X74358458Y-78945342D02*
X74187029Y-78945342D01*
X74187029Y-78945342D02*
X74072743Y-78888200D01*
X74072743Y-78888200D02*
X74015601Y-78831057D01*
X73558458Y-78945342D02*
X72929887Y-78145342D01*
X73558458Y-78145342D02*
X72929887Y-78945342D01*
X82129887Y-80145342D02*
X81844173Y-80945342D01*
X81844173Y-80945342D02*
X81558458Y-80145342D01*
X80472744Y-80945342D02*
X81158458Y-80945342D01*
X80815601Y-80945342D02*
X80815601Y-79745342D01*
X80815601Y-79745342D02*
X80929887Y-79916771D01*
X80929887Y-79916771D02*
X81044172Y-80031057D01*
X81044172Y-80031057D02*
X81158458Y-80088200D01*
X79958458Y-80831057D02*
X79901315Y-80888200D01*
X79901315Y-80888200D02*
X79958458Y-80945342D01*
X79958458Y-80945342D02*
X80015601Y-80888200D01*
X80015601Y-80888200D02*
X79958458Y-80831057D01*
X79958458Y-80831057D02*
X79958458Y-80945342D01*
X79158458Y-79745342D02*
X79044172Y-79745342D01*
X79044172Y-79745342D02*
X78929886Y-79802485D01*
X78929886Y-79802485D02*
X78872744Y-79859628D01*
X78872744Y-79859628D02*
X78815601Y-79973914D01*
X78815601Y-79973914D02*
X78758458Y-80202485D01*
X78758458Y-80202485D02*
X78758458Y-80488200D01*
X78758458Y-80488200D02*
X78815601Y-80716771D01*
X78815601Y-80716771D02*
X78872744Y-80831057D01*
X78872744Y-80831057D02*
X78929886Y-80888200D01*
X78929886Y-80888200D02*
X79044172Y-80945342D01*
X79044172Y-80945342D02*
X79158458Y-80945342D01*
X79158458Y-80945342D02*
X79272744Y-80888200D01*
X79272744Y-80888200D02*
X79329886Y-80831057D01*
X79329886Y-80831057D02*
X79387029Y-80716771D01*
X79387029Y-80716771D02*
X79444172Y-80488200D01*
X79444172Y-80488200D02*
X79444172Y-80202485D01*
X79444172Y-80202485D02*
X79387029Y-79973914D01*
X79387029Y-79973914D02*
X79329886Y-79859628D01*
X79329886Y-79859628D02*
X79272744Y-79802485D01*
X79272744Y-79802485D02*
X79158458Y-79745342D01*
X77329886Y-80488200D02*
X76415601Y-80488200D01*
X74701315Y-79745342D02*
X74587029Y-79745342D01*
X74587029Y-79745342D02*
X74472743Y-79802485D01*
X74472743Y-79802485D02*
X74415601Y-79859628D01*
X74415601Y-79859628D02*
X74358458Y-79973914D01*
X74358458Y-79973914D02*
X74301315Y-80202485D01*
X74301315Y-80202485D02*
X74301315Y-80488200D01*
X74301315Y-80488200D02*
X74358458Y-80716771D01*
X74358458Y-80716771D02*
X74415601Y-80831057D01*
X74415601Y-80831057D02*
X74472743Y-80888200D01*
X74472743Y-80888200D02*
X74587029Y-80945342D01*
X74587029Y-80945342D02*
X74701315Y-80945342D01*
X74701315Y-80945342D02*
X74815601Y-80888200D01*
X74815601Y-80888200D02*
X74872743Y-80831057D01*
X74872743Y-80831057D02*
X74929886Y-80716771D01*
X74929886Y-80716771D02*
X74987029Y-80488200D01*
X74987029Y-80488200D02*
X74987029Y-80202485D01*
X74987029Y-80202485D02*
X74929886Y-79973914D01*
X74929886Y-79973914D02*
X74872743Y-79859628D01*
X74872743Y-79859628D02*
X74815601Y-79802485D01*
X74815601Y-79802485D02*
X74701315Y-79745342D01*
X73615601Y-80259628D02*
X73729886Y-80202485D01*
X73729886Y-80202485D02*
X73787029Y-80145342D01*
X73787029Y-80145342D02*
X73844172Y-80031057D01*
X73844172Y-80031057D02*
X73844172Y-79973914D01*
X73844172Y-79973914D02*
X73787029Y-79859628D01*
X73787029Y-79859628D02*
X73729886Y-79802485D01*
X73729886Y-79802485D02*
X73615601Y-79745342D01*
X73615601Y-79745342D02*
X73387029Y-79745342D01*
X73387029Y-79745342D02*
X73272744Y-79802485D01*
X73272744Y-79802485D02*
X73215601Y-79859628D01*
X73215601Y-79859628D02*
X73158458Y-79973914D01*
X73158458Y-79973914D02*
X73158458Y-80031057D01*
X73158458Y-80031057D02*
X73215601Y-80145342D01*
X73215601Y-80145342D02*
X73272744Y-80202485D01*
X73272744Y-80202485D02*
X73387029Y-80259628D01*
X73387029Y-80259628D02*
X73615601Y-80259628D01*
X73615601Y-80259628D02*
X73729886Y-80316771D01*
X73729886Y-80316771D02*
X73787029Y-80373914D01*
X73787029Y-80373914D02*
X73844172Y-80488200D01*
X73844172Y-80488200D02*
X73844172Y-80716771D01*
X73844172Y-80716771D02*
X73787029Y-80831057D01*
X73787029Y-80831057D02*
X73729886Y-80888200D01*
X73729886Y-80888200D02*
X73615601Y-80945342D01*
X73615601Y-80945342D02*
X73387029Y-80945342D01*
X73387029Y-80945342D02*
X73272744Y-80888200D01*
X73272744Y-80888200D02*
X73215601Y-80831057D01*
X73215601Y-80831057D02*
X73158458Y-80716771D01*
X73158458Y-80716771D02*
X73158458Y-80488200D01*
X73158458Y-80488200D02*
X73215601Y-80373914D01*
X73215601Y-80373914D02*
X73272744Y-80316771D01*
X73272744Y-80316771D02*
X73387029Y-80259628D01*
X71787029Y-79688200D02*
X72815601Y-81231057D01*
X71444172Y-79859628D02*
X71387029Y-79802485D01*
X71387029Y-79802485D02*
X71272744Y-79745342D01*
X71272744Y-79745342D02*
X70987029Y-79745342D01*
X70987029Y-79745342D02*
X70872744Y-79802485D01*
X70872744Y-79802485D02*
X70815601Y-79859628D01*
X70815601Y-79859628D02*
X70758458Y-79973914D01*
X70758458Y-79973914D02*
X70758458Y-80088200D01*
X70758458Y-80088200D02*
X70815601Y-80259628D01*
X70815601Y-80259628D02*
X71501315Y-80945342D01*
X71501315Y-80945342D02*
X70758458Y-80945342D01*
X70015601Y-79745342D02*
X69901315Y-79745342D01*
X69901315Y-79745342D02*
X69787029Y-79802485D01*
X69787029Y-79802485D02*
X69729887Y-79859628D01*
X69729887Y-79859628D02*
X69672744Y-79973914D01*
X69672744Y-79973914D02*
X69615601Y-80202485D01*
X69615601Y-80202485D02*
X69615601Y-80488200D01*
X69615601Y-80488200D02*
X69672744Y-80716771D01*
X69672744Y-80716771D02*
X69729887Y-80831057D01*
X69729887Y-80831057D02*
X69787029Y-80888200D01*
X69787029Y-80888200D02*
X69901315Y-80945342D01*
X69901315Y-80945342D02*
X70015601Y-80945342D01*
X70015601Y-80945342D02*
X70129887Y-80888200D01*
X70129887Y-80888200D02*
X70187029Y-80831057D01*
X70187029Y-80831057D02*
X70244172Y-80716771D01*
X70244172Y-80716771D02*
X70301315Y-80488200D01*
X70301315Y-80488200D02*
X70301315Y-80202485D01*
X70301315Y-80202485D02*
X70244172Y-79973914D01*
X70244172Y-79973914D02*
X70187029Y-79859628D01*
X70187029Y-79859628D02*
X70129887Y-79802485D01*
X70129887Y-79802485D02*
X70015601Y-79745342D01*
X69158458Y-79859628D02*
X69101315Y-79802485D01*
X69101315Y-79802485D02*
X68987030Y-79745342D01*
X68987030Y-79745342D02*
X68701315Y-79745342D01*
X68701315Y-79745342D02*
X68587030Y-79802485D01*
X68587030Y-79802485D02*
X68529887Y-79859628D01*
X68529887Y-79859628D02*
X68472744Y-79973914D01*
X68472744Y-79973914D02*
X68472744Y-80088200D01*
X68472744Y-80088200D02*
X68529887Y-80259628D01*
X68529887Y-80259628D02*
X69215601Y-80945342D01*
X69215601Y-80945342D02*
X68472744Y-80945342D01*
X68072744Y-79745342D02*
X67329887Y-79745342D01*
X67329887Y-79745342D02*
X67729887Y-80202485D01*
X67729887Y-80202485D02*
X67558458Y-80202485D01*
X67558458Y-80202485D02*
X67444173Y-80259628D01*
X67444173Y-80259628D02*
X67387030Y-80316771D01*
X67387030Y-80316771D02*
X67329887Y-80431057D01*
X67329887Y-80431057D02*
X67329887Y-80716771D01*
X67329887Y-80716771D02*
X67387030Y-80831057D01*
X67387030Y-80831057D02*
X67444173Y-80888200D01*
X67444173Y-80888200D02*
X67558458Y-80945342D01*
X67558458Y-80945342D02*
X67901315Y-80945342D01*
X67901315Y-80945342D02*
X68015601Y-80888200D01*
X68015601Y-80888200D02*
X68072744Y-80831057D01*
D11*
X85680952Y-105604438D02*
X86633333Y-105604438D01*
X86633333Y-105604438D02*
X86728571Y-106556819D01*
X86728571Y-106556819D02*
X86633333Y-106461580D01*
X86633333Y-106461580D02*
X86442857Y-106366342D01*
X86442857Y-106366342D02*
X85966666Y-106366342D01*
X85966666Y-106366342D02*
X85776190Y-106461580D01*
X85776190Y-106461580D02*
X85680952Y-106556819D01*
X85680952Y-106556819D02*
X85585714Y-106747295D01*
X85585714Y-106747295D02*
X85585714Y-107223485D01*
X85585714Y-107223485D02*
X85680952Y-107413961D01*
X85680952Y-107413961D02*
X85776190Y-107509200D01*
X85776190Y-107509200D02*
X85966666Y-107604438D01*
X85966666Y-107604438D02*
X86442857Y-107604438D01*
X86442857Y-107604438D02*
X86633333Y-107509200D01*
X86633333Y-107509200D02*
X86728571Y-107413961D01*
X85014285Y-105604438D02*
X84347619Y-107604438D01*
X84347619Y-107604438D02*
X83680952Y-105604438D01*
D10*
X40952380Y-76054819D02*
X40952380Y-75054819D01*
X40952380Y-75054819D02*
X40714285Y-75054819D01*
X40714285Y-75054819D02*
X40571428Y-75102438D01*
X40571428Y-75102438D02*
X40476190Y-75197676D01*
X40476190Y-75197676D02*
X40428571Y-75292914D01*
X40428571Y-75292914D02*
X40380952Y-75483390D01*
X40380952Y-75483390D02*
X40380952Y-75626247D01*
X40380952Y-75626247D02*
X40428571Y-75816723D01*
X40428571Y-75816723D02*
X40476190Y-75911961D01*
X40476190Y-75911961D02*
X40571428Y-76007200D01*
X40571428Y-76007200D02*
X40714285Y-76054819D01*
X40714285Y-76054819D02*
X40952380Y-76054819D01*
X39952380Y-76054819D02*
X39952380Y-75388152D01*
X39952380Y-75054819D02*
X39999999Y-75102438D01*
X39999999Y-75102438D02*
X39952380Y-75150057D01*
X39952380Y-75150057D02*
X39904761Y-75102438D01*
X39904761Y-75102438D02*
X39952380Y-75054819D01*
X39952380Y-75054819D02*
X39952380Y-75150057D01*
X39476190Y-75388152D02*
X39476190Y-76054819D01*
X39476190Y-75483390D02*
X39428571Y-75435771D01*
X39428571Y-75435771D02*
X39333333Y-75388152D01*
X39333333Y-75388152D02*
X39190476Y-75388152D01*
X39190476Y-75388152D02*
X39095238Y-75435771D01*
X39095238Y-75435771D02*
X39047619Y-75531009D01*
X39047619Y-75531009D02*
X39047619Y-76054819D01*
D11*
X99638095Y-107604438D02*
X100780952Y-107604438D01*
X100209524Y-107604438D02*
X100209524Y-105604438D01*
X100209524Y-105604438D02*
X100400000Y-105890152D01*
X100400000Y-105890152D02*
X100590476Y-106080628D01*
X100590476Y-106080628D02*
X100780952Y-106175866D01*
X98876190Y-105794914D02*
X98780952Y-105699676D01*
X98780952Y-105699676D02*
X98590476Y-105604438D01*
X98590476Y-105604438D02*
X98114285Y-105604438D01*
X98114285Y-105604438D02*
X97923809Y-105699676D01*
X97923809Y-105699676D02*
X97828571Y-105794914D01*
X97828571Y-105794914D02*
X97733333Y-105985390D01*
X97733333Y-105985390D02*
X97733333Y-106175866D01*
X97733333Y-106175866D02*
X97828571Y-106461580D01*
X97828571Y-106461580D02*
X98971428Y-107604438D01*
X98971428Y-107604438D02*
X97733333Y-107604438D01*
X97161904Y-105604438D02*
X96495238Y-107604438D01*
X96495238Y-107604438D02*
X95828571Y-105604438D01*
D10*
X69957533Y-88890476D02*
X69957533Y-89500000D01*
X70262295Y-89195238D02*
X69652771Y-89195238D01*
X69462295Y-89804761D02*
X69462295Y-90299999D01*
X69462295Y-90299999D02*
X69767057Y-90033333D01*
X69767057Y-90033333D02*
X69767057Y-90147618D01*
X69767057Y-90147618D02*
X69805152Y-90223809D01*
X69805152Y-90223809D02*
X69843247Y-90261904D01*
X69843247Y-90261904D02*
X69919438Y-90299999D01*
X69919438Y-90299999D02*
X70109914Y-90299999D01*
X70109914Y-90299999D02*
X70186104Y-90261904D01*
X70186104Y-90261904D02*
X70224200Y-90223809D01*
X70224200Y-90223809D02*
X70262295Y-90147618D01*
X70262295Y-90147618D02*
X70262295Y-89919047D01*
X70262295Y-89919047D02*
X70224200Y-89842856D01*
X70224200Y-89842856D02*
X70186104Y-89804761D01*
X69462295Y-90528571D02*
X70262295Y-90795238D01*
X70262295Y-90795238D02*
X69462295Y-91061904D01*
X69462295Y-91252380D02*
X69462295Y-91747618D01*
X69462295Y-91747618D02*
X69767057Y-91480952D01*
X69767057Y-91480952D02*
X69767057Y-91595237D01*
X69767057Y-91595237D02*
X69805152Y-91671428D01*
X69805152Y-91671428D02*
X69843247Y-91709523D01*
X69843247Y-91709523D02*
X69919438Y-91747618D01*
X69919438Y-91747618D02*
X70109914Y-91747618D01*
X70109914Y-91747618D02*
X70186104Y-91709523D01*
X70186104Y-91709523D02*
X70224200Y-91671428D01*
X70224200Y-91671428D02*
X70262295Y-91595237D01*
X70262295Y-91595237D02*
X70262295Y-91366666D01*
X70262295Y-91366666D02*
X70224200Y-91290475D01*
X70224200Y-91290475D02*
X70186104Y-91252380D01*
X67000390Y-89590476D02*
X66962295Y-89514286D01*
X66962295Y-89514286D02*
X66962295Y-89400000D01*
X66962295Y-89400000D02*
X67000390Y-89285714D01*
X67000390Y-89285714D02*
X67076580Y-89209524D01*
X67076580Y-89209524D02*
X67152771Y-89171429D01*
X67152771Y-89171429D02*
X67305152Y-89133333D01*
X67305152Y-89133333D02*
X67419438Y-89133333D01*
X67419438Y-89133333D02*
X67571819Y-89171429D01*
X67571819Y-89171429D02*
X67648009Y-89209524D01*
X67648009Y-89209524D02*
X67724200Y-89285714D01*
X67724200Y-89285714D02*
X67762295Y-89400000D01*
X67762295Y-89400000D02*
X67762295Y-89476191D01*
X67762295Y-89476191D02*
X67724200Y-89590476D01*
X67724200Y-89590476D02*
X67686104Y-89628572D01*
X67686104Y-89628572D02*
X67419438Y-89628572D01*
X67419438Y-89628572D02*
X67419438Y-89476191D01*
X67762295Y-89971429D02*
X66962295Y-89971429D01*
X66962295Y-89971429D02*
X67762295Y-90428572D01*
X67762295Y-90428572D02*
X66962295Y-90428572D01*
X67762295Y-90809524D02*
X66962295Y-90809524D01*
X66962295Y-90809524D02*
X66962295Y-91000000D01*
X66962295Y-91000000D02*
X67000390Y-91114286D01*
X67000390Y-91114286D02*
X67076580Y-91190476D01*
X67076580Y-91190476D02*
X67152771Y-91228571D01*
X67152771Y-91228571D02*
X67305152Y-91266667D01*
X67305152Y-91266667D02*
X67419438Y-91266667D01*
X67419438Y-91266667D02*
X67571819Y-91228571D01*
X67571819Y-91228571D02*
X67648009Y-91190476D01*
X67648009Y-91190476D02*
X67724200Y-91114286D01*
X67724200Y-91114286D02*
X67762295Y-91000000D01*
X67762295Y-91000000D02*
X67762295Y-90809524D01*
D12*
X92954761Y-76727947D02*
X92954761Y-74227947D01*
X91407143Y-76727947D02*
X91645238Y-76608900D01*
X91645238Y-76608900D02*
X91764285Y-76489852D01*
X91764285Y-76489852D02*
X91883333Y-76251757D01*
X91883333Y-76251757D02*
X91883333Y-75537471D01*
X91883333Y-75537471D02*
X91764285Y-75299376D01*
X91764285Y-75299376D02*
X91645238Y-75180328D01*
X91645238Y-75180328D02*
X91407143Y-75061280D01*
X91407143Y-75061280D02*
X91050000Y-75061280D01*
X91050000Y-75061280D02*
X90811904Y-75180328D01*
X90811904Y-75180328D02*
X90692857Y-75299376D01*
X90692857Y-75299376D02*
X90573809Y-75537471D01*
X90573809Y-75537471D02*
X90573809Y-76251757D01*
X90573809Y-76251757D02*
X90692857Y-76489852D01*
X90692857Y-76489852D02*
X90811904Y-76608900D01*
X90811904Y-76608900D02*
X91050000Y-76727947D01*
X91050000Y-76727947D02*
X91407143Y-76727947D01*
X89859523Y-74227947D02*
X88430952Y-74227947D01*
X89145238Y-76727947D02*
X89145238Y-74227947D01*
X84502380Y-76727947D02*
X85692856Y-76727947D01*
X85692856Y-76727947D02*
X85692856Y-74227947D01*
X83669046Y-75418423D02*
X82835713Y-75418423D01*
X82478570Y-76727947D02*
X83669046Y-76727947D01*
X83669046Y-76727947D02*
X83669046Y-74227947D01*
X83669046Y-74227947D02*
X82478570Y-74227947D01*
X81407141Y-76727947D02*
X81407141Y-74227947D01*
X81407141Y-74227947D02*
X80811903Y-74227947D01*
X80811903Y-74227947D02*
X80454760Y-74346995D01*
X80454760Y-74346995D02*
X80216665Y-74585090D01*
X80216665Y-74585090D02*
X80097618Y-74823185D01*
X80097618Y-74823185D02*
X79978570Y-75299376D01*
X79978570Y-75299376D02*
X79978570Y-75656519D01*
X79978570Y-75656519D02*
X80097618Y-76132709D01*
X80097618Y-76132709D02*
X80216665Y-76370804D01*
X80216665Y-76370804D02*
X80454760Y-76608900D01*
X80454760Y-76608900D02*
X80811903Y-76727947D01*
X80811903Y-76727947D02*
X81407141Y-76727947D01*
X77121427Y-76608900D02*
X76764284Y-76727947D01*
X76764284Y-76727947D02*
X76169046Y-76727947D01*
X76169046Y-76727947D02*
X75930951Y-76608900D01*
X75930951Y-76608900D02*
X75811903Y-76489852D01*
X75811903Y-76489852D02*
X75692856Y-76251757D01*
X75692856Y-76251757D02*
X75692856Y-76013661D01*
X75692856Y-76013661D02*
X75811903Y-75775566D01*
X75811903Y-75775566D02*
X75930951Y-75656519D01*
X75930951Y-75656519D02*
X76169046Y-75537471D01*
X76169046Y-75537471D02*
X76645237Y-75418423D01*
X76645237Y-75418423D02*
X76883332Y-75299376D01*
X76883332Y-75299376D02*
X77002379Y-75180328D01*
X77002379Y-75180328D02*
X77121427Y-74942233D01*
X77121427Y-74942233D02*
X77121427Y-74704138D01*
X77121427Y-74704138D02*
X77002379Y-74466042D01*
X77002379Y-74466042D02*
X76883332Y-74346995D01*
X76883332Y-74346995D02*
X76645237Y-74227947D01*
X76645237Y-74227947D02*
X76049998Y-74227947D01*
X76049998Y-74227947D02*
X75692856Y-74346995D01*
X74978570Y-75061280D02*
X74026189Y-75061280D01*
X74621427Y-74227947D02*
X74621427Y-76370804D01*
X74621427Y-76370804D02*
X74502380Y-76608900D01*
X74502380Y-76608900D02*
X74264285Y-76727947D01*
X74264285Y-76727947D02*
X74026189Y-76727947D01*
X73192856Y-76727947D02*
X73192856Y-75061280D01*
X73192856Y-75537471D02*
X73073809Y-75299376D01*
X73073809Y-75299376D02*
X72954761Y-75180328D01*
X72954761Y-75180328D02*
X72716666Y-75061280D01*
X72716666Y-75061280D02*
X72478571Y-75061280D01*
X71645237Y-76727947D02*
X71645237Y-75061280D01*
X71645237Y-74227947D02*
X71764285Y-74346995D01*
X71764285Y-74346995D02*
X71645237Y-74466042D01*
X71645237Y-74466042D02*
X71526190Y-74346995D01*
X71526190Y-74346995D02*
X71645237Y-74227947D01*
X71645237Y-74227947D02*
X71645237Y-74466042D01*
X70454761Y-75061280D02*
X70454761Y-77561280D01*
X70454761Y-75180328D02*
X70216666Y-75061280D01*
X70216666Y-75061280D02*
X69740476Y-75061280D01*
X69740476Y-75061280D02*
X69502380Y-75180328D01*
X69502380Y-75180328D02*
X69383333Y-75299376D01*
X69383333Y-75299376D02*
X69264285Y-75537471D01*
X69264285Y-75537471D02*
X69264285Y-76251757D01*
X69264285Y-76251757D02*
X69383333Y-76489852D01*
X69383333Y-76489852D02*
X69502380Y-76608900D01*
X69502380Y-76608900D02*
X69740476Y-76727947D01*
X69740476Y-76727947D02*
X70216666Y-76727947D01*
X70216666Y-76727947D02*
X70454761Y-76608900D01*
X66288094Y-76727947D02*
X66288094Y-74227947D01*
X66288094Y-74227947D02*
X65692856Y-74227947D01*
X65692856Y-74227947D02*
X65335713Y-74346995D01*
X65335713Y-74346995D02*
X65097618Y-74585090D01*
X65097618Y-74585090D02*
X64978571Y-74823185D01*
X64978571Y-74823185D02*
X64859523Y-75299376D01*
X64859523Y-75299376D02*
X64859523Y-75656519D01*
X64859523Y-75656519D02*
X64978571Y-76132709D01*
X64978571Y-76132709D02*
X65097618Y-76370804D01*
X65097618Y-76370804D02*
X65335713Y-76608900D01*
X65335713Y-76608900D02*
X65692856Y-76727947D01*
X65692856Y-76727947D02*
X66288094Y-76727947D01*
X63788094Y-76727947D02*
X63788094Y-75061280D01*
X63788094Y-75537471D02*
X63669047Y-75299376D01*
X63669047Y-75299376D02*
X63549999Y-75180328D01*
X63549999Y-75180328D02*
X63311904Y-75061280D01*
X63311904Y-75061280D02*
X63073809Y-75061280D01*
X62240475Y-76727947D02*
X62240475Y-75061280D01*
X62240475Y-74227947D02*
X62359523Y-74346995D01*
X62359523Y-74346995D02*
X62240475Y-74466042D01*
X62240475Y-74466042D02*
X62121428Y-74346995D01*
X62121428Y-74346995D02*
X62240475Y-74227947D01*
X62240475Y-74227947D02*
X62240475Y-74466042D01*
X61288095Y-75061280D02*
X60692857Y-76727947D01*
X60692857Y-76727947D02*
X60097618Y-75061280D01*
X58192856Y-76608900D02*
X58430952Y-76727947D01*
X58430952Y-76727947D02*
X58907142Y-76727947D01*
X58907142Y-76727947D02*
X59145237Y-76608900D01*
X59145237Y-76608900D02*
X59264285Y-76370804D01*
X59264285Y-76370804D02*
X59264285Y-75418423D01*
X59264285Y-75418423D02*
X59145237Y-75180328D01*
X59145237Y-75180328D02*
X58907142Y-75061280D01*
X58907142Y-75061280D02*
X58430952Y-75061280D01*
X58430952Y-75061280D02*
X58192856Y-75180328D01*
X58192856Y-75180328D02*
X58073809Y-75418423D01*
X58073809Y-75418423D02*
X58073809Y-75656519D01*
X58073809Y-75656519D02*
X59264285Y-75894614D01*
X57002380Y-76727947D02*
X57002380Y-75061280D01*
X57002380Y-75537471D02*
X56883333Y-75299376D01*
X56883333Y-75299376D02*
X56764285Y-75180328D01*
X56764285Y-75180328D02*
X56526190Y-75061280D01*
X56526190Y-75061280D02*
X56288095Y-75061280D01*
D10*
X72724200Y-89128571D02*
X72762295Y-89242857D01*
X72762295Y-89242857D02*
X72762295Y-89433333D01*
X72762295Y-89433333D02*
X72724200Y-89509524D01*
X72724200Y-89509524D02*
X72686104Y-89547619D01*
X72686104Y-89547619D02*
X72609914Y-89585714D01*
X72609914Y-89585714D02*
X72533723Y-89585714D01*
X72533723Y-89585714D02*
X72457533Y-89547619D01*
X72457533Y-89547619D02*
X72419438Y-89509524D01*
X72419438Y-89509524D02*
X72381342Y-89433333D01*
X72381342Y-89433333D02*
X72343247Y-89280952D01*
X72343247Y-89280952D02*
X72305152Y-89204762D01*
X72305152Y-89204762D02*
X72267057Y-89166667D01*
X72267057Y-89166667D02*
X72190866Y-89128571D01*
X72190866Y-89128571D02*
X72114676Y-89128571D01*
X72114676Y-89128571D02*
X72038485Y-89166667D01*
X72038485Y-89166667D02*
X72000390Y-89204762D01*
X72000390Y-89204762D02*
X71962295Y-89280952D01*
X71962295Y-89280952D02*
X71962295Y-89471429D01*
X71962295Y-89471429D02*
X72000390Y-89585714D01*
X72762295Y-89928572D02*
X71962295Y-89928572D01*
X71962295Y-89928572D02*
X71962295Y-90119048D01*
X71962295Y-90119048D02*
X72000390Y-90233334D01*
X72000390Y-90233334D02*
X72076580Y-90309524D01*
X72076580Y-90309524D02*
X72152771Y-90347619D01*
X72152771Y-90347619D02*
X72305152Y-90385715D01*
X72305152Y-90385715D02*
X72419438Y-90385715D01*
X72419438Y-90385715D02*
X72571819Y-90347619D01*
X72571819Y-90347619D02*
X72648009Y-90309524D01*
X72648009Y-90309524D02*
X72724200Y-90233334D01*
X72724200Y-90233334D02*
X72762295Y-90119048D01*
X72762295Y-90119048D02*
X72762295Y-89928572D01*
X72533723Y-90690476D02*
X72533723Y-91071429D01*
X72762295Y-90614286D02*
X71962295Y-90880953D01*
X71962295Y-90880953D02*
X72762295Y-91147619D01*
X40090476Y-77654819D02*
X40566666Y-77654819D01*
X40566666Y-77654819D02*
X40614285Y-78131009D01*
X40614285Y-78131009D02*
X40566666Y-78083390D01*
X40566666Y-78083390D02*
X40471428Y-78035771D01*
X40471428Y-78035771D02*
X40233333Y-78035771D01*
X40233333Y-78035771D02*
X40138095Y-78083390D01*
X40138095Y-78083390D02*
X40090476Y-78131009D01*
X40090476Y-78131009D02*
X40042857Y-78226247D01*
X40042857Y-78226247D02*
X40042857Y-78464342D01*
X40042857Y-78464342D02*
X40090476Y-78559580D01*
X40090476Y-78559580D02*
X40138095Y-78607200D01*
X40138095Y-78607200D02*
X40233333Y-78654819D01*
X40233333Y-78654819D02*
X40471428Y-78654819D01*
X40471428Y-78654819D02*
X40566666Y-78607200D01*
X40566666Y-78607200D02*
X40614285Y-78559580D01*
X39757142Y-77654819D02*
X39423809Y-78654819D01*
X39423809Y-78654819D02*
X39090476Y-77654819D01*
X39338095Y-93302438D02*
X39433333Y-93254819D01*
X39433333Y-93254819D02*
X39576190Y-93254819D01*
X39576190Y-93254819D02*
X39719047Y-93302438D01*
X39719047Y-93302438D02*
X39814285Y-93397676D01*
X39814285Y-93397676D02*
X39861904Y-93492914D01*
X39861904Y-93492914D02*
X39909523Y-93683390D01*
X39909523Y-93683390D02*
X39909523Y-93826247D01*
X39909523Y-93826247D02*
X39861904Y-94016723D01*
X39861904Y-94016723D02*
X39814285Y-94111961D01*
X39814285Y-94111961D02*
X39719047Y-94207200D01*
X39719047Y-94207200D02*
X39576190Y-94254819D01*
X39576190Y-94254819D02*
X39480952Y-94254819D01*
X39480952Y-94254819D02*
X39338095Y-94207200D01*
X39338095Y-94207200D02*
X39290476Y-94159580D01*
X39290476Y-94159580D02*
X39290476Y-93826247D01*
X39290476Y-93826247D02*
X39480952Y-93826247D01*
%TO.C,G\u002A\u002A\u002A*%
G36*
X98962115Y-72460150D02*
G01*
X99120331Y-72584603D01*
X99120331Y-73746808D01*
X99120331Y-74909014D01*
X98962115Y-75033466D01*
X98957947Y-75036718D01*
X98817594Y-75122429D01*
X98700000Y-75157919D01*
X98697232Y-75157877D01*
X98577880Y-75120280D01*
X98437885Y-75033466D01*
X98279669Y-74909014D01*
X98279669Y-73746808D01*
X98279669Y-72584603D01*
X98437885Y-72460150D01*
X98612121Y-72357444D01*
X98778843Y-72354554D01*
X98962115Y-72460150D01*
G37*
G36*
X98829269Y-76572630D02*
G01*
X98966808Y-76672462D01*
X99051159Y-76856927D01*
X99026916Y-77023649D01*
X98888903Y-77159111D01*
X98639074Y-77259811D01*
X98492044Y-77311364D01*
X98399041Y-77398321D01*
X98339818Y-77559436D01*
X98328158Y-77597784D01*
X98245741Y-77770428D01*
X98144491Y-77887872D01*
X98039839Y-77947770D01*
X97933319Y-77980141D01*
X97830433Y-77938295D01*
X97705659Y-77829121D01*
X97603073Y-77694766D01*
X97561738Y-77577552D01*
X97574239Y-77480641D01*
X97638005Y-77266164D01*
X97734222Y-77048802D01*
X97838617Y-76888926D01*
X97926670Y-76804579D01*
X98146195Y-76663218D01*
X98389467Y-76573667D01*
X98626990Y-76541584D01*
X98829269Y-76572630D01*
G37*
G36*
X102047876Y-73109101D02*
G01*
X102155448Y-73203653D01*
X102202957Y-73253418D01*
X102278567Y-73357303D01*
X102307088Y-73462676D01*
X102281705Y-73582911D01*
X102195598Y-73731381D01*
X102041949Y-73921459D01*
X101813941Y-74166518D01*
X101504754Y-74479931D01*
X101389670Y-74594734D01*
X101129925Y-74850067D01*
X100934191Y-75033922D01*
X100788600Y-75157471D01*
X100679280Y-75231888D01*
X100592362Y-75268344D01*
X100513974Y-75278014D01*
X100485505Y-75277213D01*
X100276060Y-75212706D01*
X100133639Y-75061062D01*
X100081088Y-74845128D01*
X100082251Y-74816246D01*
X100100527Y-74736319D01*
X100149724Y-74642730D01*
X100241015Y-74521609D01*
X100385571Y-74359085D01*
X100594565Y-74141288D01*
X100879171Y-73854347D01*
X101029353Y-73704898D01*
X101310388Y-73433042D01*
X101529080Y-73239300D01*
X101698802Y-73116852D01*
X101832926Y-73058882D01*
X101944827Y-73058571D01*
X102047876Y-73109101D01*
G37*
G36*
X95623810Y-73077397D02*
G01*
X95772280Y-73163504D01*
X95962358Y-73317152D01*
X96207417Y-73545161D01*
X96520830Y-73854347D01*
X96635633Y-73969431D01*
X96890966Y-74229177D01*
X97074821Y-74424910D01*
X97198370Y-74570502D01*
X97272787Y-74679822D01*
X97309243Y-74766740D01*
X97318913Y-74845128D01*
X97292812Y-74996238D01*
X97198818Y-75157919D01*
X97079028Y-75235829D01*
X96886027Y-75278014D01*
X96857145Y-75276851D01*
X96777218Y-75258574D01*
X96683629Y-75209377D01*
X96562508Y-75118087D01*
X96399984Y-74973531D01*
X96182187Y-74764536D01*
X95895246Y-74479931D01*
X95745797Y-74329749D01*
X95473941Y-74048714D01*
X95280199Y-73830022D01*
X95157751Y-73660300D01*
X95099781Y-73526175D01*
X95099470Y-73414275D01*
X95150000Y-73311225D01*
X95244552Y-73203653D01*
X95294317Y-73156144D01*
X95398202Y-73080535D01*
X95503575Y-73052013D01*
X95623810Y-73077397D01*
G37*
G36*
X100981797Y-80987964D02*
G01*
X100834408Y-81135353D01*
X100775941Y-81187614D01*
X100625389Y-81262125D01*
X100414077Y-81282742D01*
X100141135Y-81282742D01*
X100141135Y-82060531D01*
X100139699Y-82279654D01*
X100127530Y-82611611D01*
X100099513Y-82851168D01*
X100051520Y-83016188D01*
X99979420Y-83124535D01*
X99879084Y-83194072D01*
X99735558Y-83246675D01*
X99557091Y-83236442D01*
X99387815Y-83116913D01*
X99371211Y-83100123D01*
X99317677Y-83037299D01*
X99281180Y-82963868D01*
X99258464Y-82857933D01*
X99246271Y-82697597D01*
X99241344Y-82460963D01*
X99240426Y-82126133D01*
X99240426Y-81282742D01*
X98669977Y-81282742D01*
X98099528Y-81282742D01*
X98099528Y-82126133D01*
X98099495Y-82221175D01*
X98097871Y-82529136D01*
X98091417Y-82744432D01*
X98076874Y-82888961D01*
X98050985Y-82984620D01*
X98010492Y-83053305D01*
X97952139Y-83116913D01*
X97952019Y-83117033D01*
X97779491Y-83239234D01*
X97608091Y-83246543D01*
X97417082Y-83139849D01*
X97379828Y-83109959D01*
X97328970Y-83058585D01*
X97294838Y-82991551D01*
X97274097Y-82887969D01*
X97263412Y-82726952D01*
X97259446Y-82487615D01*
X97258866Y-82149069D01*
X97258866Y-81282742D01*
X96995305Y-81282742D01*
X96791475Y-81260471D01*
X96589986Y-81168021D01*
X96448227Y-81053300D01*
X96442413Y-80442080D01*
X97258866Y-80442080D01*
X98700000Y-80442080D01*
X100141135Y-80442080D01*
X100140800Y-78955910D01*
X100140397Y-78780842D01*
X100135753Y-78329377D01*
X100126402Y-77933189D01*
X100112952Y-77608477D01*
X100096013Y-77371439D01*
X100076195Y-77238275D01*
X100034612Y-77132668D01*
X99918513Y-76933888D01*
X99771556Y-76746042D01*
X99713389Y-76686348D01*
X99391136Y-76449452D01*
X99029824Y-76312518D01*
X98650800Y-76275395D01*
X98275415Y-76337929D01*
X97925020Y-76499969D01*
X97620963Y-76761364D01*
X97521253Y-76886754D01*
X97394343Y-77084990D01*
X97319959Y-77252208D01*
X97308230Y-77322680D01*
X97292508Y-77513703D01*
X97279050Y-77792002D01*
X97268550Y-78138114D01*
X97261702Y-78532572D01*
X97259200Y-78955910D01*
X97258866Y-80442080D01*
X96442413Y-80442080D01*
X96430699Y-79210485D01*
X96427180Y-78787399D01*
X96425350Y-78327458D01*
X96427167Y-77961813D01*
X96433161Y-77675841D01*
X96443863Y-77454922D01*
X96459801Y-77284435D01*
X96481507Y-77149759D01*
X96509510Y-77036272D01*
X96646761Y-76675034D01*
X96916442Y-76248176D01*
X97281180Y-75894116D01*
X97739244Y-75614859D01*
X97862957Y-75557383D01*
X98040005Y-75488528D01*
X98210384Y-75449505D01*
X98416310Y-75432108D01*
X98700000Y-75428132D01*
X98797778Y-75428481D01*
X99060846Y-75436736D01*
X99257201Y-75461424D01*
X99427770Y-75509749D01*
X99613481Y-75588914D01*
X99630641Y-75597003D01*
X100023602Y-75816864D01*
X100331858Y-76071550D01*
X100589356Y-76388889D01*
X100650778Y-76481283D01*
X100742585Y-76634811D01*
X100815750Y-76789939D01*
X100872366Y-76961478D01*
X100914527Y-77164238D01*
X100944328Y-77413029D01*
X100963861Y-77722659D01*
X100975222Y-78107940D01*
X100980502Y-78583681D01*
X100981797Y-79164692D01*
X100981797Y-80442080D01*
X100981797Y-80987964D01*
G37*
%TD*%
%LPC*%
D13*
%TO.C,J4*%
X37500000Y-96500000D03*
D14*
X37500000Y-93960000D03*
X37500000Y-91420000D03*
X37500000Y-88880000D03*
%TD*%
D13*
%TO.C,JP4*%
X45800000Y-70800000D03*
D14*
X43260000Y-70800000D03*
%TD*%
D13*
%TO.C,J5*%
X67360000Y-87400000D03*
D14*
X69900000Y-87400000D03*
X72440000Y-87400000D03*
X74980000Y-87400000D03*
%TD*%
D15*
%TO.C,J3*%
X85350000Y-95650000D03*
D16*
X85350000Y-101950000D03*
D17*
X90150000Y-98550000D03*
%TD*%
D18*
%TO.C,H4*%
X107600000Y-105000000D03*
X108302944Y-103302944D03*
X108302944Y-106697056D03*
X110000000Y-102600000D03*
D19*
X110000000Y-105000000D03*
D18*
X110000000Y-107400000D03*
X111697056Y-103302944D03*
X111697056Y-106697056D03*
X112400000Y-105000000D03*
%TD*%
D13*
%TO.C,J7*%
X37500000Y-78200000D03*
D14*
X37500000Y-75660000D03*
X37500000Y-73120000D03*
%TD*%
D18*
%TO.C,H1*%
X37600000Y-65000000D03*
X38302944Y-63302944D03*
X38302944Y-66697056D03*
X40000000Y-62600000D03*
D19*
X40000000Y-65000000D03*
D18*
X40000000Y-67400000D03*
X41697056Y-63302944D03*
X41697056Y-66697056D03*
X42400000Y-65000000D03*
%TD*%
%TO.C,H3*%
X37600000Y-105000000D03*
X38302944Y-103302944D03*
X38302944Y-106697056D03*
X40000000Y-102600000D03*
D19*
X40000000Y-105000000D03*
D18*
X40000000Y-107400000D03*
X41697056Y-103302944D03*
X41697056Y-106697056D03*
X42400000Y-105000000D03*
%TD*%
%TO.C,H2*%
X107600000Y-65000000D03*
X108302944Y-63302944D03*
X108302944Y-66697056D03*
X110000000Y-62600000D03*
D19*
X110000000Y-65000000D03*
D18*
X110000000Y-67400000D03*
X111697056Y-63302944D03*
X111697056Y-66697056D03*
X112400000Y-65000000D03*
%TD*%
D13*
%TO.C,JP1*%
X110644881Y-88095117D03*
D14*
X110644881Y-85555117D03*
%TD*%
D20*
%TO.C,J1*%
X108619939Y-80649987D03*
X108619939Y-74860046D03*
D21*
X108120066Y-82070104D03*
X108120066Y-73430023D03*
D22*
X112300152Y-73430023D03*
X112300152Y-82070104D03*
%TD*%
D15*
%TO.C,J2*%
X98350000Y-95650000D03*
D16*
X98350000Y-101950000D03*
D17*
X103150000Y-98550000D03*
%TD*%
%LPD*%
M02*
